<?xml version="1.0" encoding="utf-8" standalone="no"?>
<!DOCTYPE svg PUBLIC "-//W3C//DTD SVG 1.1//EN"
  "http://www.w3.org/Graphics/SVG/1.1/DTD/svg11.dtd">
<svg xmlns:xlink="http://www.w3.org/1999/xlink" width="432pt" height="360pt" viewBox="0 0 432 360" xmlns="http://www.w3.org/2000/svg" version="1.1">
 <metadata>
  <rdf:RDF xmlns:dc="http://purl.org/dc/elements/1.1/" xmlns:cc="http://creativecommons.org/ns#" xmlns:rdf="http://www.w3.org/1999/02/22-rdf-syntax-ns#">
   <cc:Work>
    <dc:type rdf:resource="http://purl.org/dc/dcmitype/StillImage"/>
    <dc:date>2025-04-01T22:54:00.552402</dc:date>
    <dc:format>image/svg+xml</dc:format>
    <dc:creator>
     <cc:Agent>
      <dc:title>Matplotlib v3.9.4, https://matplotlib.org/</dc:title>
     </cc:Agent>
    </dc:creator>
   </cc:Work>
  </rdf:RDF>
 </metadata>
 <defs>
  <style type="text/css">*{stroke-linejoin: round; stroke-linecap: butt}</style>
 </defs>
 <g id="figure_1">
  <g id="patch_1">
   <path d="M 0 360 
L 432 360 
L 432 0 
L 0 0 
z
" style="fill: #ffffff"/>
  </g>
  <g id="axes_1">
   <g id="patch_2">
    <path d="M 46.5275 320.3575 
L 421.2 320.3575 
L 421.2 10.8 
L 46.5275 10.8 
z
" style="fill: #ffffff"/>
   </g>
   <g id="matplotlib.axis_1">
    <g id="xtick_1">
     <g id="line2d_1">
      <path d="M 63.558068 320.3575 
L 63.558068 10.8 
" clip-path="url(#p744fac6127)" style="fill: none; stroke: #b0b0b0; stroke-opacity: 0.3; stroke-width: 0.8; stroke-linecap: square"/>
     </g>
     <g id="line2d_2">
      <defs>
       <path id="me8debb27d1" d="M 0 0 
L 0 3.5 
" style="stroke: #000000; stroke-width: 0.8"/>
      </defs>
      <g>
       <use xlink:href="#me8debb27d1" x="63.558068" y="320.3575" style="stroke: #000000; stroke-width: 0.8"/>
      </g>
     </g>
     <g id="text_1">
      <!-- 0 -->
      <g transform="translate(61.058068 334.2325) scale(0.1 -0.1)">
       <defs>
        <path id="UMingCN-30" d="M 691 997 
Q 313 1581 313 2406 
Q 313 3231 691 3815 
Q 1069 4400 1600 4400 
Q 2131 4400 2509 3815 
Q 2888 3231 2888 2406 
Q 2888 1581 2509 997 
Q 2131 413 1600 413 
Q 1069 413 691 997 
z
M 919 3690 
Q 638 3156 638 2406 
Q 638 1656 919 1122 
Q 1200 588 1600 588 
Q 2000 588 2281 1122 
Q 2563 1656 2563 2406 
Q 2563 3156 2281 3690 
Q 2000 4225 1600 4225 
Q 1200 4225 919 3690 
z
" transform="scale(0.015625)"/>
       </defs>
       <use xlink:href="#UMingCN-30"/>
      </g>
     </g>
    </g>
    <g id="xtick_2">
     <g id="line2d_3">
      <path d="M 106.673431 320.3575 
L 106.673431 10.8 
" clip-path="url(#p744fac6127)" style="fill: none; stroke: #b0b0b0; stroke-opacity: 0.3; stroke-width: 0.8; stroke-linecap: square"/>
     </g>
     <g id="line2d_4">
      <g>
       <use xlink:href="#me8debb27d1" x="106.673431" y="320.3575" style="stroke: #000000; stroke-width: 0.8"/>
      </g>
     </g>
     <g id="text_2">
      <!-- 1 -->
      <g transform="translate(104.173431 334.2325) scale(0.1 -0.1)">
       <defs>
        <path id="UMingCN-31" d="M 1806 994 
Q 1806 581 2519 581 
L 2519 475 
L 756 475 
L 756 581 
Q 1481 581 1481 994 
L 1481 3631 
Q 1481 3963 681 3963 
L 681 4069 
L 1738 4338 
L 1806 4338 
L 1806 994 
z
" transform="scale(0.015625)"/>
       </defs>
       <use xlink:href="#UMingCN-31"/>
      </g>
     </g>
    </g>
    <g id="xtick_3">
     <g id="line2d_5">
      <path d="M 149.788793 320.3575 
L 149.788793 10.8 
" clip-path="url(#p744fac6127)" style="fill: none; stroke: #b0b0b0; stroke-opacity: 0.3; stroke-width: 0.8; stroke-linecap: square"/>
     </g>
     <g id="line2d_6">
      <g>
       <use xlink:href="#me8debb27d1" x="149.788793" y="320.3575" style="stroke: #000000; stroke-width: 0.8"/>
      </g>
     </g>
     <g id="text_3">
      <!-- 2 -->
      <g transform="translate(147.288793 334.2325) scale(0.1 -0.1)">
       <defs>
        <path id="UMingCN-32" d="M 531 475 
L 319 475 
Q 319 975 606 1300 
Q 900 1694 1744 2281 
Q 2594 2844 2594 3319 
Q 2594 3738 2250 4006 
Q 1969 4225 1594 4225 
Q 1225 4225 994 4094 
Q 725 3938 700 3819 
Q 675 3706 731 3606 
Q 794 3488 794 3313 
Q 794 3256 731 3194 
Q 669 3131 588 3131 
Q 481 3131 406 3206 
Q 331 3288 331 3406 
Q 331 3788 719 4106 
Q 1081 4400 1594 4400 
Q 2206 4400 2556 4088 
Q 2919 3750 2919 3319 
Q 2919 2775 1825 2113 
Q 1088 1638 819 1294 
Q 606 1075 550 756 
L 1831 756 
Q 2469 756 2806 1244 
L 2881 1213 
L 2613 475 
L 531 475 
z
" transform="scale(0.015625)"/>
       </defs>
       <use xlink:href="#UMingCN-32"/>
      </g>
     </g>
    </g>
    <g id="xtick_4">
     <g id="line2d_7">
      <path d="M 192.904156 320.3575 
L 192.904156 10.8 
" clip-path="url(#p744fac6127)" style="fill: none; stroke: #b0b0b0; stroke-opacity: 0.3; stroke-width: 0.8; stroke-linecap: square"/>
     </g>
     <g id="line2d_8">
      <g>
       <use xlink:href="#me8debb27d1" x="192.904156" y="320.3575" style="stroke: #000000; stroke-width: 0.8"/>
      </g>
     </g>
     <g id="text_4">
      <!-- 3 -->
      <g transform="translate(190.404156 334.2325) scale(0.1 -0.1)">
       <defs>
        <path id="UMingCN-33" d="M 2875 1463 
Q 2875 981 2481 675 
Q 2106 413 1613 413 
Q 1019 413 656 719 
Q 325 1000 325 1344 
Q 325 1456 390 1518 
Q 456 1581 550 1581 
Q 631 1581 693 1512 
Q 756 1444 756 1344 
Q 750 1250 706 1188 
Q 663 1125 663 1025 
Q 663 900 956 738 
Q 1225 588 1613 588 
Q 1975 588 2281 806 
Q 2550 1000 2550 1463 
Q 2550 1906 2275 2131 
Q 2038 2325 1656 2325 
Q 1569 2325 1494 2281 
Q 1400 2231 1344 2231 
Q 1163 2238 1163 2413 
Q 1163 2581 1344 2581 
Q 1419 2581 1500 2538 
Q 1575 2500 1656 2500 
Q 1825 2500 2113 2725 
Q 2425 2975 2425 3413 
Q 2425 3825 2156 4031 
Q 1900 4225 1594 4225 
Q 1213 4225 963 4025 
Q 738 3844 819 3713 
Q 894 3588 894 3450 
Q 894 3350 831 3275 
Q 775 3206 681 3206 
Q 594 3206 531 3275 
Q 463 3350 463 3450 
Q 463 3838 825 4125 
Q 1138 4400 1594 4400 
Q 2131 4400 2413 4138 
Q 2750 3825 2750 3413 
Q 2750 2831 2175 2544 
Q 2075 2494 2000 2450 
Q 2119 2419 2250 2375 
Q 2875 2156 2875 1463 
z
" transform="scale(0.015625)"/>
       </defs>
       <use xlink:href="#UMingCN-33"/>
      </g>
     </g>
    </g>
    <g id="xtick_5">
     <g id="line2d_9">
      <path d="M 236.019518 320.3575 
L 236.019518 10.8 
" clip-path="url(#p744fac6127)" style="fill: none; stroke: #b0b0b0; stroke-opacity: 0.3; stroke-width: 0.8; stroke-linecap: square"/>
     </g>
     <g id="line2d_10">
      <g>
       <use xlink:href="#me8debb27d1" x="236.019518" y="320.3575" style="stroke: #000000; stroke-width: 0.8"/>
      </g>
     </g>
     <g id="text_5">
      <!-- 4 -->
      <g transform="translate(233.519518 334.2325) scale(0.1 -0.1)">
       <defs>
        <path id="UMingCN-34" d="M 2263 1538 
L 2994 1538 
L 2994 1294 
L 2263 1294 
L 2263 938 
Q 2263 581 2844 581 
L 2844 475 
L 1375 475 
L 1375 581 
Q 1956 581 1956 938 
L 1956 1294 
L 206 1294 
L 206 1581 
L 2119 4338 
L 2263 4338 
L 2263 1538 
z
M 1956 1538 
L 1956 3894 
L 350 1538 
L 1956 1538 
z
" transform="scale(0.015625)"/>
       </defs>
       <use xlink:href="#UMingCN-34"/>
      </g>
     </g>
    </g>
    <g id="xtick_6">
     <g id="line2d_11">
      <path d="M 279.134881 320.3575 
L 279.134881 10.8 
" clip-path="url(#p744fac6127)" style="fill: none; stroke: #b0b0b0; stroke-opacity: 0.3; stroke-width: 0.8; stroke-linecap: square"/>
     </g>
     <g id="line2d_12">
      <g>
       <use xlink:href="#me8debb27d1" x="279.134881" y="320.3575" style="stroke: #000000; stroke-width: 0.8"/>
      </g>
     </g>
     <g id="text_6">
      <!-- 5 -->
      <g transform="translate(276.634881 334.2325) scale(0.1 -0.1)">
       <defs>
        <path id="UMingCN-35" d="M 2688 4338 
L 2550 4025 
L 750 4025 
L 750 2519 
Q 1138 2819 1688 2819 
Q 2156 2819 2481 2544 
Q 2900 2188 2900 1544 
Q 2900 1019 2488 694 
Q 2131 413 1588 413 
Q 1088 413 625 713 
Q 306 919 306 1169 
Q 306 1288 369 1338 
Q 438 1394 519 1394 
Q 594 1394 669 1319 
Q 738 1250 738 1169 
Q 738 1106 700 1069 
Q 669 1038 669 956 
Q 669 894 919 744 
Q 1188 588 1588 588 
Q 1963 588 2238 813 
Q 2575 1088 2575 1544 
Q 2575 2069 2206 2356 
Q 1925 2575 1525 2575 
Q 1150 2575 694 2375 
L 644 2425 
L 644 4338 
L 2688 4338 
z
" transform="scale(0.015625)"/>
       </defs>
       <use xlink:href="#UMingCN-35"/>
      </g>
     </g>
    </g>
    <g id="xtick_7">
     <g id="line2d_13">
      <path d="M 322.250243 320.3575 
L 322.250243 10.8 
" clip-path="url(#p744fac6127)" style="fill: none; stroke: #b0b0b0; stroke-opacity: 0.3; stroke-width: 0.8; stroke-linecap: square"/>
     </g>
     <g id="line2d_14">
      <g>
       <use xlink:href="#me8debb27d1" x="322.250243" y="320.3575" style="stroke: #000000; stroke-width: 0.8"/>
      </g>
     </g>
     <g id="text_7">
      <!-- 6 -->
      <g transform="translate(319.750243 334.2325) scale(0.1 -0.1)">
       <defs>
        <path id="UMingCN-36" d="M 775 3769 
Q 1194 4400 1850 4400 
Q 2175 4400 2463 4194 
Q 2756 3988 2756 3706 
Q 2756 3619 2681 3556 
Q 2613 3506 2550 3506 
Q 2469 3506 2413 3563 
Q 2350 3625 2350 3706 
Q 2350 3831 2388 3913 
Q 2419 3988 2256 4119 
Q 2075 4263 1850 4263 
Q 1400 4263 1038 3775 
Q 675 3281 638 2344 
Q 1288 2906 1831 2913 
Q 2231 2913 2544 2625 
Q 2894 2313 2894 1631 
Q 2894 1094 2513 738 
Q 2163 413 1638 413 
Q 1075 413 681 881 
Q 313 1319 313 2088 
Q 313 3069 775 3769 
z
M 638 2088 
Q 638 1294 925 938 
Q 1225 588 1638 588 
Q 2025 588 2313 831 
Q 2569 1081 2569 1631 
Q 2569 2194 2338 2425 
Q 2100 2663 1700 2663 
Q 1338 2663 638 2144 
Q 638 2113 638 2088 
z
" transform="scale(0.015625)"/>
       </defs>
       <use xlink:href="#UMingCN-36"/>
      </g>
     </g>
    </g>
    <g id="xtick_8">
     <g id="line2d_15">
      <path d="M 365.365606 320.3575 
L 365.365606 10.8 
" clip-path="url(#p744fac6127)" style="fill: none; stroke: #b0b0b0; stroke-opacity: 0.3; stroke-width: 0.8; stroke-linecap: square"/>
     </g>
     <g id="line2d_16">
      <g>
       <use xlink:href="#me8debb27d1" x="365.365606" y="320.3575" style="stroke: #000000; stroke-width: 0.8"/>
      </g>
     </g>
     <g id="text_8">
      <!-- 7 -->
      <g transform="translate(362.865606 334.2325) scale(0.1 -0.1)">
       <defs>
        <path id="UMingCN-37" d="M 2875 4338 
L 2875 4119 
Q 2113 3056 1863 2438 
Q 1606 1813 1606 700 
Q 1606 544 1550 481 
Q 1494 413 1413 413 
Q 1319 413 1275 475 
Q 1231 544 1231 700 
Q 1231 1600 1550 2319 
Q 1994 3350 2606 4031 
L 1919 4025 
Q 1338 4019 1006 3863 
Q 713 3725 413 3094 
L 313 3125 
L 663 4338 
L 2875 4338 
z
" transform="scale(0.015625)"/>
       </defs>
       <use xlink:href="#UMingCN-37"/>
      </g>
     </g>
    </g>
    <g id="xtick_9">
     <g id="line2d_17">
      <path d="M 408.480968 320.3575 
L 408.480968 10.8 
" clip-path="url(#p744fac6127)" style="fill: none; stroke: #b0b0b0; stroke-opacity: 0.3; stroke-width: 0.8; stroke-linecap: square"/>
     </g>
     <g id="line2d_18">
      <g>
       <use xlink:href="#me8debb27d1" x="408.480968" y="320.3575" style="stroke: #000000; stroke-width: 0.8"/>
      </g>
     </g>
     <g id="text_9">
      <!-- 8 -->
      <g transform="translate(405.980968 334.2325) scale(0.1 -0.1)">
       <defs>
        <path id="UMingCN-38" d="M 1600 413 
Q 1025 413 625 725 
Q 256 1013 256 1425 
Q 256 1669 469 1956 
Q 631 2194 1219 2463 
Q 831 2669 675 2863 
Q 431 3138 431 3425 
Q 431 3850 788 4138 
Q 1113 4400 1600 4400 
Q 1963 4400 2325 4169 
Q 2725 3913 2725 3500 
Q 2725 3281 2563 3075 
Q 2394 2856 1813 2563 
Q 2513 2263 2738 1981 
Q 2944 1738 2944 1488 
Q 2944 1063 2606 769 
Q 2200 413 1600 413 
z
M 2456 1788 
Q 2256 2000 1669 2256 
Q 1525 2319 1413 2369 
Q 869 2100 744 1900 
Q 581 1644 581 1425 
Q 581 1088 850 856 
Q 1163 588 1600 588 
Q 1950 588 2325 813 
Q 2619 1006 2619 1406 
Q 2619 1606 2456 1788 
z
M 875 3094 
Q 1050 2888 1631 2638 
Q 2113 2863 2281 3081 
Q 2456 3313 2456 3563 
Q 2456 3838 2200 4044 
Q 1975 4225 1600 4225 
Q 1219 4225 950 4019 
Q 700 3813 700 3531 
Q 700 3300 875 3094 
z
" transform="scale(0.015625)"/>
       </defs>
       <use xlink:href="#UMingCN-38"/>
      </g>
     </g>
    </g>
    <g id="text_10">
     <!-- 时间/s -->
     <g transform="translate(218.86375 347.227813) scale(0.1 -0.1)">
      <defs>
       <path id="UMingCN-65f6" d="M 1806 1075 
L 769 1075 
Q 769 738 775 469 
Q 769 375 538 219 
Q 488 194 463 194 
Q 425 200 431 319 
Q 456 944 475 1606 
L 475 4306 
Q 469 4506 431 4794 
Q 419 4856 438 4863 
Q 444 4863 688 4669 
L 1656 4669 
Q 1731 4669 1775 4713 
L 1931 4875 
Q 1963 4919 2019 4881 
Q 2213 4738 2350 4619 
Q 2394 4569 2338 4563 
Q 2231 4544 2175 4488 
Q 2125 4431 2125 4369 
L 2125 1894 
Q 2131 1469 2175 850 
Q 2175 769 2113 731 
Q 1831 569 1806 575 
Q 1781 588 1788 688 
Q 1800 863 1806 1075 
z
M 775 1606 
Q 769 1438 769 1269 
L 1813 1269 
Q 1819 1481 1825 1713 
L 1825 2775 
L 775 2775 
L 775 1606 
z
M 775 4475 
L 775 2969 
L 1825 2969 
L 1825 4475 
L 775 4475 
z
M 4925 175 
Q 4913 -56 4813 -213 
Q 4656 -444 4500 -525 
Q 4450 -569 4425 -569 
Q 4394 -569 4369 -438 
Q 4313 -250 4250 -188 
Q 4181 -100 3819 -56 
Q 3719 -44 3725 38 
Q 3731 119 3831 113 
Q 4419 25 4531 63 
Q 4619 100 4625 238 
L 4625 3650 
L 3119 3650 
Q 2856 3644 2663 3606 
Q 2613 3588 2594 3644 
Q 2569 3756 2475 3831 
Q 2431 3875 2450 3900 
Q 2475 3919 2519 3894 
Q 2756 3844 3044 3844 
L 4625 3844 
L 4625 4488 
Q 4619 4988 4600 5294 
Q 4581 5394 4644 5375 
Q 5000 5250 5119 5188 
Q 5194 5138 5100 5094 
Q 4988 5044 4963 4988 
Q 4925 4869 4925 4488 
L 4925 3844 
L 5400 3844 
Q 5438 3844 5475 3888 
L 5700 4144 
Q 5744 4188 5788 4144 
Q 5950 3981 6063 3844 
Q 6131 3756 6088 3694 
Q 6056 3656 5975 3650 
L 5400 3650 
L 4925 3650 
L 4925 175 
z
M 2931 2769 
Q 2900 2813 2938 2850 
Q 2975 2881 3038 2819 
Q 3869 2100 3850 1706 
Q 3850 1588 3731 1419 
Q 3638 1288 3563 1294 
Q 3500 1313 3506 1431 
Q 3438 2069 2931 2769 
z
" transform="scale(0.015625)"/>
       <path id="UMingCN-95f4" d="M 3906 1175 
L 2425 1175 
Q 2419 850 2394 813 
Q 2175 644 2138 638 
Q 2088 644 2094 763 
Q 2119 1144 2125 2031 
L 2125 3306 
Q 2119 3531 2100 3712 
Q 2081 3894 2103 3900 
Q 2125 3906 2184 3843 
Q 2244 3781 2394 3669 
L 3756 3669 
Q 3831 3669 3875 3713 
L 4031 3875 
Q 4063 3919 4119 3881 
Q 4313 3738 4450 3619 
Q 4494 3569 4438 3563 
Q 4331 3544 4278 3487 
Q 4225 3431 4225 3369 
L 4225 2019 
Q 4231 1594 4275 975 
Q 4275 894 4213 856 
Q 3931 694 3906 703 
Q 3881 713 3890 841 
Q 3900 969 3906 1175 
z
M 2425 2375 
L 2425 1369 
L 3913 1369 
Q 3919 1588 3925 1838 
L 3925 2375 
L 2425 2375 
z
M 2425 3475 
L 2425 2569 
L 3925 2569 
L 3925 3475 
L 2425 3475 
z
M 769 4363 
Q 756 4469 831 4444 
Q 1169 4338 1269 4284 
Q 1369 4231 1269 4178 
Q 1169 4125 1134 4034 
Q 1100 3944 1100 3563 
L 1100 1019 
Q 1100 288 1125 -206 
Q 1131 -256 1069 -300 
L 831 -450 
Q 750 -513 756 -381 
Q 794 450 800 1019 
L 800 3563 
Q 794 4063 769 4363 
z
M 1350 5225 
Q 1306 5275 1331 5319 
Q 1375 5369 1450 5306 
Q 2119 4831 2119 4600 
Q 2106 4450 2009 4369 
Q 1913 4288 1875 4291 
Q 1838 4294 1800 4425 
Q 1631 4944 1350 5225 
z
M 3244 4969 
L 5119 4969 
Q 5175 4969 5181 4975 
L 5338 5181 
Q 5350 5206 5375 5206 
Q 5444 5206 5769 4869 
Q 5813 4819 5688 4769 
Q 5563 4719 5544 4687 
Q 5525 4656 5525 4613 
L 5525 88 
Q 5525 -125 5413 -281 
Q 5300 -438 5131 -500 
Q 5075 -525 5050 -469 
Q 4938 -150 4413 -88 
Q 4338 -75 4344 -15 
Q 4350 44 4431 38 
Q 5125 -25 5181 0 
Q 5225 25 5225 156 
L 5225 4775 
L 3319 4775 
Q 3056 4769 2863 4731 
Q 2806 4713 2800 4769 
Q 2769 4881 2697 4943 
Q 2625 5006 2650 5028 
Q 2675 5050 2719 5025 
Q 2956 4969 3244 4969 
z
" transform="scale(0.015625)"/>
       <path id="UMingCN-2f" d="M 2819 5225 
L 3144 5225 
L 375 -475 
L 50 -475 
L 2819 5225 
z
" transform="scale(0.015625)"/>
       <path id="UMingCN-73" d="M 2725 2725 
L 2675 2294 
L 2588 2294 
Q 2406 2681 2194 2800 
Q 1975 2919 1750 2919 
Q 1313 2919 1119 2775 
Q 931 2638 931 2444 
Q 931 2275 1050 2156 
Q 1156 2044 1756 1944 
Q 2400 1844 2619 1638 
Q 2831 1438 2831 1194 
Q 2831 913 2563 669 
Q 2281 413 1756 413 
Q 1194 419 606 750 
L 375 1275 
L 463 1344 
Q 788 931 1094 756 
Q 1388 588 1675 588 
Q 2075 588 2294 763 
Q 2506 931 2506 1119 
Q 2506 1313 2356 1431 
Q 2213 1538 1581 1656 
Q 981 1769 793 1944 
Q 606 2119 606 2363 
Q 606 2681 894 2888 
Q 1188 3094 1663 3094 
Q 2119 3094 2725 2725 
z
" transform="scale(0.015625)"/>
      </defs>
      <use xlink:href="#UMingCN-65f6"/>
      <use xlink:href="#UMingCN-95f4" x="100"/>
      <use xlink:href="#UMingCN-2f" x="200"/>
      <use xlink:href="#UMingCN-73" x="250"/>
     </g>
    </g>
   </g>
   <g id="matplotlib.axis_2">
    <g id="ytick_1">
     <g id="line2d_19">
      <path d="M 46.5275 319.00739 
L 421.2 319.00739 
" clip-path="url(#p744fac6127)" style="fill: none; stroke: #b0b0b0; stroke-opacity: 0.3; stroke-width: 0.8; stroke-linecap: square"/>
     </g>
     <g id="line2d_20">
      <defs>
       <path id="m82c60f7539" d="M 0 0 
L -3.5 0 
" style="stroke: #000000; stroke-width: 0.8"/>
      </defs>
      <g>
       <use xlink:href="#m82c60f7539" x="46.5275" y="319.00739" style="stroke: #000000; stroke-width: 0.8"/>
      </g>
     </g>
     <g id="text_11">
      <!-- 0.0 -->
      <g transform="translate(24.5275 322.44489) scale(0.1 -0.1)">
       <defs>
        <path id="UMingCN-2e" d="M 1325 537 
Q 1213 650 1213 812 
Q 1213 975 1325 1087 
Q 1438 1200 1600 1200 
Q 1763 1200 1875 1087 
Q 1988 975 1988 812 
Q 1988 650 1875 537 
Q 1763 425 1600 425 
Q 1438 425 1325 537 
z
" transform="scale(0.015625)"/>
       </defs>
       <use xlink:href="#UMingCN-30"/>
       <use xlink:href="#UMingCN-2e" x="50"/>
       <use xlink:href="#UMingCN-30" x="100"/>
      </g>
     </g>
    </g>
    <g id="ytick_2">
     <g id="line2d_21">
      <path d="M 46.5275 282.235368 
L 421.2 282.235368 
" clip-path="url(#p744fac6127)" style="fill: none; stroke: #b0b0b0; stroke-opacity: 0.3; stroke-width: 0.8; stroke-linecap: square"/>
     </g>
     <g id="line2d_22">
      <g>
       <use xlink:href="#m82c60f7539" x="46.5275" y="282.235368" style="stroke: #000000; stroke-width: 0.8"/>
      </g>
     </g>
     <g id="text_12">
      <!-- 0.5 -->
      <g transform="translate(24.5275 285.672868) scale(0.1 -0.1)">
       <use xlink:href="#UMingCN-30"/>
       <use xlink:href="#UMingCN-2e" x="50"/>
       <use xlink:href="#UMingCN-35" x="100"/>
      </g>
     </g>
    </g>
    <g id="ytick_3">
     <g id="line2d_23">
      <path d="M 46.5275 245.463347 
L 421.2 245.463347 
" clip-path="url(#p744fac6127)" style="fill: none; stroke: #b0b0b0; stroke-opacity: 0.3; stroke-width: 0.8; stroke-linecap: square"/>
     </g>
     <g id="line2d_24">
      <g>
       <use xlink:href="#m82c60f7539" x="46.5275" y="245.463347" style="stroke: #000000; stroke-width: 0.8"/>
      </g>
     </g>
     <g id="text_13">
      <!-- 1.0 -->
      <g transform="translate(24.5275 248.900847) scale(0.1 -0.1)">
       <use xlink:href="#UMingCN-31"/>
       <use xlink:href="#UMingCN-2e" x="50"/>
       <use xlink:href="#UMingCN-30" x="100"/>
      </g>
     </g>
    </g>
    <g id="ytick_4">
     <g id="line2d_25">
      <path d="M 46.5275 208.691325 
L 421.2 208.691325 
" clip-path="url(#p744fac6127)" style="fill: none; stroke: #b0b0b0; stroke-opacity: 0.3; stroke-width: 0.8; stroke-linecap: square"/>
     </g>
     <g id="line2d_26">
      <g>
       <use xlink:href="#m82c60f7539" x="46.5275" y="208.691325" style="stroke: #000000; stroke-width: 0.8"/>
      </g>
     </g>
     <g id="text_14">
      <!-- 1.5 -->
      <g transform="translate(24.5275 212.128825) scale(0.1 -0.1)">
       <use xlink:href="#UMingCN-31"/>
       <use xlink:href="#UMingCN-2e" x="50"/>
       <use xlink:href="#UMingCN-35" x="100"/>
      </g>
     </g>
    </g>
    <g id="ytick_5">
     <g id="line2d_27">
      <path d="M 46.5275 171.919304 
L 421.2 171.919304 
" clip-path="url(#p744fac6127)" style="fill: none; stroke: #b0b0b0; stroke-opacity: 0.3; stroke-width: 0.8; stroke-linecap: square"/>
     </g>
     <g id="line2d_28">
      <g>
       <use xlink:href="#m82c60f7539" x="46.5275" y="171.919304" style="stroke: #000000; stroke-width: 0.8"/>
      </g>
     </g>
     <g id="text_15">
      <!-- 2.0 -->
      <g transform="translate(24.5275 175.356804) scale(0.1 -0.1)">
       <use xlink:href="#UMingCN-32"/>
       <use xlink:href="#UMingCN-2e" x="50"/>
       <use xlink:href="#UMingCN-30" x="100"/>
      </g>
     </g>
    </g>
    <g id="ytick_6">
     <g id="line2d_29">
      <path d="M 46.5275 135.147282 
L 421.2 135.147282 
" clip-path="url(#p744fac6127)" style="fill: none; stroke: #b0b0b0; stroke-opacity: 0.3; stroke-width: 0.8; stroke-linecap: square"/>
     </g>
     <g id="line2d_30">
      <g>
       <use xlink:href="#m82c60f7539" x="46.5275" y="135.147282" style="stroke: #000000; stroke-width: 0.8"/>
      </g>
     </g>
     <g id="text_16">
      <!-- 2.5 -->
      <g transform="translate(24.5275 138.584782) scale(0.1 -0.1)">
       <use xlink:href="#UMingCN-32"/>
       <use xlink:href="#UMingCN-2e" x="50"/>
       <use xlink:href="#UMingCN-35" x="100"/>
      </g>
     </g>
    </g>
    <g id="ytick_7">
     <g id="line2d_31">
      <path d="M 46.5275 98.375261 
L 421.2 98.375261 
" clip-path="url(#p744fac6127)" style="fill: none; stroke: #b0b0b0; stroke-opacity: 0.3; stroke-width: 0.8; stroke-linecap: square"/>
     </g>
     <g id="line2d_32">
      <g>
       <use xlink:href="#m82c60f7539" x="46.5275" y="98.375261" style="stroke: #000000; stroke-width: 0.8"/>
      </g>
     </g>
     <g id="text_17">
      <!-- 3.0 -->
      <g transform="translate(24.5275 101.812761) scale(0.1 -0.1)">
       <use xlink:href="#UMingCN-33"/>
       <use xlink:href="#UMingCN-2e" x="50"/>
       <use xlink:href="#UMingCN-30" x="100"/>
      </g>
     </g>
    </g>
    <g id="ytick_8">
     <g id="line2d_33">
      <path d="M 46.5275 61.603239 
L 421.2 61.603239 
" clip-path="url(#p744fac6127)" style="fill: none; stroke: #b0b0b0; stroke-opacity: 0.3; stroke-width: 0.8; stroke-linecap: square"/>
     </g>
     <g id="line2d_34">
      <g>
       <use xlink:href="#m82c60f7539" x="46.5275" y="61.603239" style="stroke: #000000; stroke-width: 0.8"/>
      </g>
     </g>
     <g id="text_18">
      <!-- 3.5 -->
      <g transform="translate(24.5275 65.040739) scale(0.1 -0.1)">
       <use xlink:href="#UMingCN-33"/>
       <use xlink:href="#UMingCN-2e" x="50"/>
       <use xlink:href="#UMingCN-35" x="100"/>
      </g>
     </g>
    </g>
    <g id="ytick_9">
     <g id="line2d_35">
      <path d="M 46.5275 24.831218 
L 421.2 24.831218 
" clip-path="url(#p744fac6127)" style="fill: none; stroke: #b0b0b0; stroke-opacity: 0.3; stroke-width: 0.8; stroke-linecap: square"/>
     </g>
     <g id="line2d_36">
      <g>
       <use xlink:href="#m82c60f7539" x="46.5275" y="24.831218" style="stroke: #000000; stroke-width: 0.8"/>
      </g>
     </g>
     <g id="text_19">
      <!-- 4.0 -->
      <g transform="translate(24.5275 28.268718) scale(0.1 -0.1)">
       <use xlink:href="#UMingCN-34"/>
       <use xlink:href="#UMingCN-2e" x="50"/>
       <use xlink:href="#UMingCN-30" x="100"/>
      </g>
     </g>
    </g>
    <g id="text_20">
     <!-- 风险值 -->
     <g transform="translate(19.580625 180.57875) rotate(-90) scale(0.1 -0.1)">
      <defs>
       <path id="UMingCN-98ce" d="M 5563 150 
Q 5613 156 5638 288 
Q 5713 556 5775 1144 
Q 5788 1213 5850 1206 
Q 5906 1188 5900 1125 
Q 5788 213 5975 -369 
Q 6013 -444 5975 -488 
Q 5931 -525 5775 -444 
Q 5481 -331 5194 69 
Q 4831 581 4713 1338 
Q 4538 2400 4600 4800 
L 1581 4800 
L 1581 3919 
Q 1581 2625 1500 1756 
Q 1369 394 406 -419 
Q 325 -481 281 -419 
Q 238 -350 300 -306 
Q 588 6 775 294 
Q 1281 1163 1281 3638 
L 1281 4644 
Q 1275 4881 1219 5131 
Q 1213 5181 1238 5200 
Q 1269 5206 1313 5163 
Q 1400 5075 1538 4994 
L 4419 4994 
Q 4469 5000 4488 5025 
L 4700 5238 
Q 4719 5263 4744 5263 
Q 4819 5256 5175 4881 
Q 5206 4838 5188 4813 
Q 5169 4788 5106 4794 
Q 4981 4806 4938 4744 
Q 4869 4656 4869 4088 
Q 4850 2125 5000 1313 
Q 5125 775 5406 325 
Q 5525 144 5563 150 
z
M 2988 2419 
Q 2588 3000 2025 3625 
Q 1988 3675 2031 3719 
Q 2075 3756 2138 3694 
Q 2694 3156 3106 2669 
Q 3419 3325 3613 4006 
Q 3625 4094 3644 4100 
Q 3706 4125 4088 3919 
Q 4213 3844 4213 3819 
Q 4206 3794 4125 3769 
Q 3931 3706 3500 2800 
Q 3400 2625 3300 2438 
Q 4044 1500 4163 1050 
Q 4250 769 4038 506 
Q 3981 463 3938 469 
Q 3888 481 3881 575 
Q 3750 1194 3150 2188 
Q 2625 1350 1850 413 
Q 1775 344 1731 388 
Q 1681 438 1738 513 
Q 2463 1413 2919 2275 
Q 2950 2356 2988 2419 
z
" transform="scale(0.015625)"/>
       <path id="UMingCN-9669" d="M 1588 875 
Q 1444 813 1438 869 
Q 1400 1013 1288 1106 
Q 1156 1206 981 1244 
Q 875 1269 894 1350 
Q 913 1438 1031 1394 
Q 1381 1319 1594 1356 
Q 1694 1375 1769 1431 
Q 2338 2131 1175 3256 
Q 1119 3300 1163 3400 
Q 1444 4150 1669 4831 
Q 1663 4863 1656 4869 
Q 1650 4881 1613 4875 
L 725 4875 
L 725 806 
Q 719 138 725 -331 
Q 719 -425 488 -581 
Q 438 -606 413 -606 
Q 375 -600 381 -481 
Q 406 144 425 806 
L 425 4706 
Q 419 4906 381 5194 
Q 369 5256 388 5263 
Q 394 5263 638 5069 
L 1613 5069 
Q 1663 5069 1719 5131 
L 1831 5269 
Q 1869 5319 1913 5275 
Q 2100 5144 2231 5013 
Q 2281 4963 2219 4938 
Q 2094 4881 2013 4763 
Q 1788 4431 1619 4075 
Q 1244 3331 1325 3269 
Q 2281 2531 2263 1744 
Q 2244 1413 2088 1219 
Q 1913 1013 1588 875 
z
M 4156 5013 
Q 5031 3381 6181 3138 
Q 6213 3131 6206 3088 
Q 6194 3038 6113 3038 
Q 5994 3044 5894 2963 
Q 5806 2888 5769 2788 
Q 5750 2744 5706 2788 
Q 5050 3288 4706 3744 
Q 4388 4163 4063 4919 
Q 4019 4856 3963 4738 
Q 3544 3988 3206 3575 
Q 2869 3138 2319 2700 
Q 2256 2644 2219 2688 
Q 2188 2731 2231 2775 
Q 2844 3381 3225 4006 
Q 3550 4569 3756 5300 
Q 3769 5369 3825 5350 
Q 4088 5244 4294 5144 
Q 4344 5106 4338 5081 
Q 4313 5038 4231 5031 
Q 4181 5031 4156 5013 
z
M 4500 2919 
Q 4538 2919 4575 2963 
L 4800 3219 
Q 4844 3263 4888 3219 
Q 5050 3056 5163 2919 
Q 5231 2831 5188 2769 
Q 5156 2731 5075 2725 
L 4500 2725 
L 3469 2725 
Q 3206 2719 3013 2681 
Q 2963 2663 2944 2719 
Q 2919 2831 2825 2906 
Q 2781 2950 2800 2975 
Q 2825 2994 2869 2969 
Q 3106 2919 3394 2919 
L 4500 2919 
z
M 2625 1694 
Q 2600 1744 2638 1769 
Q 2675 1794 2738 1731 
Q 3444 981 3381 619 
Q 3369 494 3231 344 
Q 3113 219 3050 238 
Q 2988 263 3006 381 
Q 3019 1000 2625 1694 
z
M 3525 2194 
Q 3500 2244 3538 2269 
Q 3575 2300 3638 2238 
Q 4313 1556 4275 1219 
Q 4263 1100 4131 944 
Q 4019 819 3956 838 
Q 3900 856 3906 975 
Q 3919 1556 3525 2194 
z
M 4325 -106 
Q 4338 -81 4344 -63 
Q 4856 1106 4994 2194 
Q 5006 2281 5031 2300 
Q 5063 2313 5163 2250 
Q 5519 1988 5519 1931 
Q 5506 1894 5463 1888 
Q 5306 1831 5175 1438 
Q 4881 613 4481 -106 
L 5350 -106 
Q 5388 -106 5425 -63 
L 5650 194 
Q 5694 238 5738 194 
Q 5900 31 6013 -106 
Q 6081 -194 6038 -256 
Q 6006 -294 5925 -300 
L 5350 -300 
L 2519 -300 
Q 2256 -306 2063 -344 
Q 2013 -363 1994 -306 
Q 1969 -194 1875 -119 
Q 1831 -75 1850 -50 
Q 1875 -31 1919 -56 
Q 2156 -106 2444 -106 
L 4325 -106 
z
" transform="scale(0.015625)"/>
       <path id="UMingCN-503c" d="M 1169 3988 
Q 1575 4969 1581 5294 
Q 1588 5406 1700 5344 
Q 1938 5206 2038 5144 
Q 2106 5094 2106 5056 
Q 2100 5025 2025 5019 
Q 1950 5000 1925 4975 
Q 1850 4906 1681 4513 
Q 1525 4175 1350 3813 
Q 1544 3750 1681 3669 
Q 1763 3625 1681 3588 
Q 1494 3494 1475 3450 
Q 1450 3394 1450 3013 
L 1450 944 
Q 1450 163 1475 -369 
Q 1475 -425 1431 -431 
L 1156 -544 
Q 1100 -556 1106 -456 
Q 1144 375 1150 944 
L 1150 3013 
Q 1144 3244 1138 3419 
Q 1094 3356 1069 3294 
Q 781 2794 344 2225 
Q 281 2156 238 2194 
Q 188 2238 244 2300 
Q 769 2988 1169 3988 
z
M 5175 -106 
L 5400 -106 
Q 5438 -106 5475 -63 
L 5700 194 
Q 5744 238 5788 194 
Q 5950 31 6063 -106 
Q 6131 -194 6088 -256 
Q 6056 -294 5975 -300 
L 2288 -300 
Q 2119 -300 1906 -344 
Q 1875 -350 1869 -331 
Q 1788 -213 1725 -113 
Q 1688 -50 1769 -69 
Q 2150 -100 2194 -106 
L 2625 -106 
L 2625 3075 
Q 2625 3419 2581 3706 
Q 2575 3781 2600 3788 
Q 2631 3800 2675 3744 
Q 2738 3663 2888 3544 
L 3619 3544 
L 3731 4375 
L 2588 4375 
Q 2419 4375 2206 4331 
Q 2175 4325 2169 4344 
Q 2088 4469 2025 4569 
Q 1988 4631 2069 4613 
Q 2450 4575 2494 4569 
L 3756 4569 
L 3813 4963 
Q 3844 5175 3850 5350 
Q 3850 5394 3869 5400 
Q 3900 5413 3944 5388 
Q 4100 5319 4313 5206 
Q 4356 5181 4356 5156 
Q 4363 5138 4319 5119 
Q 4156 5050 4150 5025 
Q 4131 4963 4113 4881 
L 4069 4569 
L 5100 4569 
Q 5175 4569 5200 4594 
Q 5231 4625 5288 4688 
L 5450 4919 
Q 5494 4975 5550 4919 
Q 5744 4744 5931 4550 
Q 5994 4488 5988 4431 
Q 5975 4381 5894 4375 
L 4044 4375 
L 3931 3544 
L 4706 3544 
Q 4744 3550 4769 3575 
L 4913 3738 
Q 4950 3788 4994 3750 
Q 5200 3600 5375 3444 
Q 5419 3413 5381 3388 
Q 5200 3269 5194 3250 
Q 5175 3213 5175 3113 
L 5175 -106 
z
M 4875 625 
L 2925 625 
L 2925 -106 
L 4875 -106 
L 4875 625 
z
M 4875 1575 
L 2925 1575 
L 2925 819 
L 4875 819 
L 4875 1575 
z
M 4875 2475 
L 2925 2475 
L 2925 1769 
L 4875 1769 
L 4875 2475 
z
M 4713 3350 
L 2925 3350 
L 2925 2669 
L 4875 2669 
L 4875 3350 
L 4713 3350 
z
" transform="scale(0.015625)"/>
      </defs>
      <use xlink:href="#UMingCN-98ce"/>
      <use xlink:href="#UMingCN-9669" x="100"/>
      <use xlink:href="#UMingCN-503c" x="200"/>
     </g>
    </g>
   </g>
   <g id="line2d_37">
    <path d="M 63.558068 129.845494 
L 67.869604 48.225217 
L 72.181141 42.101589 
L 76.492677 35.149155 
L 80.804213 86.372035 
L 85.115749 169.007135 
L 89.427286 292.833275 
L 93.738822 289.839894 
L 98.050358 224.547265 
L 102.361894 154.129998 
L 106.673431 109.810485 
L 110.984967 147.998798 
L 115.296503 214.737183 
L 119.608039 190.070815 
L 123.919576 166.602426 
L 128.231112 225.644114 
L 132.542648 210.039201 
L 136.854184 198.412598 
L 141.165721 235.533782 
L 145.477257 198.306384 
L 149.788793 212.43779 
L 154.100329 249.77705 
L 158.411866 176.045406 
L 162.723402 204.449356 
L 167.034938 222.44126 
L 171.346474 239.902571 
L 175.658011 258.335866 
L 179.969547 155.055391 
L 184.281083 211.837209 
L 188.592619 199.934618 
L 192.904156 220.178472 
L 197.215692 230.125723 
L 201.527228 213.347613 
L 205.838764 175.348348 
L 210.150301 256.10873 
L 214.461837 258.107427 
L 218.773373 160.123974 
L 223.084909 208.645792 
L 227.396446 193.552813 
L 231.707982 184.262251 
L 236.019518 167.791737 
L 240.331054 219.778057 
L 244.642591 207.754866 
L 248.954127 178.885516 
L 253.265663 154.595432 
L 257.577199 159.79273 
L 261.888736 161.528693 
L 266.200272 223.701702 
L 270.511808 209.055298 
L 274.823344 176.561435 
L 279.134881 146.971298 
L 283.446417 202.127031 
L 287.757953 179.431634 
L 292.069489 159.134001 
L 296.381026 204.684571 
L 300.692562 190.937801 
L 305.004098 175.550995 
L 309.315634 157.32695 
L 313.627171 221.564931 
L 317.938707 225.219654 
" clip-path="url(#p744fac6127)" style="fill: none; stroke: #1f77b4; stroke-width: 1.5; stroke-linecap: square"/>
   </g>
   <g id="line2d_38">
    <path d="M 63.558068 70.244349 
L 67.869604 115.573424 
L 72.181141 80.91394 
L 76.492677 247.271953 
L 80.804213 255.294826 
L 85.115749 250.750326 
L 89.427286 292.498541 
L 93.738822 295.939782 
L 98.050358 196.811807 
L 102.361894 264.745182 
L 106.673431 285.403348 
L 110.984967 281.435332 
L 115.296503 303.455189 
L 119.608039 299.008186 
L 123.919576 279.262124 
L 128.231112 298.933548 
L 132.542648 304.157729 
L 136.854184 299.157929 
L 141.165721 279.186432 
L 145.477257 303.774312 
L 149.788793 283.748244 
L 154.100329 301.168131 
L 158.411866 302.69641 
L 162.723402 284.331381 
L 167.034938 301.523345 
L 171.346474 306.014949 
L 175.658011 273.264644 
L 179.969547 300.287662 
L 184.281083 306.286705 
L 188.592619 305.753089 
L 192.904156 285.486599 
L 197.215692 297.655322 
L 201.527228 301.576888 
L 205.838764 303.582555 
L 210.150301 304.770936 
L 214.461837 305.26097 
L 218.773373 303.531554 
L 223.084909 288.001104 
L 227.396446 303.437673 
L 231.707982 298.651633 
L 236.019518 299.817483 
L 240.331054 263.642893 
L 244.642591 295.014985 
L 248.954127 300.836535 
L 253.265663 296.471528 
L 257.577199 292.08652 
L 261.888736 296.456451 
L 266.200272 296.433593 
L 270.511808 295.586519 
L 274.823344 294.485823 
L 279.134881 290.789861 
L 283.446417 285.85374 
L 287.757953 278.818331 
L 292.069489 276.899725 
L 296.381026 278.072024 
L 300.692562 278.580183 
L 305.004098 277.919568 
L 309.315634 275.777009 
L 313.627171 273.699095 
L 317.938707 270.063476 
L 322.250243 266.510983 
L 326.561779 262.848616 
L 330.873316 256.700459 
L 335.184852 236.416491 
L 339.496388 231.7874 
L 343.807924 230.816036 
L 348.119461 234.504827 
L 352.430997 222.183046 
L 356.742533 200.724771 
L 361.054069 193.310637 
L 365.365606 184.630074 
L 369.677142 191.622634 
L 373.988678 193.371137 
L 378.300214 190.254583 
L 382.611751 178.557466 
L 386.923287 174.098905 
L 391.234823 176.718605 
L 395.546359 187.564359 
L 399.857896 211.861154 
L 404.169432 234.754571 
" clip-path="url(#p744fac6127)" style="fill: none; stroke: #ff7f0e; stroke-width: 1.5; stroke-linecap: square"/>
   </g>
   <g id="line2d_39">
    <path d="M 63.558068 266.576232 
L 67.869604 110.808089 
L 72.181141 146.109344 
L 76.492677 63.81843 
L 80.804213 78.325557 
L 85.115749 74.720194 
L 89.427286 71.635318 
L 93.738822 107.393903 
L 98.050358 116.556062 
L 102.361894 124.017631 
L 106.673431 129.005301 
L 110.984967 130.248574 
L 115.296503 146.233238 
L 119.608039 152.401011 
L 123.919576 90.152612 
L 128.231112 145.112434 
L 132.542648 154.525874 
L 136.854184 98.354134 
L 141.165721 103.289562 
L 145.477257 113.041514 
L 149.788793 136.500528 
L 154.100329 113.57088 
L 158.411866 128.39203 
L 162.723402 178.847053 
L 167.034938 148.732837 
L 171.346474 123.587492 
L 175.658011 180.004016 
L 179.969547 130.815535 
L 184.281083 195.649187 
L 188.592619 143.53879 
L 192.904156 130.051985 
L 197.215692 139.741307 
L 201.527228 141.591236 
L 205.838764 167.090181 
L 210.150301 149.922676 
L 214.461837 151.090144 
L 218.773373 160.62831 
L 223.084909 152.646952 
L 227.396446 171.466741 
L 231.707982 159.296035 
L 236.019518 143.587463 
L 240.331054 185.087699 
L 244.642591 147.041518 
L 248.954127 156.902412 
L 253.265663 146.290159 
L 257.577199 166.953963 
L 261.888736 149.472563 
L 266.200272 140.65327 
L 270.511808 156.186159 
L 274.823344 139.874708 
L 279.134881 158.583156 
L 283.446417 146.419904 
L 287.757953 167.706311 
L 292.069489 161.974956 
L 296.381026 117.030506 
L 300.692562 122.779077 
L 305.004098 116.127775 
L 309.315634 117.916621 
L 313.627171 115.972904 
L 317.938707 102.893227 
L 322.250243 102.954423 
L 326.561779 97.723384 
L 330.873316 119.944687 
L 335.184852 125.464404 
L 339.496388 108.894197 
L 343.807924 112.839921 
L 348.119461 108.645368 
L 352.430997 99.072654 
L 356.742533 89.897066 
L 361.054069 68.352573 
L 365.365606 73.893438 
L 369.677142 52.510856 
L 373.988678 41.803864 
L 378.300214 30.042172 
L 382.611751 46.56267 
L 386.923287 24.870795 
L 391.234823 44.914491 
L 395.546359 65.763474 
L 399.857896 112.275162 
L 404.169432 143.393285 
" clip-path="url(#p744fac6127)" style="fill: none; stroke: #2ca02c; stroke-width: 1.5; stroke-linecap: square"/>
   </g>
   <g id="patch_3">
    <path d="M 46.5275 320.3575 
L 46.5275 10.8 
" style="fill: none; stroke: #000000; stroke-width: 0.8; stroke-linejoin: miter; stroke-linecap: square"/>
   </g>
   <g id="patch_4">
    <path d="M 421.2 320.3575 
L 421.2 10.8 
" style="fill: none; stroke: #000000; stroke-width: 0.8; stroke-linejoin: miter; stroke-linecap: square"/>
   </g>
   <g id="patch_5">
    <path d="M 46.5275 320.3575 
L 421.2 320.3575 
" style="fill: none; stroke: #000000; stroke-width: 0.8; stroke-linejoin: miter; stroke-linecap: square"/>
   </g>
   <g id="patch_6">
    <path d="M 46.5275 10.8 
L 421.2 10.8 
" style="fill: none; stroke: #000000; stroke-width: 0.8; stroke-linejoin: miter; stroke-linecap: square"/>
   </g>
   <g id="legend_1">
    <g id="patch_7">
     <path d="M 342.2 315.3575 
L 414.2 315.3575 
Q 416.2 315.3575 416.2 313.3575 
L 416.2 271.321563 
Q 416.2 269.321563 414.2 269.321563 
L 342.2 269.321563 
Q 340.2 269.321563 340.2 271.321563 
L 340.2 313.3575 
Q 340.2 315.3575 342.2 315.3575 
z
" style="fill: #ffffff; opacity: 0.8; stroke: #cccccc; stroke-linejoin: miter"/>
    </g>
    <g id="line2d_40">
     <path d="M 344.2 278.298125 
L 354.2 278.298125 
L 364.2 278.298125 
" style="fill: none; stroke: #1f77b4; stroke-width: 1.5; stroke-linecap: square"/>
    </g>
    <g id="text_21">
     <!-- 无人机 0 -->
     <g transform="translate(372.2 281.798125) scale(0.1 -0.1)">
      <defs>
       <path id="UMingCN-65e0" d="M 4650 4744 
Q 4738 4750 4838 4863 
L 5000 5094 
Q 5044 5150 5100 5094 
Q 5544 4700 5538 4606 
Q 5525 4556 5444 4550 
L 4663 4550 
L 3138 4550 
Q 3094 3725 3000 3044 
L 5150 3044 
Q 5238 3050 5338 3163 
L 5500 3394 
Q 5544 3450 5600 3394 
Q 6044 3000 6038 2906 
Q 6025 2856 5944 2850 
L 5163 2850 
L 3775 2850 
L 3775 31 
Q 3781 -44 3788 -69 
Q 3800 -94 3894 -94 
L 5394 -94 
Q 5500 -81 5544 -56 
Q 5738 63 5813 944 
Q 5819 1031 5900 1025 
Q 5981 1019 5975 925 
Q 5906 363 5944 175 
Q 5988 38 6088 -25 
Q 6125 -56 6100 -94 
Q 5956 -338 5525 -356 
L 3863 -356 
Q 3594 -356 3538 -281 
Q 3475 -206 3475 -50 
L 3475 2850 
L 2969 2850 
Q 2750 1544 2238 806 
Q 1688 81 413 -500 
Q 281 -556 256 -475 
Q 238 -394 356 -338 
Q 1294 63 1894 775 
Q 2463 1519 2675 2850 
L 994 2850 
Q 731 2844 538 2806 
Q 481 2788 475 2844 
Q 444 2956 350 3038 
Q 300 3081 325 3106 
Q 350 3125 394 3100 
Q 631 3044 919 3044 
L 2700 3044 
Q 2794 3725 2800 4550 
L 1619 4550 
Q 1356 4544 1163 4506 
Q 1106 4488 1100 4544 
Q 1069 4656 975 4738 
Q 925 4781 950 4806 
Q 975 4825 1019 4800 
Q 1256 4744 1544 4744 
L 4650 4744 
z
" transform="scale(0.015625)"/>
       <path id="UMingCN-4eba" d="M 3675 3088 
Q 3888 2269 4206 1700 
Q 4600 1025 5106 556 
Q 5525 181 6094 -106 
Q 6138 -125 6181 -150 
Q 6219 -169 6200 -225 
Q 6181 -275 6106 -256 
Q 6006 -231 5875 -275 
Q 5731 -331 5650 -413 
Q 5613 -438 5569 -394 
Q 4963 119 4563 613 
Q 4219 1031 3994 1500 
Q 3713 2081 3519 2925 
Q 3363 3556 3263 4250 
Q 3125 2919 2875 2163 
Q 2606 1331 2119 763 
Q 1544 94 319 -450 
Q 238 -488 213 -413 
Q 181 -344 263 -300 
Q 1431 294 2038 1088 
Q 2606 1844 2819 3144 
Q 3006 4281 2981 5225 
Q 2975 5269 3000 5288 
Q 3025 5300 3069 5294 
Q 3350 5219 3575 5119 
Q 3619 5094 3613 5069 
Q 3606 5050 3563 5031 
Q 3388 4988 3363 4963 
Q 3338 4944 3331 4919 
Q 3444 4044 3675 3088 
z
" transform="scale(0.015625)"/>
       <path id="UMingCN-673a" d="M 4600 4850 
L 3431 4850 
L 3431 3844 
Q 3431 2569 3338 1706 
Q 3269 969 3000 513 
Q 2694 -25 2131 -444 
Q 2050 -500 2006 -438 
Q 1969 -375 2025 -331 
Q 2475 75 2700 475 
Q 2944 925 3044 1663 
Q 3131 2375 3131 3563 
L 3131 4694 
Q 3125 4931 3069 5181 
Q 3063 5231 3088 5250 
Q 3119 5256 3163 5213 
Q 3250 5125 3388 5044 
L 4500 5044 
Q 4544 5050 4563 5075 
L 4744 5263 
Q 4763 5288 4788 5288 
Q 4806 5281 4831 5256 
Q 4988 5100 5106 4944 
Q 5138 4900 5100 4881 
Q 4938 4806 4919 4781 
Q 4900 4750 4900 4725 
L 4900 156 
Q 4900 25 4963 -19 
Q 5019 -75 5119 -75 
Q 5194 -75 5231 -75 
L 5525 -75 
Q 5613 -75 5675 -38 
Q 5744 0 5788 138 
Q 5888 413 6000 1013 
Q 6006 1088 6069 1081 
Q 6131 1069 6125 1006 
Q 6069 475 6113 231 
Q 6138 88 6213 44 
Q 6244 25 6219 -13 
Q 6156 -194 6044 -269 
Q 5906 -375 5700 -375 
L 5088 -375 
Q 5050 -375 4956 -375 
Q 4825 -375 4713 -275 
Q 4600 -181 4600 88 
L 4600 4850 
z
M 1675 969 
Q 1675 188 1700 -344 
Q 1700 -400 1656 -406 
L 1381 -519 
Q 1325 -531 1331 -431 
Q 1369 400 1375 969 
L 1375 2556 
Q 1431 2913 1469 3238 
Q 1475 3269 1450 3275 
Q 1419 3281 1413 3256 
Q 1363 2963 1300 2656 
Q 1213 2450 1081 2169 
Q 856 1694 350 1000 
Q 288 925 244 981 
Q 194 1025 231 1081 
Q 669 1681 975 2506 
Q 1225 3194 1325 3725 
L 788 3725 
Q 619 3725 406 3681 
Q 375 3675 369 3694 
Q 288 3813 225 3913 
Q 188 3975 269 3956 
Q 650 3925 694 3919 
L 1375 3919 
L 1375 4513 
Q 1369 5013 1344 5313 
Q 1338 5425 1400 5400 
Q 1750 5288 1881 5213 
Q 1950 5163 1888 5138 
Q 1694 5031 1688 5006 
Q 1675 4981 1675 4513 
L 1675 3919 
L 2125 3919 
Q 2163 3919 2200 3963 
L 2425 4219 
Q 2469 4263 2513 4219 
Q 2675 4056 2788 3919 
Q 2856 3831 2813 3769 
Q 2781 3731 2700 3725 
L 1675 3725 
L 1675 3038 
Q 1694 3031 1700 3025 
Q 2125 2800 2356 2588 
Q 2531 2438 2538 2338 
Q 2544 2188 2463 2094 
Q 2375 2000 2338 2000 
Q 2300 1994 2244 2125 
Q 2113 2369 1975 2563 
Q 1831 2756 1675 2875 
L 1675 969 
z
" transform="scale(0.015625)"/>
       <path id="UMingCN-20" transform="scale(0.015625)"/>
      </defs>
      <use xlink:href="#UMingCN-65e0"/>
      <use xlink:href="#UMingCN-4eba" x="100"/>
      <use xlink:href="#UMingCN-673a" x="200"/>
      <use xlink:href="#UMingCN-20" x="300"/>
      <use xlink:href="#UMingCN-30" x="350"/>
     </g>
    </g>
    <g id="line2d_41">
     <path d="M 344.2 292.643438 
L 354.2 292.643438 
L 364.2 292.643438 
" style="fill: none; stroke: #ff7f0e; stroke-width: 1.5; stroke-linecap: square"/>
    </g>
    <g id="text_22">
     <!-- 无人机 1 -->
     <g transform="translate(372.2 296.143438) scale(0.1 -0.1)">
      <use xlink:href="#UMingCN-65e0"/>
      <use xlink:href="#UMingCN-4eba" x="100"/>
      <use xlink:href="#UMingCN-673a" x="200"/>
      <use xlink:href="#UMingCN-20" x="300"/>
      <use xlink:href="#UMingCN-31" x="350"/>
     </g>
    </g>
    <g id="line2d_42">
     <path d="M 344.2 306.98875 
L 354.2 306.98875 
L 364.2 306.98875 
" style="fill: none; stroke: #2ca02c; stroke-width: 1.5; stroke-linecap: square"/>
    </g>
    <g id="text_23">
     <!-- 无人机 2 -->
     <g transform="translate(372.2 310.48875) scale(0.1 -0.1)">
      <use xlink:href="#UMingCN-65e0"/>
      <use xlink:href="#UMingCN-4eba" x="100"/>
      <use xlink:href="#UMingCN-673a" x="200"/>
      <use xlink:href="#UMingCN-20" x="300"/>
      <use xlink:href="#UMingCN-32" x="350"/>
     </g>
    </g>
   </g>
  </g>
 </g>
 <defs>
  <clipPath id="p744fac6127">
   <rect x="46.5275" y="10.8" width="374.6725" height="309.5575"/>
  </clipPath>
 </defs>
</svg>
