<?xml version="1.0" encoding="utf-8" standalone="no"?>
<!DOCTYPE svg PUBLIC "-//W3C//DTD SVG 1.1//EN"
  "http://www.w3.org/Graphics/SVG/1.1/DTD/svg11.dtd">
<svg xmlns:xlink="http://www.w3.org/1999/xlink" width="432pt" height="360pt" viewBox="0 0 432 360" xmlns="http://www.w3.org/2000/svg" version="1.1">
 <metadata>
  <rdf:RDF xmlns:dc="http://purl.org/dc/elements/1.1/" xmlns:cc="http://creativecommons.org/ns#" xmlns:rdf="http://www.w3.org/1999/02/22-rdf-syntax-ns#">
   <cc:Work>
    <dc:type rdf:resource="http://purl.org/dc/dcmitype/StillImage"/>
    <dc:date>2025-06-03T10:44:33.410798</dc:date>
    <dc:format>image/svg+xml</dc:format>
    <dc:creator>
     <cc:Agent>
      <dc:title>Matplotlib v3.9.4, https://matplotlib.org/</dc:title>
     </cc:Agent>
    </dc:creator>
   </cc:Work>
  </rdf:RDF>
 </metadata>
 <defs>
  <style type="text/css">*{stroke-linejoin: round; stroke-linecap: butt}</style>
 </defs>
 <g id="figure_1">
  <g id="patch_1">
   <path d="M 0 360 
L 432 360 
L 432 0 
L 0 0 
z
" style="fill: #ffffff"/>
  </g>
  <g id="axes_1">
   <g id="patch_2">
    <path d="M 36.6275 320.3575 
L 421.2 320.3575 
L 421.2 10.8 
L 36.6275 10.8 
z
" style="fill: #ffffff"/>
   </g>
   <g id="matplotlib.axis_1">
    <g id="xtick_1">
     <g id="line2d_1">
      <path d="M 54.108068 320.3575 
L 54.108068 10.8 
" clip-path="url(#paa66c42a52)" style="fill: none; stroke: #b0b0b0; stroke-opacity: 0.3; stroke-width: 0.8; stroke-linecap: square"/>
     </g>
     <g id="line2d_2">
      <defs>
       <path id="mf4d81e7f27" d="M 0 0 
L 0 3.5 
" style="stroke: #000000; stroke-width: 0.8"/>
      </defs>
      <g>
       <use xlink:href="#mf4d81e7f27" x="54.108068" y="320.3575" style="stroke: #000000; stroke-width: 0.8"/>
      </g>
     </g>
     <g id="text_1">
      <!-- 0 -->
      <g transform="translate(51.608068 334.2325) scale(0.1 -0.1)">
       <defs>
        <path id="UMingCN-30" d="M 691 997 
Q 313 1581 313 2406 
Q 313 3231 691 3815 
Q 1069 4400 1600 4400 
Q 2131 4400 2509 3815 
Q 2888 3231 2888 2406 
Q 2888 1581 2509 997 
Q 2131 413 1600 413 
Q 1069 413 691 997 
z
M 919 3690 
Q 638 3156 638 2406 
Q 638 1656 919 1122 
Q 1200 588 1600 588 
Q 2000 588 2281 1122 
Q 2563 1656 2563 2406 
Q 2563 3156 2281 3690 
Q 2000 4225 1600 4225 
Q 1200 4225 919 3690 
z
" transform="scale(0.015625)"/>
       </defs>
       <use xlink:href="#UMingCN-30"/>
      </g>
     </g>
    </g>
    <g id="xtick_2">
     <g id="line2d_3">
      <path d="M 101.035768 320.3575 
L 101.035768 10.8 
" clip-path="url(#paa66c42a52)" style="fill: none; stroke: #b0b0b0; stroke-opacity: 0.3; stroke-width: 0.8; stroke-linecap: square"/>
     </g>
     <g id="line2d_4">
      <g>
       <use xlink:href="#mf4d81e7f27" x="101.035768" y="320.3575" style="stroke: #000000; stroke-width: 0.8"/>
      </g>
     </g>
     <g id="text_2">
      <!-- 2 -->
      <g transform="translate(98.535768 334.2325) scale(0.1 -0.1)">
       <defs>
        <path id="UMingCN-32" d="M 531 475 
L 319 475 
Q 319 975 606 1300 
Q 900 1694 1744 2281 
Q 2594 2844 2594 3319 
Q 2594 3738 2250 4006 
Q 1969 4225 1594 4225 
Q 1225 4225 994 4094 
Q 725 3938 700 3819 
Q 675 3706 731 3606 
Q 794 3488 794 3313 
Q 794 3256 731 3194 
Q 669 3131 588 3131 
Q 481 3131 406 3206 
Q 331 3288 331 3406 
Q 331 3788 719 4106 
Q 1081 4400 1594 4400 
Q 2206 4400 2556 4088 
Q 2919 3750 2919 3319 
Q 2919 2775 1825 2113 
Q 1088 1638 819 1294 
Q 606 1075 550 756 
L 1831 756 
Q 2469 756 2806 1244 
L 2881 1213 
L 2613 475 
L 531 475 
z
" transform="scale(0.015625)"/>
       </defs>
       <use xlink:href="#UMingCN-32"/>
      </g>
     </g>
    </g>
    <g id="xtick_3">
     <g id="line2d_5">
      <path d="M 147.963468 320.3575 
L 147.963468 10.8 
" clip-path="url(#paa66c42a52)" style="fill: none; stroke: #b0b0b0; stroke-opacity: 0.3; stroke-width: 0.8; stroke-linecap: square"/>
     </g>
     <g id="line2d_6">
      <g>
       <use xlink:href="#mf4d81e7f27" x="147.963468" y="320.3575" style="stroke: #000000; stroke-width: 0.8"/>
      </g>
     </g>
     <g id="text_3">
      <!-- 4 -->
      <g transform="translate(145.463468 334.2325) scale(0.1 -0.1)">
       <defs>
        <path id="UMingCN-34" d="M 2263 1538 
L 2994 1538 
L 2994 1294 
L 2263 1294 
L 2263 938 
Q 2263 581 2844 581 
L 2844 475 
L 1375 475 
L 1375 581 
Q 1956 581 1956 938 
L 1956 1294 
L 206 1294 
L 206 1581 
L 2119 4338 
L 2263 4338 
L 2263 1538 
z
M 1956 1538 
L 1956 3894 
L 350 1538 
L 1956 1538 
z
" transform="scale(0.015625)"/>
       </defs>
       <use xlink:href="#UMingCN-34"/>
      </g>
     </g>
    </g>
    <g id="xtick_4">
     <g id="line2d_7">
      <path d="M 194.891168 320.3575 
L 194.891168 10.8 
" clip-path="url(#paa66c42a52)" style="fill: none; stroke: #b0b0b0; stroke-opacity: 0.3; stroke-width: 0.8; stroke-linecap: square"/>
     </g>
     <g id="line2d_8">
      <g>
       <use xlink:href="#mf4d81e7f27" x="194.891168" y="320.3575" style="stroke: #000000; stroke-width: 0.8"/>
      </g>
     </g>
     <g id="text_4">
      <!-- 6 -->
      <g transform="translate(192.391168 334.2325) scale(0.1 -0.1)">
       <defs>
        <path id="UMingCN-36" d="M 775 3769 
Q 1194 4400 1850 4400 
Q 2175 4400 2463 4194 
Q 2756 3988 2756 3706 
Q 2756 3619 2681 3556 
Q 2613 3506 2550 3506 
Q 2469 3506 2413 3563 
Q 2350 3625 2350 3706 
Q 2350 3831 2388 3913 
Q 2419 3988 2256 4119 
Q 2075 4263 1850 4263 
Q 1400 4263 1038 3775 
Q 675 3281 638 2344 
Q 1288 2906 1831 2913 
Q 2231 2913 2544 2625 
Q 2894 2313 2894 1631 
Q 2894 1094 2513 738 
Q 2163 413 1638 413 
Q 1075 413 681 881 
Q 313 1319 313 2088 
Q 313 3069 775 3769 
z
M 638 2088 
Q 638 1294 925 938 
Q 1225 588 1638 588 
Q 2025 588 2313 831 
Q 2569 1081 2569 1631 
Q 2569 2194 2338 2425 
Q 2100 2663 1700 2663 
Q 1338 2663 638 2144 
Q 638 2113 638 2088 
z
" transform="scale(0.015625)"/>
       </defs>
       <use xlink:href="#UMingCN-36"/>
      </g>
     </g>
    </g>
    <g id="xtick_5">
     <g id="line2d_9">
      <path d="M 241.818867 320.3575 
L 241.818867 10.8 
" clip-path="url(#paa66c42a52)" style="fill: none; stroke: #b0b0b0; stroke-opacity: 0.3; stroke-width: 0.8; stroke-linecap: square"/>
     </g>
     <g id="line2d_10">
      <g>
       <use xlink:href="#mf4d81e7f27" x="241.818867" y="320.3575" style="stroke: #000000; stroke-width: 0.8"/>
      </g>
     </g>
     <g id="text_5">
      <!-- 8 -->
      <g transform="translate(239.318867 334.2325) scale(0.1 -0.1)">
       <defs>
        <path id="UMingCN-38" d="M 1600 413 
Q 1025 413 625 725 
Q 256 1013 256 1425 
Q 256 1669 469 1956 
Q 631 2194 1219 2463 
Q 831 2669 675 2863 
Q 431 3138 431 3425 
Q 431 3850 788 4138 
Q 1113 4400 1600 4400 
Q 1963 4400 2325 4169 
Q 2725 3913 2725 3500 
Q 2725 3281 2563 3075 
Q 2394 2856 1813 2563 
Q 2513 2263 2738 1981 
Q 2944 1738 2944 1488 
Q 2944 1063 2606 769 
Q 2200 413 1600 413 
z
M 2456 1788 
Q 2256 2000 1669 2256 
Q 1525 2319 1413 2369 
Q 869 2100 744 1900 
Q 581 1644 581 1425 
Q 581 1088 850 856 
Q 1163 588 1600 588 
Q 1950 588 2325 813 
Q 2619 1006 2619 1406 
Q 2619 1606 2456 1788 
z
M 875 3094 
Q 1050 2888 1631 2638 
Q 2113 2863 2281 3081 
Q 2456 3313 2456 3563 
Q 2456 3838 2200 4044 
Q 1975 4225 1600 4225 
Q 1219 4225 950 4019 
Q 700 3813 700 3531 
Q 700 3300 875 3094 
z
" transform="scale(0.015625)"/>
       </defs>
       <use xlink:href="#UMingCN-38"/>
      </g>
     </g>
    </g>
    <g id="xtick_6">
     <g id="line2d_11">
      <path d="M 288.746567 320.3575 
L 288.746567 10.8 
" clip-path="url(#paa66c42a52)" style="fill: none; stroke: #b0b0b0; stroke-opacity: 0.3; stroke-width: 0.8; stroke-linecap: square"/>
     </g>
     <g id="line2d_12">
      <g>
       <use xlink:href="#mf4d81e7f27" x="288.746567" y="320.3575" style="stroke: #000000; stroke-width: 0.8"/>
      </g>
     </g>
     <g id="text_6">
      <!-- 10 -->
      <g transform="translate(283.746567 334.2325) scale(0.1 -0.1)">
       <defs>
        <path id="UMingCN-31" d="M 1806 994 
Q 1806 581 2519 581 
L 2519 475 
L 756 475 
L 756 581 
Q 1481 581 1481 994 
L 1481 3631 
Q 1481 3963 681 3963 
L 681 4069 
L 1738 4338 
L 1806 4338 
L 1806 994 
z
" transform="scale(0.015625)"/>
       </defs>
       <use xlink:href="#UMingCN-31"/>
       <use xlink:href="#UMingCN-30" x="50"/>
      </g>
     </g>
    </g>
    <g id="xtick_7">
     <g id="line2d_13">
      <path d="M 335.674267 320.3575 
L 335.674267 10.8 
" clip-path="url(#paa66c42a52)" style="fill: none; stroke: #b0b0b0; stroke-opacity: 0.3; stroke-width: 0.8; stroke-linecap: square"/>
     </g>
     <g id="line2d_14">
      <g>
       <use xlink:href="#mf4d81e7f27" x="335.674267" y="320.3575" style="stroke: #000000; stroke-width: 0.8"/>
      </g>
     </g>
     <g id="text_7">
      <!-- 12 -->
      <g transform="translate(330.674267 334.2325) scale(0.1 -0.1)">
       <use xlink:href="#UMingCN-31"/>
       <use xlink:href="#UMingCN-32" x="50"/>
      </g>
     </g>
    </g>
    <g id="xtick_8">
     <g id="line2d_15">
      <path d="M 382.601967 320.3575 
L 382.601967 10.8 
" clip-path="url(#paa66c42a52)" style="fill: none; stroke: #b0b0b0; stroke-opacity: 0.3; stroke-width: 0.8; stroke-linecap: square"/>
     </g>
     <g id="line2d_16">
      <g>
       <use xlink:href="#mf4d81e7f27" x="382.601967" y="320.3575" style="stroke: #000000; stroke-width: 0.8"/>
      </g>
     </g>
     <g id="text_8">
      <!-- 14 -->
      <g transform="translate(377.601967 334.2325) scale(0.1 -0.1)">
       <use xlink:href="#UMingCN-31"/>
       <use xlink:href="#UMingCN-34" x="50"/>
      </g>
     </g>
    </g>
    <g id="text_9">
     <!-- 时间/s -->
     <g transform="translate(213.91375 347.227813) scale(0.1 -0.1)">
      <defs>
       <path id="UMingCN-65f6" d="M 1806 1075 
L 769 1075 
Q 769 738 775 469 
Q 769 375 538 219 
Q 488 194 463 194 
Q 425 200 431 319 
Q 456 944 475 1606 
L 475 4306 
Q 469 4506 431 4794 
Q 419 4856 438 4863 
Q 444 4863 688 4669 
L 1656 4669 
Q 1731 4669 1775 4713 
L 1931 4875 
Q 1963 4919 2019 4881 
Q 2213 4738 2350 4619 
Q 2394 4569 2338 4563 
Q 2231 4544 2175 4488 
Q 2125 4431 2125 4369 
L 2125 1894 
Q 2131 1469 2175 850 
Q 2175 769 2113 731 
Q 1831 569 1806 575 
Q 1781 588 1788 688 
Q 1800 863 1806 1075 
z
M 775 1606 
Q 769 1438 769 1269 
L 1813 1269 
Q 1819 1481 1825 1713 
L 1825 2775 
L 775 2775 
L 775 1606 
z
M 775 4475 
L 775 2969 
L 1825 2969 
L 1825 4475 
L 775 4475 
z
M 4925 175 
Q 4913 -56 4813 -213 
Q 4656 -444 4500 -525 
Q 4450 -569 4425 -569 
Q 4394 -569 4369 -438 
Q 4313 -250 4250 -188 
Q 4181 -100 3819 -56 
Q 3719 -44 3725 38 
Q 3731 119 3831 113 
Q 4419 25 4531 63 
Q 4619 100 4625 238 
L 4625 3650 
L 3119 3650 
Q 2856 3644 2663 3606 
Q 2613 3588 2594 3644 
Q 2569 3756 2475 3831 
Q 2431 3875 2450 3900 
Q 2475 3919 2519 3894 
Q 2756 3844 3044 3844 
L 4625 3844 
L 4625 4488 
Q 4619 4988 4600 5294 
Q 4581 5394 4644 5375 
Q 5000 5250 5119 5188 
Q 5194 5138 5100 5094 
Q 4988 5044 4963 4988 
Q 4925 4869 4925 4488 
L 4925 3844 
L 5400 3844 
Q 5438 3844 5475 3888 
L 5700 4144 
Q 5744 4188 5788 4144 
Q 5950 3981 6063 3844 
Q 6131 3756 6088 3694 
Q 6056 3656 5975 3650 
L 5400 3650 
L 4925 3650 
L 4925 175 
z
M 2931 2769 
Q 2900 2813 2938 2850 
Q 2975 2881 3038 2819 
Q 3869 2100 3850 1706 
Q 3850 1588 3731 1419 
Q 3638 1288 3563 1294 
Q 3500 1313 3506 1431 
Q 3438 2069 2931 2769 
z
" transform="scale(0.015625)"/>
       <path id="UMingCN-95f4" d="M 3906 1175 
L 2425 1175 
Q 2419 850 2394 813 
Q 2175 644 2138 638 
Q 2088 644 2094 763 
Q 2119 1144 2125 2031 
L 2125 3306 
Q 2119 3531 2100 3712 
Q 2081 3894 2103 3900 
Q 2125 3906 2184 3843 
Q 2244 3781 2394 3669 
L 3756 3669 
Q 3831 3669 3875 3713 
L 4031 3875 
Q 4063 3919 4119 3881 
Q 4313 3738 4450 3619 
Q 4494 3569 4438 3563 
Q 4331 3544 4278 3487 
Q 4225 3431 4225 3369 
L 4225 2019 
Q 4231 1594 4275 975 
Q 4275 894 4213 856 
Q 3931 694 3906 703 
Q 3881 713 3890 841 
Q 3900 969 3906 1175 
z
M 2425 2375 
L 2425 1369 
L 3913 1369 
Q 3919 1588 3925 1838 
L 3925 2375 
L 2425 2375 
z
M 2425 3475 
L 2425 2569 
L 3925 2569 
L 3925 3475 
L 2425 3475 
z
M 769 4363 
Q 756 4469 831 4444 
Q 1169 4338 1269 4284 
Q 1369 4231 1269 4178 
Q 1169 4125 1134 4034 
Q 1100 3944 1100 3563 
L 1100 1019 
Q 1100 288 1125 -206 
Q 1131 -256 1069 -300 
L 831 -450 
Q 750 -513 756 -381 
Q 794 450 800 1019 
L 800 3563 
Q 794 4063 769 4363 
z
M 1350 5225 
Q 1306 5275 1331 5319 
Q 1375 5369 1450 5306 
Q 2119 4831 2119 4600 
Q 2106 4450 2009 4369 
Q 1913 4288 1875 4291 
Q 1838 4294 1800 4425 
Q 1631 4944 1350 5225 
z
M 3244 4969 
L 5119 4969 
Q 5175 4969 5181 4975 
L 5338 5181 
Q 5350 5206 5375 5206 
Q 5444 5206 5769 4869 
Q 5813 4819 5688 4769 
Q 5563 4719 5544 4687 
Q 5525 4656 5525 4613 
L 5525 88 
Q 5525 -125 5413 -281 
Q 5300 -438 5131 -500 
Q 5075 -525 5050 -469 
Q 4938 -150 4413 -88 
Q 4338 -75 4344 -15 
Q 4350 44 4431 38 
Q 5125 -25 5181 0 
Q 5225 25 5225 156 
L 5225 4775 
L 3319 4775 
Q 3056 4769 2863 4731 
Q 2806 4713 2800 4769 
Q 2769 4881 2697 4943 
Q 2625 5006 2650 5028 
Q 2675 5050 2719 5025 
Q 2956 4969 3244 4969 
z
" transform="scale(0.015625)"/>
       <path id="UMingCN-2f" d="M 2819 5225 
L 3144 5225 
L 375 -475 
L 50 -475 
L 2819 5225 
z
" transform="scale(0.015625)"/>
       <path id="UMingCN-73" d="M 2725 2725 
L 2675 2294 
L 2588 2294 
Q 2406 2681 2194 2800 
Q 1975 2919 1750 2919 
Q 1313 2919 1119 2775 
Q 931 2638 931 2444 
Q 931 2275 1050 2156 
Q 1156 2044 1756 1944 
Q 2400 1844 2619 1638 
Q 2831 1438 2831 1194 
Q 2831 913 2563 669 
Q 2281 413 1756 413 
Q 1194 419 606 750 
L 375 1275 
L 463 1344 
Q 788 931 1094 756 
Q 1388 588 1675 588 
Q 2075 588 2294 763 
Q 2506 931 2506 1119 
Q 2506 1313 2356 1431 
Q 2213 1538 1581 1656 
Q 981 1769 793 1944 
Q 606 2119 606 2363 
Q 606 2681 894 2888 
Q 1188 3094 1663 3094 
Q 2119 3094 2725 2725 
z
" transform="scale(0.015625)"/>
      </defs>
      <use xlink:href="#UMingCN-65f6"/>
      <use xlink:href="#UMingCN-95f4" x="100"/>
      <use xlink:href="#UMingCN-2f" x="200"/>
      <use xlink:href="#UMingCN-73" x="250"/>
     </g>
    </g>
   </g>
   <g id="matplotlib.axis_2">
    <g id="ytick_1">
     <g id="line2d_17">
      <path d="M 36.6275 268.579434 
L 421.2 268.579434 
" clip-path="url(#paa66c42a52)" style="fill: none; stroke: #b0b0b0; stroke-opacity: 0.3; stroke-width: 0.8; stroke-linecap: square"/>
     </g>
     <g id="line2d_18">
      <defs>
       <path id="mad1178820b" d="M 0 0 
L -3.5 0 
" style="stroke: #000000; stroke-width: 0.8"/>
      </defs>
      <g>
       <use xlink:href="#mad1178820b" x="36.6275" y="268.579434" style="stroke: #000000; stroke-width: 0.8"/>
      </g>
     </g>
     <g id="text_10">
      <!-- 1 -->
      <g transform="translate(24.6275 272.016934) scale(0.1 -0.1)">
       <use xlink:href="#UMingCN-31"/>
      </g>
     </g>
    </g>
    <g id="ytick_2">
     <g id="line2d_19">
      <path d="M 36.6275 207.652274 
L 421.2 207.652274 
" clip-path="url(#paa66c42a52)" style="fill: none; stroke: #b0b0b0; stroke-opacity: 0.3; stroke-width: 0.8; stroke-linecap: square"/>
     </g>
     <g id="line2d_20">
      <g>
       <use xlink:href="#mad1178820b" x="36.6275" y="207.652274" style="stroke: #000000; stroke-width: 0.8"/>
      </g>
     </g>
     <g id="text_11">
      <!-- 2 -->
      <g transform="translate(24.6275 211.089774) scale(0.1 -0.1)">
       <use xlink:href="#UMingCN-32"/>
      </g>
     </g>
    </g>
    <g id="ytick_3">
     <g id="line2d_21">
      <path d="M 36.6275 146.725115 
L 421.2 146.725115 
" clip-path="url(#paa66c42a52)" style="fill: none; stroke: #b0b0b0; stroke-opacity: 0.3; stroke-width: 0.8; stroke-linecap: square"/>
     </g>
     <g id="line2d_22">
      <g>
       <use xlink:href="#mad1178820b" x="36.6275" y="146.725115" style="stroke: #000000; stroke-width: 0.8"/>
      </g>
     </g>
     <g id="text_12">
      <!-- 3 -->
      <g transform="translate(24.6275 150.162615) scale(0.1 -0.1)">
       <defs>
        <path id="UMingCN-33" d="M 2875 1463 
Q 2875 981 2481 675 
Q 2106 413 1613 413 
Q 1019 413 656 719 
Q 325 1000 325 1344 
Q 325 1456 390 1518 
Q 456 1581 550 1581 
Q 631 1581 693 1512 
Q 756 1444 756 1344 
Q 750 1250 706 1188 
Q 663 1125 663 1025 
Q 663 900 956 738 
Q 1225 588 1613 588 
Q 1975 588 2281 806 
Q 2550 1000 2550 1463 
Q 2550 1906 2275 2131 
Q 2038 2325 1656 2325 
Q 1569 2325 1494 2281 
Q 1400 2231 1344 2231 
Q 1163 2238 1163 2413 
Q 1163 2581 1344 2581 
Q 1419 2581 1500 2538 
Q 1575 2500 1656 2500 
Q 1825 2500 2113 2725 
Q 2425 2975 2425 3413 
Q 2425 3825 2156 4031 
Q 1900 4225 1594 4225 
Q 1213 4225 963 4025 
Q 738 3844 819 3713 
Q 894 3588 894 3450 
Q 894 3350 831 3275 
Q 775 3206 681 3206 
Q 594 3206 531 3275 
Q 463 3350 463 3450 
Q 463 3838 825 4125 
Q 1138 4400 1594 4400 
Q 2131 4400 2413 4138 
Q 2750 3825 2750 3413 
Q 2750 2831 2175 2544 
Q 2075 2494 2000 2450 
Q 2119 2419 2250 2375 
Q 2875 2156 2875 1463 
z
" transform="scale(0.015625)"/>
       </defs>
       <use xlink:href="#UMingCN-33"/>
      </g>
     </g>
    </g>
    <g id="ytick_4">
     <g id="line2d_23">
      <path d="M 36.6275 85.797955 
L 421.2 85.797955 
" clip-path="url(#paa66c42a52)" style="fill: none; stroke: #b0b0b0; stroke-opacity: 0.3; stroke-width: 0.8; stroke-linecap: square"/>
     </g>
     <g id="line2d_24">
      <g>
       <use xlink:href="#mad1178820b" x="36.6275" y="85.797955" style="stroke: #000000; stroke-width: 0.8"/>
      </g>
     </g>
     <g id="text_13">
      <!-- 4 -->
      <g transform="translate(24.6275 89.235455) scale(0.1 -0.1)">
       <use xlink:href="#UMingCN-34"/>
      </g>
     </g>
    </g>
    <g id="ytick_5">
     <g id="line2d_25">
      <path d="M 36.6275 24.870795 
L 421.2 24.870795 
" clip-path="url(#paa66c42a52)" style="fill: none; stroke: #b0b0b0; stroke-opacity: 0.3; stroke-width: 0.8; stroke-linecap: square"/>
     </g>
     <g id="line2d_26">
      <g>
       <use xlink:href="#mad1178820b" x="36.6275" y="24.870795" style="stroke: #000000; stroke-width: 0.8"/>
      </g>
     </g>
     <g id="text_14">
      <!-- 5 -->
      <g transform="translate(24.6275 28.308295) scale(0.1 -0.1)">
       <defs>
        <path id="UMingCN-35" d="M 2688 4338 
L 2550 4025 
L 750 4025 
L 750 2519 
Q 1138 2819 1688 2819 
Q 2156 2819 2481 2544 
Q 2900 2188 2900 1544 
Q 2900 1019 2488 694 
Q 2131 413 1588 413 
Q 1088 413 625 713 
Q 306 919 306 1169 
Q 306 1288 369 1338 
Q 438 1394 519 1394 
Q 594 1394 669 1319 
Q 738 1250 738 1169 
Q 738 1106 700 1069 
Q 669 1038 669 956 
Q 669 894 919 744 
Q 1188 588 1588 588 
Q 1963 588 2238 813 
Q 2575 1088 2575 1544 
Q 2575 2069 2206 2356 
Q 1925 2575 1525 2575 
Q 1150 2575 694 2375 
L 644 2425 
L 644 4338 
L 2688 4338 
z
" transform="scale(0.015625)"/>
       </defs>
       <use xlink:href="#UMingCN-35"/>
      </g>
     </g>
    </g>
    <g id="text_15">
     <!-- 风险值 -->
     <g transform="translate(19.680625 180.57875) rotate(-90) scale(0.1 -0.1)">
      <defs>
       <path id="UMingCN-98ce" d="M 5563 150 
Q 5613 156 5638 288 
Q 5713 556 5775 1144 
Q 5788 1213 5850 1206 
Q 5906 1188 5900 1125 
Q 5788 213 5975 -369 
Q 6013 -444 5975 -488 
Q 5931 -525 5775 -444 
Q 5481 -331 5194 69 
Q 4831 581 4713 1338 
Q 4538 2400 4600 4800 
L 1581 4800 
L 1581 3919 
Q 1581 2625 1500 1756 
Q 1369 394 406 -419 
Q 325 -481 281 -419 
Q 238 -350 300 -306 
Q 588 6 775 294 
Q 1281 1163 1281 3638 
L 1281 4644 
Q 1275 4881 1219 5131 
Q 1213 5181 1238 5200 
Q 1269 5206 1313 5163 
Q 1400 5075 1538 4994 
L 4419 4994 
Q 4469 5000 4488 5025 
L 4700 5238 
Q 4719 5263 4744 5263 
Q 4819 5256 5175 4881 
Q 5206 4838 5188 4813 
Q 5169 4788 5106 4794 
Q 4981 4806 4938 4744 
Q 4869 4656 4869 4088 
Q 4850 2125 5000 1313 
Q 5125 775 5406 325 
Q 5525 144 5563 150 
z
M 2988 2419 
Q 2588 3000 2025 3625 
Q 1988 3675 2031 3719 
Q 2075 3756 2138 3694 
Q 2694 3156 3106 2669 
Q 3419 3325 3613 4006 
Q 3625 4094 3644 4100 
Q 3706 4125 4088 3919 
Q 4213 3844 4213 3819 
Q 4206 3794 4125 3769 
Q 3931 3706 3500 2800 
Q 3400 2625 3300 2438 
Q 4044 1500 4163 1050 
Q 4250 769 4038 506 
Q 3981 463 3938 469 
Q 3888 481 3881 575 
Q 3750 1194 3150 2188 
Q 2625 1350 1850 413 
Q 1775 344 1731 388 
Q 1681 438 1738 513 
Q 2463 1413 2919 2275 
Q 2950 2356 2988 2419 
z
" transform="scale(0.015625)"/>
       <path id="UMingCN-9669" d="M 1588 875 
Q 1444 813 1438 869 
Q 1400 1013 1288 1106 
Q 1156 1206 981 1244 
Q 875 1269 894 1350 
Q 913 1438 1031 1394 
Q 1381 1319 1594 1356 
Q 1694 1375 1769 1431 
Q 2338 2131 1175 3256 
Q 1119 3300 1163 3400 
Q 1444 4150 1669 4831 
Q 1663 4863 1656 4869 
Q 1650 4881 1613 4875 
L 725 4875 
L 725 806 
Q 719 138 725 -331 
Q 719 -425 488 -581 
Q 438 -606 413 -606 
Q 375 -600 381 -481 
Q 406 144 425 806 
L 425 4706 
Q 419 4906 381 5194 
Q 369 5256 388 5263 
Q 394 5263 638 5069 
L 1613 5069 
Q 1663 5069 1719 5131 
L 1831 5269 
Q 1869 5319 1913 5275 
Q 2100 5144 2231 5013 
Q 2281 4963 2219 4938 
Q 2094 4881 2013 4763 
Q 1788 4431 1619 4075 
Q 1244 3331 1325 3269 
Q 2281 2531 2263 1744 
Q 2244 1413 2088 1219 
Q 1913 1013 1588 875 
z
M 4156 5013 
Q 5031 3381 6181 3138 
Q 6213 3131 6206 3088 
Q 6194 3038 6113 3038 
Q 5994 3044 5894 2963 
Q 5806 2888 5769 2788 
Q 5750 2744 5706 2788 
Q 5050 3288 4706 3744 
Q 4388 4163 4063 4919 
Q 4019 4856 3963 4738 
Q 3544 3988 3206 3575 
Q 2869 3138 2319 2700 
Q 2256 2644 2219 2688 
Q 2188 2731 2231 2775 
Q 2844 3381 3225 4006 
Q 3550 4569 3756 5300 
Q 3769 5369 3825 5350 
Q 4088 5244 4294 5144 
Q 4344 5106 4338 5081 
Q 4313 5038 4231 5031 
Q 4181 5031 4156 5013 
z
M 4500 2919 
Q 4538 2919 4575 2963 
L 4800 3219 
Q 4844 3263 4888 3219 
Q 5050 3056 5163 2919 
Q 5231 2831 5188 2769 
Q 5156 2731 5075 2725 
L 4500 2725 
L 3469 2725 
Q 3206 2719 3013 2681 
Q 2963 2663 2944 2719 
Q 2919 2831 2825 2906 
Q 2781 2950 2800 2975 
Q 2825 2994 2869 2969 
Q 3106 2919 3394 2919 
L 4500 2919 
z
M 2625 1694 
Q 2600 1744 2638 1769 
Q 2675 1794 2738 1731 
Q 3444 981 3381 619 
Q 3369 494 3231 344 
Q 3113 219 3050 238 
Q 2988 263 3006 381 
Q 3019 1000 2625 1694 
z
M 3525 2194 
Q 3500 2244 3538 2269 
Q 3575 2300 3638 2238 
Q 4313 1556 4275 1219 
Q 4263 1100 4131 944 
Q 4019 819 3956 838 
Q 3900 856 3906 975 
Q 3919 1556 3525 2194 
z
M 4325 -106 
Q 4338 -81 4344 -63 
Q 4856 1106 4994 2194 
Q 5006 2281 5031 2300 
Q 5063 2313 5163 2250 
Q 5519 1988 5519 1931 
Q 5506 1894 5463 1888 
Q 5306 1831 5175 1438 
Q 4881 613 4481 -106 
L 5350 -106 
Q 5388 -106 5425 -63 
L 5650 194 
Q 5694 238 5738 194 
Q 5900 31 6013 -106 
Q 6081 -194 6038 -256 
Q 6006 -294 5925 -300 
L 5350 -300 
L 2519 -300 
Q 2256 -306 2063 -344 
Q 2013 -363 1994 -306 
Q 1969 -194 1875 -119 
Q 1831 -75 1850 -50 
Q 1875 -31 1919 -56 
Q 2156 -106 2444 -106 
L 4325 -106 
z
" transform="scale(0.015625)"/>
       <path id="UMingCN-503c" d="M 1169 3988 
Q 1575 4969 1581 5294 
Q 1588 5406 1700 5344 
Q 1938 5206 2038 5144 
Q 2106 5094 2106 5056 
Q 2100 5025 2025 5019 
Q 1950 5000 1925 4975 
Q 1850 4906 1681 4513 
Q 1525 4175 1350 3813 
Q 1544 3750 1681 3669 
Q 1763 3625 1681 3588 
Q 1494 3494 1475 3450 
Q 1450 3394 1450 3013 
L 1450 944 
Q 1450 163 1475 -369 
Q 1475 -425 1431 -431 
L 1156 -544 
Q 1100 -556 1106 -456 
Q 1144 375 1150 944 
L 1150 3013 
Q 1144 3244 1138 3419 
Q 1094 3356 1069 3294 
Q 781 2794 344 2225 
Q 281 2156 238 2194 
Q 188 2238 244 2300 
Q 769 2988 1169 3988 
z
M 5175 -106 
L 5400 -106 
Q 5438 -106 5475 -63 
L 5700 194 
Q 5744 238 5788 194 
Q 5950 31 6063 -106 
Q 6131 -194 6088 -256 
Q 6056 -294 5975 -300 
L 2288 -300 
Q 2119 -300 1906 -344 
Q 1875 -350 1869 -331 
Q 1788 -213 1725 -113 
Q 1688 -50 1769 -69 
Q 2150 -100 2194 -106 
L 2625 -106 
L 2625 3075 
Q 2625 3419 2581 3706 
Q 2575 3781 2600 3788 
Q 2631 3800 2675 3744 
Q 2738 3663 2888 3544 
L 3619 3544 
L 3731 4375 
L 2588 4375 
Q 2419 4375 2206 4331 
Q 2175 4325 2169 4344 
Q 2088 4469 2025 4569 
Q 1988 4631 2069 4613 
Q 2450 4575 2494 4569 
L 3756 4569 
L 3813 4963 
Q 3844 5175 3850 5350 
Q 3850 5394 3869 5400 
Q 3900 5413 3944 5388 
Q 4100 5319 4313 5206 
Q 4356 5181 4356 5156 
Q 4363 5138 4319 5119 
Q 4156 5050 4150 5025 
Q 4131 4963 4113 4881 
L 4069 4569 
L 5100 4569 
Q 5175 4569 5200 4594 
Q 5231 4625 5288 4688 
L 5450 4919 
Q 5494 4975 5550 4919 
Q 5744 4744 5931 4550 
Q 5994 4488 5988 4431 
Q 5975 4381 5894 4375 
L 4044 4375 
L 3931 3544 
L 4706 3544 
Q 4744 3550 4769 3575 
L 4913 3738 
Q 4950 3788 4994 3750 
Q 5200 3600 5375 3444 
Q 5419 3413 5381 3388 
Q 5200 3269 5194 3250 
Q 5175 3213 5175 3113 
L 5175 -106 
z
M 4875 625 
L 2925 625 
L 2925 -106 
L 4875 -106 
L 4875 625 
z
M 4875 1575 
L 2925 1575 
L 2925 819 
L 4875 819 
L 4875 1575 
z
M 4875 2475 
L 2925 2475 
L 2925 1769 
L 4875 1769 
L 4875 2475 
z
M 4713 3350 
L 2925 3350 
L 2925 2669 
L 4875 2669 
L 4875 3350 
L 4713 3350 
z
" transform="scale(0.015625)"/>
      </defs>
      <use xlink:href="#UMingCN-98ce"/>
      <use xlink:href="#UMingCN-9669" x="100"/>
      <use xlink:href="#UMingCN-503c" x="200"/>
     </g>
    </g>
   </g>
   <g id="line2d_27">
    <path d="M 54.108068 182.16845 
L 56.454453 112.168164 
L 58.800838 138.774389 
L 61.147223 104.157911 
L 63.493608 27.917153 
L 68.186378 27.917153 
L 70.532763 65.498589 
L 72.879148 106.375833 
L 75.225533 149.56474 
L 79.918303 251.854053 
L 82.264688 202.705427 
L 84.611073 150.892843 
L 86.957458 199.442872 
L 89.303843 99.166983 
L 91.650228 69.267987 
L 93.996613 60.309447 
L 96.342998 105.710191 
L 98.689383 157.802211 
L 101.035768 120.842271 
L 103.382153 57.191874 
L 105.728538 104.231253 
L 108.074923 94.709065 
L 110.421308 190.455059 
L 112.767693 205.143368 
L 115.114078 134.129293 
L 117.460463 183.45983 
L 119.806848 174.251568 
L 122.153233 173.80357 
L 124.499618 171.771172 
L 126.846003 162.646088 
L 129.192388 119.380927 
L 131.538773 195.007558 
L 133.885158 133.121437 
L 136.231543 130.094426 
L 138.577928 148.398128 
L 140.924313 186.443066 
L 143.270698 138.076627 
L 145.617083 159.650759 
L 147.963468 170.41092 
L 150.309853 175.323824 
L 152.656238 178.467193 
L 155.002623 154.901146 
L 157.349008 161.642808 
L 159.695393 144.674279 
L 162.041778 140.85923 
L 164.388163 157.954296 
L 166.734548 167.941282 
L 169.080933 138.644688 
L 173.773703 150.266527 
L 176.120088 152.383283 
L 178.466473 129.918031 
L 180.812858 126.369819 
L 183.159243 129.366622 
L 185.505628 141.608924 
L 187.852013 143.610602 
L 190.198398 148.322243 
L 192.544783 153.805428 
L 194.891168 108.913504 
L 197.237553 109.795065 
L 199.583938 123.824927 
L 201.930323 135.386901 
L 204.276708 121.354034 
L 206.623093 146.985916 
L 208.969478 166.964557 
L 211.315863 139.211745 
L 213.662248 146.295739 
L 216.008633 129.584587 
L 218.355018 156.137529 
L 220.701403 127.917655 
L 223.047788 113.280946 
L 225.394173 147.947844 
L 227.740558 99.028436 
L 230.086942 123.187378 
L 232.433327 111.541082 
L 234.779712 123.494295 
L 237.126097 89.582787 
L 239.472482 153.242611 
L 241.818867 139.307745 
L 244.165252 190.716653 
L 246.511637 175.406587 
L 248.858022 185.847656 
L 251.204407 153.594311 
L 253.550792 166.306978 
L 255.897177 146.436319 
L 258.243562 141.051331 
L 260.589947 193.132208 
L 262.936332 207.742094 
L 265.282717 169.94178 
L 267.629102 201.73535 
L 269.975487 173.797961 
L 272.321872 198.076075 
L 274.668257 206.408554 
L 277.014642 217.620289 
L 279.361027 158.354993 
L 281.707412 190.902352 
L 284.053797 218.106323 
L 286.400182 240.416822 
L 288.746567 253.330997 
L 291.092952 238.156386 
L 293.439337 204.988514 
L 295.785722 210.0156 
L 300.478492 260.321669 
L 302.824877 229.793632 
L 305.171262 249.957656 
L 307.517647 252.933758 
L 309.864032 195.010335 
L 312.210417 220.495506 
L 314.556802 211.022996 
L 319.249572 269.641751 
L 321.595957 222.772525 
L 323.942342 252.673565 
L 326.288727 273.427368 
L 328.635112 282.689487 
L 330.981497 221.604367 
L 333.327882 266.890667 
L 335.674267 246.027451 
L 338.020652 269.894174 
L 340.367037 255.297908 
L 342.713422 278.965046 
L 345.059807 271.851207 
L 347.406192 255.710574 
L 349.752577 276.650509 
L 352.098962 230.7252 
L 354.445347 271.305214 
L 356.791732 292.104273 
L 359.138117 268.70548 
L 361.484502 240.095296 
L 363.830887 293.076664 
L 366.177272 273.705816 
L 368.523657 239.464446 
L 370.870042 273.984367 
L 373.216427 295.82637 
L 375.562812 251.395272 
L 377.909197 243.921291 
L 380.255582 277.955892 
L 382.601967 266.363586 
L 384.948352 240.870964 
L 387.294737 270.256374 
L 389.641122 288.518975 
L 391.987507 246.404024 
L 394.333892 286.065959 
L 394.333892 286.065959 
" clip-path="url(#paa66c42a52)" style="fill: none; stroke: #1f77b4; stroke-width: 1.5; stroke-linecap: square"/>
   </g>
   <g id="line2d_28">
    <path d="M 54.108068 88.802047 
L 56.454453 24.870795 
L 58.800838 38.045745 
L 61.147223 27.917153 
L 63.493608 27.917153 
L 65.839993 27.917153 
L 68.186378 27.917153 
L 70.532763 27.917153 
L 72.879148 27.917153 
L 75.225533 27.917153 
L 77.571918 27.917153 
L 79.918303 27.917153 
" clip-path="url(#paa66c42a52)" style="fill: none; stroke: #ff7f0e; stroke-width: 1.5; stroke-linecap: square"/>
   </g>
   <g id="line2d_29">
    <path d="M 54.108068 125.946545 
L 56.454453 134.610025 
L 58.800838 130.852527 
L 61.147223 236.620435 
L 63.493608 233.198121 
L 65.839993 199.705937 
L 68.186378 82.815153 
L 70.532763 206.304156 
L 72.879148 188.232833 
L 75.225533 180.216197 
L 77.571918 210.692242 
L 79.918303 213.801866 
L 82.264688 215.742056 
L 84.611073 226.925159 
L 86.957458 233.909411 
L 89.303843 131.7466 
L 91.650228 89.258214 
L 93.996613 182.535306 
L 96.342998 74.442875 
L 98.689383 87.194805 
L 101.035768 93.336029 
L 103.382153 89.095874 
L 105.728538 173.820183 
L 108.074923 196.666386 
L 110.421308 221.810285 
L 112.767693 225.87458 
L 115.114078 254.175091 
L 117.460463 261.640481 
L 119.806848 242.126455 
L 122.153233 261.715946 
L 124.499618 215.445652 
L 126.846003 195.733287 
L 129.192388 162.389711 
L 131.538773 102.025903 
L 133.885158 100.704525 
L 136.231543 104.59617 
L 138.577928 97.242821 
L 140.924313 129.639219 
L 143.270698 202.582225 
L 145.617083 225.566277 
L 147.963468 196.828611 
L 150.309853 224.954597 
L 152.656238 229.455237 
L 155.002623 233.245558 
L 157.349008 231.240648 
L 159.695393 219.309171 
L 162.041778 242.81702 
L 164.388163 268.530099 
L 166.734548 260.687646 
L 169.080933 275.081143 
L 171.427318 267.301024 
L 173.773703 271.584368 
L 176.120088 264.643065 
L 178.466473 270.363538 
L 180.812858 267.547239 
L 183.159243 263.354206 
L 185.505628 261.853071 
L 187.852013 270.976286 
L 190.198398 278.853006 
L 192.544783 283.329545 
L 194.891168 273.519031 
L 197.237553 272.033083 
L 199.583938 276.31819 
L 201.930323 250.308818 
L 204.276708 274.609861 
L 206.623093 292.345826 
L 208.969478 292.335449 
L 211.315863 297.596689 
L 213.662248 294.601251 
L 216.008633 289.452204 
L 218.355018 295.419437 
L 220.701403 292.221914 
L 223.047788 287.743306 
L 225.394173 284.232991 
L 227.740558 293.58859 
L 230.086942 288.489271 
L 232.433327 302.376737 
L 234.779712 298.666004 
" clip-path="url(#paa66c42a52)" style="fill: none; stroke: #2ca02c; stroke-width: 1.5; stroke-linecap: square"/>
   </g>
   <g id="line2d_30">
    <path d="M 54.108068 74.704883 
L 56.454453 24.870795 
L 58.800838 113.752181 
L 61.147223 125.352431 
L 63.493608 189.24565 
L 65.839993 230.631175 
L 68.186378 285.66845 
L 70.532763 277.282651 
L 72.879148 194.167975 
L 75.225533 250.814035 
L 77.571918 147.524818 
L 79.918303 169.12703 
L 82.264688 212.307518 
L 84.611073 181.743873 
L 86.957458 245.164446 
L 89.303843 221.885498 
L 91.650228 218.43475 
L 93.996613 176.044587 
L 96.342998 215.166393 
L 98.689383 170.09436 
L 101.035768 231.003911 
L 103.382153 219.902418 
L 105.728538 243.321679 
L 108.074923 244.00335 
L 110.421308 196.291863 
L 112.767693 202.89169 
L 115.114078 232.677597 
L 117.460463 235.137764 
L 119.806848 227.118643 
L 122.153233 240.461885 
L 124.499618 204.928276 
L 126.846003 223.608829 
L 129.192388 178.474525 
L 131.538773 222.757936 
L 133.885158 219.513064 
L 136.231543 222.844404 
L 138.577928 172.984837 
L 140.924313 229.578147 
L 143.270698 213.782584 
L 145.617083 250.876152 
L 147.963468 235.517054 
L 150.309853 257.559067 
L 152.656238 246.763362 
L 155.002623 256.506742 
L 157.349008 235.472978 
L 159.695393 232.056414 
L 162.041778 208.068471 
L 164.388163 213.781554 
L 166.734548 201.555349 
L 169.080933 206.11351 
L 171.427318 195.984896 
L 173.773703 183.602668 
L 176.120088 183.302642 
L 178.466473 202.405085 
L 180.812858 237.365401 
L 183.159243 265.314388 
L 185.505628 291.572199 
L 187.852013 287.162643 
L 190.198398 280.108262 
L 192.544783 271.61495 
L 194.891168 270.964306 
L 197.237553 246.739512 
L 199.583938 229.456344 
L 201.930323 215.048111 
L 204.276708 219.904331 
L 206.623093 225.430144 
L 208.969478 251.341578 
L 211.315863 246.595559 
L 213.662248 267.260519 
L 216.008633 292.379269 
L 218.355018 289.74399 
L 220.701403 293.963075 
L 223.047788 292.632016 
L 225.394173 292.115442 
L 227.740558 272.702999 
L 230.086942 299.751309 
L 232.433327 306.286705 
L 234.779712 268.575007 
L 237.126097 293.95233 
L 239.472482 302.78194 
L 241.818867 296.981848 
L 244.165252 271.844656 
" clip-path="url(#paa66c42a52)" style="fill: none; stroke: #d62728; stroke-width: 1.5; stroke-linecap: square"/>
   </g>
   <g id="line2d_31">
    <path d="M 54.108068 124.316744 
L 56.454453 24.870795 
L 58.800838 27.917153 
L 61.147223 27.917153 
L 63.493608 27.917153 
L 65.839993 111.89346 
L 68.186378 86.063703 
L 70.532763 172.025448 
L 72.879148 257.203715 
L 75.225533 245.189651 
L 77.571918 234.801402 
L 79.918303 163.200647 
L 82.264688 175.007676 
L 84.611073 103.005165 
L 86.957458 81.312995 
L 89.303843 47.957961 
L 91.650228 89.041449 
L 93.996613 82.133515 
L 96.342998 180.141629 
L 98.689383 87.966431 
L 101.035768 148.401352 
L 103.382153 36.676724 
L 105.728538 37.358677 
L 108.074923 64.450705 
L 110.421308 105.54645 
L 112.767693 63.98813 
L 115.114078 32.26309 
L 117.460463 62.588821 
L 119.806848 76.658179 
L 122.153233 54.275883 
L 124.499618 63.24607 
L 126.846003 50.538028 
L 129.192388 89.355767 
L 131.538773 122.710873 
L 133.885158 100.799067 
L 136.231543 162.121848 
L 138.577928 141.116017 
L 140.924313 173.99406 
L 143.270698 147.999759 
L 145.617083 185.541183 
L 147.963468 204.782628 
L 150.309853 136.392571 
L 152.656238 176.158016 
L 155.002623 178.370572 
L 157.349008 189.673019 
L 159.695393 114.719928 
L 162.041778 98.322089 
L 164.388163 126.648448 
L 166.734548 213.920782 
L 169.080933 174.560822 
L 171.427318 213.49657 
L 173.773703 212.121563 
L 176.120088 156.493861 
L 178.466473 149.944259 
L 180.812858 135.194549 
L 183.159243 137.758844 
L 185.505628 153.304215 
L 187.852013 145.336638 
L 190.198398 171.980192 
L 192.544783 229.162601 
L 194.891168 169.348623 
L 197.237553 235.063645 
L 199.583938 261.554612 
L 201.930323 259.656026 
L 204.276708 266.101345 
L 206.623093 200.378996 
L 208.969478 184.054586 
L 211.315863 171.922432 
L 213.662248 209.95328 
L 216.008633 129.782959 
L 218.355018 112.093164 
L 220.701403 116.110752 
L 223.047788 133.583088 
L 225.394173 186.566072 
L 227.740558 194.736313 
L 230.086942 115.830579 
L 232.433327 95.153291 
L 234.779712 97.223808 
L 237.126097 80.47046 
L 239.472482 105.635794 
L 241.818867 109.520485 
L 244.165252 222.913162 
L 246.511637 197.700732 
L 248.858022 250.122784 
L 251.204407 227.133284 
L 253.550792 232.63561 
L 255.897177 214.928176 
L 258.243562 206.948071 
L 260.589947 223.741125 
L 262.936332 223.407072 
L 265.282717 172.09503 
L 267.629102 190.22336 
" clip-path="url(#paa66c42a52)" style="fill: none; stroke: #9467bd; stroke-width: 1.5; stroke-linecap: square"/>
   </g>
   <g id="line2d_32">
    <path d="M 54.108068 50.934217 
L 56.454453 24.870795 
L 58.800838 27.917153 
L 61.147223 98.646593 
L 63.493608 27.917153 
L 65.839993 31.399891 
L 68.186378 81.594282 
L 70.532763 27.917153 
L 72.879148 42.292016 
L 75.225533 77.469404 
L 77.571918 87.467384 
L 79.918303 27.917153 
L 82.264688 27.917153 
L 84.611073 27.917153 
L 86.957458 93.391601 
L 89.303843 67.3049 
L 91.650228 71.666832 
L 93.996613 67.688516 
L 96.342998 76.338275 
L 98.689383 90.904594 
L 101.035768 56.566089 
L 103.382153 68.152644 
L 105.728538 75.026406 
L 108.074923 114.5925 
L 110.421308 86.197171 
L 112.767693 93.010055 
L 115.114078 123.571063 
L 117.460463 172.290903 
L 119.806848 127.901585 
L 122.153233 165.670807 
L 124.499618 78.838648 
L 126.846003 87.580452 
L 129.192388 91.560126 
L 131.538773 116.588878 
L 133.885158 164.149232 
L 136.231543 132.731804 
L 138.577928 138.899968 
L 140.924313 187.606079 
L 143.270698 168.396098 
L 145.617083 191.401391 
L 147.963468 168.942474 
L 150.309853 137.05525 
L 152.656238 174.810762 
L 155.002623 158.149953 
L 157.349008 201.941864 
L 159.695393 149.871323 
L 162.041778 113.677335 
L 164.388163 125.404093 
L 166.734548 145.263834 
L 169.080933 196.564093 
L 171.427318 182.750303 
L 173.773703 234.187056 
L 176.120088 199.498006 
L 178.466473 250.679859 
L 180.812858 231.720925 
L 183.159243 204.484076 
L 185.505628 207.186284 
L 187.852013 266.033125 
L 190.198398 274.905796 
L 192.544783 207.873204 
L 194.891168 176.674195 
L 197.237553 144.056969 
L 199.583938 185.621478 
L 201.930323 221.608699 
L 204.276708 213.197061 
L 206.623093 198.79497 
L 208.969478 192.932828 
L 211.315863 236.533695 
L 213.662248 225.767917 
L 216.008633 209.803803 
L 218.355018 239.701698 
L 220.701403 286.153902 
L 223.047788 275.672908 
L 225.394173 263.269076 
L 227.740558 247.51341 
L 230.086942 178.018158 
L 232.433327 202.515 
L 234.779712 217.570786 
L 237.126097 220.292172 
L 239.472482 205.054766 
L 241.818867 249.160932 
L 244.165252 227.488368 
L 246.511637 208.495424 
L 248.858022 252.275943 
L 251.204407 239.874334 
L 253.550792 243.763942 
L 255.897177 237.521292 
L 258.243562 285.368572 
L 260.589947 260.259357 
L 262.936332 284.098286 
L 265.282717 230.480289 
L 267.629102 284.050102 
L 269.975487 272.910675 
L 272.321872 264.423451 
L 274.668257 256.954406 
L 277.014642 292.765989 
L 279.361027 212.826947 
L 281.707412 219.688129 
L 284.053797 274.28778 
" clip-path="url(#paa66c42a52)" style="fill: none; stroke: #8c564b; stroke-width: 1.5; stroke-linecap: square"/>
   </g>
   <g id="line2d_33">
    <path d="M 54.108068 153.526218 
L 56.454453 57.081902 
L 58.800838 27.917153 
L 70.532763 27.917153 
L 72.879148 68.513058 
L 75.225533 153.236135 
L 77.571918 74.999829 
L 79.918303 80.206085 
L 82.264688 57.231719 
L 84.611073 104.69428 
L 86.957458 75.654887 
L 89.303843 27.917153 
L 96.342998 27.917153 
L 98.689383 30.963511 
L 101.035768 30.963511 
L 103.382153 34.879971 
L 105.728538 87.15236 
L 108.074923 98.361349 
L 110.421308 104.002455 
L 112.767693 94.553104 
L 115.114078 94.483144 
L 117.460463 90.809099 
L 119.806848 123.174013 
L 122.153233 222.832996 
L 124.499618 217.005819 
L 126.846003 160.636277 
L 129.192388 186.306258 
L 131.538773 206.426311 
L 133.885158 219.015589 
L 136.231543 234.237915 
L 138.577928 245.935292 
L 140.924313 254.878116 
L 143.270698 233.476667 
L 145.617083 233.496098 
L 147.963468 232.752657 
L 150.309853 232.639232 
L 152.656238 233.802385 
L 157.349008 238.19956 
L 159.695393 223.474516 
L 162.041778 197.956749 
L 164.388163 204.866166 
L 166.734548 203.839584 
L 169.080933 211.155405 
L 171.427318 219.318968 
L 173.773703 229.561629 
L 176.120088 242.048715 
L 178.466473 255.992538 
L 180.812858 247.377128 
L 183.159243 248.921767 
L 185.505628 256.64508 
L 187.852013 257.835981 
L 190.198398 261.342367 
L 192.544783 230.014729 
L 194.891168 221.653701 
L 197.237553 231.291872 
L 199.583938 259.881301 
L 201.930323 232.002334 
L 204.276708 237.981376 
L 206.623093 245.55497 
L 208.969478 252.326994 
L 211.315863 261.750707 
L 213.662248 267.910346 
L 216.008633 272.388185 
L 218.355018 274.718775 
L 220.701403 247.949673 
L 223.047788 249.291456 
L 225.394173 250.769067 
L 227.740558 216.623254 
L 230.086942 200.550433 
L 232.433327 200.268465 
L 237.126097 249.920685 
L 239.472482 218.189495 
L 241.818867 226.655992 
L 244.165252 233.823382 
L 246.511637 239.627784 
L 251.204407 248.837913 
L 253.550792 256.149066 
L 255.897177 219.724148 
L 258.243562 221.475378 
L 260.589947 224.5193 
L 262.936332 242.691389 
L 265.282717 240.382333 
L 267.629102 245.644505 
L 269.975487 199.033128 
L 274.668257 228.356911 
L 277.014642 178.356127 
L 279.361027 196.911983 
L 281.707412 201.328219 
L 284.053797 207.428121 
L 286.400182 212.716036 
L 288.746567 217.171502 
L 291.092952 188.031212 
L 298.132107 206.976282 
L 300.478492 204.900307 
L 302.824877 207.225207 
L 305.171262 213.31777 
L 307.517647 214.818116 
L 309.864032 197.615359 
L 312.210417 214.215353 
L 314.556802 220.443624 
L 316.903187 178.395332 
L 319.249572 183.512396 
L 321.595957 187.192441 
L 323.942342 189.834635 
L 326.288727 166.441457 
L 328.635112 170.501472 
L 330.981497 179.012114 
L 333.327882 186.515739 
L 335.674267 188.198224 
L 338.020652 189.064792 
L 340.367037 193.888075 
L 342.713422 198.364623 
L 345.059807 201.173005 
L 347.406192 152.025236 
L 349.752577 154.541676 
L 352.098962 157.769649 
L 354.445347 168.475726 
L 356.791732 173.563038 
L 359.138117 179.512543 
L 361.484502 184.88742 
L 363.830887 189.336715 
L 366.177272 192.831223 
L 368.523657 161.01468 
L 370.870042 187.29055 
L 373.216427 201.983266 
L 375.562812 207.044643 
L 377.909197 172.065094 
L 380.255582 176.171778 
L 382.601967 180.726448 
L 384.948352 184.256583 
L 387.294737 187.427692 
L 389.641122 169.140738 
L 391.987507 176.130695 
L 394.333892 183.561228 
L 396.680277 190.4896 
L 399.026662 195.763859 
L 401.373047 199.619138 
L 403.719432 202.378244 
L 403.719432 202.378244 
" clip-path="url(#paa66c42a52)" style="fill: none; stroke: #e377c2; stroke-width: 1.5; stroke-linecap: square"/>
   </g>
   <g id="line2d_34">
    <path d="M 54.108068 203.283165 
L 56.454453 68.104557 
L 58.800838 56.336484 
L 61.147223 75.369773 
L 63.493608 64.298328 
L 65.839993 105.43349 
L 68.186378 116.450729 
L 70.532763 193.808821 
L 72.879148 266.262831 
L 75.225533 185.999095 
L 77.571918 237.306579 
L 79.918303 183.229939 
L 82.264688 173.830729 
L 84.611073 181.551645 
L 86.957458 114.037542 
L 89.303843 99.866419 
L 91.650228 116.290404 
L 93.996613 90.503017 
L 96.342998 157.766076 
L 98.689383 92.633994 
L 101.035768 46.071517 
L 103.382153 36.653421 
L 105.728538 27.917153 
L 108.074923 46.143169 
L 110.421308 48.618131 
L 112.767693 128.649464 
L 115.114078 171.896344 
L 117.460463 188.75072 
L 119.806848 196.064767 
L 122.153233 195.536975 
L 124.499618 151.088131 
L 126.846003 139.352568 
L 129.192388 174.656373 
L 131.538773 108.83146 
L 133.885158 115.222245 
L 136.231543 144.780302 
L 138.577928 160.339185 
L 140.924313 176.754155 
L 143.270698 189.387898 
L 145.617083 176.301651 
L 147.963468 140.057707 
L 150.309853 131.193581 
L 152.656238 158.299706 
L 155.002623 243.935244 
L 157.349008 223.21136 
L 159.695393 165.980522 
L 162.041778 175.269961 
L 164.388163 165.878148 
L 166.734548 191.82586 
L 169.080933 204.001493 
L 171.427318 276.99035 
L 173.773703 290.306616 
L 176.120088 291.80713 
L 178.466473 265.033447 
L 180.812858 288.104114 
L 183.159243 292.982589 
L 185.505628 290.695801 
L 187.852013 260.120131 
L 190.198398 276.013875 
L 192.544783 272.790198 
L 194.891168 248.01553 
L 197.237553 184.973027 
L 199.583938 163.618817 
L 201.930323 180.187305 
L 204.276708 211.673068 
L 206.623093 256.151624 
L 208.969478 247.935169 
L 211.315863 300.390236 
L 213.662248 301.556838 
L 216.008633 305.155851 
L 218.355018 303.177118 
L 220.701403 271.707231 
L 223.047788 268.102903 
L 225.394173 258.129231 
L 227.740558 285.918264 
L 230.086942 164.897028 
L 232.433327 160.913222 
L 234.779712 182.227559 
L 237.126097 187.018356 
L 239.472482 223.508066 
L 241.818867 250.415903 
L 244.165252 261.379475 
L 246.511637 299.232186 
L 248.858022 296.362552 
L 251.204407 291.00783 
" clip-path="url(#paa66c42a52)" style="fill: none; stroke: #7f7f7f; stroke-width: 1.5; stroke-linecap: square"/>
   </g>
   <g id="line2d_35">
    <path d="M 54.108068 294.754328 
L 56.454453 226.588603 
L 58.800838 267.006209 
L 61.147223 289.150443 
L 63.493608 230.016384 
L 65.839993 236.148776 
L 68.186378 266.257144 
L 70.532763 203.429641 
L 72.879148 271.361711 
L 75.225533 256.418769 
L 77.571918 293.23393 
L 79.918303 287.074485 
L 82.264688 291.697876 
L 84.611073 286.768635 
L 86.957458 288.236728 
L 89.303843 167.97008 
L 91.650228 117.850389 
L 93.996613 80.632856 
L 96.342998 49.608095 
L 98.689383 59.274934 
L 101.035768 103.3174 
L 103.382153 153.09068 
L 105.728538 194.563313 
L 108.074923 240.086632 
L 110.421308 257.195202 
L 112.767693 279.121344 
L 115.114078 267.227198 
L 117.460463 249.93524 
L 119.806848 226.760051 
L 122.153233 245.838049 
L 124.499618 230.282324 
L 126.846003 172.61456 
L 129.192388 126.19929 
L 131.538773 215.522204 
L 133.885158 137.663318 
L 136.231543 178.733167 
L 138.577928 141.468769 
L 140.924313 197.345492 
L 143.270698 208.228128 
L 145.617083 197.718558 
L 147.963468 208.665843 
L 150.309853 203.892215 
L 152.656238 196.508629 
L 155.002623 208.490043 
L 157.349008 212.220508 
L 159.695393 167.291508 
L 162.041778 112.026291 
L 164.388163 99.518 
L 166.734548 93.190557 
L 169.080933 94.713861 
L 171.427318 123.128502 
L 173.773703 185.69069 
L 176.120088 154.313123 
L 178.466473 204.524855 
L 180.812858 250.814993 
L 185.505628 233.578285 
L 187.852013 253.767819 
L 190.198398 279.957653 
L 192.544783 256.093707 
L 194.891168 234.309735 
L 197.237553 268.229139 
L 199.583938 270.981959 
L 201.930323 233.4422 
L 204.276708 192.42501 
L 206.623093 183.86143 
L 208.969478 163.703315 
L 211.315863 119.746371 
L 213.662248 125.727795 
L 216.008633 201.594509 
L 218.355018 222.705706 
L 220.701403 279.798746 
L 223.047788 292.086264 
L 225.394173 242.080676 
L 227.740558 252.227512 
L 230.086942 272.320012 
L 232.433327 160.384156 
L 234.779712 153.798209 
L 237.126097 154.453394 
L 239.472482 157.19107 
L 241.818867 161.456837 
L 244.165252 160.438011 
L 246.511637 176.438721 
L 248.858022 227.841253 
L 251.204407 264.83599 
L 253.550792 264.69164 
L 255.897177 256.952036 
L 258.243562 220.721864 
L 260.589947 199.553136 
L 262.936332 190.057467 
L 265.282717 146.054401 
L 267.629102 121.627047 
L 269.975487 118.37332 
L 272.321872 124.845424 
L 274.668257 102.066807 
L 277.014642 126.415617 
L 279.361027 210.968555 
L 281.707412 168.057364 
L 284.053797 226.40928 
L 286.400182 214.129911 
L 288.746567 199.146428 
L 291.092952 224.199278 
L 293.439337 223.210293 
L 295.785722 213.271663 
L 298.132107 239.428026 
L 300.478492 197.461142 
L 302.824877 143.914606 
L 305.171262 127.63842 
L 307.517647 96.396359 
L 309.864032 98.731841 
L 312.210417 114.67309 
L 314.556802 139.558025 
L 316.903187 148.853758 
L 319.249572 191.110587 
L 321.595957 227.781411 
L 323.942342 227.312278 
L 326.288727 234.436228 
L 328.635112 175.631231 
L 330.981497 213.094171 
L 333.327882 221.332375 
L 335.674267 249.350174 
L 338.020652 252.081591 
L 340.367037 252.481662 
L 342.713422 254.648826 
L 345.059807 251.077965 
L 347.406192 252.137557 
L 349.752577 253.750844 
L 352.098962 208.436819 
L 354.445347 232.562915 
L 356.791732 245.455454 
L 359.138117 254.19111 
L 361.484502 224.841187 
L 363.830887 239.660628 
L 366.177272 248.498311 
L 368.523657 210.424558 
L 370.870042 245.157506 
L 373.216427 243.593699 
L 375.562812 271.51061 
L 377.909197 270.638921 
L 380.255582 270.263166 
L 382.601967 222.72785 
L 384.948352 246.060006 
L 387.294737 256.936985 
L 389.641122 261.999712 
L 391.987507 224.700547 
L 394.333892 242.497626 
L 396.680277 276.960159 
L 399.026662 273.829052 
L 401.373047 230.192437 
L 403.719432 268.899689 
L 403.719432 268.899689 
" clip-path="url(#paa66c42a52)" style="fill: none; stroke: #bcbd22; stroke-width: 1.5; stroke-linecap: square"/>
   </g>
   <g id="line2d_36">
    <path d="M 54.108068 175.632207 
L 56.454453 187.554749 
L 58.800838 132.127714 
L 61.147223 40.920408 
L 63.493608 41.382352 
L 65.839993 27.917153 
L 68.186378 92.870818 
L 70.532763 27.917153 
L 72.879148 35.580387 
L 75.225533 90.655805 
L 77.571918 27.917153 
L 79.918303 27.917153 
L 82.264688 94.540489 
L 84.611073 27.917153 
L 86.957458 27.917153 
L 89.303843 62.91369 
L 91.650228 61.742484 
L 93.996613 48.887633 
L 96.342998 34.211735 
L 98.689383 69.980411 
L 101.035768 27.917153 
L 103.382153 27.917153 
L 105.728538 56.964177 
L 108.074923 27.917153 
L 110.421308 130.153709 
L 112.767693 149.430431 
L 115.114078 54.709953 
L 117.460463 66.512828 
L 119.806848 74.659554 
L 122.153233 73.402067 
L 124.499618 27.917153 
L 126.846003 106.964009 
L 129.192388 118.770789 
L 131.538773 30.653369 
L 133.885158 117.262023 
L 136.231543 29.902755 
L 138.577928 76.546661 
L 140.924313 108.401848 
L 143.270698 144.883717 
L 145.617083 156.933042 
L 147.963468 119.532399 
L 150.309853 186.14806 
L 152.656238 169.443567 
L 155.002623 231.494709 
L 157.349008 178.002756 
L 159.695393 123.658332 
L 162.041778 194.945201 
L 164.388163 168.540081 
L 166.734548 182.779168 
L 169.080933 180.606764 
L 171.427318 208.022014 
L 173.773703 226.104887 
L 176.120088 227.464778 
L 178.466473 222.903251 
L 180.812858 219.044376 
L 183.159243 218.372789 
L 185.505628 213.860513 
L 187.852013 207.715055 
L 190.198398 185.28457 
L 192.544783 216.483348 
L 194.891168 218.37768 
L 197.237553 264.4239 
L 199.583938 249.84258 
L 201.930323 254.496388 
" clip-path="url(#paa66c42a52)" style="fill: none; stroke: #17becf; stroke-width: 1.5; stroke-linecap: square"/>
   </g>
   <g id="patch_3">
    <path d="M 36.6275 320.3575 
L 36.6275 10.8 
" style="fill: none; stroke: #000000; stroke-width: 0.8; stroke-linejoin: miter; stroke-linecap: square"/>
   </g>
   <g id="patch_4">
    <path d="M 421.2 320.3575 
L 421.2 10.8 
" style="fill: none; stroke: #000000; stroke-width: 0.8; stroke-linejoin: miter; stroke-linecap: square"/>
   </g>
   <g id="patch_5">
    <path d="M 36.6275 320.3575 
L 421.2 320.3575 
" style="fill: none; stroke: #000000; stroke-width: 0.8; stroke-linejoin: miter; stroke-linecap: square"/>
   </g>
   <g id="patch_6">
    <path d="M 36.6275 10.8 
L 421.2 10.8 
" style="fill: none; stroke: #000000; stroke-width: 0.8; stroke-linejoin: miter; stroke-linecap: square"/>
   </g>
   <g id="legend_1">
    <g id="patch_7">
     <path d="M 342.2 162.253125 
L 414.2 162.253125 
Q 416.2 162.253125 416.2 160.253125 
L 416.2 17.8 
Q 416.2 15.8 414.2 15.8 
L 342.2 15.8 
Q 340.2 15.8 340.2 17.8 
L 340.2 160.253125 
Q 340.2 162.253125 342.2 162.253125 
z
" style="fill: #ffffff; opacity: 0.8; stroke: #cccccc; stroke-linejoin: miter"/>
    </g>
    <g id="line2d_37">
     <path d="M 344.2 24.776563 
L 354.2 24.776563 
L 364.2 24.776563 
" style="fill: none; stroke: #1f77b4; stroke-width: 1.5; stroke-linecap: square"/>
    </g>
    <g id="text_16">
     <!-- 无人机 0 -->
     <g transform="translate(372.2 28.276563) scale(0.1 -0.1)">
      <defs>
       <path id="UMingCN-65e0" d="M 4650 4744 
Q 4738 4750 4838 4863 
L 5000 5094 
Q 5044 5150 5100 5094 
Q 5544 4700 5538 4606 
Q 5525 4556 5444 4550 
L 4663 4550 
L 3138 4550 
Q 3094 3725 3000 3044 
L 5150 3044 
Q 5238 3050 5338 3163 
L 5500 3394 
Q 5544 3450 5600 3394 
Q 6044 3000 6038 2906 
Q 6025 2856 5944 2850 
L 5163 2850 
L 3775 2850 
L 3775 31 
Q 3781 -44 3788 -69 
Q 3800 -94 3894 -94 
L 5394 -94 
Q 5500 -81 5544 -56 
Q 5738 63 5813 944 
Q 5819 1031 5900 1025 
Q 5981 1019 5975 925 
Q 5906 363 5944 175 
Q 5988 38 6088 -25 
Q 6125 -56 6100 -94 
Q 5956 -338 5525 -356 
L 3863 -356 
Q 3594 -356 3538 -281 
Q 3475 -206 3475 -50 
L 3475 2850 
L 2969 2850 
Q 2750 1544 2238 806 
Q 1688 81 413 -500 
Q 281 -556 256 -475 
Q 238 -394 356 -338 
Q 1294 63 1894 775 
Q 2463 1519 2675 2850 
L 994 2850 
Q 731 2844 538 2806 
Q 481 2788 475 2844 
Q 444 2956 350 3038 
Q 300 3081 325 3106 
Q 350 3125 394 3100 
Q 631 3044 919 3044 
L 2700 3044 
Q 2794 3725 2800 4550 
L 1619 4550 
Q 1356 4544 1163 4506 
Q 1106 4488 1100 4544 
Q 1069 4656 975 4738 
Q 925 4781 950 4806 
Q 975 4825 1019 4800 
Q 1256 4744 1544 4744 
L 4650 4744 
z
" transform="scale(0.015625)"/>
       <path id="UMingCN-4eba" d="M 3675 3088 
Q 3888 2269 4206 1700 
Q 4600 1025 5106 556 
Q 5525 181 6094 -106 
Q 6138 -125 6181 -150 
Q 6219 -169 6200 -225 
Q 6181 -275 6106 -256 
Q 6006 -231 5875 -275 
Q 5731 -331 5650 -413 
Q 5613 -438 5569 -394 
Q 4963 119 4563 613 
Q 4219 1031 3994 1500 
Q 3713 2081 3519 2925 
Q 3363 3556 3263 4250 
Q 3125 2919 2875 2163 
Q 2606 1331 2119 763 
Q 1544 94 319 -450 
Q 238 -488 213 -413 
Q 181 -344 263 -300 
Q 1431 294 2038 1088 
Q 2606 1844 2819 3144 
Q 3006 4281 2981 5225 
Q 2975 5269 3000 5288 
Q 3025 5300 3069 5294 
Q 3350 5219 3575 5119 
Q 3619 5094 3613 5069 
Q 3606 5050 3563 5031 
Q 3388 4988 3363 4963 
Q 3338 4944 3331 4919 
Q 3444 4044 3675 3088 
z
" transform="scale(0.015625)"/>
       <path id="UMingCN-673a" d="M 4600 4850 
L 3431 4850 
L 3431 3844 
Q 3431 2569 3338 1706 
Q 3269 969 3000 513 
Q 2694 -25 2131 -444 
Q 2050 -500 2006 -438 
Q 1969 -375 2025 -331 
Q 2475 75 2700 475 
Q 2944 925 3044 1663 
Q 3131 2375 3131 3563 
L 3131 4694 
Q 3125 4931 3069 5181 
Q 3063 5231 3088 5250 
Q 3119 5256 3163 5213 
Q 3250 5125 3388 5044 
L 4500 5044 
Q 4544 5050 4563 5075 
L 4744 5263 
Q 4763 5288 4788 5288 
Q 4806 5281 4831 5256 
Q 4988 5100 5106 4944 
Q 5138 4900 5100 4881 
Q 4938 4806 4919 4781 
Q 4900 4750 4900 4725 
L 4900 156 
Q 4900 25 4963 -19 
Q 5019 -75 5119 -75 
Q 5194 -75 5231 -75 
L 5525 -75 
Q 5613 -75 5675 -38 
Q 5744 0 5788 138 
Q 5888 413 6000 1013 
Q 6006 1088 6069 1081 
Q 6131 1069 6125 1006 
Q 6069 475 6113 231 
Q 6138 88 6213 44 
Q 6244 25 6219 -13 
Q 6156 -194 6044 -269 
Q 5906 -375 5700 -375 
L 5088 -375 
Q 5050 -375 4956 -375 
Q 4825 -375 4713 -275 
Q 4600 -181 4600 88 
L 4600 4850 
z
M 1675 969 
Q 1675 188 1700 -344 
Q 1700 -400 1656 -406 
L 1381 -519 
Q 1325 -531 1331 -431 
Q 1369 400 1375 969 
L 1375 2556 
Q 1431 2913 1469 3238 
Q 1475 3269 1450 3275 
Q 1419 3281 1413 3256 
Q 1363 2963 1300 2656 
Q 1213 2450 1081 2169 
Q 856 1694 350 1000 
Q 288 925 244 981 
Q 194 1025 231 1081 
Q 669 1681 975 2506 
Q 1225 3194 1325 3725 
L 788 3725 
Q 619 3725 406 3681 
Q 375 3675 369 3694 
Q 288 3813 225 3913 
Q 188 3975 269 3956 
Q 650 3925 694 3919 
L 1375 3919 
L 1375 4513 
Q 1369 5013 1344 5313 
Q 1338 5425 1400 5400 
Q 1750 5288 1881 5213 
Q 1950 5163 1888 5138 
Q 1694 5031 1688 5006 
Q 1675 4981 1675 4513 
L 1675 3919 
L 2125 3919 
Q 2163 3919 2200 3963 
L 2425 4219 
Q 2469 4263 2513 4219 
Q 2675 4056 2788 3919 
Q 2856 3831 2813 3769 
Q 2781 3731 2700 3725 
L 1675 3725 
L 1675 3038 
Q 1694 3031 1700 3025 
Q 2125 2800 2356 2588 
Q 2531 2438 2538 2338 
Q 2544 2188 2463 2094 
Q 2375 2000 2338 2000 
Q 2300 1994 2244 2125 
Q 2113 2369 1975 2563 
Q 1831 2756 1675 2875 
L 1675 969 
z
" transform="scale(0.015625)"/>
       <path id="UMingCN-20" transform="scale(0.015625)"/>
      </defs>
      <use xlink:href="#UMingCN-65e0"/>
      <use xlink:href="#UMingCN-4eba" x="100"/>
      <use xlink:href="#UMingCN-673a" x="200"/>
      <use xlink:href="#UMingCN-20" x="300"/>
      <use xlink:href="#UMingCN-30" x="350"/>
     </g>
    </g>
    <g id="line2d_38">
     <path d="M 344.2 39.121875 
L 354.2 39.121875 
L 364.2 39.121875 
" style="fill: none; stroke: #ff7f0e; stroke-width: 1.5; stroke-linecap: square"/>
    </g>
    <g id="text_17">
     <!-- 无人机 1 -->
     <g transform="translate(372.2 42.621875) scale(0.1 -0.1)">
      <use xlink:href="#UMingCN-65e0"/>
      <use xlink:href="#UMingCN-4eba" x="100"/>
      <use xlink:href="#UMingCN-673a" x="200"/>
      <use xlink:href="#UMingCN-20" x="300"/>
      <use xlink:href="#UMingCN-31" x="350"/>
     </g>
    </g>
    <g id="line2d_39">
     <path d="M 344.2 53.467188 
L 354.2 53.467188 
L 364.2 53.467188 
" style="fill: none; stroke: #2ca02c; stroke-width: 1.5; stroke-linecap: square"/>
    </g>
    <g id="text_18">
     <!-- 无人机 2 -->
     <g transform="translate(372.2 56.967188) scale(0.1 -0.1)">
      <use xlink:href="#UMingCN-65e0"/>
      <use xlink:href="#UMingCN-4eba" x="100"/>
      <use xlink:href="#UMingCN-673a" x="200"/>
      <use xlink:href="#UMingCN-20" x="300"/>
      <use xlink:href="#UMingCN-32" x="350"/>
     </g>
    </g>
    <g id="line2d_40">
     <path d="M 344.2 67.8125 
L 354.2 67.8125 
L 364.2 67.8125 
" style="fill: none; stroke: #d62728; stroke-width: 1.5; stroke-linecap: square"/>
    </g>
    <g id="text_19">
     <!-- 无人机 3 -->
     <g transform="translate(372.2 71.3125) scale(0.1 -0.1)">
      <use xlink:href="#UMingCN-65e0"/>
      <use xlink:href="#UMingCN-4eba" x="100"/>
      <use xlink:href="#UMingCN-673a" x="200"/>
      <use xlink:href="#UMingCN-20" x="300"/>
      <use xlink:href="#UMingCN-33" x="350"/>
     </g>
    </g>
    <g id="line2d_41">
     <path d="M 344.2 82.157812 
L 354.2 82.157812 
L 364.2 82.157812 
" style="fill: none; stroke: #9467bd; stroke-width: 1.5; stroke-linecap: square"/>
    </g>
    <g id="text_20">
     <!-- 无人机 4 -->
     <g transform="translate(372.2 85.657812) scale(0.1 -0.1)">
      <use xlink:href="#UMingCN-65e0"/>
      <use xlink:href="#UMingCN-4eba" x="100"/>
      <use xlink:href="#UMingCN-673a" x="200"/>
      <use xlink:href="#UMingCN-20" x="300"/>
      <use xlink:href="#UMingCN-34" x="350"/>
     </g>
    </g>
    <g id="line2d_42">
     <path d="M 344.2 96.503125 
L 354.2 96.503125 
L 364.2 96.503125 
" style="fill: none; stroke: #8c564b; stroke-width: 1.5; stroke-linecap: square"/>
    </g>
    <g id="text_21">
     <!-- 无人机 5 -->
     <g transform="translate(372.2 100.003125) scale(0.1 -0.1)">
      <use xlink:href="#UMingCN-65e0"/>
      <use xlink:href="#UMingCN-4eba" x="100"/>
      <use xlink:href="#UMingCN-673a" x="200"/>
      <use xlink:href="#UMingCN-20" x="300"/>
      <use xlink:href="#UMingCN-35" x="350"/>
     </g>
    </g>
    <g id="line2d_43">
     <path d="M 344.2 110.848438 
L 354.2 110.848438 
L 364.2 110.848438 
" style="fill: none; stroke: #e377c2; stroke-width: 1.5; stroke-linecap: square"/>
    </g>
    <g id="text_22">
     <!-- 无人机 6 -->
     <g transform="translate(372.2 114.348438) scale(0.1 -0.1)">
      <use xlink:href="#UMingCN-65e0"/>
      <use xlink:href="#UMingCN-4eba" x="100"/>
      <use xlink:href="#UMingCN-673a" x="200"/>
      <use xlink:href="#UMingCN-20" x="300"/>
      <use xlink:href="#UMingCN-36" x="350"/>
     </g>
    </g>
    <g id="line2d_44">
     <path d="M 344.2 125.19375 
L 354.2 125.19375 
L 364.2 125.19375 
" style="fill: none; stroke: #7f7f7f; stroke-width: 1.5; stroke-linecap: square"/>
    </g>
    <g id="text_23">
     <!-- 无人机 7 -->
     <g transform="translate(372.2 128.69375) scale(0.1 -0.1)">
      <defs>
       <path id="UMingCN-37" d="M 2875 4338 
L 2875 4119 
Q 2113 3056 1863 2438 
Q 1606 1813 1606 700 
Q 1606 544 1550 481 
Q 1494 413 1413 413 
Q 1319 413 1275 475 
Q 1231 544 1231 700 
Q 1231 1600 1550 2319 
Q 1994 3350 2606 4031 
L 1919 4025 
Q 1338 4019 1006 3863 
Q 713 3725 413 3094 
L 313 3125 
L 663 4338 
L 2875 4338 
z
" transform="scale(0.015625)"/>
      </defs>
      <use xlink:href="#UMingCN-65e0"/>
      <use xlink:href="#UMingCN-4eba" x="100"/>
      <use xlink:href="#UMingCN-673a" x="200"/>
      <use xlink:href="#UMingCN-20" x="300"/>
      <use xlink:href="#UMingCN-37" x="350"/>
     </g>
    </g>
    <g id="line2d_45">
     <path d="M 344.2 139.539063 
L 354.2 139.539063 
L 364.2 139.539063 
" style="fill: none; stroke: #bcbd22; stroke-width: 1.5; stroke-linecap: square"/>
    </g>
    <g id="text_24">
     <!-- 无人机 8 -->
     <g transform="translate(372.2 143.039063) scale(0.1 -0.1)">
      <use xlink:href="#UMingCN-65e0"/>
      <use xlink:href="#UMingCN-4eba" x="100"/>
      <use xlink:href="#UMingCN-673a" x="200"/>
      <use xlink:href="#UMingCN-20" x="300"/>
      <use xlink:href="#UMingCN-38" x="350"/>
     </g>
    </g>
    <g id="line2d_46">
     <path d="M 344.2 153.884375 
L 354.2 153.884375 
L 364.2 153.884375 
" style="fill: none; stroke: #17becf; stroke-width: 1.5; stroke-linecap: square"/>
    </g>
    <g id="text_25">
     <!-- 无人机 9 -->
     <g transform="translate(372.2 157.384375) scale(0.1 -0.1)">
      <defs>
       <path id="UMingCN-39" d="M 2431 1044 
Q 2013 413 1356 413 
Q 1031 413 744 619 
Q 450 825 450 1106 
Q 450 1194 525 1256 
Q 594 1306 656 1306 
Q 738 1306 794 1250 
Q 856 1188 856 1106 
Q 856 981 819 900 
Q 788 825 950 694 
Q 1131 550 1356 550 
Q 1806 550 2169 1038 
Q 2531 1531 2569 2469 
Q 1919 1906 1375 1900 
Q 975 1900 663 2188 
Q 313 2500 313 3181 
Q 313 3719 694 4075 
Q 1044 4400 1569 4400 
Q 2131 4400 2525 3931 
Q 2894 3494 2894 2725 
Q 2894 1744 2431 1044 
z
M 2569 2725 
Q 2569 3519 2281 3875 
Q 1981 4225 1569 4225 
Q 1181 4225 894 3981 
Q 638 3731 638 3181 
Q 638 2619 869 2388 
Q 1106 2150 1506 2150 
Q 1869 2150 2569 2669 
Q 2569 2700 2569 2725 
z
" transform="scale(0.015625)"/>
      </defs>
      <use xlink:href="#UMingCN-65e0"/>
      <use xlink:href="#UMingCN-4eba" x="100"/>
      <use xlink:href="#UMingCN-673a" x="200"/>
      <use xlink:href="#UMingCN-20" x="300"/>
      <use xlink:href="#UMingCN-39" x="350"/>
     </g>
    </g>
   </g>
  </g>
 </g>
 <defs>
  <clipPath id="paa66c42a52">
   <rect x="36.6275" y="10.8" width="384.5725" height="309.5575"/>
  </clipPath>
 </defs>
</svg>
