<?xml version="1.0" encoding="utf-8" standalone="no"?>
<!DOCTYPE svg PUBLIC "-//W3C//DTD SVG 1.1//EN"
  "http://www.w3.org/Graphics/SVG/1.1/DTD/svg11.dtd">
<svg xmlns:xlink="http://www.w3.org/1999/xlink" width="432pt" height="360pt" viewBox="0 0 432 360" xmlns="http://www.w3.org/2000/svg" version="1.1">
 <metadata>
  <rdf:RDF xmlns:dc="http://purl.org/dc/elements/1.1/" xmlns:cc="http://creativecommons.org/ns#" xmlns:rdf="http://www.w3.org/1999/02/22-rdf-syntax-ns#">
   <cc:Work>
    <dc:type rdf:resource="http://purl.org/dc/dcmitype/StillImage"/>
    <dc:date>2025-06-03T10:38:46.025527</dc:date>
    <dc:format>image/svg+xml</dc:format>
    <dc:creator>
     <cc:Agent>
      <dc:title>Matplotlib v3.9.4, https://matplotlib.org/</dc:title>
     </cc:Agent>
    </dc:creator>
   </cc:Work>
  </rdf:RDF>
 </metadata>
 <defs>
  <style type="text/css">*{stroke-linejoin: round; stroke-linecap: butt}</style>
 </defs>
 <g id="figure_1">
  <g id="patch_1">
   <path d="M 0 360 
L 432 360 
L 432 0 
L 0 0 
z
" style="fill: #ffffff"/>
  </g>
  <g id="axes_1">
   <g id="patch_2">
    <path d="M 36.6275 320.3575 
L 421.2 320.3575 
L 421.2 10.8 
L 36.6275 10.8 
z
" style="fill: #ffffff"/>
   </g>
   <g id="matplotlib.axis_1">
    <g id="xtick_1">
     <g id="line2d_1">
      <path d="M 54.108068 320.3575 
L 54.108068 10.8 
" clip-path="url(#p55cda19ee0)" style="fill: none; stroke: #b0b0b0; stroke-opacity: 0.3; stroke-width: 0.8; stroke-linecap: square"/>
     </g>
     <g id="line2d_2">
      <defs>
       <path id="m35aac900d9" d="M 0 0 
L 0 3.5 
" style="stroke: #000000; stroke-width: 0.8"/>
      </defs>
      <g>
       <use xlink:href="#m35aac900d9" x="54.108068" y="320.3575" style="stroke: #000000; stroke-width: 0.8"/>
      </g>
     </g>
     <g id="text_1">
      <!-- 0 -->
      <g transform="translate(51.608068 334.2325) scale(0.1 -0.1)">
       <defs>
        <path id="UMingCN-30" d="M 691 997 
Q 313 1581 313 2406 
Q 313 3231 691 3815 
Q 1069 4400 1600 4400 
Q 2131 4400 2509 3815 
Q 2888 3231 2888 2406 
Q 2888 1581 2509 997 
Q 2131 413 1600 413 
Q 1069 413 691 997 
z
M 919 3690 
Q 638 3156 638 2406 
Q 638 1656 919 1122 
Q 1200 588 1600 588 
Q 2000 588 2281 1122 
Q 2563 1656 2563 2406 
Q 2563 3156 2281 3690 
Q 2000 4225 1600 4225 
Q 1200 4225 919 3690 
z
" transform="scale(0.015625)"/>
       </defs>
       <use xlink:href="#UMingCN-30"/>
      </g>
     </g>
    </g>
    <g id="xtick_2">
     <g id="line2d_3">
      <path d="M 125.457326 320.3575 
L 125.457326 10.8 
" clip-path="url(#p55cda19ee0)" style="fill: none; stroke: #b0b0b0; stroke-opacity: 0.3; stroke-width: 0.8; stroke-linecap: square"/>
     </g>
     <g id="line2d_4">
      <g>
       <use xlink:href="#m35aac900d9" x="125.457326" y="320.3575" style="stroke: #000000; stroke-width: 0.8"/>
      </g>
     </g>
     <g id="text_2">
      <!-- 1 -->
      <g transform="translate(122.957326 334.2325) scale(0.1 -0.1)">
       <defs>
        <path id="UMingCN-31" d="M 1806 994 
Q 1806 581 2519 581 
L 2519 475 
L 756 475 
L 756 581 
Q 1481 581 1481 994 
L 1481 3631 
Q 1481 3963 681 3963 
L 681 4069 
L 1738 4338 
L 1806 4338 
L 1806 994 
z
" transform="scale(0.015625)"/>
       </defs>
       <use xlink:href="#UMingCN-31"/>
      </g>
     </g>
    </g>
    <g id="xtick_3">
     <g id="line2d_5">
      <path d="M 196.806584 320.3575 
L 196.806584 10.8 
" clip-path="url(#p55cda19ee0)" style="fill: none; stroke: #b0b0b0; stroke-opacity: 0.3; stroke-width: 0.8; stroke-linecap: square"/>
     </g>
     <g id="line2d_6">
      <g>
       <use xlink:href="#m35aac900d9" x="196.806584" y="320.3575" style="stroke: #000000; stroke-width: 0.8"/>
      </g>
     </g>
     <g id="text_3">
      <!-- 2 -->
      <g transform="translate(194.306584 334.2325) scale(0.1 -0.1)">
       <defs>
        <path id="UMingCN-32" d="M 531 475 
L 319 475 
Q 319 975 606 1300 
Q 900 1694 1744 2281 
Q 2594 2844 2594 3319 
Q 2594 3738 2250 4006 
Q 1969 4225 1594 4225 
Q 1225 4225 994 4094 
Q 725 3938 700 3819 
Q 675 3706 731 3606 
Q 794 3488 794 3313 
Q 794 3256 731 3194 
Q 669 3131 588 3131 
Q 481 3131 406 3206 
Q 331 3288 331 3406 
Q 331 3788 719 4106 
Q 1081 4400 1594 4400 
Q 2206 4400 2556 4088 
Q 2919 3750 2919 3319 
Q 2919 2775 1825 2113 
Q 1088 1638 819 1294 
Q 606 1075 550 756 
L 1831 756 
Q 2469 756 2806 1244 
L 2881 1213 
L 2613 475 
L 531 475 
z
" transform="scale(0.015625)"/>
       </defs>
       <use xlink:href="#UMingCN-32"/>
      </g>
     </g>
    </g>
    <g id="xtick_4">
     <g id="line2d_7">
      <path d="M 268.155842 320.3575 
L 268.155842 10.8 
" clip-path="url(#p55cda19ee0)" style="fill: none; stroke: #b0b0b0; stroke-opacity: 0.3; stroke-width: 0.8; stroke-linecap: square"/>
     </g>
     <g id="line2d_8">
      <g>
       <use xlink:href="#m35aac900d9" x="268.155842" y="320.3575" style="stroke: #000000; stroke-width: 0.8"/>
      </g>
     </g>
     <g id="text_4">
      <!-- 3 -->
      <g transform="translate(265.655842 334.2325) scale(0.1 -0.1)">
       <defs>
        <path id="UMingCN-33" d="M 2875 1463 
Q 2875 981 2481 675 
Q 2106 413 1613 413 
Q 1019 413 656 719 
Q 325 1000 325 1344 
Q 325 1456 390 1518 
Q 456 1581 550 1581 
Q 631 1581 693 1512 
Q 756 1444 756 1344 
Q 750 1250 706 1188 
Q 663 1125 663 1025 
Q 663 900 956 738 
Q 1225 588 1613 588 
Q 1975 588 2281 806 
Q 2550 1000 2550 1463 
Q 2550 1906 2275 2131 
Q 2038 2325 1656 2325 
Q 1569 2325 1494 2281 
Q 1400 2231 1344 2231 
Q 1163 2238 1163 2413 
Q 1163 2581 1344 2581 
Q 1419 2581 1500 2538 
Q 1575 2500 1656 2500 
Q 1825 2500 2113 2725 
Q 2425 2975 2425 3413 
Q 2425 3825 2156 4031 
Q 1900 4225 1594 4225 
Q 1213 4225 963 4025 
Q 738 3844 819 3713 
Q 894 3588 894 3450 
Q 894 3350 831 3275 
Q 775 3206 681 3206 
Q 594 3206 531 3275 
Q 463 3350 463 3450 
Q 463 3838 825 4125 
Q 1138 4400 1594 4400 
Q 2131 4400 2413 4138 
Q 2750 3825 2750 3413 
Q 2750 2831 2175 2544 
Q 2075 2494 2000 2450 
Q 2119 2419 2250 2375 
Q 2875 2156 2875 1463 
z
" transform="scale(0.015625)"/>
       </defs>
       <use xlink:href="#UMingCN-33"/>
      </g>
     </g>
    </g>
    <g id="xtick_5">
     <g id="line2d_9">
      <path d="M 339.5051 320.3575 
L 339.5051 10.8 
" clip-path="url(#p55cda19ee0)" style="fill: none; stroke: #b0b0b0; stroke-opacity: 0.3; stroke-width: 0.8; stroke-linecap: square"/>
     </g>
     <g id="line2d_10">
      <g>
       <use xlink:href="#m35aac900d9" x="339.5051" y="320.3575" style="stroke: #000000; stroke-width: 0.8"/>
      </g>
     </g>
     <g id="text_5">
      <!-- 4 -->
      <g transform="translate(337.0051 334.2325) scale(0.1 -0.1)">
       <defs>
        <path id="UMingCN-34" d="M 2263 1538 
L 2994 1538 
L 2994 1294 
L 2263 1294 
L 2263 938 
Q 2263 581 2844 581 
L 2844 475 
L 1375 475 
L 1375 581 
Q 1956 581 1956 938 
L 1956 1294 
L 206 1294 
L 206 1581 
L 2119 4338 
L 2263 4338 
L 2263 1538 
z
M 1956 1538 
L 1956 3894 
L 350 1538 
L 1956 1538 
z
" transform="scale(0.015625)"/>
       </defs>
       <use xlink:href="#UMingCN-34"/>
      </g>
     </g>
    </g>
    <g id="xtick_6">
     <g id="line2d_11">
      <path d="M 410.854358 320.3575 
L 410.854358 10.8 
" clip-path="url(#p55cda19ee0)" style="fill: none; stroke: #b0b0b0; stroke-opacity: 0.3; stroke-width: 0.8; stroke-linecap: square"/>
     </g>
     <g id="line2d_12">
      <g>
       <use xlink:href="#m35aac900d9" x="410.854358" y="320.3575" style="stroke: #000000; stroke-width: 0.8"/>
      </g>
     </g>
     <g id="text_6">
      <!-- 5 -->
      <g transform="translate(408.354358 334.2325) scale(0.1 -0.1)">
       <defs>
        <path id="UMingCN-35" d="M 2688 4338 
L 2550 4025 
L 750 4025 
L 750 2519 
Q 1138 2819 1688 2819 
Q 2156 2819 2481 2544 
Q 2900 2188 2900 1544 
Q 2900 1019 2488 694 
Q 2131 413 1588 413 
Q 1088 413 625 713 
Q 306 919 306 1169 
Q 306 1288 369 1338 
Q 438 1394 519 1394 
Q 594 1394 669 1319 
Q 738 1250 738 1169 
Q 738 1106 700 1069 
Q 669 1038 669 956 
Q 669 894 919 744 
Q 1188 588 1588 588 
Q 1963 588 2238 813 
Q 2575 1088 2575 1544 
Q 2575 2069 2206 2356 
Q 1925 2575 1525 2575 
Q 1150 2575 694 2375 
L 644 2425 
L 644 4338 
L 2688 4338 
z
" transform="scale(0.015625)"/>
       </defs>
       <use xlink:href="#UMingCN-35"/>
      </g>
     </g>
    </g>
    <g id="text_7">
     <!-- 时间/s -->
     <g transform="translate(213.91375 347.227813) scale(0.1 -0.1)">
      <defs>
       <path id="UMingCN-65f6" d="M 1806 1075 
L 769 1075 
Q 769 738 775 469 
Q 769 375 538 219 
Q 488 194 463 194 
Q 425 200 431 319 
Q 456 944 475 1606 
L 475 4306 
Q 469 4506 431 4794 
Q 419 4856 438 4863 
Q 444 4863 688 4669 
L 1656 4669 
Q 1731 4669 1775 4713 
L 1931 4875 
Q 1963 4919 2019 4881 
Q 2213 4738 2350 4619 
Q 2394 4569 2338 4563 
Q 2231 4544 2175 4488 
Q 2125 4431 2125 4369 
L 2125 1894 
Q 2131 1469 2175 850 
Q 2175 769 2113 731 
Q 1831 569 1806 575 
Q 1781 588 1788 688 
Q 1800 863 1806 1075 
z
M 775 1606 
Q 769 1438 769 1269 
L 1813 1269 
Q 1819 1481 1825 1713 
L 1825 2775 
L 775 2775 
L 775 1606 
z
M 775 4475 
L 775 2969 
L 1825 2969 
L 1825 4475 
L 775 4475 
z
M 4925 175 
Q 4913 -56 4813 -213 
Q 4656 -444 4500 -525 
Q 4450 -569 4425 -569 
Q 4394 -569 4369 -438 
Q 4313 -250 4250 -188 
Q 4181 -100 3819 -56 
Q 3719 -44 3725 38 
Q 3731 119 3831 113 
Q 4419 25 4531 63 
Q 4619 100 4625 238 
L 4625 3650 
L 3119 3650 
Q 2856 3644 2663 3606 
Q 2613 3588 2594 3644 
Q 2569 3756 2475 3831 
Q 2431 3875 2450 3900 
Q 2475 3919 2519 3894 
Q 2756 3844 3044 3844 
L 4625 3844 
L 4625 4488 
Q 4619 4988 4600 5294 
Q 4581 5394 4644 5375 
Q 5000 5250 5119 5188 
Q 5194 5138 5100 5094 
Q 4988 5044 4963 4988 
Q 4925 4869 4925 4488 
L 4925 3844 
L 5400 3844 
Q 5438 3844 5475 3888 
L 5700 4144 
Q 5744 4188 5788 4144 
Q 5950 3981 6063 3844 
Q 6131 3756 6088 3694 
Q 6056 3656 5975 3650 
L 5400 3650 
L 4925 3650 
L 4925 175 
z
M 2931 2769 
Q 2900 2813 2938 2850 
Q 2975 2881 3038 2819 
Q 3869 2100 3850 1706 
Q 3850 1588 3731 1419 
Q 3638 1288 3563 1294 
Q 3500 1313 3506 1431 
Q 3438 2069 2931 2769 
z
" transform="scale(0.015625)"/>
       <path id="UMingCN-95f4" d="M 3906 1175 
L 2425 1175 
Q 2419 850 2394 813 
Q 2175 644 2138 638 
Q 2088 644 2094 763 
Q 2119 1144 2125 2031 
L 2125 3306 
Q 2119 3531 2100 3712 
Q 2081 3894 2103 3900 
Q 2125 3906 2184 3843 
Q 2244 3781 2394 3669 
L 3756 3669 
Q 3831 3669 3875 3713 
L 4031 3875 
Q 4063 3919 4119 3881 
Q 4313 3738 4450 3619 
Q 4494 3569 4438 3563 
Q 4331 3544 4278 3487 
Q 4225 3431 4225 3369 
L 4225 2019 
Q 4231 1594 4275 975 
Q 4275 894 4213 856 
Q 3931 694 3906 703 
Q 3881 713 3890 841 
Q 3900 969 3906 1175 
z
M 2425 2375 
L 2425 1369 
L 3913 1369 
Q 3919 1588 3925 1838 
L 3925 2375 
L 2425 2375 
z
M 2425 3475 
L 2425 2569 
L 3925 2569 
L 3925 3475 
L 2425 3475 
z
M 769 4363 
Q 756 4469 831 4444 
Q 1169 4338 1269 4284 
Q 1369 4231 1269 4178 
Q 1169 4125 1134 4034 
Q 1100 3944 1100 3563 
L 1100 1019 
Q 1100 288 1125 -206 
Q 1131 -256 1069 -300 
L 831 -450 
Q 750 -513 756 -381 
Q 794 450 800 1019 
L 800 3563 
Q 794 4063 769 4363 
z
M 1350 5225 
Q 1306 5275 1331 5319 
Q 1375 5369 1450 5306 
Q 2119 4831 2119 4600 
Q 2106 4450 2009 4369 
Q 1913 4288 1875 4291 
Q 1838 4294 1800 4425 
Q 1631 4944 1350 5225 
z
M 3244 4969 
L 5119 4969 
Q 5175 4969 5181 4975 
L 5338 5181 
Q 5350 5206 5375 5206 
Q 5444 5206 5769 4869 
Q 5813 4819 5688 4769 
Q 5563 4719 5544 4687 
Q 5525 4656 5525 4613 
L 5525 88 
Q 5525 -125 5413 -281 
Q 5300 -438 5131 -500 
Q 5075 -525 5050 -469 
Q 4938 -150 4413 -88 
Q 4338 -75 4344 -15 
Q 4350 44 4431 38 
Q 5125 -25 5181 0 
Q 5225 25 5225 156 
L 5225 4775 
L 3319 4775 
Q 3056 4769 2863 4731 
Q 2806 4713 2800 4769 
Q 2769 4881 2697 4943 
Q 2625 5006 2650 5028 
Q 2675 5050 2719 5025 
Q 2956 4969 3244 4969 
z
" transform="scale(0.015625)"/>
       <path id="UMingCN-2f" d="M 2819 5225 
L 3144 5225 
L 375 -475 
L 50 -475 
L 2819 5225 
z
" transform="scale(0.015625)"/>
       <path id="UMingCN-73" d="M 2725 2725 
L 2675 2294 
L 2588 2294 
Q 2406 2681 2194 2800 
Q 1975 2919 1750 2919 
Q 1313 2919 1119 2775 
Q 931 2638 931 2444 
Q 931 2275 1050 2156 
Q 1156 2044 1756 1944 
Q 2400 1844 2619 1638 
Q 2831 1438 2831 1194 
Q 2831 913 2563 669 
Q 2281 413 1756 413 
Q 1194 419 606 750 
L 375 1275 
L 463 1344 
Q 788 931 1094 756 
Q 1388 588 1675 588 
Q 2075 588 2294 763 
Q 2506 931 2506 1119 
Q 2506 1313 2356 1431 
Q 2213 1538 1581 1656 
Q 981 1769 793 1944 
Q 606 2119 606 2363 
Q 606 2681 894 2888 
Q 1188 3094 1663 3094 
Q 2119 3094 2725 2725 
z
" transform="scale(0.015625)"/>
      </defs>
      <use xlink:href="#UMingCN-65f6"/>
      <use xlink:href="#UMingCN-95f4" x="100"/>
      <use xlink:href="#UMingCN-2f" x="200"/>
      <use xlink:href="#UMingCN-73" x="250"/>
     </g>
    </g>
   </g>
   <g id="matplotlib.axis_2">
    <g id="ytick_1">
     <g id="line2d_13">
      <path d="M 36.6275 278.993333 
L 421.2 278.993333 
" clip-path="url(#p55cda19ee0)" style="fill: none; stroke: #b0b0b0; stroke-opacity: 0.3; stroke-width: 0.8; stroke-linecap: square"/>
     </g>
     <g id="line2d_14">
      <defs>
       <path id="md3f808950b" d="M 0 0 
L -3.5 0 
" style="stroke: #000000; stroke-width: 0.8"/>
      </defs>
      <g>
       <use xlink:href="#md3f808950b" x="36.6275" y="278.993333" style="stroke: #000000; stroke-width: 0.8"/>
      </g>
     </g>
     <g id="text_8">
      <!-- 1 -->
      <g transform="translate(24.6275 282.430833) scale(0.1 -0.1)">
       <use xlink:href="#UMingCN-31"/>
      </g>
     </g>
    </g>
    <g id="ytick_2">
     <g id="line2d_15">
      <path d="M 36.6275 215.462699 
L 421.2 215.462699 
" clip-path="url(#p55cda19ee0)" style="fill: none; stroke: #b0b0b0; stroke-opacity: 0.3; stroke-width: 0.8; stroke-linecap: square"/>
     </g>
     <g id="line2d_16">
      <g>
       <use xlink:href="#md3f808950b" x="36.6275" y="215.462699" style="stroke: #000000; stroke-width: 0.8"/>
      </g>
     </g>
     <g id="text_9">
      <!-- 2 -->
      <g transform="translate(24.6275 218.900199) scale(0.1 -0.1)">
       <use xlink:href="#UMingCN-32"/>
      </g>
     </g>
    </g>
    <g id="ytick_3">
     <g id="line2d_17">
      <path d="M 36.6275 151.932064 
L 421.2 151.932064 
" clip-path="url(#p55cda19ee0)" style="fill: none; stroke: #b0b0b0; stroke-opacity: 0.3; stroke-width: 0.8; stroke-linecap: square"/>
     </g>
     <g id="line2d_18">
      <g>
       <use xlink:href="#md3f808950b" x="36.6275" y="151.932064" style="stroke: #000000; stroke-width: 0.8"/>
      </g>
     </g>
     <g id="text_10">
      <!-- 3 -->
      <g transform="translate(24.6275 155.369564) scale(0.1 -0.1)">
       <use xlink:href="#UMingCN-33"/>
      </g>
     </g>
    </g>
    <g id="ytick_4">
     <g id="line2d_19">
      <path d="M 36.6275 88.40143 
L 421.2 88.40143 
" clip-path="url(#p55cda19ee0)" style="fill: none; stroke: #b0b0b0; stroke-opacity: 0.3; stroke-width: 0.8; stroke-linecap: square"/>
     </g>
     <g id="line2d_20">
      <g>
       <use xlink:href="#md3f808950b" x="36.6275" y="88.40143" style="stroke: #000000; stroke-width: 0.8"/>
      </g>
     </g>
     <g id="text_11">
      <!-- 4 -->
      <g transform="translate(24.6275 91.83893) scale(0.1 -0.1)">
       <use xlink:href="#UMingCN-34"/>
      </g>
     </g>
    </g>
    <g id="ytick_5">
     <g id="line2d_21">
      <path d="M 36.6275 24.870795 
L 421.2 24.870795 
" clip-path="url(#p55cda19ee0)" style="fill: none; stroke: #b0b0b0; stroke-opacity: 0.3; stroke-width: 0.8; stroke-linecap: square"/>
     </g>
     <g id="line2d_22">
      <g>
       <use xlink:href="#md3f808950b" x="36.6275" y="24.870795" style="stroke: #000000; stroke-width: 0.8"/>
      </g>
     </g>
     <g id="text_12">
      <!-- 5 -->
      <g transform="translate(24.6275 28.308295) scale(0.1 -0.1)">
       <use xlink:href="#UMingCN-35"/>
      </g>
     </g>
    </g>
    <g id="text_13">
     <!-- 风险值 -->
     <g transform="translate(19.680625 180.57875) rotate(-90) scale(0.1 -0.1)">
      <defs>
       <path id="UMingCN-98ce" d="M 5563 150 
Q 5613 156 5638 288 
Q 5713 556 5775 1144 
Q 5788 1213 5850 1206 
Q 5906 1188 5900 1125 
Q 5788 213 5975 -369 
Q 6013 -444 5975 -488 
Q 5931 -525 5775 -444 
Q 5481 -331 5194 69 
Q 4831 581 4713 1338 
Q 4538 2400 4600 4800 
L 1581 4800 
L 1581 3919 
Q 1581 2625 1500 1756 
Q 1369 394 406 -419 
Q 325 -481 281 -419 
Q 238 -350 300 -306 
Q 588 6 775 294 
Q 1281 1163 1281 3638 
L 1281 4644 
Q 1275 4881 1219 5131 
Q 1213 5181 1238 5200 
Q 1269 5206 1313 5163 
Q 1400 5075 1538 4994 
L 4419 4994 
Q 4469 5000 4488 5025 
L 4700 5238 
Q 4719 5263 4744 5263 
Q 4819 5256 5175 4881 
Q 5206 4838 5188 4813 
Q 5169 4788 5106 4794 
Q 4981 4806 4938 4744 
Q 4869 4656 4869 4088 
Q 4850 2125 5000 1313 
Q 5125 775 5406 325 
Q 5525 144 5563 150 
z
M 2988 2419 
Q 2588 3000 2025 3625 
Q 1988 3675 2031 3719 
Q 2075 3756 2138 3694 
Q 2694 3156 3106 2669 
Q 3419 3325 3613 4006 
Q 3625 4094 3644 4100 
Q 3706 4125 4088 3919 
Q 4213 3844 4213 3819 
Q 4206 3794 4125 3769 
Q 3931 3706 3500 2800 
Q 3400 2625 3300 2438 
Q 4044 1500 4163 1050 
Q 4250 769 4038 506 
Q 3981 463 3938 469 
Q 3888 481 3881 575 
Q 3750 1194 3150 2188 
Q 2625 1350 1850 413 
Q 1775 344 1731 388 
Q 1681 438 1738 513 
Q 2463 1413 2919 2275 
Q 2950 2356 2988 2419 
z
" transform="scale(0.015625)"/>
       <path id="UMingCN-9669" d="M 1588 875 
Q 1444 813 1438 869 
Q 1400 1013 1288 1106 
Q 1156 1206 981 1244 
Q 875 1269 894 1350 
Q 913 1438 1031 1394 
Q 1381 1319 1594 1356 
Q 1694 1375 1769 1431 
Q 2338 2131 1175 3256 
Q 1119 3300 1163 3400 
Q 1444 4150 1669 4831 
Q 1663 4863 1656 4869 
Q 1650 4881 1613 4875 
L 725 4875 
L 725 806 
Q 719 138 725 -331 
Q 719 -425 488 -581 
Q 438 -606 413 -606 
Q 375 -600 381 -481 
Q 406 144 425 806 
L 425 4706 
Q 419 4906 381 5194 
Q 369 5256 388 5263 
Q 394 5263 638 5069 
L 1613 5069 
Q 1663 5069 1719 5131 
L 1831 5269 
Q 1869 5319 1913 5275 
Q 2100 5144 2231 5013 
Q 2281 4963 2219 4938 
Q 2094 4881 2013 4763 
Q 1788 4431 1619 4075 
Q 1244 3331 1325 3269 
Q 2281 2531 2263 1744 
Q 2244 1413 2088 1219 
Q 1913 1013 1588 875 
z
M 4156 5013 
Q 5031 3381 6181 3138 
Q 6213 3131 6206 3088 
Q 6194 3038 6113 3038 
Q 5994 3044 5894 2963 
Q 5806 2888 5769 2788 
Q 5750 2744 5706 2788 
Q 5050 3288 4706 3744 
Q 4388 4163 4063 4919 
Q 4019 4856 3963 4738 
Q 3544 3988 3206 3575 
Q 2869 3138 2319 2700 
Q 2256 2644 2219 2688 
Q 2188 2731 2231 2775 
Q 2844 3381 3225 4006 
Q 3550 4569 3756 5300 
Q 3769 5369 3825 5350 
Q 4088 5244 4294 5144 
Q 4344 5106 4338 5081 
Q 4313 5038 4231 5031 
Q 4181 5031 4156 5013 
z
M 4500 2919 
Q 4538 2919 4575 2963 
L 4800 3219 
Q 4844 3263 4888 3219 
Q 5050 3056 5163 2919 
Q 5231 2831 5188 2769 
Q 5156 2731 5075 2725 
L 4500 2725 
L 3469 2725 
Q 3206 2719 3013 2681 
Q 2963 2663 2944 2719 
Q 2919 2831 2825 2906 
Q 2781 2950 2800 2975 
Q 2825 2994 2869 2969 
Q 3106 2919 3394 2919 
L 4500 2919 
z
M 2625 1694 
Q 2600 1744 2638 1769 
Q 2675 1794 2738 1731 
Q 3444 981 3381 619 
Q 3369 494 3231 344 
Q 3113 219 3050 238 
Q 2988 263 3006 381 
Q 3019 1000 2625 1694 
z
M 3525 2194 
Q 3500 2244 3538 2269 
Q 3575 2300 3638 2238 
Q 4313 1556 4275 1219 
Q 4263 1100 4131 944 
Q 4019 819 3956 838 
Q 3900 856 3906 975 
Q 3919 1556 3525 2194 
z
M 4325 -106 
Q 4338 -81 4344 -63 
Q 4856 1106 4994 2194 
Q 5006 2281 5031 2300 
Q 5063 2313 5163 2250 
Q 5519 1988 5519 1931 
Q 5506 1894 5463 1888 
Q 5306 1831 5175 1438 
Q 4881 613 4481 -106 
L 5350 -106 
Q 5388 -106 5425 -63 
L 5650 194 
Q 5694 238 5738 194 
Q 5900 31 6013 -106 
Q 6081 -194 6038 -256 
Q 6006 -294 5925 -300 
L 5350 -300 
L 2519 -300 
Q 2256 -306 2063 -344 
Q 2013 -363 1994 -306 
Q 1969 -194 1875 -119 
Q 1831 -75 1850 -50 
Q 1875 -31 1919 -56 
Q 2156 -106 2444 -106 
L 4325 -106 
z
" transform="scale(0.015625)"/>
       <path id="UMingCN-503c" d="M 1169 3988 
Q 1575 4969 1581 5294 
Q 1588 5406 1700 5344 
Q 1938 5206 2038 5144 
Q 2106 5094 2106 5056 
Q 2100 5025 2025 5019 
Q 1950 5000 1925 4975 
Q 1850 4906 1681 4513 
Q 1525 4175 1350 3813 
Q 1544 3750 1681 3669 
Q 1763 3625 1681 3588 
Q 1494 3494 1475 3450 
Q 1450 3394 1450 3013 
L 1450 944 
Q 1450 163 1475 -369 
Q 1475 -425 1431 -431 
L 1156 -544 
Q 1100 -556 1106 -456 
Q 1144 375 1150 944 
L 1150 3013 
Q 1144 3244 1138 3419 
Q 1094 3356 1069 3294 
Q 781 2794 344 2225 
Q 281 2156 238 2194 
Q 188 2238 244 2300 
Q 769 2988 1169 3988 
z
M 5175 -106 
L 5400 -106 
Q 5438 -106 5475 -63 
L 5700 194 
Q 5744 238 5788 194 
Q 5950 31 6063 -106 
Q 6131 -194 6088 -256 
Q 6056 -294 5975 -300 
L 2288 -300 
Q 2119 -300 1906 -344 
Q 1875 -350 1869 -331 
Q 1788 -213 1725 -113 
Q 1688 -50 1769 -69 
Q 2150 -100 2194 -106 
L 2625 -106 
L 2625 3075 
Q 2625 3419 2581 3706 
Q 2575 3781 2600 3788 
Q 2631 3800 2675 3744 
Q 2738 3663 2888 3544 
L 3619 3544 
L 3731 4375 
L 2588 4375 
Q 2419 4375 2206 4331 
Q 2175 4325 2169 4344 
Q 2088 4469 2025 4569 
Q 1988 4631 2069 4613 
Q 2450 4575 2494 4569 
L 3756 4569 
L 3813 4963 
Q 3844 5175 3850 5350 
Q 3850 5394 3869 5400 
Q 3900 5413 3944 5388 
Q 4100 5319 4313 5206 
Q 4356 5181 4356 5156 
Q 4363 5138 4319 5119 
Q 4156 5050 4150 5025 
Q 4131 4963 4113 4881 
L 4069 4569 
L 5100 4569 
Q 5175 4569 5200 4594 
Q 5231 4625 5288 4688 
L 5450 4919 
Q 5494 4975 5550 4919 
Q 5744 4744 5931 4550 
Q 5994 4488 5988 4431 
Q 5975 4381 5894 4375 
L 4044 4375 
L 3931 3544 
L 4706 3544 
Q 4744 3550 4769 3575 
L 4913 3738 
Q 4950 3788 4994 3750 
Q 5200 3600 5375 3444 
Q 5419 3413 5381 3388 
Q 5200 3269 5194 3250 
Q 5175 3213 5175 3113 
L 5175 -106 
z
M 4875 625 
L 2925 625 
L 2925 -106 
L 4875 -106 
L 4875 625 
z
M 4875 1575 
L 2925 1575 
L 2925 819 
L 4875 819 
L 4875 1575 
z
M 4875 2475 
L 2925 2475 
L 2925 1769 
L 4875 1769 
L 4875 2475 
z
M 4713 3350 
L 2925 3350 
L 2925 2669 
L 4875 2669 
L 4875 3350 
L 4713 3350 
z
" transform="scale(0.015625)"/>
      </defs>
      <use xlink:href="#UMingCN-98ce"/>
      <use xlink:href="#UMingCN-9669" x="100"/>
      <use xlink:href="#UMingCN-503c" x="200"/>
     </g>
    </g>
   </g>
   <g id="line2d_23">
    <path d="M 54.108068 188.889927 
L 61.242994 115.898462 
L 68.37792 143.641596 
L 75.512846 107.545924 
L 82.647771 28.047327 
L 89.782697 28.047327 
L 96.917623 28.047327 
L 104.052549 67.234652 
L 111.187474 109.85862 
L 118.3224 154.893029 
L 125.457326 207.583361 
L 132.592252 261.553261 
L 139.727178 210.304468 
L 146.862103 156.277884 
L 153.997029 206.902501 
L 161.131955 102.341728 
L 168.266881 71.165121 
L 175.401807 61.823774 
L 182.536732 109.164534 
L 189.671658 163.482495 
L 196.806584 124.943222 
L 203.94151 58.572984 
L 211.076436 107.6224 
L 218.211361 97.69332 
L 225.346287 197.53063 
L 232.481213 212.846585 
L 239.616139 138.798011 
L 246.751064 190.236488 
L 253.88599 180.634749 
L 261.020916 180.167607 
L 268.155842 178.048363 
L 275.290768 168.533356 
L 282.425693 123.419434 
L 289.560619 202.277662 
L 296.695545 137.747089 
L 303.830471 134.590731 
L 310.965397 153.676567 
L 318.100322 193.347201 
L 325.235248 142.914019 
L 332.370174 165.410033 
L 339.5051 176.629986 
L 346.640026 181.752823 
L 353.774951 185.030511 
L 360.909877 160.457465 
L 368.044803 167.487205 
L 375.179729 149.793595 
L 382.314654 145.815525 
L 389.44958 163.641079 
L 396.584506 174.054819 
L 403.719432 143.506353 
" clip-path="url(#p55cda19ee0)" style="fill: none; stroke: #1f77b4; stroke-width: 1.5; stroke-linecap: square"/>
   </g>
   <g id="line2d_24">
    <path d="M 54.108068 91.533889 
L 61.242994 24.870795 
L 68.37792 38.608723 
L 75.512846 28.047327 
L 82.647771 28.047327 
L 89.782697 28.047327 
L 96.917623 28.047327 
L 104.052549 28.047327 
L 111.187474 28.047327 
L 118.3224 28.047327 
L 125.457326 28.047327 
L 132.592252 28.047327 
" clip-path="url(#p55cda19ee0)" style="fill: none; stroke: #ff7f0e; stroke-width: 1.5; stroke-linecap: square"/>
   </g>
   <g id="line2d_25">
    <path d="M 54.108068 130.265607 
L 61.242994 139.299285 
L 68.37792 135.381226 
L 75.512846 245.668696 
L 82.647771 242.100144 
L 89.782697 207.176807 
L 96.917623 85.29117 
L 104.052549 214.056974 
L 111.187474 195.213446 
L 118.3224 186.854252 
L 125.457326 218.632567 
L 132.592252 221.875068 
L 139.727178 223.898164 
L 146.862103 235.559132 
L 153.997029 242.841828 
L 161.131955 136.313503 
L 168.266881 92.009549 
L 175.401807 189.272458 
L 182.536732 76.561136 
L 189.671658 89.857969 
L 196.806584 96.261612 
L 203.94151 91.840271 
L 211.076436 180.18493 
L 218.211361 204.007373 
L 225.346287 230.225695 
L 232.481213 234.463661 
L 239.616139 263.973479 
L 246.751064 271.757872 
L 253.88599 251.409994 
L 261.020916 271.836562 
L 268.155842 223.589095 
L 275.290768 203.034402 
L 282.425693 168.266024 
L 289.560619 105.322813 
L 296.695545 103.944971 
L 303.830471 108.00291 
L 310.965397 100.335346 
L 318.100322 134.116072 
L 325.235248 210.176001 
L 332.370174 234.142184 
L 339.5051 204.17653 
L 346.640026 233.504366 
L 353.774951 238.197322 
L 360.909877 242.149607 
L 368.044803 240.059026 
L 375.179729 227.617705 
L 382.314654 252.130067 
L 389.44958 278.94189 
L 396.584506 270.764322 
L 403.719432 285.772866 
" clip-path="url(#p55cda19ee0)" style="fill: none; stroke: #2ca02c; stroke-width: 1.5; stroke-linecap: square"/>
   </g>
   <g id="line2d_26">
    <path d="M 54.108068 76.83434 
L 61.242994 24.870795 
L 68.37792 117.550166 
L 75.512846 129.646106 
L 82.647771 196.269542 
L 89.782697 239.423509 
L 96.917623 296.812579 
L 104.052549 288.068447 
L 111.187474 201.402202 
L 118.3224 260.468802 
L 125.457326 152.765939 
L 132.592252 175.291235 
L 139.727178 220.316865 
L 146.862103 188.447207 
L 153.997029 254.577801 
L 161.131955 230.304121 
L 168.266881 226.70592 
L 175.401807 182.504385 
L 182.536732 223.297903 
L 189.671658 176.299899 
L 196.806584 239.812172 
L 203.94151 228.236302 
L 211.076436 252.65629 
L 218.211361 253.367089 
L 225.346287 203.616847 
L 232.481213 210.49869 
L 239.616139 241.557377 
L 246.751064 244.122669 
L 253.88599 235.760884 
L 261.020916 249.674295 
L 268.155842 212.622301 
L 275.290768 232.101092 
L 282.425693 185.038157 
L 289.560619 231.213839 
L 296.695545 227.830311 
L 303.830471 231.304002 
L 310.965397 179.313889 
L 318.100322 238.325485 
L 325.235248 221.854962 
L 332.370174 260.533573 
L 339.5051 244.518167 
L 346.640026 267.502055 
L 353.774951 256.24504 
L 360.909877 266.404764 
L 368.044803 244.472207 
L 375.179729 240.90965 
L 382.314654 215.89668 
L 389.44958 221.853888 
L 396.584506 209.105246 
L 403.719432 213.858181 
" clip-path="url(#p55cda19ee0)" style="fill: none; stroke: #d62728; stroke-width: 1.5; stroke-linecap: square"/>
   </g>
   <g id="line2d_27">
    <path d="M 54.108068 128.566163 
L 61.242994 24.870795 
L 68.37792 28.047327 
L 75.512846 28.047327 
L 82.647771 28.047327 
L 89.782697 115.612021 
L 96.917623 88.678534 
L 104.052549 178.313504 
L 111.187474 267.131519 
L 118.3224 254.604083 
L 125.457326 243.771934 
L 132.592252 169.111612 
L 139.727178 181.423166 
L 146.862103 106.343921 
L 153.997029 83.724823 
L 161.131955 48.944497 
L 168.266881 91.783522 
L 175.401807 84.580405 
L 182.536732 186.776497 
L 189.671658 90.662567 
L 196.806584 153.679929 
L 203.94151 37.181202 
L 211.076436 37.892296 
L 218.211361 66.141991 
L 225.346287 108.993796 
L 232.481213 65.65965 
L 239.616139 32.578969 
L 246.751064 64.200548 
L 253.88599 78.871103 
L 261.020916 55.53239 
L 268.155842 64.885882 
L 275.290768 51.634813 
L 282.425693 92.111271 
L 289.560619 126.891671 
L 296.695545 104.043553 
L 303.830471 167.986714 
L 310.965397 146.083285 
L 318.100322 180.366237 
L 325.235248 153.261175 
L 332.370174 192.406779 
L 339.5051 212.47043 
L 346.640026 141.158001 
L 353.774951 182.622661 
L 360.909877 184.929762 
L 368.044803 196.715172 
L 375.179729 118.559265 
L 382.314654 101.460732 
L 389.44958 130.997503 
L 396.584506 221.999065 
L 403.719432 180.957217 
" clip-path="url(#p55cda19ee0)" style="fill: none; stroke: #9467bd; stroke-width: 1.5; stroke-linecap: square"/>
   </g>
   <g id="line2d_28">
    <path d="M 54.108068 52.047931 
L 61.242994 24.870795 
L 68.37792 28.047327 
L 75.512846 101.799102 
L 82.647771 28.047327 
L 89.782697 31.678886 
L 96.917623 84.01813 
L 104.052549 28.047327 
L 111.187474 43.036441 
L 118.3224 79.716992 
L 125.457326 90.142195 
L 132.592252 28.047327 
L 139.727178 28.047327 
L 146.862103 28.047327 
L 153.997029 96.319559 
L 161.131955 69.118149 
L 168.266881 73.666471 
L 175.401807 69.518158 
L 182.536732 78.537529 
L 189.671658 93.72628 
L 196.806584 57.920459 
L 203.94151 70.002119 
L 211.076436 77.169603 
L 218.211361 118.426393 
L 225.346287 88.817705 
L 232.481213 95.92171 
L 239.616139 127.788619 
L 246.751064 178.590303 
L 253.88599 132.304187 
L 261.020916 171.687323 
L 268.155842 81.144745 
L 275.290768 90.260094 
L 282.425693 94.409824 
L 289.560619 120.508078 
L 296.695545 170.100731 
L 303.830471 137.340807 
L 310.965397 143.772542 
L 318.100322 194.559911 
L 325.235248 174.529069 
L 332.370174 198.5174 
L 339.5051 175.098792 
L 346.640026 141.848997 
L 353.774951 181.217838 
L 360.909877 163.845097 
L 368.044803 209.508277 
L 375.179729 155.212713 
L 382.314654 117.472122 
L 389.44958 129.699975 
L 396.584506 150.408342 
L 403.719432 203.900709 
" clip-path="url(#p55cda19ee0)" style="fill: none; stroke: #8c564b; stroke-width: 1.5; stroke-linecap: square"/>
   </g>
   <g id="line2d_29">
    <path d="M 54.108068 159.023785 
L 61.242994 58.458313 
L 68.37792 28.047327 
L 75.512846 28.047327 
L 82.647771 28.047327 
L 89.782697 28.047327 
L 96.917623 28.047327 
L 104.052549 28.047327 
L 111.187474 70.377933 
L 118.3224 158.721306 
L 125.457326 77.14189 
L 132.592252 82.570614 
L 139.727178 58.614531 
L 146.862103 108.105212 
L 153.997029 77.824939 
L 161.131955 28.047327 
L 168.266881 28.047327 
L 175.401807 28.047327 
L 182.536732 28.047327 
L 189.671658 31.223859 
L 196.806584 31.223859 
L 203.94151 35.307673 
L 211.076436 89.813709 
L 218.211361 101.501669 
L 225.346287 107.383825 
L 232.481213 97.530695 
L 239.616139 97.457745 
L 246.751064 93.626705 
L 253.88599 127.374602 
L 261.020916 231.292107 
L 268.155842 225.215929 
L 275.290768 166.437663 
L 282.425693 193.204547 
L 289.560619 214.184349 
L 296.695545 227.311578 
L 303.830471 243.184369 
L 310.965397 255.381586 
L 318.100322 264.706545 
L 325.235248 242.390591 
L 332.370174 242.410853 
L 339.5051 241.635644 
L 346.640026 241.517373 
L 353.774951 242.730228 
L 360.909877 244.953441 
L 368.044803 247.315299 
L 375.179729 231.96104 
L 382.314654 205.352875 
L 389.44958 212.557538 
L 396.584506 211.487089 
L 403.719432 219.115521 
" clip-path="url(#p55cda19ee0)" style="fill: none; stroke: #e377c2; stroke-width: 1.5; stroke-linecap: square"/>
   </g>
   <g id="line2d_30">
    <path d="M 54.108068 210.906893 
L 61.242994 69.951976 
L 68.37792 57.681043 
L 75.512846 77.527642 
L 82.647771 65.983104 
L 89.782697 108.87601 
L 96.917623 120.364026 
L 104.052549 201.027701 
L 111.187474 276.57774 
L 118.3224 192.884258 
L 125.457326 246.384159 
L 132.592252 189.996774 
L 139.727178 180.195927 
L 146.862103 188.246765 
L 153.997029 117.847721 
L 161.131955 103.071053 
L 168.266881 120.196849 
L 175.401807 93.307543 
L 182.536732 163.444817 
L 189.671658 95.529579 
L 196.806584 46.977444 
L 203.94151 37.156904 
L 211.076436 28.047327 
L 218.211361 47.052158 
L 225.346287 49.632876 
L 232.481213 133.084024 
L 239.616139 178.178884 
L 246.751064 195.753463 
L 253.88599 203.380046 
L 261.020916 202.829701 
L 268.155842 156.481517 
L 275.290768 144.244482 
L 282.425693 181.056851 
L 289.560619 112.419178 
L 296.695545 119.083047 
L 303.830471 149.904148 
L 310.965397 166.127877 
L 318.100322 183.244273 
L 325.235248 196.417869 
L 332.370174 182.772434 
L 339.5051 144.979752 
L 346.640026 135.736853 
L 353.774951 164.001248 
L 360.909877 253.296073 
L 368.044803 231.686638 
L 375.179729 172.010273 
L 382.314654 181.696659 
L 389.44958 171.903524 
L 396.584506 198.960007 
L 403.719432 211.655916 
" clip-path="url(#p55cda19ee0)" style="fill: none; stroke: #7f7f7f; stroke-width: 1.5; stroke-linecap: square"/>
   </g>
   <g id="line2d_31">
    <path d="M 54.108068 306.286705 
L 61.242994 235.208195 
L 68.37792 277.352883 
L 75.512846 300.44336 
L 82.647771 238.782448 
L 89.782697 245.176883 
L 96.917623 276.57181 
L 104.052549 211.059628 
L 111.187474 281.894499 
L 118.3224 266.313032 
L 125.457326 304.701339 
L 132.592252 298.278695 
L 139.727178 303.099648 
L 146.862103 297.959776 
L 153.997029 299.490602 
L 161.131955 174.084847 
L 168.266881 121.823495 
L 175.401807 83.015621 
L 182.536732 50.665143 
L 189.671658 60.745055 
L 196.806584 106.669497 
L 203.94151 158.569636 
L 211.076436 201.814434 
L 218.211361 249.283007 
L 225.346287 267.122643 
L 232.481213 289.985709 
L 239.616139 277.583314 
L 246.751064 259.552455 
L 253.88599 235.386969 
L 261.020916 255.280188 
L 268.155842 239.059752 
L 275.290768 178.92779 
L 282.425693 130.529152 
L 289.560619 223.668918 
L 296.695545 142.483048 
L 303.830471 185.30785 
L 310.965397 146.45111 
L 318.100322 204.715498 
L 325.235248 216.063159 
L 332.370174 205.104505 
L 339.5051 216.519578 
L 346.640026 211.541968 
L 353.774951 203.842875 
L 360.909877 216.336266 
L 368.044803 220.226137 
L 375.179729 173.377279 
L 382.314654 115.750527 
L 389.44958 102.707745 
L 396.584506 96.109924 
L 403.719432 97.698321 
" clip-path="url(#p55cda19ee0)" style="fill: none; stroke: #bcbd22; stroke-width: 1.5; stroke-linecap: square"/>
   </g>
   <g id="line2d_32">
    <path d="M 54.108068 182.074383 
L 61.242994 194.506387 
L 68.37792 136.710902 
L 75.512846 41.606223 
L 82.647771 42.087906 
L 89.782697 28.047327 
L 96.917623 95.776523 
L 104.052549 28.047327 
L 111.187474 36.038018 
L 118.3224 93.46686 
L 125.457326 28.047327 
L 132.592252 28.047327 
L 139.727178 97.517541 
L 146.862103 28.047327 
L 153.997029 28.047327 
L 161.131955 64.539299 
L 168.266881 63.318046 
L 175.401807 49.913895 
L 182.536732 34.610882 
L 189.671658 71.907987 
L 196.806584 28.047327 
L 203.94151 28.047327 
L 211.076436 58.335557 
L 218.211361 28.047327 
L 225.346287 134.652547 
L 232.481213 154.752981 
L 239.616139 55.985008 
L 246.751064 68.292231 
L 253.88599 76.787074 
L 261.020916 75.475854 
L 268.155842 28.047327 
L 275.290768 110.471929 
L 282.425693 122.783224 
L 289.560619 30.900464 
L 296.695545 121.209987 
L 303.830471 30.117776 
L 310.965397 78.75482 
L 318.100322 111.971208 
L 325.235248 150.011982 
L 332.370174 162.576186 
L 339.5051 123.577379 
L 346.640026 193.039589 
L 353.774951 175.621297 
L 360.909877 240.323942 
L 368.044803 184.546228 
L 375.179729 127.879616 
L 382.314654 202.21264 
L 389.44958 174.679204 
L 396.584506 189.526741 
L 403.719432 187.261508 
" clip-path="url(#p55cda19ee0)" style="fill: none; stroke: #17becf; stroke-width: 1.5; stroke-linecap: square"/>
   </g>
   <g id="patch_3">
    <path d="M 36.6275 320.3575 
L 36.6275 10.8 
" style="fill: none; stroke: #000000; stroke-width: 0.8; stroke-linejoin: miter; stroke-linecap: square"/>
   </g>
   <g id="patch_4">
    <path d="M 421.2 320.3575 
L 421.2 10.8 
" style="fill: none; stroke: #000000; stroke-width: 0.8; stroke-linejoin: miter; stroke-linecap: square"/>
   </g>
   <g id="patch_5">
    <path d="M 36.6275 320.3575 
L 421.2 320.3575 
" style="fill: none; stroke: #000000; stroke-width: 0.8; stroke-linejoin: miter; stroke-linecap: square"/>
   </g>
   <g id="patch_6">
    <path d="M 36.6275 10.8 
L 421.2 10.8 
" style="fill: none; stroke: #000000; stroke-width: 0.8; stroke-linejoin: miter; stroke-linecap: square"/>
   </g>
   <g id="legend_1">
    <g id="patch_7">
     <path d="M 342.2 162.253125 
L 414.2 162.253125 
Q 416.2 162.253125 416.2 160.253125 
L 416.2 17.8 
Q 416.2 15.8 414.2 15.8 
L 342.2 15.8 
Q 340.2 15.8 340.2 17.8 
L 340.2 160.253125 
Q 340.2 162.253125 342.2 162.253125 
z
" style="fill: #ffffff; opacity: 0.8; stroke: #cccccc; stroke-linejoin: miter"/>
    </g>
    <g id="line2d_33">
     <path d="M 344.2 24.776563 
L 354.2 24.776563 
L 364.2 24.776563 
" style="fill: none; stroke: #1f77b4; stroke-width: 1.5; stroke-linecap: square"/>
    </g>
    <g id="text_14">
     <!-- 无人机 0 -->
     <g transform="translate(372.2 28.276563) scale(0.1 -0.1)">
      <defs>
       <path id="UMingCN-65e0" d="M 4650 4744 
Q 4738 4750 4838 4863 
L 5000 5094 
Q 5044 5150 5100 5094 
Q 5544 4700 5538 4606 
Q 5525 4556 5444 4550 
L 4663 4550 
L 3138 4550 
Q 3094 3725 3000 3044 
L 5150 3044 
Q 5238 3050 5338 3163 
L 5500 3394 
Q 5544 3450 5600 3394 
Q 6044 3000 6038 2906 
Q 6025 2856 5944 2850 
L 5163 2850 
L 3775 2850 
L 3775 31 
Q 3781 -44 3788 -69 
Q 3800 -94 3894 -94 
L 5394 -94 
Q 5500 -81 5544 -56 
Q 5738 63 5813 944 
Q 5819 1031 5900 1025 
Q 5981 1019 5975 925 
Q 5906 363 5944 175 
Q 5988 38 6088 -25 
Q 6125 -56 6100 -94 
Q 5956 -338 5525 -356 
L 3863 -356 
Q 3594 -356 3538 -281 
Q 3475 -206 3475 -50 
L 3475 2850 
L 2969 2850 
Q 2750 1544 2238 806 
Q 1688 81 413 -500 
Q 281 -556 256 -475 
Q 238 -394 356 -338 
Q 1294 63 1894 775 
Q 2463 1519 2675 2850 
L 994 2850 
Q 731 2844 538 2806 
Q 481 2788 475 2844 
Q 444 2956 350 3038 
Q 300 3081 325 3106 
Q 350 3125 394 3100 
Q 631 3044 919 3044 
L 2700 3044 
Q 2794 3725 2800 4550 
L 1619 4550 
Q 1356 4544 1163 4506 
Q 1106 4488 1100 4544 
Q 1069 4656 975 4738 
Q 925 4781 950 4806 
Q 975 4825 1019 4800 
Q 1256 4744 1544 4744 
L 4650 4744 
z
" transform="scale(0.015625)"/>
       <path id="UMingCN-4eba" d="M 3675 3088 
Q 3888 2269 4206 1700 
Q 4600 1025 5106 556 
Q 5525 181 6094 -106 
Q 6138 -125 6181 -150 
Q 6219 -169 6200 -225 
Q 6181 -275 6106 -256 
Q 6006 -231 5875 -275 
Q 5731 -331 5650 -413 
Q 5613 -438 5569 -394 
Q 4963 119 4563 613 
Q 4219 1031 3994 1500 
Q 3713 2081 3519 2925 
Q 3363 3556 3263 4250 
Q 3125 2919 2875 2163 
Q 2606 1331 2119 763 
Q 1544 94 319 -450 
Q 238 -488 213 -413 
Q 181 -344 263 -300 
Q 1431 294 2038 1088 
Q 2606 1844 2819 3144 
Q 3006 4281 2981 5225 
Q 2975 5269 3000 5288 
Q 3025 5300 3069 5294 
Q 3350 5219 3575 5119 
Q 3619 5094 3613 5069 
Q 3606 5050 3563 5031 
Q 3388 4988 3363 4963 
Q 3338 4944 3331 4919 
Q 3444 4044 3675 3088 
z
" transform="scale(0.015625)"/>
       <path id="UMingCN-673a" d="M 4600 4850 
L 3431 4850 
L 3431 3844 
Q 3431 2569 3338 1706 
Q 3269 969 3000 513 
Q 2694 -25 2131 -444 
Q 2050 -500 2006 -438 
Q 1969 -375 2025 -331 
Q 2475 75 2700 475 
Q 2944 925 3044 1663 
Q 3131 2375 3131 3563 
L 3131 4694 
Q 3125 4931 3069 5181 
Q 3063 5231 3088 5250 
Q 3119 5256 3163 5213 
Q 3250 5125 3388 5044 
L 4500 5044 
Q 4544 5050 4563 5075 
L 4744 5263 
Q 4763 5288 4788 5288 
Q 4806 5281 4831 5256 
Q 4988 5100 5106 4944 
Q 5138 4900 5100 4881 
Q 4938 4806 4919 4781 
Q 4900 4750 4900 4725 
L 4900 156 
Q 4900 25 4963 -19 
Q 5019 -75 5119 -75 
Q 5194 -75 5231 -75 
L 5525 -75 
Q 5613 -75 5675 -38 
Q 5744 0 5788 138 
Q 5888 413 6000 1013 
Q 6006 1088 6069 1081 
Q 6131 1069 6125 1006 
Q 6069 475 6113 231 
Q 6138 88 6213 44 
Q 6244 25 6219 -13 
Q 6156 -194 6044 -269 
Q 5906 -375 5700 -375 
L 5088 -375 
Q 5050 -375 4956 -375 
Q 4825 -375 4713 -275 
Q 4600 -181 4600 88 
L 4600 4850 
z
M 1675 969 
Q 1675 188 1700 -344 
Q 1700 -400 1656 -406 
L 1381 -519 
Q 1325 -531 1331 -431 
Q 1369 400 1375 969 
L 1375 2556 
Q 1431 2913 1469 3238 
Q 1475 3269 1450 3275 
Q 1419 3281 1413 3256 
Q 1363 2963 1300 2656 
Q 1213 2450 1081 2169 
Q 856 1694 350 1000 
Q 288 925 244 981 
Q 194 1025 231 1081 
Q 669 1681 975 2506 
Q 1225 3194 1325 3725 
L 788 3725 
Q 619 3725 406 3681 
Q 375 3675 369 3694 
Q 288 3813 225 3913 
Q 188 3975 269 3956 
Q 650 3925 694 3919 
L 1375 3919 
L 1375 4513 
Q 1369 5013 1344 5313 
Q 1338 5425 1400 5400 
Q 1750 5288 1881 5213 
Q 1950 5163 1888 5138 
Q 1694 5031 1688 5006 
Q 1675 4981 1675 4513 
L 1675 3919 
L 2125 3919 
Q 2163 3919 2200 3963 
L 2425 4219 
Q 2469 4263 2513 4219 
Q 2675 4056 2788 3919 
Q 2856 3831 2813 3769 
Q 2781 3731 2700 3725 
L 1675 3725 
L 1675 3038 
Q 1694 3031 1700 3025 
Q 2125 2800 2356 2588 
Q 2531 2438 2538 2338 
Q 2544 2188 2463 2094 
Q 2375 2000 2338 2000 
Q 2300 1994 2244 2125 
Q 2113 2369 1975 2563 
Q 1831 2756 1675 2875 
L 1675 969 
z
" transform="scale(0.015625)"/>
       <path id="UMingCN-20" transform="scale(0.015625)"/>
      </defs>
      <use xlink:href="#UMingCN-65e0"/>
      <use xlink:href="#UMingCN-4eba" x="100"/>
      <use xlink:href="#UMingCN-673a" x="200"/>
      <use xlink:href="#UMingCN-20" x="300"/>
      <use xlink:href="#UMingCN-30" x="350"/>
     </g>
    </g>
    <g id="line2d_34">
     <path d="M 344.2 39.121875 
L 354.2 39.121875 
L 364.2 39.121875 
" style="fill: none; stroke: #ff7f0e; stroke-width: 1.5; stroke-linecap: square"/>
    </g>
    <g id="text_15">
     <!-- 无人机 1 -->
     <g transform="translate(372.2 42.621875) scale(0.1 -0.1)">
      <use xlink:href="#UMingCN-65e0"/>
      <use xlink:href="#UMingCN-4eba" x="100"/>
      <use xlink:href="#UMingCN-673a" x="200"/>
      <use xlink:href="#UMingCN-20" x="300"/>
      <use xlink:href="#UMingCN-31" x="350"/>
     </g>
    </g>
    <g id="line2d_35">
     <path d="M 344.2 53.467188 
L 354.2 53.467188 
L 364.2 53.467188 
" style="fill: none; stroke: #2ca02c; stroke-width: 1.5; stroke-linecap: square"/>
    </g>
    <g id="text_16">
     <!-- 无人机 2 -->
     <g transform="translate(372.2 56.967188) scale(0.1 -0.1)">
      <use xlink:href="#UMingCN-65e0"/>
      <use xlink:href="#UMingCN-4eba" x="100"/>
      <use xlink:href="#UMingCN-673a" x="200"/>
      <use xlink:href="#UMingCN-20" x="300"/>
      <use xlink:href="#UMingCN-32" x="350"/>
     </g>
    </g>
    <g id="line2d_36">
     <path d="M 344.2 67.8125 
L 354.2 67.8125 
L 364.2 67.8125 
" style="fill: none; stroke: #d62728; stroke-width: 1.5; stroke-linecap: square"/>
    </g>
    <g id="text_17">
     <!-- 无人机 3 -->
     <g transform="translate(372.2 71.3125) scale(0.1 -0.1)">
      <use xlink:href="#UMingCN-65e0"/>
      <use xlink:href="#UMingCN-4eba" x="100"/>
      <use xlink:href="#UMingCN-673a" x="200"/>
      <use xlink:href="#UMingCN-20" x="300"/>
      <use xlink:href="#UMingCN-33" x="350"/>
     </g>
    </g>
    <g id="line2d_37">
     <path d="M 344.2 82.157812 
L 354.2 82.157812 
L 364.2 82.157812 
" style="fill: none; stroke: #9467bd; stroke-width: 1.5; stroke-linecap: square"/>
    </g>
    <g id="text_18">
     <!-- 无人机 4 -->
     <g transform="translate(372.2 85.657812) scale(0.1 -0.1)">
      <use xlink:href="#UMingCN-65e0"/>
      <use xlink:href="#UMingCN-4eba" x="100"/>
      <use xlink:href="#UMingCN-673a" x="200"/>
      <use xlink:href="#UMingCN-20" x="300"/>
      <use xlink:href="#UMingCN-34" x="350"/>
     </g>
    </g>
    <g id="line2d_38">
     <path d="M 344.2 96.503125 
L 354.2 96.503125 
L 364.2 96.503125 
" style="fill: none; stroke: #8c564b; stroke-width: 1.5; stroke-linecap: square"/>
    </g>
    <g id="text_19">
     <!-- 无人机 5 -->
     <g transform="translate(372.2 100.003125) scale(0.1 -0.1)">
      <use xlink:href="#UMingCN-65e0"/>
      <use xlink:href="#UMingCN-4eba" x="100"/>
      <use xlink:href="#UMingCN-673a" x="200"/>
      <use xlink:href="#UMingCN-20" x="300"/>
      <use xlink:href="#UMingCN-35" x="350"/>
     </g>
    </g>
    <g id="line2d_39">
     <path d="M 344.2 110.848438 
L 354.2 110.848438 
L 364.2 110.848438 
" style="fill: none; stroke: #e377c2; stroke-width: 1.5; stroke-linecap: square"/>
    </g>
    <g id="text_20">
     <!-- 无人机 6 -->
     <g transform="translate(372.2 114.348438) scale(0.1 -0.1)">
      <defs>
       <path id="UMingCN-36" d="M 775 3769 
Q 1194 4400 1850 4400 
Q 2175 4400 2463 4194 
Q 2756 3988 2756 3706 
Q 2756 3619 2681 3556 
Q 2613 3506 2550 3506 
Q 2469 3506 2413 3563 
Q 2350 3625 2350 3706 
Q 2350 3831 2388 3913 
Q 2419 3988 2256 4119 
Q 2075 4263 1850 4263 
Q 1400 4263 1038 3775 
Q 675 3281 638 2344 
Q 1288 2906 1831 2913 
Q 2231 2913 2544 2625 
Q 2894 2313 2894 1631 
Q 2894 1094 2513 738 
Q 2163 413 1638 413 
Q 1075 413 681 881 
Q 313 1319 313 2088 
Q 313 3069 775 3769 
z
M 638 2088 
Q 638 1294 925 938 
Q 1225 588 1638 588 
Q 2025 588 2313 831 
Q 2569 1081 2569 1631 
Q 2569 2194 2338 2425 
Q 2100 2663 1700 2663 
Q 1338 2663 638 2144 
Q 638 2113 638 2088 
z
" transform="scale(0.015625)"/>
      </defs>
      <use xlink:href="#UMingCN-65e0"/>
      <use xlink:href="#UMingCN-4eba" x="100"/>
      <use xlink:href="#UMingCN-673a" x="200"/>
      <use xlink:href="#UMingCN-20" x="300"/>
      <use xlink:href="#UMingCN-36" x="350"/>
     </g>
    </g>
    <g id="line2d_40">
     <path d="M 344.2 125.19375 
L 354.2 125.19375 
L 364.2 125.19375 
" style="fill: none; stroke: #7f7f7f; stroke-width: 1.5; stroke-linecap: square"/>
    </g>
    <g id="text_21">
     <!-- 无人机 7 -->
     <g transform="translate(372.2 128.69375) scale(0.1 -0.1)">
      <defs>
       <path id="UMingCN-37" d="M 2875 4338 
L 2875 4119 
Q 2113 3056 1863 2438 
Q 1606 1813 1606 700 
Q 1606 544 1550 481 
Q 1494 413 1413 413 
Q 1319 413 1275 475 
Q 1231 544 1231 700 
Q 1231 1600 1550 2319 
Q 1994 3350 2606 4031 
L 1919 4025 
Q 1338 4019 1006 3863 
Q 713 3725 413 3094 
L 313 3125 
L 663 4338 
L 2875 4338 
z
" transform="scale(0.015625)"/>
      </defs>
      <use xlink:href="#UMingCN-65e0"/>
      <use xlink:href="#UMingCN-4eba" x="100"/>
      <use xlink:href="#UMingCN-673a" x="200"/>
      <use xlink:href="#UMingCN-20" x="300"/>
      <use xlink:href="#UMingCN-37" x="350"/>
     </g>
    </g>
    <g id="line2d_41">
     <path d="M 344.2 139.539063 
L 354.2 139.539063 
L 364.2 139.539063 
" style="fill: none; stroke: #bcbd22; stroke-width: 1.5; stroke-linecap: square"/>
    </g>
    <g id="text_22">
     <!-- 无人机 8 -->
     <g transform="translate(372.2 143.039063) scale(0.1 -0.1)">
      <defs>
       <path id="UMingCN-38" d="M 1600 413 
Q 1025 413 625 725 
Q 256 1013 256 1425 
Q 256 1669 469 1956 
Q 631 2194 1219 2463 
Q 831 2669 675 2863 
Q 431 3138 431 3425 
Q 431 3850 788 4138 
Q 1113 4400 1600 4400 
Q 1963 4400 2325 4169 
Q 2725 3913 2725 3500 
Q 2725 3281 2563 3075 
Q 2394 2856 1813 2563 
Q 2513 2263 2738 1981 
Q 2944 1738 2944 1488 
Q 2944 1063 2606 769 
Q 2200 413 1600 413 
z
M 2456 1788 
Q 2256 2000 1669 2256 
Q 1525 2319 1413 2369 
Q 869 2100 744 1900 
Q 581 1644 581 1425 
Q 581 1088 850 856 
Q 1163 588 1600 588 
Q 1950 588 2325 813 
Q 2619 1006 2619 1406 
Q 2619 1606 2456 1788 
z
M 875 3094 
Q 1050 2888 1631 2638 
Q 2113 2863 2281 3081 
Q 2456 3313 2456 3563 
Q 2456 3838 2200 4044 
Q 1975 4225 1600 4225 
Q 1219 4225 950 4019 
Q 700 3813 700 3531 
Q 700 3300 875 3094 
z
" transform="scale(0.015625)"/>
      </defs>
      <use xlink:href="#UMingCN-65e0"/>
      <use xlink:href="#UMingCN-4eba" x="100"/>
      <use xlink:href="#UMingCN-673a" x="200"/>
      <use xlink:href="#UMingCN-20" x="300"/>
      <use xlink:href="#UMingCN-38" x="350"/>
     </g>
    </g>
    <g id="line2d_42">
     <path d="M 344.2 153.884375 
L 354.2 153.884375 
L 364.2 153.884375 
" style="fill: none; stroke: #17becf; stroke-width: 1.5; stroke-linecap: square"/>
    </g>
    <g id="text_23">
     <!-- 无人机 9 -->
     <g transform="translate(372.2 157.384375) scale(0.1 -0.1)">
      <defs>
       <path id="UMingCN-39" d="M 2431 1044 
Q 2013 413 1356 413 
Q 1031 413 744 619 
Q 450 825 450 1106 
Q 450 1194 525 1256 
Q 594 1306 656 1306 
Q 738 1306 794 1250 
Q 856 1188 856 1106 
Q 856 981 819 900 
Q 788 825 950 694 
Q 1131 550 1356 550 
Q 1806 550 2169 1038 
Q 2531 1531 2569 2469 
Q 1919 1906 1375 1900 
Q 975 1900 663 2188 
Q 313 2500 313 3181 
Q 313 3719 694 4075 
Q 1044 4400 1569 4400 
Q 2131 4400 2525 3931 
Q 2894 3494 2894 2725 
Q 2894 1744 2431 1044 
z
M 2569 2725 
Q 2569 3519 2281 3875 
Q 1981 4225 1569 4225 
Q 1181 4225 894 3981 
Q 638 3731 638 3181 
Q 638 2619 869 2388 
Q 1106 2150 1506 2150 
Q 1869 2150 2569 2669 
Q 2569 2700 2569 2725 
z
" transform="scale(0.015625)"/>
      </defs>
      <use xlink:href="#UMingCN-65e0"/>
      <use xlink:href="#UMingCN-4eba" x="100"/>
      <use xlink:href="#UMingCN-673a" x="200"/>
      <use xlink:href="#UMingCN-20" x="300"/>
      <use xlink:href="#UMingCN-39" x="350"/>
     </g>
    </g>
   </g>
  </g>
 </g>
 <defs>
  <clipPath id="p55cda19ee0">
   <rect x="36.6275" y="10.8" width="384.5725" height="309.5575"/>
  </clipPath>
 </defs>
</svg>
