<?xml version="1.0" encoding="utf-8" standalone="no"?>
<!DOCTYPE svg PUBLIC "-//W3C//DTD SVG 1.1//EN"
  "http://www.w3.org/Graphics/SVG/1.1/DTD/svg11.dtd">
<svg xmlns:xlink="http://www.w3.org/1999/xlink" width="432pt" height="360pt" viewBox="0 0 432 360" xmlns="http://www.w3.org/2000/svg" version="1.1">
 <metadata>
  <rdf:RDF xmlns:dc="http://purl.org/dc/elements/1.1/" xmlns:cc="http://creativecommons.org/ns#" xmlns:rdf="http://www.w3.org/1999/02/22-rdf-syntax-ns#">
   <cc:Work>
    <dc:type rdf:resource="http://purl.org/dc/dcmitype/StillImage"/>
    <dc:date>2025-06-03T10:39:55.141926</dc:date>
    <dc:format>image/svg+xml</dc:format>
    <dc:creator>
     <cc:Agent>
      <dc:title>Matplotlib v3.9.4, https://matplotlib.org/</dc:title>
     </cc:Agent>
    </dc:creator>
   </cc:Work>
  </rdf:RDF>
 </metadata>
 <defs>
  <style type="text/css">*{stroke-linejoin: round; stroke-linecap: butt}</style>
 </defs>
 <g id="figure_1">
  <g id="patch_1">
   <path d="M 0 360 
L 432 360 
L 432 0 
L 0 0 
z
" style="fill: #ffffff"/>
  </g>
  <g id="axes_1">
   <g id="patch_2">
    <path d="M 36.6275 320.3575 
L 421.2 320.3575 
L 421.2 10.8 
L 36.6275 10.8 
z
" style="fill: #ffffff"/>
   </g>
   <g id="matplotlib.axis_1">
    <g id="xtick_1">
     <g id="line2d_1">
      <path d="M 54.108068 320.3575 
L 54.108068 10.8 
" clip-path="url(#pff6faffb81)" style="fill: none; stroke: #b0b0b0; stroke-opacity: 0.3; stroke-width: 0.8; stroke-linecap: square"/>
     </g>
     <g id="line2d_2">
      <defs>
       <path id="meb99b2f7c3" d="M 0 0 
L 0 3.5 
" style="stroke: #000000; stroke-width: 0.8"/>
      </defs>
      <g>
       <use xlink:href="#meb99b2f7c3" x="54.108068" y="320.3575" style="stroke: #000000; stroke-width: 0.8"/>
      </g>
     </g>
     <g id="text_1">
      <!-- 0 -->
      <g transform="translate(51.608068 334.2325) scale(0.1 -0.1)">
       <defs>
        <path id="UMingCN-30" d="M 691 997 
Q 313 1581 313 2406 
Q 313 3231 691 3815 
Q 1069 4400 1600 4400 
Q 2131 4400 2509 3815 
Q 2888 3231 2888 2406 
Q 2888 1581 2509 997 
Q 2131 413 1600 413 
Q 1069 413 691 997 
z
M 919 3690 
Q 638 3156 638 2406 
Q 638 1656 919 1122 
Q 1200 588 1600 588 
Q 2000 588 2281 1122 
Q 2563 1656 2563 2406 
Q 2563 3156 2281 3690 
Q 2000 4225 1600 4225 
Q 1200 4225 919 3690 
z
" transform="scale(0.015625)"/>
       </defs>
       <use xlink:href="#UMingCN-30"/>
      </g>
     </g>
    </g>
    <g id="xtick_2">
     <g id="line2d_3">
      <path d="M 104.776382 320.3575 
L 104.776382 10.8 
" clip-path="url(#pff6faffb81)" style="fill: none; stroke: #b0b0b0; stroke-opacity: 0.3; stroke-width: 0.8; stroke-linecap: square"/>
     </g>
     <g id="line2d_4">
      <g>
       <use xlink:href="#meb99b2f7c3" x="104.776382" y="320.3575" style="stroke: #000000; stroke-width: 0.8"/>
      </g>
     </g>
     <g id="text_2">
      <!-- 1 -->
      <g transform="translate(102.276382 334.2325) scale(0.1 -0.1)">
       <defs>
        <path id="UMingCN-31" d="M 1806 994 
Q 1806 581 2519 581 
L 2519 475 
L 756 475 
L 756 581 
Q 1481 581 1481 994 
L 1481 3631 
Q 1481 3963 681 3963 
L 681 4069 
L 1738 4338 
L 1806 4338 
L 1806 994 
z
" transform="scale(0.015625)"/>
       </defs>
       <use xlink:href="#UMingCN-31"/>
      </g>
     </g>
    </g>
    <g id="xtick_3">
     <g id="line2d_5">
      <path d="M 155.444695 320.3575 
L 155.444695 10.8 
" clip-path="url(#pff6faffb81)" style="fill: none; stroke: #b0b0b0; stroke-opacity: 0.3; stroke-width: 0.8; stroke-linecap: square"/>
     </g>
     <g id="line2d_6">
      <g>
       <use xlink:href="#meb99b2f7c3" x="155.444695" y="320.3575" style="stroke: #000000; stroke-width: 0.8"/>
      </g>
     </g>
     <g id="text_3">
      <!-- 2 -->
      <g transform="translate(152.944695 334.2325) scale(0.1 -0.1)">
       <defs>
        <path id="UMingCN-32" d="M 531 475 
L 319 475 
Q 319 975 606 1300 
Q 900 1694 1744 2281 
Q 2594 2844 2594 3319 
Q 2594 3738 2250 4006 
Q 1969 4225 1594 4225 
Q 1225 4225 994 4094 
Q 725 3938 700 3819 
Q 675 3706 731 3606 
Q 794 3488 794 3313 
Q 794 3256 731 3194 
Q 669 3131 588 3131 
Q 481 3131 406 3206 
Q 331 3288 331 3406 
Q 331 3788 719 4106 
Q 1081 4400 1594 4400 
Q 2206 4400 2556 4088 
Q 2919 3750 2919 3319 
Q 2919 2775 1825 2113 
Q 1088 1638 819 1294 
Q 606 1075 550 756 
L 1831 756 
Q 2469 756 2806 1244 
L 2881 1213 
L 2613 475 
L 531 475 
z
" transform="scale(0.015625)"/>
       </defs>
       <use xlink:href="#UMingCN-32"/>
      </g>
     </g>
    </g>
    <g id="xtick_4">
     <g id="line2d_7">
      <path d="M 206.113009 320.3575 
L 206.113009 10.8 
" clip-path="url(#pff6faffb81)" style="fill: none; stroke: #b0b0b0; stroke-opacity: 0.3; stroke-width: 0.8; stroke-linecap: square"/>
     </g>
     <g id="line2d_8">
      <g>
       <use xlink:href="#meb99b2f7c3" x="206.113009" y="320.3575" style="stroke: #000000; stroke-width: 0.8"/>
      </g>
     </g>
     <g id="text_4">
      <!-- 3 -->
      <g transform="translate(203.613009 334.2325) scale(0.1 -0.1)">
       <defs>
        <path id="UMingCN-33" d="M 2875 1463 
Q 2875 981 2481 675 
Q 2106 413 1613 413 
Q 1019 413 656 719 
Q 325 1000 325 1344 
Q 325 1456 390 1518 
Q 456 1581 550 1581 
Q 631 1581 693 1512 
Q 756 1444 756 1344 
Q 750 1250 706 1188 
Q 663 1125 663 1025 
Q 663 900 956 738 
Q 1225 588 1613 588 
Q 1975 588 2281 806 
Q 2550 1000 2550 1463 
Q 2550 1906 2275 2131 
Q 2038 2325 1656 2325 
Q 1569 2325 1494 2281 
Q 1400 2231 1344 2231 
Q 1163 2238 1163 2413 
Q 1163 2581 1344 2581 
Q 1419 2581 1500 2538 
Q 1575 2500 1656 2500 
Q 1825 2500 2113 2725 
Q 2425 2975 2425 3413 
Q 2425 3825 2156 4031 
Q 1900 4225 1594 4225 
Q 1213 4225 963 4025 
Q 738 3844 819 3713 
Q 894 3588 894 3450 
Q 894 3350 831 3275 
Q 775 3206 681 3206 
Q 594 3206 531 3275 
Q 463 3350 463 3450 
Q 463 3838 825 4125 
Q 1138 4400 1594 4400 
Q 2131 4400 2413 4138 
Q 2750 3825 2750 3413 
Q 2750 2831 2175 2544 
Q 2075 2494 2000 2450 
Q 2119 2419 2250 2375 
Q 2875 2156 2875 1463 
z
" transform="scale(0.015625)"/>
       </defs>
       <use xlink:href="#UMingCN-33"/>
      </g>
     </g>
    </g>
    <g id="xtick_5">
     <g id="line2d_9">
      <path d="M 256.781322 320.3575 
L 256.781322 10.8 
" clip-path="url(#pff6faffb81)" style="fill: none; stroke: #b0b0b0; stroke-opacity: 0.3; stroke-width: 0.8; stroke-linecap: square"/>
     </g>
     <g id="line2d_10">
      <g>
       <use xlink:href="#meb99b2f7c3" x="256.781322" y="320.3575" style="stroke: #000000; stroke-width: 0.8"/>
      </g>
     </g>
     <g id="text_5">
      <!-- 4 -->
      <g transform="translate(254.281322 334.2325) scale(0.1 -0.1)">
       <defs>
        <path id="UMingCN-34" d="M 2263 1538 
L 2994 1538 
L 2994 1294 
L 2263 1294 
L 2263 938 
Q 2263 581 2844 581 
L 2844 475 
L 1375 475 
L 1375 581 
Q 1956 581 1956 938 
L 1956 1294 
L 206 1294 
L 206 1581 
L 2119 4338 
L 2263 4338 
L 2263 1538 
z
M 1956 1538 
L 1956 3894 
L 350 1538 
L 1956 1538 
z
" transform="scale(0.015625)"/>
       </defs>
       <use xlink:href="#UMingCN-34"/>
      </g>
     </g>
    </g>
    <g id="xtick_6">
     <g id="line2d_11">
      <path d="M 307.449636 320.3575 
L 307.449636 10.8 
" clip-path="url(#pff6faffb81)" style="fill: none; stroke: #b0b0b0; stroke-opacity: 0.3; stroke-width: 0.8; stroke-linecap: square"/>
     </g>
     <g id="line2d_12">
      <g>
       <use xlink:href="#meb99b2f7c3" x="307.449636" y="320.3575" style="stroke: #000000; stroke-width: 0.8"/>
      </g>
     </g>
     <g id="text_6">
      <!-- 5 -->
      <g transform="translate(304.949636 334.2325) scale(0.1 -0.1)">
       <defs>
        <path id="UMingCN-35" d="M 2688 4338 
L 2550 4025 
L 750 4025 
L 750 2519 
Q 1138 2819 1688 2819 
Q 2156 2819 2481 2544 
Q 2900 2188 2900 1544 
Q 2900 1019 2488 694 
Q 2131 413 1588 413 
Q 1088 413 625 713 
Q 306 919 306 1169 
Q 306 1288 369 1338 
Q 438 1394 519 1394 
Q 594 1394 669 1319 
Q 738 1250 738 1169 
Q 738 1106 700 1069 
Q 669 1038 669 956 
Q 669 894 919 744 
Q 1188 588 1588 588 
Q 1963 588 2238 813 
Q 2575 1088 2575 1544 
Q 2575 2069 2206 2356 
Q 1925 2575 1525 2575 
Q 1150 2575 694 2375 
L 644 2425 
L 644 4338 
L 2688 4338 
z
" transform="scale(0.015625)"/>
       </defs>
       <use xlink:href="#UMingCN-35"/>
      </g>
     </g>
    </g>
    <g id="xtick_7">
     <g id="line2d_13">
      <path d="M 358.11795 320.3575 
L 358.11795 10.8 
" clip-path="url(#pff6faffb81)" style="fill: none; stroke: #b0b0b0; stroke-opacity: 0.3; stroke-width: 0.8; stroke-linecap: square"/>
     </g>
     <g id="line2d_14">
      <g>
       <use xlink:href="#meb99b2f7c3" x="358.11795" y="320.3575" style="stroke: #000000; stroke-width: 0.8"/>
      </g>
     </g>
     <g id="text_7">
      <!-- 6 -->
      <g transform="translate(355.61795 334.2325) scale(0.1 -0.1)">
       <defs>
        <path id="UMingCN-36" d="M 775 3769 
Q 1194 4400 1850 4400 
Q 2175 4400 2463 4194 
Q 2756 3988 2756 3706 
Q 2756 3619 2681 3556 
Q 2613 3506 2550 3506 
Q 2469 3506 2413 3563 
Q 2350 3625 2350 3706 
Q 2350 3831 2388 3913 
Q 2419 3988 2256 4119 
Q 2075 4263 1850 4263 
Q 1400 4263 1038 3775 
Q 675 3281 638 2344 
Q 1288 2906 1831 2913 
Q 2231 2913 2544 2625 
Q 2894 2313 2894 1631 
Q 2894 1094 2513 738 
Q 2163 413 1638 413 
Q 1075 413 681 881 
Q 313 1319 313 2088 
Q 313 3069 775 3769 
z
M 638 2088 
Q 638 1294 925 938 
Q 1225 588 1638 588 
Q 2025 588 2313 831 
Q 2569 1081 2569 1631 
Q 2569 2194 2338 2425 
Q 2100 2663 1700 2663 
Q 1338 2663 638 2144 
Q 638 2113 638 2088 
z
" transform="scale(0.015625)"/>
       </defs>
       <use xlink:href="#UMingCN-36"/>
      </g>
     </g>
    </g>
    <g id="xtick_8">
     <g id="line2d_15">
      <path d="M 408.786263 320.3575 
L 408.786263 10.8 
" clip-path="url(#pff6faffb81)" style="fill: none; stroke: #b0b0b0; stroke-opacity: 0.3; stroke-width: 0.8; stroke-linecap: square"/>
     </g>
     <g id="line2d_16">
      <g>
       <use xlink:href="#meb99b2f7c3" x="408.786263" y="320.3575" style="stroke: #000000; stroke-width: 0.8"/>
      </g>
     </g>
     <g id="text_8">
      <!-- 7 -->
      <g transform="translate(406.286263 334.2325) scale(0.1 -0.1)">
       <defs>
        <path id="UMingCN-37" d="M 2875 4338 
L 2875 4119 
Q 2113 3056 1863 2438 
Q 1606 1813 1606 700 
Q 1606 544 1550 481 
Q 1494 413 1413 413 
Q 1319 413 1275 475 
Q 1231 544 1231 700 
Q 1231 1600 1550 2319 
Q 1994 3350 2606 4031 
L 1919 4025 
Q 1338 4019 1006 3863 
Q 713 3725 413 3094 
L 313 3125 
L 663 4338 
L 2875 4338 
z
" transform="scale(0.015625)"/>
       </defs>
       <use xlink:href="#UMingCN-37"/>
      </g>
     </g>
    </g>
    <g id="text_9">
     <!-- 时间/s -->
     <g transform="translate(213.91375 347.227813) scale(0.1 -0.1)">
      <defs>
       <path id="UMingCN-65f6" d="M 1806 1075 
L 769 1075 
Q 769 738 775 469 
Q 769 375 538 219 
Q 488 194 463 194 
Q 425 200 431 319 
Q 456 944 475 1606 
L 475 4306 
Q 469 4506 431 4794 
Q 419 4856 438 4863 
Q 444 4863 688 4669 
L 1656 4669 
Q 1731 4669 1775 4713 
L 1931 4875 
Q 1963 4919 2019 4881 
Q 2213 4738 2350 4619 
Q 2394 4569 2338 4563 
Q 2231 4544 2175 4488 
Q 2125 4431 2125 4369 
L 2125 1894 
Q 2131 1469 2175 850 
Q 2175 769 2113 731 
Q 1831 569 1806 575 
Q 1781 588 1788 688 
Q 1800 863 1806 1075 
z
M 775 1606 
Q 769 1438 769 1269 
L 1813 1269 
Q 1819 1481 1825 1713 
L 1825 2775 
L 775 2775 
L 775 1606 
z
M 775 4475 
L 775 2969 
L 1825 2969 
L 1825 4475 
L 775 4475 
z
M 4925 175 
Q 4913 -56 4813 -213 
Q 4656 -444 4500 -525 
Q 4450 -569 4425 -569 
Q 4394 -569 4369 -438 
Q 4313 -250 4250 -188 
Q 4181 -100 3819 -56 
Q 3719 -44 3725 38 
Q 3731 119 3831 113 
Q 4419 25 4531 63 
Q 4619 100 4625 238 
L 4625 3650 
L 3119 3650 
Q 2856 3644 2663 3606 
Q 2613 3588 2594 3644 
Q 2569 3756 2475 3831 
Q 2431 3875 2450 3900 
Q 2475 3919 2519 3894 
Q 2756 3844 3044 3844 
L 4625 3844 
L 4625 4488 
Q 4619 4988 4600 5294 
Q 4581 5394 4644 5375 
Q 5000 5250 5119 5188 
Q 5194 5138 5100 5094 
Q 4988 5044 4963 4988 
Q 4925 4869 4925 4488 
L 4925 3844 
L 5400 3844 
Q 5438 3844 5475 3888 
L 5700 4144 
Q 5744 4188 5788 4144 
Q 5950 3981 6063 3844 
Q 6131 3756 6088 3694 
Q 6056 3656 5975 3650 
L 5400 3650 
L 4925 3650 
L 4925 175 
z
M 2931 2769 
Q 2900 2813 2938 2850 
Q 2975 2881 3038 2819 
Q 3869 2100 3850 1706 
Q 3850 1588 3731 1419 
Q 3638 1288 3563 1294 
Q 3500 1313 3506 1431 
Q 3438 2069 2931 2769 
z
" transform="scale(0.015625)"/>
       <path id="UMingCN-95f4" d="M 3906 1175 
L 2425 1175 
Q 2419 850 2394 813 
Q 2175 644 2138 638 
Q 2088 644 2094 763 
Q 2119 1144 2125 2031 
L 2125 3306 
Q 2119 3531 2100 3712 
Q 2081 3894 2103 3900 
Q 2125 3906 2184 3843 
Q 2244 3781 2394 3669 
L 3756 3669 
Q 3831 3669 3875 3713 
L 4031 3875 
Q 4063 3919 4119 3881 
Q 4313 3738 4450 3619 
Q 4494 3569 4438 3563 
Q 4331 3544 4278 3487 
Q 4225 3431 4225 3369 
L 4225 2019 
Q 4231 1594 4275 975 
Q 4275 894 4213 856 
Q 3931 694 3906 703 
Q 3881 713 3890 841 
Q 3900 969 3906 1175 
z
M 2425 2375 
L 2425 1369 
L 3913 1369 
Q 3919 1588 3925 1838 
L 3925 2375 
L 2425 2375 
z
M 2425 3475 
L 2425 2569 
L 3925 2569 
L 3925 3475 
L 2425 3475 
z
M 769 4363 
Q 756 4469 831 4444 
Q 1169 4338 1269 4284 
Q 1369 4231 1269 4178 
Q 1169 4125 1134 4034 
Q 1100 3944 1100 3563 
L 1100 1019 
Q 1100 288 1125 -206 
Q 1131 -256 1069 -300 
L 831 -450 
Q 750 -513 756 -381 
Q 794 450 800 1019 
L 800 3563 
Q 794 4063 769 4363 
z
M 1350 5225 
Q 1306 5275 1331 5319 
Q 1375 5369 1450 5306 
Q 2119 4831 2119 4600 
Q 2106 4450 2009 4369 
Q 1913 4288 1875 4291 
Q 1838 4294 1800 4425 
Q 1631 4944 1350 5225 
z
M 3244 4969 
L 5119 4969 
Q 5175 4969 5181 4975 
L 5338 5181 
Q 5350 5206 5375 5206 
Q 5444 5206 5769 4869 
Q 5813 4819 5688 4769 
Q 5563 4719 5544 4687 
Q 5525 4656 5525 4613 
L 5525 88 
Q 5525 -125 5413 -281 
Q 5300 -438 5131 -500 
Q 5075 -525 5050 -469 
Q 4938 -150 4413 -88 
Q 4338 -75 4344 -15 
Q 4350 44 4431 38 
Q 5125 -25 5181 0 
Q 5225 25 5225 156 
L 5225 4775 
L 3319 4775 
Q 3056 4769 2863 4731 
Q 2806 4713 2800 4769 
Q 2769 4881 2697 4943 
Q 2625 5006 2650 5028 
Q 2675 5050 2719 5025 
Q 2956 4969 3244 4969 
z
" transform="scale(0.015625)"/>
       <path id="UMingCN-2f" d="M 2819 5225 
L 3144 5225 
L 375 -475 
L 50 -475 
L 2819 5225 
z
" transform="scale(0.015625)"/>
       <path id="UMingCN-73" d="M 2725 2725 
L 2675 2294 
L 2588 2294 
Q 2406 2681 2194 2800 
Q 1975 2919 1750 2919 
Q 1313 2919 1119 2775 
Q 931 2638 931 2444 
Q 931 2275 1050 2156 
Q 1156 2044 1756 1944 
Q 2400 1844 2619 1638 
Q 2831 1438 2831 1194 
Q 2831 913 2563 669 
Q 2281 413 1756 413 
Q 1194 419 606 750 
L 375 1275 
L 463 1344 
Q 788 931 1094 756 
Q 1388 588 1675 588 
Q 2075 588 2294 763 
Q 2506 931 2506 1119 
Q 2506 1313 2356 1431 
Q 2213 1538 1581 1656 
Q 981 1769 793 1944 
Q 606 2119 606 2363 
Q 606 2681 894 2888 
Q 1188 3094 1663 3094 
Q 2119 3094 2725 2725 
z
" transform="scale(0.015625)"/>
      </defs>
      <use xlink:href="#UMingCN-65f6"/>
      <use xlink:href="#UMingCN-95f4" x="100"/>
      <use xlink:href="#UMingCN-2f" x="200"/>
      <use xlink:href="#UMingCN-73" x="250"/>
     </g>
    </g>
   </g>
   <g id="matplotlib.axis_2">
    <g id="ytick_1">
     <g id="line2d_17">
      <path d="M 36.6275 269.562714 
L 421.2 269.562714 
" clip-path="url(#pff6faffb81)" style="fill: none; stroke: #b0b0b0; stroke-opacity: 0.3; stroke-width: 0.8; stroke-linecap: square"/>
     </g>
     <g id="line2d_18">
      <defs>
       <path id="ma3f3392004" d="M 0 0 
L -3.5 0 
" style="stroke: #000000; stroke-width: 0.8"/>
      </defs>
      <g>
       <use xlink:href="#ma3f3392004" x="36.6275" y="269.562714" style="stroke: #000000; stroke-width: 0.8"/>
      </g>
     </g>
     <g id="text_10">
      <!-- 1 -->
      <g transform="translate(24.6275 273.000214) scale(0.1 -0.1)">
       <use xlink:href="#UMingCN-31"/>
      </g>
     </g>
    </g>
    <g id="ytick_2">
     <g id="line2d_19">
      <path d="M 36.6275 208.389734 
L 421.2 208.389734 
" clip-path="url(#pff6faffb81)" style="fill: none; stroke: #b0b0b0; stroke-opacity: 0.3; stroke-width: 0.8; stroke-linecap: square"/>
     </g>
     <g id="line2d_20">
      <g>
       <use xlink:href="#ma3f3392004" x="36.6275" y="208.389734" style="stroke: #000000; stroke-width: 0.8"/>
      </g>
     </g>
     <g id="text_11">
      <!-- 2 -->
      <g transform="translate(24.6275 211.827234) scale(0.1 -0.1)">
       <use xlink:href="#UMingCN-32"/>
      </g>
     </g>
    </g>
    <g id="ytick_3">
     <g id="line2d_21">
      <path d="M 36.6275 147.216755 
L 421.2 147.216755 
" clip-path="url(#pff6faffb81)" style="fill: none; stroke: #b0b0b0; stroke-opacity: 0.3; stroke-width: 0.8; stroke-linecap: square"/>
     </g>
     <g id="line2d_22">
      <g>
       <use xlink:href="#ma3f3392004" x="36.6275" y="147.216755" style="stroke: #000000; stroke-width: 0.8"/>
      </g>
     </g>
     <g id="text_12">
      <!-- 3 -->
      <g transform="translate(24.6275 150.654255) scale(0.1 -0.1)">
       <use xlink:href="#UMingCN-33"/>
      </g>
     </g>
    </g>
    <g id="ytick_4">
     <g id="line2d_23">
      <path d="M 36.6275 86.043775 
L 421.2 86.043775 
" clip-path="url(#pff6faffb81)" style="fill: none; stroke: #b0b0b0; stroke-opacity: 0.3; stroke-width: 0.8; stroke-linecap: square"/>
     </g>
     <g id="line2d_24">
      <g>
       <use xlink:href="#ma3f3392004" x="36.6275" y="86.043775" style="stroke: #000000; stroke-width: 0.8"/>
      </g>
     </g>
     <g id="text_13">
      <!-- 4 -->
      <g transform="translate(24.6275 89.481275) scale(0.1 -0.1)">
       <use xlink:href="#UMingCN-34"/>
      </g>
     </g>
    </g>
    <g id="ytick_5">
     <g id="line2d_25">
      <path d="M 36.6275 24.870795 
L 421.2 24.870795 
" clip-path="url(#pff6faffb81)" style="fill: none; stroke: #b0b0b0; stroke-opacity: 0.3; stroke-width: 0.8; stroke-linecap: square"/>
     </g>
     <g id="line2d_26">
      <g>
       <use xlink:href="#ma3f3392004" x="36.6275" y="24.870795" style="stroke: #000000; stroke-width: 0.8"/>
      </g>
     </g>
     <g id="text_14">
      <!-- 5 -->
      <g transform="translate(24.6275 28.308295) scale(0.1 -0.1)">
       <use xlink:href="#UMingCN-35"/>
      </g>
     </g>
    </g>
    <g id="text_15">
     <!-- 风险值 -->
     <g transform="translate(19.680625 180.57875) rotate(-90) scale(0.1 -0.1)">
      <defs>
       <path id="UMingCN-98ce" d="M 5563 150 
Q 5613 156 5638 288 
Q 5713 556 5775 1144 
Q 5788 1213 5850 1206 
Q 5906 1188 5900 1125 
Q 5788 213 5975 -369 
Q 6013 -444 5975 -488 
Q 5931 -525 5775 -444 
Q 5481 -331 5194 69 
Q 4831 581 4713 1338 
Q 4538 2400 4600 4800 
L 1581 4800 
L 1581 3919 
Q 1581 2625 1500 1756 
Q 1369 394 406 -419 
Q 325 -481 281 -419 
Q 238 -350 300 -306 
Q 588 6 775 294 
Q 1281 1163 1281 3638 
L 1281 4644 
Q 1275 4881 1219 5131 
Q 1213 5181 1238 5200 
Q 1269 5206 1313 5163 
Q 1400 5075 1538 4994 
L 4419 4994 
Q 4469 5000 4488 5025 
L 4700 5238 
Q 4719 5263 4744 5263 
Q 4819 5256 5175 4881 
Q 5206 4838 5188 4813 
Q 5169 4788 5106 4794 
Q 4981 4806 4938 4744 
Q 4869 4656 4869 4088 
Q 4850 2125 5000 1313 
Q 5125 775 5406 325 
Q 5525 144 5563 150 
z
M 2988 2419 
Q 2588 3000 2025 3625 
Q 1988 3675 2031 3719 
Q 2075 3756 2138 3694 
Q 2694 3156 3106 2669 
Q 3419 3325 3613 4006 
Q 3625 4094 3644 4100 
Q 3706 4125 4088 3919 
Q 4213 3844 4213 3819 
Q 4206 3794 4125 3769 
Q 3931 3706 3500 2800 
Q 3400 2625 3300 2438 
Q 4044 1500 4163 1050 
Q 4250 769 4038 506 
Q 3981 463 3938 469 
Q 3888 481 3881 575 
Q 3750 1194 3150 2188 
Q 2625 1350 1850 413 
Q 1775 344 1731 388 
Q 1681 438 1738 513 
Q 2463 1413 2919 2275 
Q 2950 2356 2988 2419 
z
" transform="scale(0.015625)"/>
       <path id="UMingCN-9669" d="M 1588 875 
Q 1444 813 1438 869 
Q 1400 1013 1288 1106 
Q 1156 1206 981 1244 
Q 875 1269 894 1350 
Q 913 1438 1031 1394 
Q 1381 1319 1594 1356 
Q 1694 1375 1769 1431 
Q 2338 2131 1175 3256 
Q 1119 3300 1163 3400 
Q 1444 4150 1669 4831 
Q 1663 4863 1656 4869 
Q 1650 4881 1613 4875 
L 725 4875 
L 725 806 
Q 719 138 725 -331 
Q 719 -425 488 -581 
Q 438 -606 413 -606 
Q 375 -600 381 -481 
Q 406 144 425 806 
L 425 4706 
Q 419 4906 381 5194 
Q 369 5256 388 5263 
Q 394 5263 638 5069 
L 1613 5069 
Q 1663 5069 1719 5131 
L 1831 5269 
Q 1869 5319 1913 5275 
Q 2100 5144 2231 5013 
Q 2281 4963 2219 4938 
Q 2094 4881 2013 4763 
Q 1788 4431 1619 4075 
Q 1244 3331 1325 3269 
Q 2281 2531 2263 1744 
Q 2244 1413 2088 1219 
Q 1913 1013 1588 875 
z
M 4156 5013 
Q 5031 3381 6181 3138 
Q 6213 3131 6206 3088 
Q 6194 3038 6113 3038 
Q 5994 3044 5894 2963 
Q 5806 2888 5769 2788 
Q 5750 2744 5706 2788 
Q 5050 3288 4706 3744 
Q 4388 4163 4063 4919 
Q 4019 4856 3963 4738 
Q 3544 3988 3206 3575 
Q 2869 3138 2319 2700 
Q 2256 2644 2219 2688 
Q 2188 2731 2231 2775 
Q 2844 3381 3225 4006 
Q 3550 4569 3756 5300 
Q 3769 5369 3825 5350 
Q 4088 5244 4294 5144 
Q 4344 5106 4338 5081 
Q 4313 5038 4231 5031 
Q 4181 5031 4156 5013 
z
M 4500 2919 
Q 4538 2919 4575 2963 
L 4800 3219 
Q 4844 3263 4888 3219 
Q 5050 3056 5163 2919 
Q 5231 2831 5188 2769 
Q 5156 2731 5075 2725 
L 4500 2725 
L 3469 2725 
Q 3206 2719 3013 2681 
Q 2963 2663 2944 2719 
Q 2919 2831 2825 2906 
Q 2781 2950 2800 2975 
Q 2825 2994 2869 2969 
Q 3106 2919 3394 2919 
L 4500 2919 
z
M 2625 1694 
Q 2600 1744 2638 1769 
Q 2675 1794 2738 1731 
Q 3444 981 3381 619 
Q 3369 494 3231 344 
Q 3113 219 3050 238 
Q 2988 263 3006 381 
Q 3019 1000 2625 1694 
z
M 3525 2194 
Q 3500 2244 3538 2269 
Q 3575 2300 3638 2238 
Q 4313 1556 4275 1219 
Q 4263 1100 4131 944 
Q 4019 819 3956 838 
Q 3900 856 3906 975 
Q 3919 1556 3525 2194 
z
M 4325 -106 
Q 4338 -81 4344 -63 
Q 4856 1106 4994 2194 
Q 5006 2281 5031 2300 
Q 5063 2313 5163 2250 
Q 5519 1988 5519 1931 
Q 5506 1894 5463 1888 
Q 5306 1831 5175 1438 
Q 4881 613 4481 -106 
L 5350 -106 
Q 5388 -106 5425 -63 
L 5650 194 
Q 5694 238 5738 194 
Q 5900 31 6013 -106 
Q 6081 -194 6038 -256 
Q 6006 -294 5925 -300 
L 5350 -300 
L 2519 -300 
Q 2256 -306 2063 -344 
Q 2013 -363 1994 -306 
Q 1969 -194 1875 -119 
Q 1831 -75 1850 -50 
Q 1875 -31 1919 -56 
Q 2156 -106 2444 -106 
L 4325 -106 
z
" transform="scale(0.015625)"/>
       <path id="UMingCN-503c" d="M 1169 3988 
Q 1575 4969 1581 5294 
Q 1588 5406 1700 5344 
Q 1938 5206 2038 5144 
Q 2106 5094 2106 5056 
Q 2100 5025 2025 5019 
Q 1950 5000 1925 4975 
Q 1850 4906 1681 4513 
Q 1525 4175 1350 3813 
Q 1544 3750 1681 3669 
Q 1763 3625 1681 3588 
Q 1494 3494 1475 3450 
Q 1450 3394 1450 3013 
L 1450 944 
Q 1450 163 1475 -369 
Q 1475 -425 1431 -431 
L 1156 -544 
Q 1100 -556 1106 -456 
Q 1144 375 1150 944 
L 1150 3013 
Q 1144 3244 1138 3419 
Q 1094 3356 1069 3294 
Q 781 2794 344 2225 
Q 281 2156 238 2194 
Q 188 2238 244 2300 
Q 769 2988 1169 3988 
z
M 5175 -106 
L 5400 -106 
Q 5438 -106 5475 -63 
L 5700 194 
Q 5744 238 5788 194 
Q 5950 31 6063 -106 
Q 6131 -194 6088 -256 
Q 6056 -294 5975 -300 
L 2288 -300 
Q 2119 -300 1906 -344 
Q 1875 -350 1869 -331 
Q 1788 -213 1725 -113 
Q 1688 -50 1769 -69 
Q 2150 -100 2194 -106 
L 2625 -106 
L 2625 3075 
Q 2625 3419 2581 3706 
Q 2575 3781 2600 3788 
Q 2631 3800 2675 3744 
Q 2738 3663 2888 3544 
L 3619 3544 
L 3731 4375 
L 2588 4375 
Q 2419 4375 2206 4331 
Q 2175 4325 2169 4344 
Q 2088 4469 2025 4569 
Q 1988 4631 2069 4613 
Q 2450 4575 2494 4569 
L 3756 4569 
L 3813 4963 
Q 3844 5175 3850 5350 
Q 3850 5394 3869 5400 
Q 3900 5413 3944 5388 
Q 4100 5319 4313 5206 
Q 4356 5181 4356 5156 
Q 4363 5138 4319 5119 
Q 4156 5050 4150 5025 
Q 4131 4963 4113 4881 
L 4069 4569 
L 5100 4569 
Q 5175 4569 5200 4594 
Q 5231 4625 5288 4688 
L 5450 4919 
Q 5494 4975 5550 4919 
Q 5744 4744 5931 4550 
Q 5994 4488 5988 4431 
Q 5975 4381 5894 4375 
L 4044 4375 
L 3931 3544 
L 4706 3544 
Q 4744 3550 4769 3575 
L 4913 3738 
Q 4950 3788 4994 3750 
Q 5200 3600 5375 3444 
Q 5419 3413 5381 3388 
Q 5200 3269 5194 3250 
Q 5175 3213 5175 3113 
L 5175 -106 
z
M 4875 625 
L 2925 625 
L 2925 -106 
L 4875 -106 
L 4875 625 
z
M 4875 1575 
L 2925 1575 
L 2925 819 
L 4875 819 
L 4875 1575 
z
M 4875 2475 
L 2925 2475 
L 2925 1769 
L 4875 1769 
L 4875 2475 
z
M 4713 3350 
L 2925 3350 
L 2925 2669 
L 4875 2669 
L 4875 3350 
L 4713 3350 
z
" transform="scale(0.015625)"/>
      </defs>
      <use xlink:href="#UMingCN-98ce"/>
      <use xlink:href="#UMingCN-9669" x="100"/>
      <use xlink:href="#UMingCN-503c" x="200"/>
     </g>
    </g>
   </g>
   <g id="line2d_27">
    <path d="M 54.108068 182.803092 
L 59.1749 112.520378 
L 64.241731 139.23395 
L 69.308562 104.477807 
L 74.375394 27.929444 
L 79.442225 27.929444 
L 84.509056 27.929444 
L 89.575888 65.662508 
L 94.642719 106.704678 
L 99.70955 150.067837 
L 104.776382 200.802803 
L 109.843213 252.769852 
L 114.910044 203.422928 
L 119.976876 151.401298 
L 125.043707 200.14721 
L 130.110539 99.466742 
L 135.17737 69.447114 
L 140.244201 60.452429 
L 145.311033 106.03635 
L 150.377864 158.338543 
L 155.444695 121.229482 
L 160.511527 57.322278 
L 165.578358 104.551445 
L 170.645189 94.990838 
L 175.712021 191.123134 
L 180.778852 205.870706 
L 185.845683 134.570113 
L 190.912515 184.099681 
L 195.979346 174.854268 
L 201.046178 174.404462 
L 206.113009 172.363864 
L 211.17984 163.201964 
L 216.246672 119.762243 
L 221.313503 195.694001 
L 226.380334 133.558191 
L 231.447166 130.518967 
L 236.513997 148.896518 
L 241.580828 187.094954 
L 246.64766 138.533373 
L 251.714491 160.194549 
L 256.781322 170.998124 
L 261.848154 175.93085 
L 266.914985 179.086901 
L 271.981817 155.425773 
L 277.048648 162.194636 
L 282.115479 145.157645 
L 287.182311 141.327203 
L 292.249142 158.491242 
L 297.315973 168.518522 
L 302.382805 139.103726 
L 307.449636 145.078394 
L 312.516467 150.772455 
L 317.583299 152.897752 
L 322.65013 130.34186 
L 327.716961 126.779333 
L 332.783793 129.788226 
L 337.850624 142.079922 
L 342.917456 144.089676 
L 347.984287 148.820327 
L 353.051118 154.325635 
L 358.11795 109.252587 
L 363.184781 110.137705 
L 368.251612 124.224173 
L 373.318444 135.832795 
L 378.385275 121.74331 
L 383.452106 147.478609 
L 388.518938 167.537856 
L 393.585769 139.673071 
L 398.6526 146.785646 
L 403.719432 130.007071 
" clip-path="url(#pff6faffb81)" style="fill: none; stroke: #1f77b4; stroke-width: 1.5; stroke-linecap: square"/>
   </g>
   <g id="line2d_28">
    <path d="M 54.108068 89.059987 
L 59.1749 24.870795 
L 64.241731 38.098901 
L 69.308562 27.929444 
L 74.375394 27.929444 
L 79.442225 27.929444 
L 84.509056 27.929444 
L 89.575888 27.929444 
L 94.642719 27.929444 
L 99.70955 27.929444 
L 104.776382 27.929444 
L 109.843213 27.929444 
" clip-path="url(#pff6faffb81)" style="fill: none; stroke: #ff7f0e; stroke-width: 1.5; stroke-linecap: square"/>
   </g>
   <g id="line2d_29">
    <path d="M 54.108068 126.354351 
L 59.1749 135.052785 
L 64.241731 131.280127 
L 69.308562 237.474771 
L 74.375394 234.03865 
L 79.442225 200.411336 
L 84.509056 83.048939 
L 89.575888 207.036177 
L 94.642719 188.891942 
L 99.70955 180.842962 
L 104.776382 211.441967 
L 109.843213 214.564137 
L 114.910044 216.512155 
L 119.976876 227.740378 
L 125.043707 234.75281 
L 130.110539 132.177807 
L 135.17737 89.517995 
L 140.244201 183.171427 
L 145.311033 74.642881 
L 150.377864 87.446261 
L 155.444695 93.612262 
L 160.511527 89.354999 
L 165.578358 174.421142 
L 170.645189 197.359522 
L 175.712021 222.604868 
L 180.778852 226.685561 
L 185.845683 255.100254 
L 190.912515 262.595764 
L 195.979346 243.003007 
L 201.046178 262.671534 
L 206.113009 216.214556 
L 211.17984 196.422658 
L 216.246672 162.944552 
L 221.313503 102.337197 
L 226.380334 101.010488 
L 231.447166 104.917834 
L 236.513997 97.534817 
L 241.580828 130.061923 
L 246.64766 203.299229 
L 251.714491 226.376014 
L 256.781322 197.522402 
L 261.848154 225.761866 
L 266.914985 230.280664 
L 271.981817 234.086278 
L 277.048648 232.073279 
L 282.115479 220.093662 
L 287.182311 243.696358 
L 292.249142 269.51318 
L 297.315973 261.639086 
L 302.382805 276.090655 
L 307.449636 268.279146 
L 312.516467 272.579772 
L 317.583299 265.610463 
L 322.65013 271.354016 
L 327.716961 268.526355 
L 332.783793 264.316404 
L 337.850624 262.809213 
L 342.917456 271.969236 
L 347.984287 279.877736 
L 353.051118 284.372336 
L 358.11795 274.522241 
L 363.184781 273.030298 
L 368.251612 277.332693 
L 373.318444 251.218382 
L 378.385275 275.617471 
L 383.452106 293.424995 
L 388.518938 293.414577 
L 393.585769 298.697043 
L 398.6526 295.68952 
L 403.719432 290.519699 
" clip-path="url(#pff6faffb81)" style="fill: none; stroke: #2ca02c; stroke-width: 1.5; stroke-linecap: square"/>
   </g>
   <g id="line2d_30">
    <path d="M 54.108068 74.905946 
L 59.1749 24.870795 
L 64.241731 114.110786 
L 69.308562 125.757839 
L 74.375394 189.908845 
L 79.442225 231.461347 
L 84.509056 286.720679 
L 89.575888 278.301046 
L 94.642719 194.85103 
L 99.70955 251.725638 
L 104.776382 148.019684 
L 109.843213 169.709054 
L 114.910044 213.06376 
L 119.976876 182.376802 
L 125.043707 246.053255 
L 130.110539 222.680384 
L 135.17737 219.215714 
L 140.244201 176.654521 
L 145.311033 215.93417 
L 150.377864 170.680286 
L 155.444695 231.835586 
L 160.511527 220.689303 
L 165.578358 244.203052 
L 170.645189 244.887474 
L 175.712021 196.983488 
L 180.778852 203.609942 
L 185.845683 233.516026 
L 190.912515 235.986119 
L 195.979346 227.934643 
L 201.046178 241.33172 
L 206.113009 205.654745 
L 211.17984 224.410668 
L 216.246672 179.094263 
L 221.313503 223.556342 
L 226.380334 220.298378 
L 231.447166 223.643159 
L 236.513997 173.582426 
L 241.580828 230.40407 
L 246.64766 214.544777 
L 251.714491 251.788005 
L 256.781322 236.366939 
L 261.848154 258.497883 
L 266.914985 247.658621 
L 271.981817 257.441313 
L 277.048648 236.322685 
L 282.115479 232.892336 
L 287.182311 208.80761 
L 292.249142 214.543744 
L 297.315973 202.26821 
L 302.382805 206.844762 
L 307.449636 196.675283 
L 312.516467 184.243097 
L 317.583299 183.94186 
L 322.65013 203.121375 
L 327.716961 238.222743 
L 332.783793 266.284495 
L 337.850624 292.648246 
L 342.917456 288.2209 
L 347.984287 281.138057 
L 353.051118 272.610477 
L 358.11795 271.957208 
L 363.184781 247.634675 
L 368.251612 230.281776 
L 373.318444 215.81541 
L 378.385275 220.691223 
L 383.452106 226.239332 
L 388.518938 252.255309 
L 393.585769 247.490141 
L 398.6526 268.238478 
L 403.719432 293.458573 
" clip-path="url(#pff6faffb81)" style="fill: none; stroke: #d62728; stroke-width: 1.5; stroke-linecap: square"/>
   </g>
   <g id="line2d_31">
    <path d="M 54.108068 124.717974 
L 59.1749 24.870795 
L 64.241731 27.929444 
L 69.308562 27.929444 
L 74.375394 27.929444 
L 79.442225 112.244567 
L 84.509056 86.310595 
L 89.575888 172.619166 
L 94.642719 258.141098 
L 99.70955 246.078561 
L 104.776382 235.648399 
L 109.843213 163.75876 
L 114.910044 175.613427 
L 119.976876 103.320411 
L 125.043707 81.54072 
L 130.110539 48.05111 
L 135.17737 89.300356 
L 140.244201 82.364551 
L 145.311033 180.768093 
L 150.377864 88.221 
L 155.444695 148.899755 
L 160.511527 36.724356 
L 165.578358 37.409062 
L 170.645189 64.610396 
L 175.712021 105.871948 
L 180.778852 64.145954 
L 185.845683 32.292915 
L 190.912515 62.741 
L 195.979346 76.867124 
L 201.046178 54.394522 
L 206.113009 63.400901 
L 211.17984 50.641587 
L 216.246672 89.615942 
L 221.313503 123.105623 
L 226.380334 101.105411 
L 231.447166 162.675609 
L 236.513997 141.585027 
L 241.580828 174.59572 
L 246.64766 148.496542 
L 251.714491 186.189432 
L 256.781322 205.50851 
L 261.848154 136.842522 
L 266.914985 176.768407 
L 271.981817 178.98989 
L 277.048648 190.337938 
L 282.115479 115.082438 
L 287.182311 98.61844 
L 292.249142 127.059086 
L 297.315973 214.683533 
L 302.382805 175.164769 
L 307.449636 214.25761 
L 312.516467 212.877055 
L 317.583299 157.024914 
L 322.65013 150.448887 
L 327.716961 135.639667 
L 332.783793 138.214308 
L 337.850624 153.8224 
L 342.917456 145.822676 
L 347.984287 172.573728 
L 353.051118 229.986847 
L 358.11795 169.931541 
L 363.184781 235.9117 
L 368.251612 262.50955 
L 373.318444 260.603303 
L 378.385275 267.074626 
L 383.452106 201.087111 
L 388.518938 184.696838 
L 393.585769 172.515734 
L 398.6526 210.700024 
L 403.719432 130.206243 
" clip-path="url(#pff6faffb81)" style="fill: none; stroke: #9467bd; stroke-width: 1.5; stroke-linecap: square"/>
   </g>
   <g id="line2d_32">
    <path d="M 54.108068 51.039374 
L 59.1749 24.870795 
L 64.241731 27.929444 
L 69.308562 98.944253 
L 74.375394 27.929444 
L 79.442225 31.426234 
L 84.509056 81.823142 
L 89.575888 27.929444 
L 94.642719 42.362304 
L 99.70955 77.681621 
L 104.776382 87.719939 
L 109.843213 27.929444 
L 114.910044 27.929444 
L 119.976876 27.929444 
L 125.043707 93.668058 
L 130.110539 67.476107 
L 135.17737 71.855638 
L 140.244201 67.861271 
L 145.311033 76.545928 
L 150.377864 91.171018 
L 155.444695 56.693968 
L 160.511527 68.327272 
L 165.578358 75.228767 
L 170.645189 114.954496 
L 175.712021 86.444602 
L 180.778852 93.284973 
L 185.845683 123.969285 
L 190.912515 172.885692 
L 195.979346 128.317279 
L 201.046178 166.238886 
L 206.113009 79.05639 
L 211.17984 87.833464 
L 216.246672 91.829195 
L 221.313503 116.958929 
L 226.380334 164.711172 
L 231.447166 133.166986 
L 236.513997 139.360036 
L 241.580828 188.26266 
L 246.64766 168.975173 
L 251.714491 192.073284 
L 256.781322 169.523753 
L 261.848154 137.507875 
L 266.914985 175.415718 
L 271.981817 158.687689 
L 277.048648 202.656285 
L 282.115479 150.375657 
L 287.182311 114.035639 
L 292.249142 125.80971 
L 297.315973 145.749578 
L 302.382805 197.256816 
L 307.449636 183.387292 
L 312.516467 235.031575 
L 317.583299 200.202566 
L 322.65013 251.59092 
L 327.716961 232.555493 
L 332.783793 205.208754 
L 337.850624 207.921864 
L 342.917456 267.006132 
L 347.984287 275.914601 
L 353.051118 208.611556 
L 358.11795 177.28667 
L 363.184781 144.537844 
L 368.251612 186.270051 
L 373.318444 222.402468 
L 378.385275 213.956893 
L 383.452106 199.496694 
L 388.518938 193.6109 
L 393.585769 237.387682 
L 398.6526 226.578468 
L 403.719432 210.549944 
" clip-path="url(#pff6faffb81)" style="fill: none; stroke: #8c564b; stroke-width: 1.5; stroke-linecap: square"/>
   </g>
   <g id="line2d_33">
    <path d="M 54.108068 154.045298 
L 59.1749 57.211863 
L 64.241731 27.929444 
L 69.308562 27.929444 
L 74.375394 27.929444 
L 79.442225 27.929444 
L 84.509056 27.929444 
L 89.575888 27.929444 
L 94.642719 68.68914 
L 99.70955 153.754044 
L 104.776382 75.202082 
L 109.843213 80.429344 
L 114.910044 57.362284 
L 119.976876 105.01634 
L 125.043707 75.859783 
L 130.110539 27.929444 
L 135.17737 27.929444 
L 140.244201 27.929444 
L 145.311033 27.929444 
L 150.377864 30.988093 
L 155.444695 30.988093 
L 160.511527 34.920355 
L 165.578358 87.403644 
L 170.645189 98.657858 
L 175.712021 104.321724 
L 180.778852 94.834248 
L 185.845683 94.764006 
L 190.912515 91.075138 
L 195.979346 123.570633 
L 201.046178 223.631705 
L 206.113009 217.781018 
L 211.17984 161.184043 
L 216.246672 186.957594 
L 221.313503 207.158824 
L 226.380334 219.798896 
L 231.447166 235.082639 
L 236.513997 246.827211 
L 241.580828 255.806116 
L 246.64766 234.318319 
L 251.714491 234.337829 
L 256.781322 233.591389 
L 261.848154 233.477506 
L 266.914985 234.645351 
L 271.981817 236.78606 
L 277.048648 239.060268 
L 282.115479 224.275814 
L 287.182311 198.655091 
L 292.249142 205.592385 
L 297.315973 204.561661 
L 302.382805 211.906999 
L 307.449636 220.103499 
L 312.516467 230.387485 
L 317.583299 242.924953 
L 322.65013 256.925034 
L 327.716961 248.274864 
L 332.783793 249.825735 
L 337.850624 257.580209 
L 342.917456 258.775915 
L 347.984287 262.296448 
L 353.051118 230.842414 
L 358.11795 222.447652 
L 363.184781 232.124709 
L 368.251612 260.829487 
L 373.318444 232.838038 
L 378.385275 238.841203 
L 383.452106 246.445354 
L 388.518938 253.244701 
L 393.585769 262.706436 
L 398.6526 268.890926 
L 403.719432 273.386832 
" clip-path="url(#pff6faffb81)" style="fill: none; stroke: #e377c2; stroke-width: 1.5; stroke-linecap: square"/>
   </g>
   <g id="line2d_34">
    <path d="M 54.108068 204.002997 
L 59.1749 68.27899 
L 64.241731 56.463437 
L 69.308562 75.573519 
L 74.375394 64.457405 
L 79.442225 105.758533 
L 84.509056 116.820222 
L 89.575888 194.490427 
L 94.642719 267.236764 
L 99.70955 186.649192 
L 104.776382 238.163683 
L 109.843213 183.868863 
L 114.910044 174.43173 
L 119.976876 182.183798 
L 125.043707 114.397299 
L 130.110539 100.169001 
L 135.17737 116.65925 
L 140.244201 90.76782 
L 145.311033 158.302263 
L 150.377864 92.907395 
L 155.444695 46.157055 
L 160.511527 36.70096 
L 165.578358 27.929444 
L 170.645189 46.228996 
L 175.712021 48.713943 
L 180.778852 129.068175 
L 185.845683 172.489541 
L 190.912515 189.411919 
L 195.979346 196.755476 
L 201.046178 196.225554 
L 206.113009 151.597374 
L 211.17984 139.814462 
L 216.246672 175.260706 
L 221.313503 109.170212 
L 226.380334 115.586781 
L 231.447166 145.264095 
L 236.513997 160.885753 
L 241.580828 177.366951 
L 246.64766 190.051668 
L 251.714491 176.912622 
L 256.781322 140.522446 
L 261.848154 131.622556 
L 266.914985 158.838045 
L 271.981817 244.819093 
L 277.048648 224.011595 
L 282.115479 166.549851 
L 287.182311 175.87677 
L 292.249142 166.447064 
L 297.315973 192.499466 
L 302.382805 204.724224 
L 307.449636 278.007565 
L 312.516467 291.377557 
L 317.583299 292.884125 
L 322.65013 266.00242 
L 327.716961 289.16617 
L 332.783793 294.064328 
L 337.850624 291.768313 
L 342.917456 261.06928 
L 347.984287 277.027151 
L 353.051118 273.790467 
L 358.11795 248.915842 
L 363.184781 185.618984 
L 368.251612 164.178617 
L 373.318444 180.813954 
L 378.385275 212.426751 
L 383.452106 257.084762 
L 388.518938 248.835156 
L 393.585769 301.501861 
L 398.6526 302.673171 
L 403.719432 306.286705 
" clip-path="url(#pff6faffb81)" style="fill: none; stroke: #7f7f7f; stroke-width: 1.5; stroke-linecap: square"/>
   </g>
   <g id="line2d_35">
    <path d="M 54.108068 295.843214 
L 59.1749 227.402465 
L 64.241731 267.983142 
L 69.308562 290.21672 
L 74.375394 230.844076 
L 79.442225 237.001209 
L 84.509056 267.231055 
L 89.575888 204.150064 
L 94.642719 272.356216 
L 99.70955 257.352985 
L 104.776382 294.316683 
L 109.843213 288.132386 
L 114.910044 292.774431 
L 119.976876 287.825302 
L 125.043707 289.299318 
L 130.110539 168.547436 
L 135.17737 118.22553 
L 140.244201 80.857836 
L 145.311033 49.707901 
L 150.377864 59.413743 
L 155.444695 103.633905 
L 160.511527 153.608003 
L 165.578358 195.247963 
L 170.645189 240.954953 
L 175.712021 258.132551 
L 180.778852 280.147157 
L 185.845683 268.205022 
L 190.912515 250.843297 
L 195.979346 227.574604 
L 201.046178 246.729576 
L 206.113009 231.111088 
L 211.17984 173.210655 
L 216.246672 126.608115 
L 221.313503 216.291416 
L 226.380334 138.118396 
L 231.447166 179.353948 
L 236.513997 141.939202 
L 241.580828 198.041367 
L 246.64766 208.967911 
L 251.714491 198.415939 
L 256.781322 209.407392 
L 261.848154 204.614504 
L 266.914985 197.201128 
L 271.981817 209.230883 
L 277.048648 212.976399 
L 282.115479 167.866126 
L 287.182311 112.377933 
L 292.249142 99.819175 
L 297.315973 93.466203 
L 302.382805 94.995654 
L 307.449636 123.524938 
L 312.516467 186.339542 
L 317.583299 154.835378 
L 322.65013 205.249697 
L 327.716961 251.726599 
L 332.783793 243.183029 
L 337.850624 234.420348 
L 342.917456 254.691339 
L 347.984287 280.98684 
L 353.051118 257.026612 
L 358.11795 235.154748 
L 363.184781 269.211006 
L 368.251612 271.974933 
L 373.318444 234.283713 
L 378.385275 193.101033 
L 383.452106 184.502902 
L 388.518938 164.263456 
L 393.585769 120.129161 
L 398.6526 126.134718 
L 403.719432 202.307528 
" clip-path="url(#pff6faffb81)" style="fill: none; stroke: #bcbd22; stroke-width: 1.5; stroke-linecap: square"/>
   </g>
   <g id="line2d_36">
    <path d="M 54.108068 176.240477 
L 59.1749 188.211123 
L 64.241731 132.560458 
L 69.308562 40.985162 
L 74.375394 41.44897 
L 79.442225 27.929444 
L 84.509056 93.145174 
L 89.575888 27.929444 
L 94.642719 35.623596 
L 99.70955 90.921225 
L 104.776382 27.929444 
L 109.843213 27.929444 
L 114.910044 94.821582 
L 119.976876 27.929444 
L 125.043707 27.929444 
L 130.110539 63.06718 
L 135.17737 61.891249 
L 140.244201 48.984533 
L 145.311033 34.249422 
L 150.377864 70.162413 
L 155.444695 27.929444 
L 160.511527 27.929444 
L 165.578358 57.093663 
L 170.645189 27.929444 
L 175.712021 130.578489 
L 180.778852 149.932986 
L 185.845683 54.830344 
L 190.912515 66.680839 
L 195.979346 74.860434 
L 201.046178 73.597874 
L 206.113009 27.929444 
L 211.17984 107.295227 
L 216.246672 119.149643 
L 221.313503 30.6767 
L 226.380334 117.634789 
L 231.447166 29.923058 
L 236.513997 76.755156 
L 241.580828 108.738867 
L 246.64766 145.367927 
L 251.714491 157.465868 
L 256.781322 119.914326 
L 261.848154 186.798758 
L 266.914985 170.026868 
L 271.981817 232.328364 
L 277.048648 178.62059 
L 282.115479 124.056905 
L 287.182311 195.631392 
L 292.249142 169.119736 
L 297.315973 183.416273 
L 302.382805 181.235105 
L 307.449636 208.760965 
L 312.516467 226.916797 
L 317.583299 228.282175 
L 322.65013 223.702243 
L 327.716961 219.827799 
L 332.783793 219.153503 
L 337.850624 214.623022 
L 342.917456 208.452768 
L 347.984287 185.931784 
L 353.051118 217.256438 
L 358.11795 219.158413 
L 363.184781 265.390414 
L 368.251612 250.750264 
L 373.318444 255.422847 
" clip-path="url(#pff6faffb81)" style="fill: none; stroke: #17becf; stroke-width: 1.5; stroke-linecap: square"/>
   </g>
   <g id="patch_3">
    <path d="M 36.6275 320.3575 
L 36.6275 10.8 
" style="fill: none; stroke: #000000; stroke-width: 0.8; stroke-linejoin: miter; stroke-linecap: square"/>
   </g>
   <g id="patch_4">
    <path d="M 421.2 320.3575 
L 421.2 10.8 
" style="fill: none; stroke: #000000; stroke-width: 0.8; stroke-linejoin: miter; stroke-linecap: square"/>
   </g>
   <g id="patch_5">
    <path d="M 36.6275 320.3575 
L 421.2 320.3575 
" style="fill: none; stroke: #000000; stroke-width: 0.8; stroke-linejoin: miter; stroke-linecap: square"/>
   </g>
   <g id="patch_6">
    <path d="M 36.6275 10.8 
L 421.2 10.8 
" style="fill: none; stroke: #000000; stroke-width: 0.8; stroke-linejoin: miter; stroke-linecap: square"/>
   </g>
   <g id="legend_1">
    <g id="patch_7">
     <path d="M 342.2 162.253125 
L 414.2 162.253125 
Q 416.2 162.253125 416.2 160.253125 
L 416.2 17.8 
Q 416.2 15.8 414.2 15.8 
L 342.2 15.8 
Q 340.2 15.8 340.2 17.8 
L 340.2 160.253125 
Q 340.2 162.253125 342.2 162.253125 
z
" style="fill: #ffffff; opacity: 0.8; stroke: #cccccc; stroke-linejoin: miter"/>
    </g>
    <g id="line2d_37">
     <path d="M 344.2 24.776563 
L 354.2 24.776563 
L 364.2 24.776563 
" style="fill: none; stroke: #1f77b4; stroke-width: 1.5; stroke-linecap: square"/>
    </g>
    <g id="text_16">
     <!-- 无人机 0 -->
     <g transform="translate(372.2 28.276563) scale(0.1 -0.1)">
      <defs>
       <path id="UMingCN-65e0" d="M 4650 4744 
Q 4738 4750 4838 4863 
L 5000 5094 
Q 5044 5150 5100 5094 
Q 5544 4700 5538 4606 
Q 5525 4556 5444 4550 
L 4663 4550 
L 3138 4550 
Q 3094 3725 3000 3044 
L 5150 3044 
Q 5238 3050 5338 3163 
L 5500 3394 
Q 5544 3450 5600 3394 
Q 6044 3000 6038 2906 
Q 6025 2856 5944 2850 
L 5163 2850 
L 3775 2850 
L 3775 31 
Q 3781 -44 3788 -69 
Q 3800 -94 3894 -94 
L 5394 -94 
Q 5500 -81 5544 -56 
Q 5738 63 5813 944 
Q 5819 1031 5900 1025 
Q 5981 1019 5975 925 
Q 5906 363 5944 175 
Q 5988 38 6088 -25 
Q 6125 -56 6100 -94 
Q 5956 -338 5525 -356 
L 3863 -356 
Q 3594 -356 3538 -281 
Q 3475 -206 3475 -50 
L 3475 2850 
L 2969 2850 
Q 2750 1544 2238 806 
Q 1688 81 413 -500 
Q 281 -556 256 -475 
Q 238 -394 356 -338 
Q 1294 63 1894 775 
Q 2463 1519 2675 2850 
L 994 2850 
Q 731 2844 538 2806 
Q 481 2788 475 2844 
Q 444 2956 350 3038 
Q 300 3081 325 3106 
Q 350 3125 394 3100 
Q 631 3044 919 3044 
L 2700 3044 
Q 2794 3725 2800 4550 
L 1619 4550 
Q 1356 4544 1163 4506 
Q 1106 4488 1100 4544 
Q 1069 4656 975 4738 
Q 925 4781 950 4806 
Q 975 4825 1019 4800 
Q 1256 4744 1544 4744 
L 4650 4744 
z
" transform="scale(0.015625)"/>
       <path id="UMingCN-4eba" d="M 3675 3088 
Q 3888 2269 4206 1700 
Q 4600 1025 5106 556 
Q 5525 181 6094 -106 
Q 6138 -125 6181 -150 
Q 6219 -169 6200 -225 
Q 6181 -275 6106 -256 
Q 6006 -231 5875 -275 
Q 5731 -331 5650 -413 
Q 5613 -438 5569 -394 
Q 4963 119 4563 613 
Q 4219 1031 3994 1500 
Q 3713 2081 3519 2925 
Q 3363 3556 3263 4250 
Q 3125 2919 2875 2163 
Q 2606 1331 2119 763 
Q 1544 94 319 -450 
Q 238 -488 213 -413 
Q 181 -344 263 -300 
Q 1431 294 2038 1088 
Q 2606 1844 2819 3144 
Q 3006 4281 2981 5225 
Q 2975 5269 3000 5288 
Q 3025 5300 3069 5294 
Q 3350 5219 3575 5119 
Q 3619 5094 3613 5069 
Q 3606 5050 3563 5031 
Q 3388 4988 3363 4963 
Q 3338 4944 3331 4919 
Q 3444 4044 3675 3088 
z
" transform="scale(0.015625)"/>
       <path id="UMingCN-673a" d="M 4600 4850 
L 3431 4850 
L 3431 3844 
Q 3431 2569 3338 1706 
Q 3269 969 3000 513 
Q 2694 -25 2131 -444 
Q 2050 -500 2006 -438 
Q 1969 -375 2025 -331 
Q 2475 75 2700 475 
Q 2944 925 3044 1663 
Q 3131 2375 3131 3563 
L 3131 4694 
Q 3125 4931 3069 5181 
Q 3063 5231 3088 5250 
Q 3119 5256 3163 5213 
Q 3250 5125 3388 5044 
L 4500 5044 
Q 4544 5050 4563 5075 
L 4744 5263 
Q 4763 5288 4788 5288 
Q 4806 5281 4831 5256 
Q 4988 5100 5106 4944 
Q 5138 4900 5100 4881 
Q 4938 4806 4919 4781 
Q 4900 4750 4900 4725 
L 4900 156 
Q 4900 25 4963 -19 
Q 5019 -75 5119 -75 
Q 5194 -75 5231 -75 
L 5525 -75 
Q 5613 -75 5675 -38 
Q 5744 0 5788 138 
Q 5888 413 6000 1013 
Q 6006 1088 6069 1081 
Q 6131 1069 6125 1006 
Q 6069 475 6113 231 
Q 6138 88 6213 44 
Q 6244 25 6219 -13 
Q 6156 -194 6044 -269 
Q 5906 -375 5700 -375 
L 5088 -375 
Q 5050 -375 4956 -375 
Q 4825 -375 4713 -275 
Q 4600 -181 4600 88 
L 4600 4850 
z
M 1675 969 
Q 1675 188 1700 -344 
Q 1700 -400 1656 -406 
L 1381 -519 
Q 1325 -531 1331 -431 
Q 1369 400 1375 969 
L 1375 2556 
Q 1431 2913 1469 3238 
Q 1475 3269 1450 3275 
Q 1419 3281 1413 3256 
Q 1363 2963 1300 2656 
Q 1213 2450 1081 2169 
Q 856 1694 350 1000 
Q 288 925 244 981 
Q 194 1025 231 1081 
Q 669 1681 975 2506 
Q 1225 3194 1325 3725 
L 788 3725 
Q 619 3725 406 3681 
Q 375 3675 369 3694 
Q 288 3813 225 3913 
Q 188 3975 269 3956 
Q 650 3925 694 3919 
L 1375 3919 
L 1375 4513 
Q 1369 5013 1344 5313 
Q 1338 5425 1400 5400 
Q 1750 5288 1881 5213 
Q 1950 5163 1888 5138 
Q 1694 5031 1688 5006 
Q 1675 4981 1675 4513 
L 1675 3919 
L 2125 3919 
Q 2163 3919 2200 3963 
L 2425 4219 
Q 2469 4263 2513 4219 
Q 2675 4056 2788 3919 
Q 2856 3831 2813 3769 
Q 2781 3731 2700 3725 
L 1675 3725 
L 1675 3038 
Q 1694 3031 1700 3025 
Q 2125 2800 2356 2588 
Q 2531 2438 2538 2338 
Q 2544 2188 2463 2094 
Q 2375 2000 2338 2000 
Q 2300 1994 2244 2125 
Q 2113 2369 1975 2563 
Q 1831 2756 1675 2875 
L 1675 969 
z
" transform="scale(0.015625)"/>
       <path id="UMingCN-20" transform="scale(0.015625)"/>
      </defs>
      <use xlink:href="#UMingCN-65e0"/>
      <use xlink:href="#UMingCN-4eba" x="100"/>
      <use xlink:href="#UMingCN-673a" x="200"/>
      <use xlink:href="#UMingCN-20" x="300"/>
      <use xlink:href="#UMingCN-30" x="350"/>
     </g>
    </g>
    <g id="line2d_38">
     <path d="M 344.2 39.121875 
L 354.2 39.121875 
L 364.2 39.121875 
" style="fill: none; stroke: #ff7f0e; stroke-width: 1.5; stroke-linecap: square"/>
    </g>
    <g id="text_17">
     <!-- 无人机 1 -->
     <g transform="translate(372.2 42.621875) scale(0.1 -0.1)">
      <use xlink:href="#UMingCN-65e0"/>
      <use xlink:href="#UMingCN-4eba" x="100"/>
      <use xlink:href="#UMingCN-673a" x="200"/>
      <use xlink:href="#UMingCN-20" x="300"/>
      <use xlink:href="#UMingCN-31" x="350"/>
     </g>
    </g>
    <g id="line2d_39">
     <path d="M 344.2 53.467188 
L 354.2 53.467188 
L 364.2 53.467188 
" style="fill: none; stroke: #2ca02c; stroke-width: 1.5; stroke-linecap: square"/>
    </g>
    <g id="text_18">
     <!-- 无人机 2 -->
     <g transform="translate(372.2 56.967188) scale(0.1 -0.1)">
      <use xlink:href="#UMingCN-65e0"/>
      <use xlink:href="#UMingCN-4eba" x="100"/>
      <use xlink:href="#UMingCN-673a" x="200"/>
      <use xlink:href="#UMingCN-20" x="300"/>
      <use xlink:href="#UMingCN-32" x="350"/>
     </g>
    </g>
    <g id="line2d_40">
     <path d="M 344.2 67.8125 
L 354.2 67.8125 
L 364.2 67.8125 
" style="fill: none; stroke: #d62728; stroke-width: 1.5; stroke-linecap: square"/>
    </g>
    <g id="text_19">
     <!-- 无人机 3 -->
     <g transform="translate(372.2 71.3125) scale(0.1 -0.1)">
      <use xlink:href="#UMingCN-65e0"/>
      <use xlink:href="#UMingCN-4eba" x="100"/>
      <use xlink:href="#UMingCN-673a" x="200"/>
      <use xlink:href="#UMingCN-20" x="300"/>
      <use xlink:href="#UMingCN-33" x="350"/>
     </g>
    </g>
    <g id="line2d_41">
     <path d="M 344.2 82.157812 
L 354.2 82.157812 
L 364.2 82.157812 
" style="fill: none; stroke: #9467bd; stroke-width: 1.5; stroke-linecap: square"/>
    </g>
    <g id="text_20">
     <!-- 无人机 4 -->
     <g transform="translate(372.2 85.657812) scale(0.1 -0.1)">
      <use xlink:href="#UMingCN-65e0"/>
      <use xlink:href="#UMingCN-4eba" x="100"/>
      <use xlink:href="#UMingCN-673a" x="200"/>
      <use xlink:href="#UMingCN-20" x="300"/>
      <use xlink:href="#UMingCN-34" x="350"/>
     </g>
    </g>
    <g id="line2d_42">
     <path d="M 344.2 96.503125 
L 354.2 96.503125 
L 364.2 96.503125 
" style="fill: none; stroke: #8c564b; stroke-width: 1.5; stroke-linecap: square"/>
    </g>
    <g id="text_21">
     <!-- 无人机 5 -->
     <g transform="translate(372.2 100.003125) scale(0.1 -0.1)">
      <use xlink:href="#UMingCN-65e0"/>
      <use xlink:href="#UMingCN-4eba" x="100"/>
      <use xlink:href="#UMingCN-673a" x="200"/>
      <use xlink:href="#UMingCN-20" x="300"/>
      <use xlink:href="#UMingCN-35" x="350"/>
     </g>
    </g>
    <g id="line2d_43">
     <path d="M 344.2 110.848438 
L 354.2 110.848438 
L 364.2 110.848438 
" style="fill: none; stroke: #e377c2; stroke-width: 1.5; stroke-linecap: square"/>
    </g>
    <g id="text_22">
     <!-- 无人机 6 -->
     <g transform="translate(372.2 114.348438) scale(0.1 -0.1)">
      <use xlink:href="#UMingCN-65e0"/>
      <use xlink:href="#UMingCN-4eba" x="100"/>
      <use xlink:href="#UMingCN-673a" x="200"/>
      <use xlink:href="#UMingCN-20" x="300"/>
      <use xlink:href="#UMingCN-36" x="350"/>
     </g>
    </g>
    <g id="line2d_44">
     <path d="M 344.2 125.19375 
L 354.2 125.19375 
L 364.2 125.19375 
" style="fill: none; stroke: #7f7f7f; stroke-width: 1.5; stroke-linecap: square"/>
    </g>
    <g id="text_23">
     <!-- 无人机 7 -->
     <g transform="translate(372.2 128.69375) scale(0.1 -0.1)">
      <use xlink:href="#UMingCN-65e0"/>
      <use xlink:href="#UMingCN-4eba" x="100"/>
      <use xlink:href="#UMingCN-673a" x="200"/>
      <use xlink:href="#UMingCN-20" x="300"/>
      <use xlink:href="#UMingCN-37" x="350"/>
     </g>
    </g>
    <g id="line2d_45">
     <path d="M 344.2 139.539063 
L 354.2 139.539063 
L 364.2 139.539063 
" style="fill: none; stroke: #bcbd22; stroke-width: 1.5; stroke-linecap: square"/>
    </g>
    <g id="text_24">
     <!-- 无人机 8 -->
     <g transform="translate(372.2 143.039063) scale(0.1 -0.1)">
      <defs>
       <path id="UMingCN-38" d="M 1600 413 
Q 1025 413 625 725 
Q 256 1013 256 1425 
Q 256 1669 469 1956 
Q 631 2194 1219 2463 
Q 831 2669 675 2863 
Q 431 3138 431 3425 
Q 431 3850 788 4138 
Q 1113 4400 1600 4400 
Q 1963 4400 2325 4169 
Q 2725 3913 2725 3500 
Q 2725 3281 2563 3075 
Q 2394 2856 1813 2563 
Q 2513 2263 2738 1981 
Q 2944 1738 2944 1488 
Q 2944 1063 2606 769 
Q 2200 413 1600 413 
z
M 2456 1788 
Q 2256 2000 1669 2256 
Q 1525 2319 1413 2369 
Q 869 2100 744 1900 
Q 581 1644 581 1425 
Q 581 1088 850 856 
Q 1163 588 1600 588 
Q 1950 588 2325 813 
Q 2619 1006 2619 1406 
Q 2619 1606 2456 1788 
z
M 875 3094 
Q 1050 2888 1631 2638 
Q 2113 2863 2281 3081 
Q 2456 3313 2456 3563 
Q 2456 3838 2200 4044 
Q 1975 4225 1600 4225 
Q 1219 4225 950 4019 
Q 700 3813 700 3531 
Q 700 3300 875 3094 
z
" transform="scale(0.015625)"/>
      </defs>
      <use xlink:href="#UMingCN-65e0"/>
      <use xlink:href="#UMingCN-4eba" x="100"/>
      <use xlink:href="#UMingCN-673a" x="200"/>
      <use xlink:href="#UMingCN-20" x="300"/>
      <use xlink:href="#UMingCN-38" x="350"/>
     </g>
    </g>
    <g id="line2d_46">
     <path d="M 344.2 153.884375 
L 354.2 153.884375 
L 364.2 153.884375 
" style="fill: none; stroke: #17becf; stroke-width: 1.5; stroke-linecap: square"/>
    </g>
    <g id="text_25">
     <!-- 无人机 9 -->
     <g transform="translate(372.2 157.384375) scale(0.1 -0.1)">
      <defs>
       <path id="UMingCN-39" d="M 2431 1044 
Q 2013 413 1356 413 
Q 1031 413 744 619 
Q 450 825 450 1106 
Q 450 1194 525 1256 
Q 594 1306 656 1306 
Q 738 1306 794 1250 
Q 856 1188 856 1106 
Q 856 981 819 900 
Q 788 825 950 694 
Q 1131 550 1356 550 
Q 1806 550 2169 1038 
Q 2531 1531 2569 2469 
Q 1919 1906 1375 1900 
Q 975 1900 663 2188 
Q 313 2500 313 3181 
Q 313 3719 694 4075 
Q 1044 4400 1569 4400 
Q 2131 4400 2525 3931 
Q 2894 3494 2894 2725 
Q 2894 1744 2431 1044 
z
M 2569 2725 
Q 2569 3519 2281 3875 
Q 1981 4225 1569 4225 
Q 1181 4225 894 3981 
Q 638 3731 638 3181 
Q 638 2619 869 2388 
Q 1106 2150 1506 2150 
Q 1869 2150 2569 2669 
Q 2569 2700 2569 2725 
z
" transform="scale(0.015625)"/>
      </defs>
      <use xlink:href="#UMingCN-65e0"/>
      <use xlink:href="#UMingCN-4eba" x="100"/>
      <use xlink:href="#UMingCN-673a" x="200"/>
      <use xlink:href="#UMingCN-20" x="300"/>
      <use xlink:href="#UMingCN-39" x="350"/>
     </g>
    </g>
   </g>
  </g>
 </g>
 <defs>
  <clipPath id="pff6faffb81">
   <rect x="36.6275" y="10.8" width="384.5725" height="309.5575"/>
  </clipPath>
 </defs>
</svg>
