<?xml version="1.0" encoding="utf-8" standalone="no"?>
<!DOCTYPE svg PUBLIC "-//W3C//DTD SVG 1.1//EN"
  "http://www.w3.org/Graphics/SVG/1.1/DTD/svg11.dtd">
<svg xmlns:xlink="http://www.w3.org/1999/xlink" width="432pt" height="360pt" viewBox="0 0 432 360" xmlns="http://www.w3.org/2000/svg" version="1.1">
 <metadata>
  <rdf:RDF xmlns:dc="http://purl.org/dc/elements/1.1/" xmlns:cc="http://creativecommons.org/ns#" xmlns:rdf="http://www.w3.org/1999/02/22-rdf-syntax-ns#">
   <cc:Work>
    <dc:type rdf:resource="http://purl.org/dc/dcmitype/StillImage"/>
    <dc:date>2025-06-03T10:41:03.678109</dc:date>
    <dc:format>image/svg+xml</dc:format>
    <dc:creator>
     <cc:Agent>
      <dc:title>Matplotlib v3.9.4, https://matplotlib.org/</dc:title>
     </cc:Agent>
    </dc:creator>
   </cc:Work>
  </rdf:RDF>
 </metadata>
 <defs>
  <style type="text/css">*{stroke-linejoin: round; stroke-linecap: butt}</style>
 </defs>
 <g id="figure_1">
  <g id="patch_1">
   <path d="M 0 360 
L 432 360 
L 432 0 
L 0 0 
z
" style="fill: #ffffff"/>
  </g>
  <g id="axes_1">
   <g id="patch_2">
    <path d="M 46.98875 320.3575 
L 421.2 320.3575 
L 421.2 10.8 
L 46.98875 10.8 
z
" style="fill: #ffffff"/>
   </g>
   <g id="matplotlib.axis_1">
    <g id="xtick_1">
     <g id="line2d_1">
      <path d="M 63.998352 320.3575 
L 63.998352 10.8 
" clip-path="url(#pdd0ec4e95d)" style="fill: none; stroke: #b0b0b0; stroke-opacity: 0.3; stroke-width: 0.8; stroke-linecap: square"/>
     </g>
     <g id="line2d_2">
      <defs>
       <path id="m4b60dfc394" d="M 0 0 
L 0 3.5 
" style="stroke: #000000; stroke-width: 0.8"/>
      </defs>
      <g>
       <use xlink:href="#m4b60dfc394" x="63.998352" y="320.3575" style="stroke: #000000; stroke-width: 0.8"/>
      </g>
     </g>
     <g id="text_1">
      <!-- 0 -->
      <g transform="translate(61.498352 334.2325) scale(0.1 -0.1)">
       <defs>
        <path id="UMingCN-30" d="M 691 997 
Q 313 1581 313 2406 
Q 313 3231 691 3815 
Q 1069 4400 1600 4400 
Q 2131 4400 2509 3815 
Q 2888 3231 2888 2406 
Q 2888 1581 2509 997 
Q 2131 413 1600 413 
Q 1069 413 691 997 
z
M 919 3690 
Q 638 3156 638 2406 
Q 638 1656 919 1122 
Q 1200 588 1600 588 
Q 2000 588 2281 1122 
Q 2563 1656 2563 2406 
Q 2563 3156 2281 3690 
Q 2000 4225 1600 4225 
Q 1200 4225 919 3690 
z
" transform="scale(0.015625)"/>
       </defs>
       <use xlink:href="#UMingCN-30"/>
      </g>
     </g>
    </g>
    <g id="xtick_2">
     <g id="line2d_3">
      <path d="M 140.446003 320.3575 
L 140.446003 10.8 
" clip-path="url(#pdd0ec4e95d)" style="fill: none; stroke: #b0b0b0; stroke-opacity: 0.3; stroke-width: 0.8; stroke-linecap: square"/>
     </g>
     <g id="line2d_4">
      <g>
       <use xlink:href="#m4b60dfc394" x="140.446003" y="320.3575" style="stroke: #000000; stroke-width: 0.8"/>
      </g>
     </g>
     <g id="text_2">
      <!-- 2 -->
      <g transform="translate(137.946003 334.2325) scale(0.1 -0.1)">
       <defs>
        <path id="UMingCN-32" d="M 531 475 
L 319 475 
Q 319 975 606 1300 
Q 900 1694 1744 2281 
Q 2594 2844 2594 3319 
Q 2594 3738 2250 4006 
Q 1969 4225 1594 4225 
Q 1225 4225 994 4094 
Q 725 3938 700 3819 
Q 675 3706 731 3606 
Q 794 3488 794 3313 
Q 794 3256 731 3194 
Q 669 3131 588 3131 
Q 481 3131 406 3206 
Q 331 3288 331 3406 
Q 331 3788 719 4106 
Q 1081 4400 1594 4400 
Q 2206 4400 2556 4088 
Q 2919 3750 2919 3319 
Q 2919 2775 1825 2113 
Q 1088 1638 819 1294 
Q 606 1075 550 756 
L 1831 756 
Q 2469 756 2806 1244 
L 2881 1213 
L 2613 475 
L 531 475 
z
" transform="scale(0.015625)"/>
       </defs>
       <use xlink:href="#UMingCN-32"/>
      </g>
     </g>
    </g>
    <g id="xtick_3">
     <g id="line2d_5">
      <path d="M 216.893654 320.3575 
L 216.893654 10.8 
" clip-path="url(#pdd0ec4e95d)" style="fill: none; stroke: #b0b0b0; stroke-opacity: 0.3; stroke-width: 0.8; stroke-linecap: square"/>
     </g>
     <g id="line2d_6">
      <g>
       <use xlink:href="#m4b60dfc394" x="216.893654" y="320.3575" style="stroke: #000000; stroke-width: 0.8"/>
      </g>
     </g>
     <g id="text_3">
      <!-- 4 -->
      <g transform="translate(214.393654 334.2325) scale(0.1 -0.1)">
       <defs>
        <path id="UMingCN-34" d="M 2263 1538 
L 2994 1538 
L 2994 1294 
L 2263 1294 
L 2263 938 
Q 2263 581 2844 581 
L 2844 475 
L 1375 475 
L 1375 581 
Q 1956 581 1956 938 
L 1956 1294 
L 206 1294 
L 206 1581 
L 2119 4338 
L 2263 4338 
L 2263 1538 
z
M 1956 1538 
L 1956 3894 
L 350 1538 
L 1956 1538 
z
" transform="scale(0.015625)"/>
       </defs>
       <use xlink:href="#UMingCN-34"/>
      </g>
     </g>
    </g>
    <g id="xtick_4">
     <g id="line2d_7">
      <path d="M 293.341304 320.3575 
L 293.341304 10.8 
" clip-path="url(#pdd0ec4e95d)" style="fill: none; stroke: #b0b0b0; stroke-opacity: 0.3; stroke-width: 0.8; stroke-linecap: square"/>
     </g>
     <g id="line2d_8">
      <g>
       <use xlink:href="#m4b60dfc394" x="293.341304" y="320.3575" style="stroke: #000000; stroke-width: 0.8"/>
      </g>
     </g>
     <g id="text_4">
      <!-- 6 -->
      <g transform="translate(290.841304 334.2325) scale(0.1 -0.1)">
       <defs>
        <path id="UMingCN-36" d="M 775 3769 
Q 1194 4400 1850 4400 
Q 2175 4400 2463 4194 
Q 2756 3988 2756 3706 
Q 2756 3619 2681 3556 
Q 2613 3506 2550 3506 
Q 2469 3506 2413 3563 
Q 2350 3625 2350 3706 
Q 2350 3831 2388 3913 
Q 2419 3988 2256 4119 
Q 2075 4263 1850 4263 
Q 1400 4263 1038 3775 
Q 675 3281 638 2344 
Q 1288 2906 1831 2913 
Q 2231 2913 2544 2625 
Q 2894 2313 2894 1631 
Q 2894 1094 2513 738 
Q 2163 413 1638 413 
Q 1075 413 681 881 
Q 313 1319 313 2088 
Q 313 3069 775 3769 
z
M 638 2088 
Q 638 1294 925 938 
Q 1225 588 1638 588 
Q 2025 588 2313 831 
Q 2569 1081 2569 1631 
Q 2569 2194 2338 2425 
Q 2100 2663 1700 2663 
Q 1338 2663 638 2144 
Q 638 2113 638 2088 
z
" transform="scale(0.015625)"/>
       </defs>
       <use xlink:href="#UMingCN-36"/>
      </g>
     </g>
    </g>
    <g id="xtick_5">
     <g id="line2d_9">
      <path d="M 369.788955 320.3575 
L 369.788955 10.8 
" clip-path="url(#pdd0ec4e95d)" style="fill: none; stroke: #b0b0b0; stroke-opacity: 0.3; stroke-width: 0.8; stroke-linecap: square"/>
     </g>
     <g id="line2d_10">
      <g>
       <use xlink:href="#m4b60dfc394" x="369.788955" y="320.3575" style="stroke: #000000; stroke-width: 0.8"/>
      </g>
     </g>
     <g id="text_5">
      <!-- 8 -->
      <g transform="translate(367.288955 334.2325) scale(0.1 -0.1)">
       <defs>
        <path id="UMingCN-38" d="M 1600 413 
Q 1025 413 625 725 
Q 256 1013 256 1425 
Q 256 1669 469 1956 
Q 631 2194 1219 2463 
Q 831 2669 675 2863 
Q 431 3138 431 3425 
Q 431 3850 788 4138 
Q 1113 4400 1600 4400 
Q 1963 4400 2325 4169 
Q 2725 3913 2725 3500 
Q 2725 3281 2563 3075 
Q 2394 2856 1813 2563 
Q 2513 2263 2738 1981 
Q 2944 1738 2944 1488 
Q 2944 1063 2606 769 
Q 2200 413 1600 413 
z
M 2456 1788 
Q 2256 2000 1669 2256 
Q 1525 2319 1413 2369 
Q 869 2100 744 1900 
Q 581 1644 581 1425 
Q 581 1088 850 856 
Q 1163 588 1600 588 
Q 1950 588 2325 813 
Q 2619 1006 2619 1406 
Q 2619 1606 2456 1788 
z
M 875 3094 
Q 1050 2888 1631 2638 
Q 2113 2863 2281 3081 
Q 2456 3313 2456 3563 
Q 2456 3838 2200 4044 
Q 1975 4225 1600 4225 
Q 1219 4225 950 4019 
Q 700 3813 700 3531 
Q 700 3300 875 3094 
z
" transform="scale(0.015625)"/>
       </defs>
       <use xlink:href="#UMingCN-38"/>
      </g>
     </g>
    </g>
    <g id="text_6">
     <!-- 时间/s -->
     <g transform="translate(219.094375 347.227813) scale(0.1 -0.1)">
      <defs>
       <path id="UMingCN-65f6" d="M 1806 1075 
L 769 1075 
Q 769 738 775 469 
Q 769 375 538 219 
Q 488 194 463 194 
Q 425 200 431 319 
Q 456 944 475 1606 
L 475 4306 
Q 469 4506 431 4794 
Q 419 4856 438 4863 
Q 444 4863 688 4669 
L 1656 4669 
Q 1731 4669 1775 4713 
L 1931 4875 
Q 1963 4919 2019 4881 
Q 2213 4738 2350 4619 
Q 2394 4569 2338 4563 
Q 2231 4544 2175 4488 
Q 2125 4431 2125 4369 
L 2125 1894 
Q 2131 1469 2175 850 
Q 2175 769 2113 731 
Q 1831 569 1806 575 
Q 1781 588 1788 688 
Q 1800 863 1806 1075 
z
M 775 1606 
Q 769 1438 769 1269 
L 1813 1269 
Q 1819 1481 1825 1713 
L 1825 2775 
L 775 2775 
L 775 1606 
z
M 775 4475 
L 775 2969 
L 1825 2969 
L 1825 4475 
L 775 4475 
z
M 4925 175 
Q 4913 -56 4813 -213 
Q 4656 -444 4500 -525 
Q 4450 -569 4425 -569 
Q 4394 -569 4369 -438 
Q 4313 -250 4250 -188 
Q 4181 -100 3819 -56 
Q 3719 -44 3725 38 
Q 3731 119 3831 113 
Q 4419 25 4531 63 
Q 4619 100 4625 238 
L 4625 3650 
L 3119 3650 
Q 2856 3644 2663 3606 
Q 2613 3588 2594 3644 
Q 2569 3756 2475 3831 
Q 2431 3875 2450 3900 
Q 2475 3919 2519 3894 
Q 2756 3844 3044 3844 
L 4625 3844 
L 4625 4488 
Q 4619 4988 4600 5294 
Q 4581 5394 4644 5375 
Q 5000 5250 5119 5188 
Q 5194 5138 5100 5094 
Q 4988 5044 4963 4988 
Q 4925 4869 4925 4488 
L 4925 3844 
L 5400 3844 
Q 5438 3844 5475 3888 
L 5700 4144 
Q 5744 4188 5788 4144 
Q 5950 3981 6063 3844 
Q 6131 3756 6088 3694 
Q 6056 3656 5975 3650 
L 5400 3650 
L 4925 3650 
L 4925 175 
z
M 2931 2769 
Q 2900 2813 2938 2850 
Q 2975 2881 3038 2819 
Q 3869 2100 3850 1706 
Q 3850 1588 3731 1419 
Q 3638 1288 3563 1294 
Q 3500 1313 3506 1431 
Q 3438 2069 2931 2769 
z
" transform="scale(0.015625)"/>
       <path id="UMingCN-95f4" d="M 3906 1175 
L 2425 1175 
Q 2419 850 2394 813 
Q 2175 644 2138 638 
Q 2088 644 2094 763 
Q 2119 1144 2125 2031 
L 2125 3306 
Q 2119 3531 2100 3712 
Q 2081 3894 2103 3900 
Q 2125 3906 2184 3843 
Q 2244 3781 2394 3669 
L 3756 3669 
Q 3831 3669 3875 3713 
L 4031 3875 
Q 4063 3919 4119 3881 
Q 4313 3738 4450 3619 
Q 4494 3569 4438 3563 
Q 4331 3544 4278 3487 
Q 4225 3431 4225 3369 
L 4225 2019 
Q 4231 1594 4275 975 
Q 4275 894 4213 856 
Q 3931 694 3906 703 
Q 3881 713 3890 841 
Q 3900 969 3906 1175 
z
M 2425 2375 
L 2425 1369 
L 3913 1369 
Q 3919 1588 3925 1838 
L 3925 2375 
L 2425 2375 
z
M 2425 3475 
L 2425 2569 
L 3925 2569 
L 3925 3475 
L 2425 3475 
z
M 769 4363 
Q 756 4469 831 4444 
Q 1169 4338 1269 4284 
Q 1369 4231 1269 4178 
Q 1169 4125 1134 4034 
Q 1100 3944 1100 3563 
L 1100 1019 
Q 1100 288 1125 -206 
Q 1131 -256 1069 -300 
L 831 -450 
Q 750 -513 756 -381 
Q 794 450 800 1019 
L 800 3563 
Q 794 4063 769 4363 
z
M 1350 5225 
Q 1306 5275 1331 5319 
Q 1375 5369 1450 5306 
Q 2119 4831 2119 4600 
Q 2106 4450 2009 4369 
Q 1913 4288 1875 4291 
Q 1838 4294 1800 4425 
Q 1631 4944 1350 5225 
z
M 3244 4969 
L 5119 4969 
Q 5175 4969 5181 4975 
L 5338 5181 
Q 5350 5206 5375 5206 
Q 5444 5206 5769 4869 
Q 5813 4819 5688 4769 
Q 5563 4719 5544 4687 
Q 5525 4656 5525 4613 
L 5525 88 
Q 5525 -125 5413 -281 
Q 5300 -438 5131 -500 
Q 5075 -525 5050 -469 
Q 4938 -150 4413 -88 
Q 4338 -75 4344 -15 
Q 4350 44 4431 38 
Q 5125 -25 5181 0 
Q 5225 25 5225 156 
L 5225 4775 
L 3319 4775 
Q 3056 4769 2863 4731 
Q 2806 4713 2800 4769 
Q 2769 4881 2697 4943 
Q 2625 5006 2650 5028 
Q 2675 5050 2719 5025 
Q 2956 4969 3244 4969 
z
" transform="scale(0.015625)"/>
       <path id="UMingCN-2f" d="M 2819 5225 
L 3144 5225 
L 375 -475 
L 50 -475 
L 2819 5225 
z
" transform="scale(0.015625)"/>
       <path id="UMingCN-73" d="M 2725 2725 
L 2675 2294 
L 2588 2294 
Q 2406 2681 2194 2800 
Q 1975 2919 1750 2919 
Q 1313 2919 1119 2775 
Q 931 2638 931 2444 
Q 931 2275 1050 2156 
Q 1156 2044 1756 1944 
Q 2400 1844 2619 1638 
Q 2831 1438 2831 1194 
Q 2831 913 2563 669 
Q 2281 413 1756 413 
Q 1194 419 606 750 
L 375 1275 
L 463 1344 
Q 788 931 1094 756 
Q 1388 588 1675 588 
Q 2075 588 2294 763 
Q 2506 931 2506 1119 
Q 2506 1313 2356 1431 
Q 2213 1538 1581 1656 
Q 981 1769 793 1944 
Q 606 2119 606 2363 
Q 606 2681 894 2888 
Q 1188 3094 1663 3094 
Q 2119 3094 2725 2725 
z
" transform="scale(0.015625)"/>
      </defs>
      <use xlink:href="#UMingCN-65f6"/>
      <use xlink:href="#UMingCN-95f4" x="100"/>
      <use xlink:href="#UMingCN-2f" x="200"/>
      <use xlink:href="#UMingCN-73" x="250"/>
     </g>
    </g>
   </g>
   <g id="matplotlib.axis_2">
    <g id="ytick_1">
     <g id="line2d_11">
      <path d="M 46.98875 306.286705 
L 421.2 306.286705 
" clip-path="url(#pdd0ec4e95d)" style="fill: none; stroke: #b0b0b0; stroke-opacity: 0.3; stroke-width: 0.8; stroke-linecap: square"/>
     </g>
     <g id="line2d_12">
      <defs>
       <path id="mac27c5db49" d="M 0 0 
L -3.5 0 
" style="stroke: #000000; stroke-width: 0.8"/>
      </defs>
      <g>
       <use xlink:href="#mac27c5db49" x="46.98875" y="306.286705" style="stroke: #000000; stroke-width: 0.8"/>
      </g>
     </g>
     <g id="text_7">
      <!-- 0.0 -->
      <g transform="translate(24.98875 309.724205) scale(0.1 -0.1)">
       <defs>
        <path id="UMingCN-2e" d="M 1325 537 
Q 1213 650 1213 812 
Q 1213 975 1325 1087 
Q 1438 1200 1600 1200 
Q 1763 1200 1875 1087 
Q 1988 975 1988 812 
Q 1988 650 1875 537 
Q 1763 425 1600 425 
Q 1438 425 1325 537 
z
" transform="scale(0.015625)"/>
       </defs>
       <use xlink:href="#UMingCN-30"/>
       <use xlink:href="#UMingCN-2e" x="50"/>
       <use xlink:href="#UMingCN-30" x="100"/>
      </g>
     </g>
    </g>
    <g id="ytick_2">
     <g id="line2d_13">
      <path d="M 46.98875 261.286918 
L 421.2 261.286918 
" clip-path="url(#pdd0ec4e95d)" style="fill: none; stroke: #b0b0b0; stroke-opacity: 0.3; stroke-width: 0.8; stroke-linecap: square"/>
     </g>
     <g id="line2d_14">
      <g>
       <use xlink:href="#mac27c5db49" x="46.98875" y="261.286918" style="stroke: #000000; stroke-width: 0.8"/>
      </g>
     </g>
     <g id="text_8">
      <!-- 0.5 -->
      <g transform="translate(24.98875 264.724418) scale(0.1 -0.1)">
       <defs>
        <path id="UMingCN-35" d="M 2688 4338 
L 2550 4025 
L 750 4025 
L 750 2519 
Q 1138 2819 1688 2819 
Q 2156 2819 2481 2544 
Q 2900 2188 2900 1544 
Q 2900 1019 2488 694 
Q 2131 413 1588 413 
Q 1088 413 625 713 
Q 306 919 306 1169 
Q 306 1288 369 1338 
Q 438 1394 519 1394 
Q 594 1394 669 1319 
Q 738 1250 738 1169 
Q 738 1106 700 1069 
Q 669 1038 669 956 
Q 669 894 919 744 
Q 1188 588 1588 588 
Q 1963 588 2238 813 
Q 2575 1088 2575 1544 
Q 2575 2069 2206 2356 
Q 1925 2575 1525 2575 
Q 1150 2575 694 2375 
L 644 2425 
L 644 4338 
L 2688 4338 
z
" transform="scale(0.015625)"/>
       </defs>
       <use xlink:href="#UMingCN-30"/>
       <use xlink:href="#UMingCN-2e" x="50"/>
       <use xlink:href="#UMingCN-35" x="100"/>
      </g>
     </g>
    </g>
    <g id="ytick_3">
     <g id="line2d_15">
      <path d="M 46.98875 216.287131 
L 421.2 216.287131 
" clip-path="url(#pdd0ec4e95d)" style="fill: none; stroke: #b0b0b0; stroke-opacity: 0.3; stroke-width: 0.8; stroke-linecap: square"/>
     </g>
     <g id="line2d_16">
      <g>
       <use xlink:href="#mac27c5db49" x="46.98875" y="216.287131" style="stroke: #000000; stroke-width: 0.8"/>
      </g>
     </g>
     <g id="text_9">
      <!-- 1.0 -->
      <g transform="translate(24.98875 219.724631) scale(0.1 -0.1)">
       <defs>
        <path id="UMingCN-31" d="M 1806 994 
Q 1806 581 2519 581 
L 2519 475 
L 756 475 
L 756 581 
Q 1481 581 1481 994 
L 1481 3631 
Q 1481 3963 681 3963 
L 681 4069 
L 1738 4338 
L 1806 4338 
L 1806 994 
z
" transform="scale(0.015625)"/>
       </defs>
       <use xlink:href="#UMingCN-31"/>
       <use xlink:href="#UMingCN-2e" x="50"/>
       <use xlink:href="#UMingCN-30" x="100"/>
      </g>
     </g>
    </g>
    <g id="ytick_4">
     <g id="line2d_17">
      <path d="M 46.98875 171.287344 
L 421.2 171.287344 
" clip-path="url(#pdd0ec4e95d)" style="fill: none; stroke: #b0b0b0; stroke-opacity: 0.3; stroke-width: 0.8; stroke-linecap: square"/>
     </g>
     <g id="line2d_18">
      <g>
       <use xlink:href="#mac27c5db49" x="46.98875" y="171.287344" style="stroke: #000000; stroke-width: 0.8"/>
      </g>
     </g>
     <g id="text_10">
      <!-- 1.5 -->
      <g transform="translate(24.98875 174.724844) scale(0.1 -0.1)">
       <use xlink:href="#UMingCN-31"/>
       <use xlink:href="#UMingCN-2e" x="50"/>
       <use xlink:href="#UMingCN-35" x="100"/>
      </g>
     </g>
    </g>
    <g id="ytick_5">
     <g id="line2d_19">
      <path d="M 46.98875 126.287557 
L 421.2 126.287557 
" clip-path="url(#pdd0ec4e95d)" style="fill: none; stroke: #b0b0b0; stroke-opacity: 0.3; stroke-width: 0.8; stroke-linecap: square"/>
     </g>
     <g id="line2d_20">
      <g>
       <use xlink:href="#mac27c5db49" x="46.98875" y="126.287557" style="stroke: #000000; stroke-width: 0.8"/>
      </g>
     </g>
     <g id="text_11">
      <!-- 2.0 -->
      <g transform="translate(24.98875 129.725057) scale(0.1 -0.1)">
       <use xlink:href="#UMingCN-32"/>
       <use xlink:href="#UMingCN-2e" x="50"/>
       <use xlink:href="#UMingCN-30" x="100"/>
      </g>
     </g>
    </g>
    <g id="ytick_6">
     <g id="line2d_21">
      <path d="M 46.98875 81.28777 
L 421.2 81.28777 
" clip-path="url(#pdd0ec4e95d)" style="fill: none; stroke: #b0b0b0; stroke-opacity: 0.3; stroke-width: 0.8; stroke-linecap: square"/>
     </g>
     <g id="line2d_22">
      <g>
       <use xlink:href="#mac27c5db49" x="46.98875" y="81.28777" style="stroke: #000000; stroke-width: 0.8"/>
      </g>
     </g>
     <g id="text_12">
      <!-- 2.5 -->
      <g transform="translate(24.98875 84.72527) scale(0.1 -0.1)">
       <use xlink:href="#UMingCN-32"/>
       <use xlink:href="#UMingCN-2e" x="50"/>
       <use xlink:href="#UMingCN-35" x="100"/>
      </g>
     </g>
    </g>
    <g id="ytick_7">
     <g id="line2d_23">
      <path d="M 46.98875 36.287983 
L 421.2 36.287983 
" clip-path="url(#pdd0ec4e95d)" style="fill: none; stroke: #b0b0b0; stroke-opacity: 0.3; stroke-width: 0.8; stroke-linecap: square"/>
     </g>
     <g id="line2d_24">
      <g>
       <use xlink:href="#mac27c5db49" x="46.98875" y="36.287983" style="stroke: #000000; stroke-width: 0.8"/>
      </g>
     </g>
     <g id="text_13">
      <!-- 3.0 -->
      <g transform="translate(24.98875 39.725483) scale(0.1 -0.1)">
       <defs>
        <path id="UMingCN-33" d="M 2875 1463 
Q 2875 981 2481 675 
Q 2106 413 1613 413 
Q 1019 413 656 719 
Q 325 1000 325 1344 
Q 325 1456 390 1518 
Q 456 1581 550 1581 
Q 631 1581 693 1512 
Q 756 1444 756 1344 
Q 750 1250 706 1188 
Q 663 1125 663 1025 
Q 663 900 956 738 
Q 1225 588 1613 588 
Q 1975 588 2281 806 
Q 2550 1000 2550 1463 
Q 2550 1906 2275 2131 
Q 2038 2325 1656 2325 
Q 1569 2325 1494 2281 
Q 1400 2231 1344 2231 
Q 1163 2238 1163 2413 
Q 1163 2581 1344 2581 
Q 1419 2581 1500 2538 
Q 1575 2500 1656 2500 
Q 1825 2500 2113 2725 
Q 2425 2975 2425 3413 
Q 2425 3825 2156 4031 
Q 1900 4225 1594 4225 
Q 1213 4225 963 4025 
Q 738 3844 819 3713 
Q 894 3588 894 3450 
Q 894 3350 831 3275 
Q 775 3206 681 3206 
Q 594 3206 531 3275 
Q 463 3350 463 3450 
Q 463 3838 825 4125 
Q 1138 4400 1594 4400 
Q 2131 4400 2413 4138 
Q 2750 3825 2750 3413 
Q 2750 2831 2175 2544 
Q 2075 2494 2000 2450 
Q 2119 2419 2250 2375 
Q 2875 2156 2875 1463 
z
" transform="scale(0.015625)"/>
       </defs>
       <use xlink:href="#UMingCN-33"/>
       <use xlink:href="#UMingCN-2e" x="50"/>
       <use xlink:href="#UMingCN-30" x="100"/>
      </g>
     </g>
    </g>
    <g id="text_14">
     <!-- 转向角度/rad -->
     <g transform="translate(20.030938 195.57875) rotate(-90) scale(0.1 -0.1)">
      <defs>
       <path id="UMingCN-8f6c" d="M 1038 4319 
Q 1269 5181 1275 5369 
Q 1275 5438 1319 5419 
Q 1519 5319 1731 5181 
Q 1788 5144 1788 5106 
Q 1788 5075 1706 5056 
Q 1675 5056 1656 5038 
Q 1550 4994 1344 4319 
L 1975 4319 
Q 2013 4319 2050 4363 
L 2275 4619 
Q 2319 4663 2363 4619 
Q 2525 4456 2638 4319 
Q 2706 4231 2663 4169 
Q 2631 4131 2550 4125 
L 1975 4125 
L 1288 4125 
Q 1075 3463 956 3088 
Q 850 2819 788 2594 
L 1475 2594 
L 1475 2788 
Q 1469 3288 1444 3588 
Q 1431 3694 1506 3669 
Q 1844 3563 1956 3500 
Q 2044 3456 1944 3400 
Q 1844 3350 1819 3288 
Q 1775 3169 1775 2788 
L 1775 2594 
L 1906 2594 
Q 1975 2594 2038 2656 
L 2244 2894 
Q 2288 2944 2331 2900 
Q 2494 2750 2594 2594 
Q 2663 2494 2644 2450 
Q 2619 2406 2538 2400 
L 1888 2400 
L 1775 2400 
L 1775 1294 
Q 2344 1444 2819 1563 
Q 2913 1588 2919 1531 
Q 2931 1456 2831 1431 
Q 2250 1213 1775 1056 
L 1775 919 
Q 1775 188 1800 -306 
Q 1806 -356 1769 -381 
Q 1681 -438 1506 -550 
Q 1425 -613 1431 -481 
Q 1469 350 1475 919 
L 1475 950 
Q 1194 863 981 800 
Q 713 744 631 625 
Q 588 575 563 569 
Q 538 563 519 619 
Q 456 781 325 900 
Q 250 969 256 988 
Q 269 1006 331 1013 
Q 813 1063 1363 1200 
Q 1413 1219 1475 1225 
L 1475 2400 
L 725 2400 
Q 644 2294 625 2275 
Q 588 2225 563 2269 
Q 488 2388 313 2488 
Q 275 2525 319 2550 
Q 356 2588 413 2613 
Q 550 2700 981 4125 
L 869 4125 
Q 606 4119 413 4081 
Q 363 4063 344 4119 
Q 319 4231 225 4306 
Q 181 4350 200 4375 
Q 225 4394 269 4369 
Q 506 4319 794 4319 
L 1038 4319 
z
M 4538 581 
Q 5044 238 5156 88 
Q 5281 -81 5263 -238 
Q 5250 -388 5213 -463 
Q 5175 -525 5131 -531 
Q 5088 -531 5050 -450 
Q 4656 263 3375 1031 
Q 3325 1063 3350 1119 
Q 3381 1175 3456 1131 
Q 4019 888 4419 656 
Q 4800 1431 5138 2125 
L 3438 2125 
Q 3394 2081 3388 2056 
Q 3363 2006 3325 2044 
Q 3238 2156 3063 2250 
Q 3013 2275 3056 2313 
Q 3150 2369 3188 2406 
Q 3231 2456 3425 3175 
L 3119 3175 
Q 2856 3169 2663 3131 
Q 2613 3113 2594 3169 
Q 2569 3281 2475 3356 
Q 2431 3400 2450 3425 
Q 2475 3444 2519 3419 
Q 2756 3369 3044 3369 
L 3475 3369 
Q 3594 3844 3694 4275 
L 3469 4275 
Q 3206 4269 3013 4231 
Q 2963 4213 2944 4269 
Q 2919 4381 2825 4456 
Q 2781 4500 2800 4525 
Q 2825 4544 2869 4519 
Q 3106 4469 3394 4469 
L 3731 4469 
Q 3838 5150 3838 5325 
Q 3838 5388 3881 5381 
Q 4081 5300 4313 5169 
Q 4375 5144 4375 5100 
Q 4375 5069 4300 5044 
Q 4144 4994 4031 4469 
L 5150 4469 
Q 5188 4469 5225 4513 
L 5450 4769 
Q 5494 4813 5538 4769 
Q 5700 4606 5813 4469 
Q 5881 4381 5838 4319 
Q 5806 4281 5725 4275 
L 5150 4275 
L 3988 4275 
Q 3856 3750 3775 3369 
L 5475 3369 
Q 5513 3369 5550 3413 
L 5775 3669 
Q 5819 3713 5863 3669 
Q 6025 3506 6138 3369 
Q 6206 3281 6163 3219 
Q 6131 3181 6050 3175 
L 5475 3175 
L 3725 3175 
Q 3694 3044 3669 2925 
Q 3556 2581 3513 2319 
L 5163 2319 
Q 5225 2319 5250 2356 
L 5425 2544 
Q 5444 2569 5469 2569 
Q 5538 2569 5819 2194 
Q 5869 2119 5775 2113 
Q 5706 2106 5650 2088 
Q 5288 2044 4538 581 
z
" transform="scale(0.015625)"/>
       <path id="UMingCN-5411" d="M 1200 4000 
L 1200 831 
Q 1194 113 1200 -394 
Q 1194 -456 1150 -475 
Q 919 -581 875 -581 
Q 850 -575 856 -456 
Q 881 169 900 831 
L 900 3856 
Q 894 4056 856 4344 
Q 844 4406 863 4413 
Q 888 4425 950 4363 
Q 1031 4288 1150 4194 
L 2325 4194 
Q 2331 4219 2350 4244 
Q 2500 4538 2563 4788 
Q 2638 5069 2675 5375 
Q 2694 5413 2700 5419 
Q 2719 5438 2763 5419 
Q 2931 5344 3163 5225 
Q 3181 5219 3181 5200 
Q 3181 5175 3156 5169 
Q 2925 4981 2881 4900 
Q 2875 4875 2819 4756 
Q 2719 4531 2513 4194 
L 5094 4194 
Q 5150 4194 5156 4200 
L 5313 4406 
Q 5325 4431 5350 4431 
Q 5375 4431 5400 4406 
Q 5594 4250 5744 4094 
Q 5788 4038 5744 4019 
Q 5538 3919 5519 3894 
Q 5500 3863 5500 3838 
L 5500 19 
Q 5500 -200 5381 -338 
Q 5256 -488 5100 -544 
Q 5025 -575 5006 -550 
Q 4906 -406 4681 -294 
Q 4506 -206 4106 -144 
Q 4044 -131 4044 -69 
Q 4050 -6 4131 -13 
Q 4388 -25 4731 -50 
Q 5081 -69 5144 -25 
Q 5200 -6 5200 106 
L 5200 4000 
L 1200 4000 
z
M 2225 2850 
Q 2219 3013 2213 3131 
Q 2213 3188 2238 3194 
Q 2263 3213 2319 3156 
Q 2400 3075 2513 2994 
L 3700 2994 
Q 3738 2994 3756 3019 
L 3869 3194 
Q 3913 3244 3956 3200 
Q 4138 3081 4313 2944 
Q 4369 2894 4363 2869 
Q 4350 2838 4306 2813 
Q 4144 2738 4138 2694 
Q 4125 2656 4125 2613 
L 4125 1613 
Q 4125 1388 4163 1006 
Q 4169 938 4131 931 
Q 3863 838 3838 844 
Q 3825 850 3825 913 
L 3825 1250 
L 2525 1250 
L 2525 931 
Q 2519 881 2494 875 
Q 2431 850 2294 794 
Q 2200 756 2206 819 
Q 2219 981 2225 1138 
L 2225 2850 
z
M 2525 2800 
L 2525 1444 
L 3825 1444 
L 3825 2800 
L 2525 2800 
z
" transform="scale(0.015625)"/>
       <path id="UMingCN-89d2" d="M 5350 -13 
Q 5331 -213 5213 -350 
Q 5094 -488 4938 -531 
Q 4863 -575 4844 -538 
Q 4731 -388 4500 -275 
Q 4313 -194 3913 -138 
Q 3838 -119 3844 -56 
Q 3844 -6 3925 -13 
Q 4206 -19 4569 -38 
Q 4931 -56 5006 -13 
Q 5050 19 5050 119 
L 5050 1325 
L 3525 1325 
L 3525 1044 
Q 3525 263 3550 -269 
Q 3550 -325 3506 -331 
L 3231 -444 
Q 3175 -456 3181 -356 
Q 3219 475 3225 1044 
L 3225 1325 
L 1738 1325 
Q 1681 906 1513 550 
Q 1256 25 463 -506 
Q 381 -575 325 -500 
Q 281 -444 363 -369 
Q 944 6 1175 444 
Q 1475 1006 1475 1800 
L 1475 3056 
Q 1475 3300 1450 3644 
Q 1044 3231 419 2838 
Q 331 2781 294 2838 
Q 263 2906 325 2950 
Q 1050 3488 1525 4094 
Q 1956 4625 2275 5363 
Q 2306 5419 2350 5394 
Q 2569 5275 2725 5175 
Q 2794 5131 2775 5094 
Q 2756 5069 2731 5063 
Q 2600 5056 2538 5013 
Q 2488 4981 2350 4775 
Q 2319 4738 2294 4694 
L 3913 4694 
Q 3975 4694 4000 4731 
L 4175 4919 
Q 4194 4944 4219 4944 
Q 4244 4944 4263 4919 
Q 4456 4719 4569 4569 
Q 4619 4494 4525 4488 
Q 4356 4463 4256 4419 
Q 4138 4356 3981 4200 
Q 3769 4006 3538 3719 
L 4888 3719 
Q 4950 3719 4975 3756 
L 5131 3931 
Q 5175 3988 5231 3931 
Q 5388 3819 5544 3681 
Q 5594 3625 5569 3600 
Q 5406 3463 5381 3438 
Q 5350 3413 5350 3356 
L 5350 -13 
z
M 3225 1519 
L 3225 2400 
L 1775 2400 
L 1775 1800 
Q 1769 1656 1763 1519 
L 3225 1519 
z
M 3525 2400 
L 3525 1519 
L 5050 1519 
L 5050 2400 
L 3525 2400 
z
M 3225 2594 
L 3225 3525 
L 1775 3525 
L 1775 2594 
L 3225 2594 
z
M 3525 3525 
L 3525 2594 
L 5050 2594 
L 5050 3525 
L 3525 3525 
z
M 3888 4500 
L 2150 4500 
Q 1850 4100 1600 3813 
Q 1663 3763 1725 3719 
L 3363 3719 
Q 3375 3738 3381 3744 
Q 3656 4144 3888 4500 
z
" transform="scale(0.015625)"/>
       <path id="UMingCN-5ea6" d="M 1300 4500 
L 1300 2800 
Q 1294 1781 1100 1006 
Q 913 250 313 -506 
Q 238 -594 175 -531 
Q 125 -488 188 -394 
Q 613 163 781 806 
Q 1000 1631 1000 2800 
L 1000 4056 
Q 1000 4356 963 4831 
Q 950 4894 975 4913 
Q 1006 4925 1050 4881 
Q 1144 4788 1294 4694 
L 3406 4694 
Q 3406 4706 3406 4713 
Q 3369 4919 3288 5069 
Q 3206 5213 3069 5369 
Q 3038 5413 3063 5450 
Q 3088 5488 3163 5444 
Q 3444 5325 3581 5206 
Q 3675 5131 3700 5050 
Q 3713 4931 3631 4744 
Q 3613 4719 3606 4694 
L 5125 4694 
L 5213 4706 
Q 5244 4738 5288 4781 
L 5475 5044 
Q 5519 5100 5575 5044 
Q 5781 4869 5956 4675 
Q 6019 4613 6013 4556 
Q 6000 4506 5919 4500 
L 1300 4500 
z
M 4275 3644 
L 4275 3831 
Q 4269 4019 4250 4175 
Q 4231 4269 4250 4288 
Q 4275 4313 4331 4288 
Q 4575 4181 4725 4100 
Q 4763 4081 4763 4063 
Q 4756 4031 4738 4025 
Q 4625 3969 4600 3931 
Q 4575 3894 4575 3831 
L 4575 3644 
L 5150 3644 
Q 5225 3644 5250 3663 
Q 5288 3688 5331 3744 
L 5481 3963 
Q 5531 4019 5575 3963 
Q 5756 3800 5931 3625 
Q 6000 3550 5994 3506 
Q 5981 3456 5900 3450 
L 4575 3450 
L 4575 2681 
Q 4581 2569 4588 2400 
Q 4594 2344 4550 2319 
Q 4275 2188 4250 2194 
Q 4231 2213 4250 2275 
Q 4263 2388 4269 2525 
L 2925 2525 
Q 2931 2456 2938 2375 
Q 2944 2319 2900 2294 
Q 2625 2163 2600 2169 
Q 2581 2188 2600 2250 
Q 2619 2406 2625 2656 
L 2625 3450 
L 2088 3450 
Q 1919 3450 1706 3406 
Q 1675 3400 1669 3419 
Q 1588 3544 1525 3644 
Q 1488 3706 1569 3688 
Q 1950 3650 1994 3644 
L 2625 3644 
L 2625 3831 
Q 2619 4019 2600 4175 
Q 2581 4269 2600 4288 
Q 2625 4313 2681 4288 
Q 2925 4181 3075 4100 
Q 3113 4081 3113 4063 
Q 3106 4031 3088 4025 
Q 2975 3969 2950 3931 
Q 2925 3894 2925 3831 
L 2925 3644 
L 4275 3644 
z
M 4275 3450 
L 2925 3450 
L 2925 2719 
L 4275 2719 
L 4275 3450 
z
M 2269 1944 
L 4388 1944 
Q 4456 1950 4481 1975 
L 4650 2144 
Q 4675 2169 4694 2169 
Q 4713 2169 4738 2144 
Q 4938 1963 5056 1806 
Q 5100 1750 5075 1725 
Q 5050 1706 4994 1713 
Q 4925 1738 4850 1719 
Q 4794 1700 4656 1494 
Q 4231 913 3850 538 
Q 4188 319 4619 181 
Q 5150 13 5869 -25 
Q 5956 -31 6031 -31 
Q 6075 -38 6075 -81 
Q 6081 -131 6044 -138 
Q 5919 -175 5800 -275 
Q 5675 -369 5619 -481 
Q 5581 -531 5519 -513 
Q 4613 -238 4138 44 
Q 3869 194 3656 363 
Q 3313 94 2806 -119 
Q 2081 -425 1213 -556 
Q 1113 -581 1094 -488 
Q 1069 -400 1169 -375 
Q 1913 -263 2438 -38 
Q 2969 194 3419 556 
Q 3375 600 3350 625 
Q 2981 988 2588 1719 
Q 2575 1744 2575 1750 
L 2363 1750 
Q 2194 1750 1981 1706 
Q 1950 1700 1944 1719 
Q 1863 1838 1800 1938 
Q 1763 2000 1844 1981 
Q 2225 1950 2269 1944 
z
M 4450 1750 
L 2731 1750 
Q 3138 1075 3594 713 
Q 4031 1113 4450 1750 
z
" transform="scale(0.015625)"/>
       <path id="UMingCN-72" d="M 1069 844 
Q 1069 581 1444 581 
L 1444 475 
L 369 475 
L 369 581 
Q 744 581 744 844 
L 744 2394 
Q 744 2519 650 2569 
Q 550 2625 306 2625 
L 306 2731 
L 1000 3094 
L 1069 3094 
L 1069 2406 
Q 1294 2700 1519 2850 
Q 1881 3094 2100 3094 
Q 2356 3094 2569 2950 
Q 2756 2825 2756 2681 
Q 2756 2550 2675 2469 
Q 2600 2394 2531 2394 
Q 2456 2394 2406 2500 
Q 2250 2831 1931 2831 
Q 1744 2831 1494 2650 
Q 1275 2488 1069 2219 
L 1069 844 
z
" transform="scale(0.015625)"/>
       <path id="UMingCN-61" d="M 2556 806 
Q 2556 694 2706 694 
Q 2769 694 2919 769 
L 2994 675 
Q 2731 413 2481 413 
Q 2363 413 2300 488 
Q 2231 569 2231 719 
L 2231 856 
Q 2069 706 1894 606 
Q 1519 413 1063 413 
Q 713 419 481 594 
Q 213 800 213 1144 
Q 213 1538 625 1769 
Q 1019 1981 1631 1981 
Q 1944 1981 2231 1850 
L 2231 2413 
Q 2231 2663 2019 2794 
Q 1806 2919 1488 2919 
Q 1344 2913 1169 2869 
Q 981 2806 981 2544 
Q 975 2431 900 2388 
Q 819 2344 744 2344 
Q 669 2356 606 2400 
Q 538 2463 538 2544 
Q 538 2763 800 2925 
Q 1075 3094 1488 3094 
Q 1956 3094 2256 2856 
Q 2556 2619 2556 2244 
L 2556 806 
z
M 1969 1788 
Q 1275 1788 913 1619 
Q 538 1438 538 1144 
Q 538 906 725 781 
Q 919 656 1294 656 
Q 1581 663 1863 800 
Q 2075 919 2231 1075 
L 2231 1756 
L 1969 1788 
z
" transform="scale(0.015625)"/>
       <path id="UMingCN-64" d="M 2650 781 
Q 2650 594 2869 594 
L 2869 506 
L 2325 413 
L 2325 769 
Q 2225 688 2094 606 
Q 1788 413 1519 413 
Q 1031 413 731 750 
Q 338 1175 338 1775 
Q 338 2269 750 2688 
Q 1088 3031 1650 3031 
Q 1913 3031 2163 2938 
Q 2250 2900 2325 2856 
L 2325 3631 
Q 2325 3944 1856 3944 
L 1856 4050 
L 2581 4400 
L 2650 4400 
L 2650 781 
z
M 2325 963 
L 2325 2650 
Q 2238 2756 2138 2800 
Q 1913 2894 1650 2894 
Q 1225 2894 975 2631 
Q 663 2306 663 1775 
Q 663 1219 938 913 
Q 1200 625 1481 625 
Q 1719 625 2019 763 
Q 2206 863 2325 963 
z
" transform="scale(0.015625)"/>
      </defs>
      <use xlink:href="#UMingCN-8f6c"/>
      <use xlink:href="#UMingCN-5411" x="100"/>
      <use xlink:href="#UMingCN-89d2" x="200"/>
      <use xlink:href="#UMingCN-5ea6" x="300"/>
      <use xlink:href="#UMingCN-2f" x="400"/>
      <use xlink:href="#UMingCN-72" x="450"/>
      <use xlink:href="#UMingCN-61" x="500"/>
      <use xlink:href="#UMingCN-64" x="550"/>
     </g>
    </g>
   </g>
   <g id="line2d_25">
    <path d="M 63.998352 87.749478 
L 67.820735 109.779768 
L 71.643117 132.449336 
L 75.4655 155.543927 
L 79.287882 179.001661 
L 83.110265 235.857937 
L 86.932647 272.828266 
L 90.75503 190.02956 
L 94.577413 209.229391 
L 98.399795 235.999428 
L 102.222178 276.654955 
L 106.04456 306.286705 
L 109.866943 288.214467 
L 113.689325 306.286705 
L 117.511708 255.550237 
L 121.33409 301.043019 
L 125.156473 276.661325 
L 128.978855 306.286705 
L 132.801238 286.817469 
L 136.62362 306.286705 
L 140.446003 306.286705 
L 144.268385 296.666442 
L 148.090768 306.286705 
L 151.913151 306.286705 
L 155.735533 273.300138 
L 159.557916 273.300138 
L 163.380298 285.464361 
L 167.202681 273.300138 
L 171.025063 273.300138 
L 174.847446 203.11853 
L 178.669828 204.273782 
L 182.492211 256.982434 
L 186.314593 270.798302 
L 190.136976 273.300138 
L 193.959358 273.300138 
L 197.781741 306.014522 
L 201.604123 273.300138 
L 205.426506 273.300138 
L 209.248889 306.286705 
L 213.071271 306.286705 
L 216.893654 306.286705 
L 220.716036 306.286705 
L 224.538419 306.286705 
L 228.360801 273.300138 
L 232.183184 224.205311 
L 236.005566 267.735485 
L 239.827949 273.300138 
L 243.650331 273.300138 
L 247.472714 273.300138 
L 251.295096 273.300138 
L 255.117479 273.300138 
L 258.939861 273.300138 
L 262.762244 273.300138 
L 266.584627 273.300138 
L 270.407009 273.300138 
L 274.229392 273.300138 
L 278.051774 273.300138 
L 281.874157 273.300138 
L 285.696539 273.300138 
L 289.518922 246.39576 
L 293.341304 260.135767 
L 297.163687 273.300138 
L 300.986069 273.300138 
L 304.808452 306.286705 
L 308.630834 277.876095 
L 312.453217 306.286705 
L 316.275599 306.286705 
L 320.097982 306.286705 
L 323.920365 306.286705 
L 327.742747 306.286705 
L 331.56513 306.286705 
L 335.387512 306.286705 
L 339.209895 306.286705 
L 343.032277 306.286705 
L 346.85466 306.286705 
L 350.677042 304.294829 
L 354.499425 306.286705 
L 358.321807 306.286705 
L 362.14419 306.286705 
L 365.966572 291.033432 
L 369.788955 306.286705 
L 373.611337 306.286705 
L 377.43372 306.286705 
L 381.256103 306.286705 
L 385.078485 299.698938 
L 388.900868 306.286705 
L 392.72325 306.286705 
L 396.545633 306.286705 
L 400.368015 281.639992 
L 404.190398 271.340836 
" clip-path="url(#pdd0ec4e95d)" style="fill: none; stroke: #1f77b4; stroke-width: 1.5; stroke-linecap: square"/>
   </g>
   <g id="line2d_26">
    <path d="M 63.998352 182.596733 
L 67.820735 186.158484 
L 71.643117 191.587015 
L 75.4655 180.766986 
L 79.287882 296.569175 
L 83.110265 171.471469 
L 86.932647 256.722408 
L 90.75503 297.941572 
L 94.577413 273.749257 
L 98.399795 291.734967 
L 102.222178 300.429256 
L 106.04456 306.286705 
" clip-path="url(#pdd0ec4e95d)" style="fill: none; stroke: #ff7f0e; stroke-width: 1.5; stroke-linecap: square"/>
   </g>
   <g id="line2d_27">
    <path d="M 63.998352 131.559892 
L 67.820735 149.060772 
L 71.643117 159.870202 
L 75.4655 168.861582 
L 79.287882 173.819416 
L 83.110265 171.066958 
L 86.932647 229.249522 
L 90.75503 230.232619 
L 94.577413 260.101914 
L 98.399795 290.049274 
L 102.222178 302.928589 
L 106.04456 306.286705 
L 109.866943 296.797744 
L 113.689325 306.286705 
L 117.511708 46.940972 
L 121.33409 69.625723 
L 125.156473 93.040374 
L 128.978855 116.876688 
L 132.801238 141.088007 
L 136.62362 165.741301 
L 140.446003 191.033858 
L 144.268385 217.445094 
L 148.090768 246.342801 
L 151.913151 164.975179 
L 155.735533 193.072036 
L 159.557916 223.041776 
L 163.380298 257.211094 
L 167.202681 262.213648 
L 171.025063 306.286705 
L 174.847446 47.240426 
L 178.669828 78.441084 
L 182.492211 107.868354 
L 186.314593 136.859265 
L 190.136976 166.214654 
L 193.959358 196.752402 
L 197.781741 229.779372 
L 201.604123 268.098231 
L 205.426506 186.992263 
L 209.248889 215.764364 
L 213.071271 220.997828 
L 216.893654 261.244271 
L 220.716036 306.286705 
L 224.538419 306.286705 
L 228.360801 297.413635 
L 232.183184 244.119162 
L 236.005566 287.157589 
L 239.827949 247.345811 
L 243.650331 292.350217 
L 247.472714 306.286705 
L 251.295096 306.286705 
L 255.117479 305.908134 
L 258.939861 306.286705 
L 262.762244 306.286705 
L 266.584627 288.267395 
L 270.407009 306.286705 
L 274.229392 306.286705 
L 278.051774 306.286705 
L 281.874157 296.194286 
L 285.696539 306.286705 
L 289.518922 234.571752 
L 293.341304 265.252035 
L 297.163687 306.286705 
L 300.986069 305.111119 
L 304.808452 306.286705 
L 308.630834 306.286705 
L 312.453217 305.807688 
L 316.275599 306.286705 
L 320.097982 306.286705 
L 323.920365 306.286705 
L 327.742747 270.935686 
L 331.56513 306.286705 
L 335.387512 306.286705 
L 339.209895 284.435307 
L 343.032277 306.286705 
L 346.85466 282.282073 
L 350.677042 306.286705 
L 354.499425 251.512432 
L 358.321807 286.178466 
" clip-path="url(#pdd0ec4e95d)" style="fill: none; stroke: #2ca02c; stroke-width: 1.5; stroke-linecap: square"/>
   </g>
   <g id="line2d_28">
    <path d="M 63.998352 46.301146 
L 67.820735 64.810247 
L 71.643117 86.172379 
L 75.4655 108.548531 
L 79.287882 131.44882 
L 83.110265 154.705141 
L 86.932647 178.276248 
L 90.75503 202.218996 
L 94.577413 226.773685 
L 98.399795 252.883105 
L 102.222178 104.063148 
L 106.04456 109.789763 
L 109.866943 120.807412 
L 113.689325 134.377378 
L 117.511708 273.502873 
L 121.33409 292.171744 
L 125.156473 306.286705 
L 128.978855 291.236032 
L 132.801238 306.286705 
L 136.62362 296.353493 
L 140.446003 306.286705 
L 144.268385 282.391166 
L 148.090768 306.286705 
L 151.913151 306.286705 
L 155.735533 298.747179 
L 159.557916 285.129669 
L 163.380298 306.286705 
L 167.202681 303.52998 
L 171.025063 306.286705 
L 174.847446 306.286705 
L 178.669828 292.41721 
L 182.492211 306.286705 
L 186.314593 291.268259 
L 190.136976 306.286705 
L 193.959358 306.286705 
L 197.781741 289.539322 
L 201.604123 306.286705 
L 205.426506 294.949825 
L 209.248889 306.286705 
L 213.071271 306.286705 
L 216.893654 306.286705 
L 220.716036 297.271744 
L 224.538419 298.840097 
L 228.360801 306.286705 
L 232.183184 306.286705 
L 236.005566 285.936138 
L 239.827949 306.286705 
L 243.650331 306.286705 
L 247.472714 298.169754 
L 251.295096 306.286705 
L 255.117479 306.286705 
L 258.939861 273.300138 
L 262.762244 269.465892 
L 266.584627 273.300138 
L 270.407009 273.300138 
L 274.229392 273.300138 
L 278.051774 286.495311 
L 281.874157 306.286705 
L 285.696539 306.286705 
L 289.518922 293.175622 
L 293.341304 284.277202 
L 297.163687 306.286705 
L 300.986069 288.856688 
L 304.808452 306.286705 
L 308.630834 306.286705 
L 312.453217 306.286705 
L 316.275599 298.067908 
L 320.097982 306.286705 
L 323.920365 306.286705 
L 327.742747 288.030194 
L 331.56513 306.286705 
L 335.387512 306.286705 
L 339.209895 292.927192 
L 343.032277 306.286705 
L 346.85466 267.870458 
L 350.677042 269.523232 
L 354.499425 306.286705 
L 358.321807 299.014912 
L 362.14419 306.286705 
L 365.966572 306.286705 
L 369.788955 306.286705 
L 373.611337 76.305293 
" clip-path="url(#pdd0ec4e95d)" style="fill: none; stroke: #d62728; stroke-width: 1.5; stroke-linecap: square"/>
   </g>
   <g id="line2d_29">
    <path d="M 63.998352 85.21754 
L 67.820735 90.715761 
L 71.643117 103.990382 
L 75.4655 120.435339 
L 79.287882 138.29222 
L 83.110265 156.651576 
L 86.932647 174.800621 
L 90.75503 191.793024 
L 94.577413 205.597092 
L 98.399795 245.999446 
L 102.222178 196.712299 
L 106.04456 194.457471 
L 109.866943 211.178383 
L 113.689325 297.653817 
L 117.511708 282.128159 
L 121.33409 306.286705 
L 125.156473 246.879905 
L 128.978855 295.519614 
L 132.801238 306.286705 
L 136.62362 293.932189 
L 140.446003 306.286705 
L 144.268385 294.229889 
L 148.090768 306.286705 
L 151.913151 306.286705 
L 155.735533 290.236101 
L 159.557916 278.523137 
L 163.380298 306.286705 
L 167.202681 287.431269 
L 171.025063 306.286705 
L 174.847446 235.373772 
L 178.669828 270.990354 
L 182.492211 239.536099 
L 186.314593 265.652665 
L 190.136976 306.286705 
L 193.959358 306.286705 
L 197.781741 300.132514 
L 201.604123 306.286705 
L 205.426506 304.266016 
L 209.248889 306.286705 
L 213.071271 306.286705 
L 216.893654 305.328139 
L 220.716036 306.286705 
L 224.538419 289.638045 
L 228.360801 306.286705 
L 232.183184 167.134861 
L 236.005566 187.48765 
L 239.827949 242.513081 
L 243.650331 197.269629 
L 247.472714 220.558106 
L 251.295096 278.570755 
L 255.117479 306.286705 
L 258.939861 153.172508 
L 262.762244 176.350933 
L 266.584627 59.074218 
L 270.407009 82.650024 
L 274.229392 295.410165 
L 278.051774 154.169252 
L 281.874157 140.305517 
L 285.696539 174.68419 
L 289.518922 133.124536 
L 293.341304 178.185714 
L 297.163687 149.468446 
L 300.986069 177.399228 
L 304.808452 205.416619 
L 308.630834 234.603318 
L 312.453217 268.207764 
L 316.275599 306.286705 
L 320.097982 162.280412 
L 323.920365 188.022205 
L 327.742747 101.263708 
L 331.56513 35.666037 
L 335.387512 73.462932 
L 339.209895 108.540823 
L 343.032277 141.907528 
L 346.85466 135.523959 
L 350.677042 160.361627 
L 354.499425 186.184408 
L 358.321807 57.224741 
L 362.14419 80.99051 
L 365.966572 117.800227 
L 369.788955 153.315356 
L 373.611337 188.79795 
L 377.43372 225.716588 
L 381.256103 266.414228 
L 385.078485 306.286705 
L 388.900868 306.286705 
L 392.72325 306.286705 
L 396.545633 306.286705 
L 400.368015 256.998553 
L 404.190398 301.215362 
" clip-path="url(#pdd0ec4e95d)" style="fill: none; stroke: #9467bd; stroke-width: 1.5; stroke-linecap: square"/>
   </g>
   <g id="line2d_30">
    <path d="M 63.998352 187.674183 
L 67.820735 202.803324 
L 71.643117 269.902889 
L 75.4655 306.286705 
L 79.287882 306.286705 
L 83.110265 302.219821 
L 86.932647 306.286705 
L 90.75503 306.286705 
L 94.577413 305.031713 
L 98.399795 306.286705 
L 102.222178 306.286705 
L 106.04456 290.636696 
L 109.866943 306.286705 
L 113.689325 306.286705 
L 117.511708 300.856741 
L 121.33409 306.286705 
L 125.156473 306.286705 
L 128.978855 287.76627 
L 132.801238 306.286705 
L 136.62362 294.929077 
L 140.446003 306.286705 
L 144.268385 306.286705 
L 148.090768 296.138144 
L 151.913151 306.286705 
L 155.735533 306.286705 
L 159.557916 302.393747 
L 163.380298 306.286705 
L 167.202681 306.286705 
L 171.025063 281.906153 
L 174.847446 158.820764 
L 178.669828 265.46445 
L 182.492211 264.056387 
L 186.314593 306.286705 
L 190.136976 306.286705 
L 193.959358 265.931654 
L 197.781741 306.286705 
L 201.604123 306.286705 
L 205.426506 306.286705 
L 209.248889 301.753318 
L 213.071271 306.286705 
L 216.893654 306.286705 
L 220.716036 306.286705 
L 224.538419 300.55598 
L 228.360801 306.286705 
L 232.183184 168.649926 
L 236.005566 194.060627 
L 239.827949 288.833583 
L 243.650331 245.819583 
L 247.472714 290.94069 
L 251.295096 306.286705 
L 255.117479 306.286705 
L 258.939861 303.290968 
L 262.762244 306.286705 
L 266.584627 306.286705 
L 270.407009 306.286705 
L 274.229392 286.278112 
L 278.051774 306.286705 
L 281.874157 306.286705 
L 285.696539 306.286705 
L 289.518922 166.470627 
L 293.341304 190.134077 
L 297.163687 259.701556 
L 300.986069 289.212373 
L 304.808452 306.286705 
L 308.630834 306.286705 
L 312.453217 306.286705 
L 316.275599 278.789665 
L 320.097982 306.286705 
L 323.920365 306.286705 
L 327.742747 306.286705 
L 331.56513 297.518419 
L 335.387512 306.286705 
L 339.209895 306.286705 
L 343.032277 306.286705 
L 346.85466 170.00238 
L 350.677042 296.55781 
L 354.499425 306.286705 
L 358.321807 254.167136 
L 362.14419 300.278932 
L 365.966572 306.286705 
L 369.788955 295.174134 
L 373.611337 306.286705 
L 377.43372 306.286705 
L 381.256103 306.286705 
L 385.078485 276.044389 
L 388.900868 306.286705 
L 392.72325 306.286705 
L 396.545633 284.149865 
L 400.368015 306.286705 
L 404.190398 306.286705 
" clip-path="url(#pdd0ec4e95d)" style="fill: none; stroke: #8c564b; stroke-width: 1.5; stroke-linecap: square"/>
   </g>
   <g id="line2d_31">
    <path d="M 63.998352 237.360736 
L 67.820735 299.125755 
L 71.643117 291.5678 
L 75.4655 306.286705 
L 79.287882 293.22259 
L 83.110265 306.286705 
L 86.932647 291.724439 
L 90.75503 306.286705 
L 94.577413 300.227312 
L 98.399795 306.286705 
L 102.222178 304.162439 
L 106.04456 289.795811 
L 109.866943 306.286705 
L 113.689325 306.286705 
L 117.511708 150.994581 
L 121.33409 159.89684 
L 125.156473 133.669427 
L 128.978855 107.100583 
L 132.801238 87.694892 
L 136.62362 142.537054 
L 140.446003 198.077924 
L 144.268385 283.495873 
L 148.090768 234.856775 
L 151.913151 276.952048 
L 155.735533 229.569488 
L 159.557916 260.743053 
L 163.380298 247.433175 
L 167.202681 230.014949 
L 171.025063 210.317279 
L 174.847446 24.870795 
L 178.669828 61.220041 
L 182.492211 77.739653 
L 186.314593 81.940589 
L 190.136976 83.034621 
L 193.959358 82.964741 
L 197.781741 82.254986 
L 201.604123 83.891299 
L 205.426506 84.631115 
L 209.248889 96.482591 
L 213.071271 108.253897 
L 216.893654 119.978715 
L 220.716036 131.689928 
L 224.538419 143.420181 
L 228.360801 155.202452 
L 232.183184 220.171078 
L 236.005566 233.045726 
L 239.827949 246.293971 
L 243.650331 135.363134 
L 247.472714 147.338207 
L 251.295096 159.373094 
L 255.117479 171.500624 
L 258.939861 183.754841 
L 262.762244 196.17134 
L 266.584627 274.760639 
L 270.407009 273.300138 
L 274.229392 273.300138 
L 278.051774 273.300138 
L 281.874157 273.300138 
L 285.696539 273.300138 
L 289.518922 253.797296 
L 293.341304 267.809322 
L 297.163687 273.300138 
L 300.986069 273.300138 
L 304.808452 273.300138 
L 308.630834 273.300138 
L 312.453217 273.300138 
L 316.275599 273.300138 
L 320.097982 273.300138 
L 323.920365 273.300138 
L 327.742747 273.300138 
L 331.56513 273.300138 
L 335.387512 273.300138 
L 339.209895 273.300138 
L 343.032277 273.300138 
L 346.85466 180.7777 
L 350.677042 192.507172 
L 354.499425 287.049391 
L 358.321807 273.300138 
L 362.14419 273.300138 
L 365.966572 273.300138 
L 369.788955 273.300138 
L 373.611337 273.300138 
L 377.43372 273.300138 
L 381.256103 273.300138 
L 385.078485 273.300138 
L 388.900868 273.300138 
L 392.72325 273.300138 
L 396.545633 273.300138 
L 400.368015 288.169575 
L 404.190398 256.81918 
" clip-path="url(#pdd0ec4e95d)" style="fill: none; stroke: #e377c2; stroke-width: 1.5; stroke-linecap: square"/>
   </g>
   <g id="line2d_32">
    <path d="M 63.998352 67.219384 
L 67.820735 86.273219 
L 71.643117 107.252384 
L 75.4655 129.121145 
L 79.287882 151.491604 
L 83.110265 174.186438 
L 86.932647 197.113999 
L 90.75503 220.223165 
L 94.577413 281.510442 
L 98.399795 261.724356 
L 102.222178 306.286705 
L 106.04456 287.181741 
L 109.866943 306.286705 
L 113.689325 272.230765 
L 117.511708 221.28082 
L 121.33409 286.004855 
L 125.156473 306.286705 
L 128.978855 250.08909 
L 132.801238 286.710962 
L 136.62362 203.72264 
L 140.446003 28.453728 
L 144.268385 51.183933 
L 148.090768 111.740186 
L 151.913151 98.761024 
L 155.735533 123.105493 
L 159.557916 147.864378 
L 163.380298 173.196751 
L 167.202681 199.443809 
L 171.025063 227.4125 
L 174.847446 90.45275 
L 178.669828 111.139384 
L 182.492211 132.979937 
L 186.314593 155.56933 
L 190.136976 178.778308 
L 193.959358 202.662254 
L 197.781741 99.173817 
L 201.604123 110.56366 
L 205.426506 136.510677 
L 209.248889 155.866182 
L 213.071271 69.119312 
L 216.893654 98.119364 
L 220.716036 126.64151 
L 224.538419 155.494543 
L 228.360801 184.513845 
L 232.183184 148.2189 
L 236.005566 170.582472 
L 239.827949 55.681985 
L 243.650331 51.903534 
L 247.472714 86.200427 
L 251.295096 117.79687 
L 255.117479 148.064646 
L 258.939861 177.914077 
L 262.762244 208.274012 
L 266.584627 240.735005 
L 270.407009 285.134171 
L 274.229392 306.286705 
L 278.051774 306.286705 
L 281.874157 306.286705 
L 285.696539 99.80893 
L 289.518922 123.085937 
L 293.341304 146.113742 
L 297.163687 169.860303 
L 300.986069 194.431513 
L 304.808452 129.344386 
L 308.630834 155.625028 
L 312.453217 181.809519 
L 316.275599 207.892848 
L 320.097982 211.547255 
L 323.920365 249.386456 
L 327.742747 293.915907 
L 331.56513 306.286705 
L 335.387512 210.364492 
L 339.209895 116.256191 
L 343.032277 84.676361 
L 346.85466 109.361093 
L 350.677042 133.192884 
L 354.499425 242.336348 
L 358.321807 163.442676 
L 362.14419 137.967924 
L 365.966572 168.181977 
L 369.788955 198.611363 
L 373.611337 230.574603 
L 377.43372 267.144499 
L 381.256103 194.645774 
L 385.078485 86.467414 
" clip-path="url(#pdd0ec4e95d)" style="fill: none; stroke: #7f7f7f; stroke-width: 1.5; stroke-linecap: square"/>
   </g>
   <g id="line2d_33">
    <path d="M 63.998352 212.530339 
L 67.820735 229.772267 
L 71.643117 302.052643 
L 75.4655 306.286705 
L 79.287882 301.535377 
L 83.110265 306.286705 
L 86.932647 306.286705 
L 90.75503 294.183611 
L 94.577413 306.286705 
L 98.399795 306.286705 
L 102.222178 300.115629 
L 106.04456 306.286705 
L 109.866943 306.286705 
L 113.689325 305.066732 
L 117.511708 70.804274 
L 121.33409 85.038168 
L 125.156473 103.399871 
L 128.978855 123.486618 
L 132.801238 144.430888 
L 136.62362 165.812415 
L 140.446003 187.341183 
L 144.268385 208.67256 
L 148.090768 136.575965 
L 151.913151 159.049908 
L 155.735533 181.930249 
L 159.557916 205.18651 
L 163.380298 228.92028 
L 167.202681 285.997061 
L 171.025063 306.286705 
L 174.847446 306.286705 
L 178.669828 296.502087 
L 182.492211 306.286705 
L 186.314593 282.240895 
L 190.136976 306.286705 
L 193.959358 306.286705 
L 197.781741 306.286705 
L 201.604123 297.540974 
L 205.426506 306.286705 
L 209.248889 306.286705 
L 213.071271 306.286705 
L 216.893654 303.562637 
L 220.716036 306.286705 
L 224.538419 306.286705 
L 228.360801 306.286705 
L 232.183184 70.38343 
L 236.005566 98.690359 
L 239.827949 126.639652 
L 243.650331 154.945015 
L 247.472714 184.266403 
L 251.295096 215.583734 
L 255.117479 78.27987 
L 258.939861 106.918557 
L 262.762244 133.990425 
L 266.584627 160.122275 
L 270.407009 185.666003 
L 274.229392 237.879159 
L 278.051774 280.909835 
L 281.874157 306.286705 
L 285.696539 292.018241 
L 289.518922 36.51232 
L 293.341304 69.719141 
L 297.163687 99.91908 
L 300.986069 128.385308 
L 304.808452 155.979875 
L 308.630834 184.257162 
L 312.453217 214.290038 
L 316.275599 122.245218 
L 320.097982 148.768387 
L 323.920365 176.118522 
L 327.742747 204.953163 
L 331.56513 241.267977 
L 335.387512 285.153743 
L 339.209895 306.286705 
L 343.032277 302.012566 
L 346.85466 95.003668 
L 350.677042 121.463663 
L 354.499425 146.988926 
L 358.321807 173.259488 
L 362.14419 200.763238 
L 365.966572 81.658045 
L 369.788955 36.40371 
L 373.611337 74.049025 
L 377.43372 108.314363 
L 381.256103 140.908335 
L 385.078485 172.986278 
L 388.900868 205.672447 
L 392.72325 240.681626 
L 396.545633 281.860336 
L 400.368015 186.042681 
L 404.190398 121.232885 
" clip-path="url(#pdd0ec4e95d)" style="fill: none; stroke: #bcbd22; stroke-width: 1.5; stroke-linecap: square"/>
   </g>
   <g id="line2d_34">
    <path d="M 63.998352 205.936241 
L 67.820735 213.482399 
L 71.643117 305.057008 
L 75.4655 306.286705 
L 79.287882 280.930249 
L 83.110265 306.286705 
L 86.932647 304.187424 
L 90.75503 306.286705 
L 94.577413 305.987182 
L 98.399795 306.286705 
L 102.222178 290.265416 
L 106.04456 306.286705 
L 109.866943 295.207739 
L 113.689325 306.286705 
L 117.511708 261.81565 
L 121.33409 306.286705 
L 125.156473 280.327677 
L 128.978855 299.502483 
L 132.801238 306.286705 
L 136.62362 302.766996 
L 140.446003 306.286705 
L 144.268385 304.805231 
L 148.090768 288.13703 
L 151.913151 306.286705 
L 155.735533 296.978117 
L 159.557916 306.286705 
L 163.380298 301.613163 
L 167.202681 306.286705 
L 171.025063 304.162044 
L 174.847446 178.987325 
L 178.669828 291.667089 
L 182.492211 285.179991 
L 186.314593 306.286705 
L 190.136976 299.536532 
L 193.959358 306.286705 
L 197.781741 283.452939 
L 201.604123 306.286705 
L 205.426506 300.722625 
L 209.248889 306.286705 
L 213.071271 306.286705 
L 216.893654 292.327257 
L 220.716036 306.286705 
L 224.538419 306.286705 
L 228.360801 299.103984 
L 232.183184 177.357515 
L 236.005566 294.181531 
L 239.827949 268.048445 
L 243.650331 306.286705 
L 247.472714 306.286705 
L 251.295096 293.227692 
L 255.117479 306.286705 
L 258.939861 306.286705 
L 262.762244 306.286705 
L 266.584627 301.010365 
L 270.407009 306.286705 
L 274.229392 306.286705 
L 278.051774 306.286705 
L 281.874157 292.546693 
L 285.696539 306.286705 
L 289.518922 285.10107 
L 293.341304 306.286705 
L 297.163687 306.286705 
L 300.986069 270.107102 
L 304.808452 306.286705 
" clip-path="url(#pdd0ec4e95d)" style="fill: none; stroke: #17becf; stroke-width: 1.5; stroke-linecap: square"/>
   </g>
   <g id="patch_3">
    <path d="M 46.98875 320.3575 
L 46.98875 10.8 
" style="fill: none; stroke: #000000; stroke-width: 0.8; stroke-linejoin: miter; stroke-linecap: square"/>
   </g>
   <g id="patch_4">
    <path d="M 421.2 320.3575 
L 421.2 10.8 
" style="fill: none; stroke: #000000; stroke-width: 0.8; stroke-linejoin: miter; stroke-linecap: square"/>
   </g>
   <g id="patch_5">
    <path d="M 46.98875 320.3575 
L 421.2 320.3575 
" style="fill: none; stroke: #000000; stroke-width: 0.8; stroke-linejoin: miter; stroke-linecap: square"/>
   </g>
   <g id="patch_6">
    <path d="M 46.98875 10.8 
L 421.2 10.8 
" style="fill: none; stroke: #000000; stroke-width: 0.8; stroke-linejoin: miter; stroke-linecap: square"/>
   </g>
   <g id="legend_1">
    <g id="patch_7">
     <path d="M 342.2 162.253125 
L 414.2 162.253125 
Q 416.2 162.253125 416.2 160.253125 
L 416.2 17.8 
Q 416.2 15.8 414.2 15.8 
L 342.2 15.8 
Q 340.2 15.8 340.2 17.8 
L 340.2 160.253125 
Q 340.2 162.253125 342.2 162.253125 
z
" style="fill: #ffffff; opacity: 0.8; stroke: #cccccc; stroke-linejoin: miter"/>
    </g>
    <g id="line2d_35">
     <path d="M 344.2 24.776563 
L 354.2 24.776563 
L 364.2 24.776563 
" style="fill: none; stroke: #1f77b4; stroke-width: 1.5; stroke-linecap: square"/>
    </g>
    <g id="text_15">
     <!-- 无人机 0 -->
     <g transform="translate(372.2 28.276563) scale(0.1 -0.1)">
      <defs>
       <path id="UMingCN-65e0" d="M 4650 4744 
Q 4738 4750 4838 4863 
L 5000 5094 
Q 5044 5150 5100 5094 
Q 5544 4700 5538 4606 
Q 5525 4556 5444 4550 
L 4663 4550 
L 3138 4550 
Q 3094 3725 3000 3044 
L 5150 3044 
Q 5238 3050 5338 3163 
L 5500 3394 
Q 5544 3450 5600 3394 
Q 6044 3000 6038 2906 
Q 6025 2856 5944 2850 
L 5163 2850 
L 3775 2850 
L 3775 31 
Q 3781 -44 3788 -69 
Q 3800 -94 3894 -94 
L 5394 -94 
Q 5500 -81 5544 -56 
Q 5738 63 5813 944 
Q 5819 1031 5900 1025 
Q 5981 1019 5975 925 
Q 5906 363 5944 175 
Q 5988 38 6088 -25 
Q 6125 -56 6100 -94 
Q 5956 -338 5525 -356 
L 3863 -356 
Q 3594 -356 3538 -281 
Q 3475 -206 3475 -50 
L 3475 2850 
L 2969 2850 
Q 2750 1544 2238 806 
Q 1688 81 413 -500 
Q 281 -556 256 -475 
Q 238 -394 356 -338 
Q 1294 63 1894 775 
Q 2463 1519 2675 2850 
L 994 2850 
Q 731 2844 538 2806 
Q 481 2788 475 2844 
Q 444 2956 350 3038 
Q 300 3081 325 3106 
Q 350 3125 394 3100 
Q 631 3044 919 3044 
L 2700 3044 
Q 2794 3725 2800 4550 
L 1619 4550 
Q 1356 4544 1163 4506 
Q 1106 4488 1100 4544 
Q 1069 4656 975 4738 
Q 925 4781 950 4806 
Q 975 4825 1019 4800 
Q 1256 4744 1544 4744 
L 4650 4744 
z
" transform="scale(0.015625)"/>
       <path id="UMingCN-4eba" d="M 3675 3088 
Q 3888 2269 4206 1700 
Q 4600 1025 5106 556 
Q 5525 181 6094 -106 
Q 6138 -125 6181 -150 
Q 6219 -169 6200 -225 
Q 6181 -275 6106 -256 
Q 6006 -231 5875 -275 
Q 5731 -331 5650 -413 
Q 5613 -438 5569 -394 
Q 4963 119 4563 613 
Q 4219 1031 3994 1500 
Q 3713 2081 3519 2925 
Q 3363 3556 3263 4250 
Q 3125 2919 2875 2163 
Q 2606 1331 2119 763 
Q 1544 94 319 -450 
Q 238 -488 213 -413 
Q 181 -344 263 -300 
Q 1431 294 2038 1088 
Q 2606 1844 2819 3144 
Q 3006 4281 2981 5225 
Q 2975 5269 3000 5288 
Q 3025 5300 3069 5294 
Q 3350 5219 3575 5119 
Q 3619 5094 3613 5069 
Q 3606 5050 3563 5031 
Q 3388 4988 3363 4963 
Q 3338 4944 3331 4919 
Q 3444 4044 3675 3088 
z
" transform="scale(0.015625)"/>
       <path id="UMingCN-673a" d="M 4600 4850 
L 3431 4850 
L 3431 3844 
Q 3431 2569 3338 1706 
Q 3269 969 3000 513 
Q 2694 -25 2131 -444 
Q 2050 -500 2006 -438 
Q 1969 -375 2025 -331 
Q 2475 75 2700 475 
Q 2944 925 3044 1663 
Q 3131 2375 3131 3563 
L 3131 4694 
Q 3125 4931 3069 5181 
Q 3063 5231 3088 5250 
Q 3119 5256 3163 5213 
Q 3250 5125 3388 5044 
L 4500 5044 
Q 4544 5050 4563 5075 
L 4744 5263 
Q 4763 5288 4788 5288 
Q 4806 5281 4831 5256 
Q 4988 5100 5106 4944 
Q 5138 4900 5100 4881 
Q 4938 4806 4919 4781 
Q 4900 4750 4900 4725 
L 4900 156 
Q 4900 25 4963 -19 
Q 5019 -75 5119 -75 
Q 5194 -75 5231 -75 
L 5525 -75 
Q 5613 -75 5675 -38 
Q 5744 0 5788 138 
Q 5888 413 6000 1013 
Q 6006 1088 6069 1081 
Q 6131 1069 6125 1006 
Q 6069 475 6113 231 
Q 6138 88 6213 44 
Q 6244 25 6219 -13 
Q 6156 -194 6044 -269 
Q 5906 -375 5700 -375 
L 5088 -375 
Q 5050 -375 4956 -375 
Q 4825 -375 4713 -275 
Q 4600 -181 4600 88 
L 4600 4850 
z
M 1675 969 
Q 1675 188 1700 -344 
Q 1700 -400 1656 -406 
L 1381 -519 
Q 1325 -531 1331 -431 
Q 1369 400 1375 969 
L 1375 2556 
Q 1431 2913 1469 3238 
Q 1475 3269 1450 3275 
Q 1419 3281 1413 3256 
Q 1363 2963 1300 2656 
Q 1213 2450 1081 2169 
Q 856 1694 350 1000 
Q 288 925 244 981 
Q 194 1025 231 1081 
Q 669 1681 975 2506 
Q 1225 3194 1325 3725 
L 788 3725 
Q 619 3725 406 3681 
Q 375 3675 369 3694 
Q 288 3813 225 3913 
Q 188 3975 269 3956 
Q 650 3925 694 3919 
L 1375 3919 
L 1375 4513 
Q 1369 5013 1344 5313 
Q 1338 5425 1400 5400 
Q 1750 5288 1881 5213 
Q 1950 5163 1888 5138 
Q 1694 5031 1688 5006 
Q 1675 4981 1675 4513 
L 1675 3919 
L 2125 3919 
Q 2163 3919 2200 3963 
L 2425 4219 
Q 2469 4263 2513 4219 
Q 2675 4056 2788 3919 
Q 2856 3831 2813 3769 
Q 2781 3731 2700 3725 
L 1675 3725 
L 1675 3038 
Q 1694 3031 1700 3025 
Q 2125 2800 2356 2588 
Q 2531 2438 2538 2338 
Q 2544 2188 2463 2094 
Q 2375 2000 2338 2000 
Q 2300 1994 2244 2125 
Q 2113 2369 1975 2563 
Q 1831 2756 1675 2875 
L 1675 969 
z
" transform="scale(0.015625)"/>
       <path id="UMingCN-20" transform="scale(0.015625)"/>
      </defs>
      <use xlink:href="#UMingCN-65e0"/>
      <use xlink:href="#UMingCN-4eba" x="100"/>
      <use xlink:href="#UMingCN-673a" x="200"/>
      <use xlink:href="#UMingCN-20" x="300"/>
      <use xlink:href="#UMingCN-30" x="350"/>
     </g>
    </g>
    <g id="line2d_36">
     <path d="M 344.2 39.121875 
L 354.2 39.121875 
L 364.2 39.121875 
" style="fill: none; stroke: #ff7f0e; stroke-width: 1.5; stroke-linecap: square"/>
    </g>
    <g id="text_16">
     <!-- 无人机 1 -->
     <g transform="translate(372.2 42.621875) scale(0.1 -0.1)">
      <use xlink:href="#UMingCN-65e0"/>
      <use xlink:href="#UMingCN-4eba" x="100"/>
      <use xlink:href="#UMingCN-673a" x="200"/>
      <use xlink:href="#UMingCN-20" x="300"/>
      <use xlink:href="#UMingCN-31" x="350"/>
     </g>
    </g>
    <g id="line2d_37">
     <path d="M 344.2 53.467188 
L 354.2 53.467188 
L 364.2 53.467188 
" style="fill: none; stroke: #2ca02c; stroke-width: 1.5; stroke-linecap: square"/>
    </g>
    <g id="text_17">
     <!-- 无人机 2 -->
     <g transform="translate(372.2 56.967188) scale(0.1 -0.1)">
      <use xlink:href="#UMingCN-65e0"/>
      <use xlink:href="#UMingCN-4eba" x="100"/>
      <use xlink:href="#UMingCN-673a" x="200"/>
      <use xlink:href="#UMingCN-20" x="300"/>
      <use xlink:href="#UMingCN-32" x="350"/>
     </g>
    </g>
    <g id="line2d_38">
     <path d="M 344.2 67.8125 
L 354.2 67.8125 
L 364.2 67.8125 
" style="fill: none; stroke: #d62728; stroke-width: 1.5; stroke-linecap: square"/>
    </g>
    <g id="text_18">
     <!-- 无人机 3 -->
     <g transform="translate(372.2 71.3125) scale(0.1 -0.1)">
      <use xlink:href="#UMingCN-65e0"/>
      <use xlink:href="#UMingCN-4eba" x="100"/>
      <use xlink:href="#UMingCN-673a" x="200"/>
      <use xlink:href="#UMingCN-20" x="300"/>
      <use xlink:href="#UMingCN-33" x="350"/>
     </g>
    </g>
    <g id="line2d_39">
     <path d="M 344.2 82.157812 
L 354.2 82.157812 
L 364.2 82.157812 
" style="fill: none; stroke: #9467bd; stroke-width: 1.5; stroke-linecap: square"/>
    </g>
    <g id="text_19">
     <!-- 无人机 4 -->
     <g transform="translate(372.2 85.657812) scale(0.1 -0.1)">
      <use xlink:href="#UMingCN-65e0"/>
      <use xlink:href="#UMingCN-4eba" x="100"/>
      <use xlink:href="#UMingCN-673a" x="200"/>
      <use xlink:href="#UMingCN-20" x="300"/>
      <use xlink:href="#UMingCN-34" x="350"/>
     </g>
    </g>
    <g id="line2d_40">
     <path d="M 344.2 96.503125 
L 354.2 96.503125 
L 364.2 96.503125 
" style="fill: none; stroke: #8c564b; stroke-width: 1.5; stroke-linecap: square"/>
    </g>
    <g id="text_20">
     <!-- 无人机 5 -->
     <g transform="translate(372.2 100.003125) scale(0.1 -0.1)">
      <use xlink:href="#UMingCN-65e0"/>
      <use xlink:href="#UMingCN-4eba" x="100"/>
      <use xlink:href="#UMingCN-673a" x="200"/>
      <use xlink:href="#UMingCN-20" x="300"/>
      <use xlink:href="#UMingCN-35" x="350"/>
     </g>
    </g>
    <g id="line2d_41">
     <path d="M 344.2 110.848438 
L 354.2 110.848438 
L 364.2 110.848438 
" style="fill: none; stroke: #e377c2; stroke-width: 1.5; stroke-linecap: square"/>
    </g>
    <g id="text_21">
     <!-- 无人机 6 -->
     <g transform="translate(372.2 114.348438) scale(0.1 -0.1)">
      <use xlink:href="#UMingCN-65e0"/>
      <use xlink:href="#UMingCN-4eba" x="100"/>
      <use xlink:href="#UMingCN-673a" x="200"/>
      <use xlink:href="#UMingCN-20" x="300"/>
      <use xlink:href="#UMingCN-36" x="350"/>
     </g>
    </g>
    <g id="line2d_42">
     <path d="M 344.2 125.19375 
L 354.2 125.19375 
L 364.2 125.19375 
" style="fill: none; stroke: #7f7f7f; stroke-width: 1.5; stroke-linecap: square"/>
    </g>
    <g id="text_22">
     <!-- 无人机 7 -->
     <g transform="translate(372.2 128.69375) scale(0.1 -0.1)">
      <defs>
       <path id="UMingCN-37" d="M 2875 4338 
L 2875 4119 
Q 2113 3056 1863 2438 
Q 1606 1813 1606 700 
Q 1606 544 1550 481 
Q 1494 413 1413 413 
Q 1319 413 1275 475 
Q 1231 544 1231 700 
Q 1231 1600 1550 2319 
Q 1994 3350 2606 4031 
L 1919 4025 
Q 1338 4019 1006 3863 
Q 713 3725 413 3094 
L 313 3125 
L 663 4338 
L 2875 4338 
z
" transform="scale(0.015625)"/>
      </defs>
      <use xlink:href="#UMingCN-65e0"/>
      <use xlink:href="#UMingCN-4eba" x="100"/>
      <use xlink:href="#UMingCN-673a" x="200"/>
      <use xlink:href="#UMingCN-20" x="300"/>
      <use xlink:href="#UMingCN-37" x="350"/>
     </g>
    </g>
    <g id="line2d_43">
     <path d="M 344.2 139.539063 
L 354.2 139.539063 
L 364.2 139.539063 
" style="fill: none; stroke: #bcbd22; stroke-width: 1.5; stroke-linecap: square"/>
    </g>
    <g id="text_23">
     <!-- 无人机 8 -->
     <g transform="translate(372.2 143.039063) scale(0.1 -0.1)">
      <use xlink:href="#UMingCN-65e0"/>
      <use xlink:href="#UMingCN-4eba" x="100"/>
      <use xlink:href="#UMingCN-673a" x="200"/>
      <use xlink:href="#UMingCN-20" x="300"/>
      <use xlink:href="#UMingCN-38" x="350"/>
     </g>
    </g>
    <g id="line2d_44">
     <path d="M 344.2 153.884375 
L 354.2 153.884375 
L 364.2 153.884375 
" style="fill: none; stroke: #17becf; stroke-width: 1.5; stroke-linecap: square"/>
    </g>
    <g id="text_24">
     <!-- 无人机 9 -->
     <g transform="translate(372.2 157.384375) scale(0.1 -0.1)">
      <defs>
       <path id="UMingCN-39" d="M 2431 1044 
Q 2013 413 1356 413 
Q 1031 413 744 619 
Q 450 825 450 1106 
Q 450 1194 525 1256 
Q 594 1306 656 1306 
Q 738 1306 794 1250 
Q 856 1188 856 1106 
Q 856 981 819 900 
Q 788 825 950 694 
Q 1131 550 1356 550 
Q 1806 550 2169 1038 
Q 2531 1531 2569 2469 
Q 1919 1906 1375 1900 
Q 975 1900 663 2188 
Q 313 2500 313 3181 
Q 313 3719 694 4075 
Q 1044 4400 1569 4400 
Q 2131 4400 2525 3931 
Q 2894 3494 2894 2725 
Q 2894 1744 2431 1044 
z
M 2569 2725 
Q 2569 3519 2281 3875 
Q 1981 4225 1569 4225 
Q 1181 4225 894 3981 
Q 638 3731 638 3181 
Q 638 2619 869 2388 
Q 1106 2150 1506 2150 
Q 1869 2150 2569 2669 
Q 2569 2700 2569 2725 
z
" transform="scale(0.015625)"/>
      </defs>
      <use xlink:href="#UMingCN-65e0"/>
      <use xlink:href="#UMingCN-4eba" x="100"/>
      <use xlink:href="#UMingCN-673a" x="200"/>
      <use xlink:href="#UMingCN-20" x="300"/>
      <use xlink:href="#UMingCN-39" x="350"/>
     </g>
    </g>
   </g>
  </g>
 </g>
 <defs>
  <clipPath id="pdd0ec4e95d">
   <rect x="46.98875" y="10.8" width="374.21125" height="309.5575"/>
  </clipPath>
 </defs>
</svg>
