<?xml version="1.0" encoding="utf-8" standalone="no"?>
<!DOCTYPE svg PUBLIC "-//W3C//DTD SVG 1.1//EN"
  "http://www.w3.org/Graphics/SVG/1.1/DTD/svg11.dtd">
<svg xmlns:xlink="http://www.w3.org/1999/xlink" width="432pt" height="360pt" viewBox="0 0 432 360" xmlns="http://www.w3.org/2000/svg" version="1.1">
 <metadata>
  <rdf:RDF xmlns:dc="http://purl.org/dc/elements/1.1/" xmlns:cc="http://creativecommons.org/ns#" xmlns:rdf="http://www.w3.org/1999/02/22-rdf-syntax-ns#">
   <cc:Work>
    <dc:type rdf:resource="http://purl.org/dc/dcmitype/StillImage"/>
    <dc:date>2025-06-03T10:43:21.959372</dc:date>
    <dc:format>image/svg+xml</dc:format>
    <dc:creator>
     <cc:Agent>
      <dc:title>Matplotlib v3.9.4, https://matplotlib.org/</dc:title>
     </cc:Agent>
    </dc:creator>
   </cc:Work>
  </rdf:RDF>
 </metadata>
 <defs>
  <style type="text/css">*{stroke-linejoin: round; stroke-linecap: butt}</style>
 </defs>
 <g id="figure_1">
  <g id="patch_1">
   <path d="M 0 360 
L 432 360 
L 432 0 
L 0 0 
z
" style="fill: #ffffff"/>
  </g>
  <g id="axes_1">
   <g id="patch_2">
    <path d="M 46.98875 320.3575 
L 421.2 320.3575 
L 421.2 10.8 
L 46.98875 10.8 
z
" style="fill: #ffffff"/>
   </g>
   <g id="matplotlib.axis_1">
    <g id="xtick_1">
     <g id="line2d_1">
      <path d="M 63.998352 320.3575 
L 63.998352 10.8 
" clip-path="url(#p67b19cc6b0)" style="fill: none; stroke: #b0b0b0; stroke-opacity: 0.3; stroke-width: 0.8; stroke-linecap: square"/>
     </g>
     <g id="line2d_2">
      <defs>
       <path id="m1fa7c3edaf" d="M 0 0 
L 0 3.5 
" style="stroke: #000000; stroke-width: 0.8"/>
      </defs>
      <g>
       <use xlink:href="#m1fa7c3edaf" x="63.998352" y="320.3575" style="stroke: #000000; stroke-width: 0.8"/>
      </g>
     </g>
     <g id="text_1">
      <!-- 0 -->
      <g transform="translate(61.498352 334.2325) scale(0.1 -0.1)">
       <defs>
        <path id="UMingCN-30" d="M 691 997 
Q 313 1581 313 2406 
Q 313 3231 691 3815 
Q 1069 4400 1600 4400 
Q 2131 4400 2509 3815 
Q 2888 3231 2888 2406 
Q 2888 1581 2509 997 
Q 2131 413 1600 413 
Q 1069 413 691 997 
z
M 919 3690 
Q 638 3156 638 2406 
Q 638 1656 919 1122 
Q 1200 588 1600 588 
Q 2000 588 2281 1122 
Q 2563 1656 2563 2406 
Q 2563 3156 2281 3690 
Q 2000 4225 1600 4225 
Q 1200 4225 919 3690 
z
" transform="scale(0.015625)"/>
       </defs>
       <use xlink:href="#UMingCN-30"/>
      </g>
     </g>
    </g>
    <g id="xtick_2">
     <g id="line2d_3">
      <path d="M 116.741305 320.3575 
L 116.741305 10.8 
" clip-path="url(#p67b19cc6b0)" style="fill: none; stroke: #b0b0b0; stroke-opacity: 0.3; stroke-width: 0.8; stroke-linecap: square"/>
     </g>
     <g id="line2d_4">
      <g>
       <use xlink:href="#m1fa7c3edaf" x="116.741305" y="320.3575" style="stroke: #000000; stroke-width: 0.8"/>
      </g>
     </g>
     <g id="text_2">
      <!-- 2 -->
      <g transform="translate(114.241305 334.2325) scale(0.1 -0.1)">
       <defs>
        <path id="UMingCN-32" d="M 531 475 
L 319 475 
Q 319 975 606 1300 
Q 900 1694 1744 2281 
Q 2594 2844 2594 3319 
Q 2594 3738 2250 4006 
Q 1969 4225 1594 4225 
Q 1225 4225 994 4094 
Q 725 3938 700 3819 
Q 675 3706 731 3606 
Q 794 3488 794 3313 
Q 794 3256 731 3194 
Q 669 3131 588 3131 
Q 481 3131 406 3206 
Q 331 3288 331 3406 
Q 331 3788 719 4106 
Q 1081 4400 1594 4400 
Q 2206 4400 2556 4088 
Q 2919 3750 2919 3319 
Q 2919 2775 1825 2113 
Q 1088 1638 819 1294 
Q 606 1075 550 756 
L 1831 756 
Q 2469 756 2806 1244 
L 2881 1213 
L 2613 475 
L 531 475 
z
" transform="scale(0.015625)"/>
       </defs>
       <use xlink:href="#UMingCN-32"/>
      </g>
     </g>
    </g>
    <g id="xtick_3">
     <g id="line2d_5">
      <path d="M 169.484258 320.3575 
L 169.484258 10.8 
" clip-path="url(#p67b19cc6b0)" style="fill: none; stroke: #b0b0b0; stroke-opacity: 0.3; stroke-width: 0.8; stroke-linecap: square"/>
     </g>
     <g id="line2d_6">
      <g>
       <use xlink:href="#m1fa7c3edaf" x="169.484258" y="320.3575" style="stroke: #000000; stroke-width: 0.8"/>
      </g>
     </g>
     <g id="text_3">
      <!-- 4 -->
      <g transform="translate(166.984258 334.2325) scale(0.1 -0.1)">
       <defs>
        <path id="UMingCN-34" d="M 2263 1538 
L 2994 1538 
L 2994 1294 
L 2263 1294 
L 2263 938 
Q 2263 581 2844 581 
L 2844 475 
L 1375 475 
L 1375 581 
Q 1956 581 1956 938 
L 1956 1294 
L 206 1294 
L 206 1581 
L 2119 4338 
L 2263 4338 
L 2263 1538 
z
M 1956 1538 
L 1956 3894 
L 350 1538 
L 1956 1538 
z
" transform="scale(0.015625)"/>
       </defs>
       <use xlink:href="#UMingCN-34"/>
      </g>
     </g>
    </g>
    <g id="xtick_4">
     <g id="line2d_7">
      <path d="M 222.227211 320.3575 
L 222.227211 10.8 
" clip-path="url(#p67b19cc6b0)" style="fill: none; stroke: #b0b0b0; stroke-opacity: 0.3; stroke-width: 0.8; stroke-linecap: square"/>
     </g>
     <g id="line2d_8">
      <g>
       <use xlink:href="#m1fa7c3edaf" x="222.227211" y="320.3575" style="stroke: #000000; stroke-width: 0.8"/>
      </g>
     </g>
     <g id="text_4">
      <!-- 6 -->
      <g transform="translate(219.727211 334.2325) scale(0.1 -0.1)">
       <defs>
        <path id="UMingCN-36" d="M 775 3769 
Q 1194 4400 1850 4400 
Q 2175 4400 2463 4194 
Q 2756 3988 2756 3706 
Q 2756 3619 2681 3556 
Q 2613 3506 2550 3506 
Q 2469 3506 2413 3563 
Q 2350 3625 2350 3706 
Q 2350 3831 2388 3913 
Q 2419 3988 2256 4119 
Q 2075 4263 1850 4263 
Q 1400 4263 1038 3775 
Q 675 3281 638 2344 
Q 1288 2906 1831 2913 
Q 2231 2913 2544 2625 
Q 2894 2313 2894 1631 
Q 2894 1094 2513 738 
Q 2163 413 1638 413 
Q 1075 413 681 881 
Q 313 1319 313 2088 
Q 313 3069 775 3769 
z
M 638 2088 
Q 638 1294 925 938 
Q 1225 588 1638 588 
Q 2025 588 2313 831 
Q 2569 1081 2569 1631 
Q 2569 2194 2338 2425 
Q 2100 2663 1700 2663 
Q 1338 2663 638 2144 
Q 638 2113 638 2088 
z
" transform="scale(0.015625)"/>
       </defs>
       <use xlink:href="#UMingCN-36"/>
      </g>
     </g>
    </g>
    <g id="xtick_5">
     <g id="line2d_9">
      <path d="M 274.970163 320.3575 
L 274.970163 10.8 
" clip-path="url(#p67b19cc6b0)" style="fill: none; stroke: #b0b0b0; stroke-opacity: 0.3; stroke-width: 0.8; stroke-linecap: square"/>
     </g>
     <g id="line2d_10">
      <g>
       <use xlink:href="#m1fa7c3edaf" x="274.970163" y="320.3575" style="stroke: #000000; stroke-width: 0.8"/>
      </g>
     </g>
     <g id="text_5">
      <!-- 8 -->
      <g transform="translate(272.470163 334.2325) scale(0.1 -0.1)">
       <defs>
        <path id="UMingCN-38" d="M 1600 413 
Q 1025 413 625 725 
Q 256 1013 256 1425 
Q 256 1669 469 1956 
Q 631 2194 1219 2463 
Q 831 2669 675 2863 
Q 431 3138 431 3425 
Q 431 3850 788 4138 
Q 1113 4400 1600 4400 
Q 1963 4400 2325 4169 
Q 2725 3913 2725 3500 
Q 2725 3281 2563 3075 
Q 2394 2856 1813 2563 
Q 2513 2263 2738 1981 
Q 2944 1738 2944 1488 
Q 2944 1063 2606 769 
Q 2200 413 1600 413 
z
M 2456 1788 
Q 2256 2000 1669 2256 
Q 1525 2319 1413 2369 
Q 869 2100 744 1900 
Q 581 1644 581 1425 
Q 581 1088 850 856 
Q 1163 588 1600 588 
Q 1950 588 2325 813 
Q 2619 1006 2619 1406 
Q 2619 1606 2456 1788 
z
M 875 3094 
Q 1050 2888 1631 2638 
Q 2113 2863 2281 3081 
Q 2456 3313 2456 3563 
Q 2456 3838 2200 4044 
Q 1975 4225 1600 4225 
Q 1219 4225 950 4019 
Q 700 3813 700 3531 
Q 700 3300 875 3094 
z
" transform="scale(0.015625)"/>
       </defs>
       <use xlink:href="#UMingCN-38"/>
      </g>
     </g>
    </g>
    <g id="xtick_6">
     <g id="line2d_11">
      <path d="M 327.713116 320.3575 
L 327.713116 10.8 
" clip-path="url(#p67b19cc6b0)" style="fill: none; stroke: #b0b0b0; stroke-opacity: 0.3; stroke-width: 0.8; stroke-linecap: square"/>
     </g>
     <g id="line2d_12">
      <g>
       <use xlink:href="#m1fa7c3edaf" x="327.713116" y="320.3575" style="stroke: #000000; stroke-width: 0.8"/>
      </g>
     </g>
     <g id="text_6">
      <!-- 10 -->
      <g transform="translate(322.713116 334.2325) scale(0.1 -0.1)">
       <defs>
        <path id="UMingCN-31" d="M 1806 994 
Q 1806 581 2519 581 
L 2519 475 
L 756 475 
L 756 581 
Q 1481 581 1481 994 
L 1481 3631 
Q 1481 3963 681 3963 
L 681 4069 
L 1738 4338 
L 1806 4338 
L 1806 994 
z
" transform="scale(0.015625)"/>
       </defs>
       <use xlink:href="#UMingCN-31"/>
       <use xlink:href="#UMingCN-30" x="50"/>
      </g>
     </g>
    </g>
    <g id="xtick_7">
     <g id="line2d_13">
      <path d="M 380.456069 320.3575 
L 380.456069 10.8 
" clip-path="url(#p67b19cc6b0)" style="fill: none; stroke: #b0b0b0; stroke-opacity: 0.3; stroke-width: 0.8; stroke-linecap: square"/>
     </g>
     <g id="line2d_14">
      <g>
       <use xlink:href="#m1fa7c3edaf" x="380.456069" y="320.3575" style="stroke: #000000; stroke-width: 0.8"/>
      </g>
     </g>
     <g id="text_7">
      <!-- 12 -->
      <g transform="translate(375.456069 334.2325) scale(0.1 -0.1)">
       <use xlink:href="#UMingCN-31"/>
       <use xlink:href="#UMingCN-32" x="50"/>
      </g>
     </g>
    </g>
    <g id="text_8">
     <!-- 时间/s -->
     <g transform="translate(219.094375 347.227813) scale(0.1 -0.1)">
      <defs>
       <path id="UMingCN-65f6" d="M 1806 1075 
L 769 1075 
Q 769 738 775 469 
Q 769 375 538 219 
Q 488 194 463 194 
Q 425 200 431 319 
Q 456 944 475 1606 
L 475 4306 
Q 469 4506 431 4794 
Q 419 4856 438 4863 
Q 444 4863 688 4669 
L 1656 4669 
Q 1731 4669 1775 4713 
L 1931 4875 
Q 1963 4919 2019 4881 
Q 2213 4738 2350 4619 
Q 2394 4569 2338 4563 
Q 2231 4544 2175 4488 
Q 2125 4431 2125 4369 
L 2125 1894 
Q 2131 1469 2175 850 
Q 2175 769 2113 731 
Q 1831 569 1806 575 
Q 1781 588 1788 688 
Q 1800 863 1806 1075 
z
M 775 1606 
Q 769 1438 769 1269 
L 1813 1269 
Q 1819 1481 1825 1713 
L 1825 2775 
L 775 2775 
L 775 1606 
z
M 775 4475 
L 775 2969 
L 1825 2969 
L 1825 4475 
L 775 4475 
z
M 4925 175 
Q 4913 -56 4813 -213 
Q 4656 -444 4500 -525 
Q 4450 -569 4425 -569 
Q 4394 -569 4369 -438 
Q 4313 -250 4250 -188 
Q 4181 -100 3819 -56 
Q 3719 -44 3725 38 
Q 3731 119 3831 113 
Q 4419 25 4531 63 
Q 4619 100 4625 238 
L 4625 3650 
L 3119 3650 
Q 2856 3644 2663 3606 
Q 2613 3588 2594 3644 
Q 2569 3756 2475 3831 
Q 2431 3875 2450 3900 
Q 2475 3919 2519 3894 
Q 2756 3844 3044 3844 
L 4625 3844 
L 4625 4488 
Q 4619 4988 4600 5294 
Q 4581 5394 4644 5375 
Q 5000 5250 5119 5188 
Q 5194 5138 5100 5094 
Q 4988 5044 4963 4988 
Q 4925 4869 4925 4488 
L 4925 3844 
L 5400 3844 
Q 5438 3844 5475 3888 
L 5700 4144 
Q 5744 4188 5788 4144 
Q 5950 3981 6063 3844 
Q 6131 3756 6088 3694 
Q 6056 3656 5975 3650 
L 5400 3650 
L 4925 3650 
L 4925 175 
z
M 2931 2769 
Q 2900 2813 2938 2850 
Q 2975 2881 3038 2819 
Q 3869 2100 3850 1706 
Q 3850 1588 3731 1419 
Q 3638 1288 3563 1294 
Q 3500 1313 3506 1431 
Q 3438 2069 2931 2769 
z
" transform="scale(0.015625)"/>
       <path id="UMingCN-95f4" d="M 3906 1175 
L 2425 1175 
Q 2419 850 2394 813 
Q 2175 644 2138 638 
Q 2088 644 2094 763 
Q 2119 1144 2125 2031 
L 2125 3306 
Q 2119 3531 2100 3712 
Q 2081 3894 2103 3900 
Q 2125 3906 2184 3843 
Q 2244 3781 2394 3669 
L 3756 3669 
Q 3831 3669 3875 3713 
L 4031 3875 
Q 4063 3919 4119 3881 
Q 4313 3738 4450 3619 
Q 4494 3569 4438 3563 
Q 4331 3544 4278 3487 
Q 4225 3431 4225 3369 
L 4225 2019 
Q 4231 1594 4275 975 
Q 4275 894 4213 856 
Q 3931 694 3906 703 
Q 3881 713 3890 841 
Q 3900 969 3906 1175 
z
M 2425 2375 
L 2425 1369 
L 3913 1369 
Q 3919 1588 3925 1838 
L 3925 2375 
L 2425 2375 
z
M 2425 3475 
L 2425 2569 
L 3925 2569 
L 3925 3475 
L 2425 3475 
z
M 769 4363 
Q 756 4469 831 4444 
Q 1169 4338 1269 4284 
Q 1369 4231 1269 4178 
Q 1169 4125 1134 4034 
Q 1100 3944 1100 3563 
L 1100 1019 
Q 1100 288 1125 -206 
Q 1131 -256 1069 -300 
L 831 -450 
Q 750 -513 756 -381 
Q 794 450 800 1019 
L 800 3563 
Q 794 4063 769 4363 
z
M 1350 5225 
Q 1306 5275 1331 5319 
Q 1375 5369 1450 5306 
Q 2119 4831 2119 4600 
Q 2106 4450 2009 4369 
Q 1913 4288 1875 4291 
Q 1838 4294 1800 4425 
Q 1631 4944 1350 5225 
z
M 3244 4969 
L 5119 4969 
Q 5175 4969 5181 4975 
L 5338 5181 
Q 5350 5206 5375 5206 
Q 5444 5206 5769 4869 
Q 5813 4819 5688 4769 
Q 5563 4719 5544 4687 
Q 5525 4656 5525 4613 
L 5525 88 
Q 5525 -125 5413 -281 
Q 5300 -438 5131 -500 
Q 5075 -525 5050 -469 
Q 4938 -150 4413 -88 
Q 4338 -75 4344 -15 
Q 4350 44 4431 38 
Q 5125 -25 5181 0 
Q 5225 25 5225 156 
L 5225 4775 
L 3319 4775 
Q 3056 4769 2863 4731 
Q 2806 4713 2800 4769 
Q 2769 4881 2697 4943 
Q 2625 5006 2650 5028 
Q 2675 5050 2719 5025 
Q 2956 4969 3244 4969 
z
" transform="scale(0.015625)"/>
       <path id="UMingCN-2f" d="M 2819 5225 
L 3144 5225 
L 375 -475 
L 50 -475 
L 2819 5225 
z
" transform="scale(0.015625)"/>
       <path id="UMingCN-73" d="M 2725 2725 
L 2675 2294 
L 2588 2294 
Q 2406 2681 2194 2800 
Q 1975 2919 1750 2919 
Q 1313 2919 1119 2775 
Q 931 2638 931 2444 
Q 931 2275 1050 2156 
Q 1156 2044 1756 1944 
Q 2400 1844 2619 1638 
Q 2831 1438 2831 1194 
Q 2831 913 2563 669 
Q 2281 413 1756 413 
Q 1194 419 606 750 
L 375 1275 
L 463 1344 
Q 788 931 1094 756 
Q 1388 588 1675 588 
Q 2075 588 2294 763 
Q 2506 931 2506 1119 
Q 2506 1313 2356 1431 
Q 2213 1538 1581 1656 
Q 981 1769 793 1944 
Q 606 2119 606 2363 
Q 606 2681 894 2888 
Q 1188 3094 1663 3094 
Q 2119 3094 2725 2725 
z
" transform="scale(0.015625)"/>
      </defs>
      <use xlink:href="#UMingCN-65f6"/>
      <use xlink:href="#UMingCN-95f4" x="100"/>
      <use xlink:href="#UMingCN-2f" x="200"/>
      <use xlink:href="#UMingCN-73" x="250"/>
     </g>
    </g>
   </g>
   <g id="matplotlib.axis_2">
    <g id="ytick_1">
     <g id="line2d_15">
      <path d="M 46.98875 306.286705 
L 421.2 306.286705 
" clip-path="url(#p67b19cc6b0)" style="fill: none; stroke: #b0b0b0; stroke-opacity: 0.3; stroke-width: 0.8; stroke-linecap: square"/>
     </g>
     <g id="line2d_16">
      <defs>
       <path id="m108f79debf" d="M 0 0 
L -3.5 0 
" style="stroke: #000000; stroke-width: 0.8"/>
      </defs>
      <g>
       <use xlink:href="#m108f79debf" x="46.98875" y="306.286705" style="stroke: #000000; stroke-width: 0.8"/>
      </g>
     </g>
     <g id="text_9">
      <!-- 0.0 -->
      <g transform="translate(24.98875 309.724205) scale(0.1 -0.1)">
       <defs>
        <path id="UMingCN-2e" d="M 1325 537 
Q 1213 650 1213 812 
Q 1213 975 1325 1087 
Q 1438 1200 1600 1200 
Q 1763 1200 1875 1087 
Q 1988 975 1988 812 
Q 1988 650 1875 537 
Q 1763 425 1600 425 
Q 1438 425 1325 537 
z
" transform="scale(0.015625)"/>
       </defs>
       <use xlink:href="#UMingCN-30"/>
       <use xlink:href="#UMingCN-2e" x="50"/>
       <use xlink:href="#UMingCN-30" x="100"/>
      </g>
     </g>
    </g>
    <g id="ytick_2">
     <g id="line2d_17">
      <path d="M 46.98875 261.497972 
L 421.2 261.497972 
" clip-path="url(#p67b19cc6b0)" style="fill: none; stroke: #b0b0b0; stroke-opacity: 0.3; stroke-width: 0.8; stroke-linecap: square"/>
     </g>
     <g id="line2d_18">
      <g>
       <use xlink:href="#m108f79debf" x="46.98875" y="261.497972" style="stroke: #000000; stroke-width: 0.8"/>
      </g>
     </g>
     <g id="text_10">
      <!-- 0.5 -->
      <g transform="translate(24.98875 264.935472) scale(0.1 -0.1)">
       <defs>
        <path id="UMingCN-35" d="M 2688 4338 
L 2550 4025 
L 750 4025 
L 750 2519 
Q 1138 2819 1688 2819 
Q 2156 2819 2481 2544 
Q 2900 2188 2900 1544 
Q 2900 1019 2488 694 
Q 2131 413 1588 413 
Q 1088 413 625 713 
Q 306 919 306 1169 
Q 306 1288 369 1338 
Q 438 1394 519 1394 
Q 594 1394 669 1319 
Q 738 1250 738 1169 
Q 738 1106 700 1069 
Q 669 1038 669 956 
Q 669 894 919 744 
Q 1188 588 1588 588 
Q 1963 588 2238 813 
Q 2575 1088 2575 1544 
Q 2575 2069 2206 2356 
Q 1925 2575 1525 2575 
Q 1150 2575 694 2375 
L 644 2425 
L 644 4338 
L 2688 4338 
z
" transform="scale(0.015625)"/>
       </defs>
       <use xlink:href="#UMingCN-30"/>
       <use xlink:href="#UMingCN-2e" x="50"/>
       <use xlink:href="#UMingCN-35" x="100"/>
      </g>
     </g>
    </g>
    <g id="ytick_3">
     <g id="line2d_19">
      <path d="M 46.98875 216.709239 
L 421.2 216.709239 
" clip-path="url(#p67b19cc6b0)" style="fill: none; stroke: #b0b0b0; stroke-opacity: 0.3; stroke-width: 0.8; stroke-linecap: square"/>
     </g>
     <g id="line2d_20">
      <g>
       <use xlink:href="#m108f79debf" x="46.98875" y="216.709239" style="stroke: #000000; stroke-width: 0.8"/>
      </g>
     </g>
     <g id="text_11">
      <!-- 1.0 -->
      <g transform="translate(24.98875 220.146739) scale(0.1 -0.1)">
       <use xlink:href="#UMingCN-31"/>
       <use xlink:href="#UMingCN-2e" x="50"/>
       <use xlink:href="#UMingCN-30" x="100"/>
      </g>
     </g>
    </g>
    <g id="ytick_4">
     <g id="line2d_21">
      <path d="M 46.98875 171.920506 
L 421.2 171.920506 
" clip-path="url(#p67b19cc6b0)" style="fill: none; stroke: #b0b0b0; stroke-opacity: 0.3; stroke-width: 0.8; stroke-linecap: square"/>
     </g>
     <g id="line2d_22">
      <g>
       <use xlink:href="#m108f79debf" x="46.98875" y="171.920506" style="stroke: #000000; stroke-width: 0.8"/>
      </g>
     </g>
     <g id="text_12">
      <!-- 1.5 -->
      <g transform="translate(24.98875 175.358006) scale(0.1 -0.1)">
       <use xlink:href="#UMingCN-31"/>
       <use xlink:href="#UMingCN-2e" x="50"/>
       <use xlink:href="#UMingCN-35" x="100"/>
      </g>
     </g>
    </g>
    <g id="ytick_5">
     <g id="line2d_23">
      <path d="M 46.98875 127.131773 
L 421.2 127.131773 
" clip-path="url(#p67b19cc6b0)" style="fill: none; stroke: #b0b0b0; stroke-opacity: 0.3; stroke-width: 0.8; stroke-linecap: square"/>
     </g>
     <g id="line2d_24">
      <g>
       <use xlink:href="#m108f79debf" x="46.98875" y="127.131773" style="stroke: #000000; stroke-width: 0.8"/>
      </g>
     </g>
     <g id="text_13">
      <!-- 2.0 -->
      <g transform="translate(24.98875 130.569273) scale(0.1 -0.1)">
       <use xlink:href="#UMingCN-32"/>
       <use xlink:href="#UMingCN-2e" x="50"/>
       <use xlink:href="#UMingCN-30" x="100"/>
      </g>
     </g>
    </g>
    <g id="ytick_6">
     <g id="line2d_25">
      <path d="M 46.98875 82.34304 
L 421.2 82.34304 
" clip-path="url(#p67b19cc6b0)" style="fill: none; stroke: #b0b0b0; stroke-opacity: 0.3; stroke-width: 0.8; stroke-linecap: square"/>
     </g>
     <g id="line2d_26">
      <g>
       <use xlink:href="#m108f79debf" x="46.98875" y="82.34304" style="stroke: #000000; stroke-width: 0.8"/>
      </g>
     </g>
     <g id="text_14">
      <!-- 2.5 -->
      <g transform="translate(24.98875 85.78054) scale(0.1 -0.1)">
       <use xlink:href="#UMingCN-32"/>
       <use xlink:href="#UMingCN-2e" x="50"/>
       <use xlink:href="#UMingCN-35" x="100"/>
      </g>
     </g>
    </g>
    <g id="ytick_7">
     <g id="line2d_27">
      <path d="M 46.98875 37.554307 
L 421.2 37.554307 
" clip-path="url(#p67b19cc6b0)" style="fill: none; stroke: #b0b0b0; stroke-opacity: 0.3; stroke-width: 0.8; stroke-linecap: square"/>
     </g>
     <g id="line2d_28">
      <g>
       <use xlink:href="#m108f79debf" x="46.98875" y="37.554307" style="stroke: #000000; stroke-width: 0.8"/>
      </g>
     </g>
     <g id="text_15">
      <!-- 3.0 -->
      <g transform="translate(24.98875 40.991807) scale(0.1 -0.1)">
       <defs>
        <path id="UMingCN-33" d="M 2875 1463 
Q 2875 981 2481 675 
Q 2106 413 1613 413 
Q 1019 413 656 719 
Q 325 1000 325 1344 
Q 325 1456 390 1518 
Q 456 1581 550 1581 
Q 631 1581 693 1512 
Q 756 1444 756 1344 
Q 750 1250 706 1188 
Q 663 1125 663 1025 
Q 663 900 956 738 
Q 1225 588 1613 588 
Q 1975 588 2281 806 
Q 2550 1000 2550 1463 
Q 2550 1906 2275 2131 
Q 2038 2325 1656 2325 
Q 1569 2325 1494 2281 
Q 1400 2231 1344 2231 
Q 1163 2238 1163 2413 
Q 1163 2581 1344 2581 
Q 1419 2581 1500 2538 
Q 1575 2500 1656 2500 
Q 1825 2500 2113 2725 
Q 2425 2975 2425 3413 
Q 2425 3825 2156 4031 
Q 1900 4225 1594 4225 
Q 1213 4225 963 4025 
Q 738 3844 819 3713 
Q 894 3588 894 3450 
Q 894 3350 831 3275 
Q 775 3206 681 3206 
Q 594 3206 531 3275 
Q 463 3350 463 3450 
Q 463 3838 825 4125 
Q 1138 4400 1594 4400 
Q 2131 4400 2413 4138 
Q 2750 3825 2750 3413 
Q 2750 2831 2175 2544 
Q 2075 2494 2000 2450 
Q 2119 2419 2250 2375 
Q 2875 2156 2875 1463 
z
" transform="scale(0.015625)"/>
       </defs>
       <use xlink:href="#UMingCN-33"/>
       <use xlink:href="#UMingCN-2e" x="50"/>
       <use xlink:href="#UMingCN-30" x="100"/>
      </g>
     </g>
    </g>
    <g id="text_16">
     <!-- 转向角度/rad -->
     <g transform="translate(20.030938 195.57875) rotate(-90) scale(0.1 -0.1)">
      <defs>
       <path id="UMingCN-8f6c" d="M 1038 4319 
Q 1269 5181 1275 5369 
Q 1275 5438 1319 5419 
Q 1519 5319 1731 5181 
Q 1788 5144 1788 5106 
Q 1788 5075 1706 5056 
Q 1675 5056 1656 5038 
Q 1550 4994 1344 4319 
L 1975 4319 
Q 2013 4319 2050 4363 
L 2275 4619 
Q 2319 4663 2363 4619 
Q 2525 4456 2638 4319 
Q 2706 4231 2663 4169 
Q 2631 4131 2550 4125 
L 1975 4125 
L 1288 4125 
Q 1075 3463 956 3088 
Q 850 2819 788 2594 
L 1475 2594 
L 1475 2788 
Q 1469 3288 1444 3588 
Q 1431 3694 1506 3669 
Q 1844 3563 1956 3500 
Q 2044 3456 1944 3400 
Q 1844 3350 1819 3288 
Q 1775 3169 1775 2788 
L 1775 2594 
L 1906 2594 
Q 1975 2594 2038 2656 
L 2244 2894 
Q 2288 2944 2331 2900 
Q 2494 2750 2594 2594 
Q 2663 2494 2644 2450 
Q 2619 2406 2538 2400 
L 1888 2400 
L 1775 2400 
L 1775 1294 
Q 2344 1444 2819 1563 
Q 2913 1588 2919 1531 
Q 2931 1456 2831 1431 
Q 2250 1213 1775 1056 
L 1775 919 
Q 1775 188 1800 -306 
Q 1806 -356 1769 -381 
Q 1681 -438 1506 -550 
Q 1425 -613 1431 -481 
Q 1469 350 1475 919 
L 1475 950 
Q 1194 863 981 800 
Q 713 744 631 625 
Q 588 575 563 569 
Q 538 563 519 619 
Q 456 781 325 900 
Q 250 969 256 988 
Q 269 1006 331 1013 
Q 813 1063 1363 1200 
Q 1413 1219 1475 1225 
L 1475 2400 
L 725 2400 
Q 644 2294 625 2275 
Q 588 2225 563 2269 
Q 488 2388 313 2488 
Q 275 2525 319 2550 
Q 356 2588 413 2613 
Q 550 2700 981 4125 
L 869 4125 
Q 606 4119 413 4081 
Q 363 4063 344 4119 
Q 319 4231 225 4306 
Q 181 4350 200 4375 
Q 225 4394 269 4369 
Q 506 4319 794 4319 
L 1038 4319 
z
M 4538 581 
Q 5044 238 5156 88 
Q 5281 -81 5263 -238 
Q 5250 -388 5213 -463 
Q 5175 -525 5131 -531 
Q 5088 -531 5050 -450 
Q 4656 263 3375 1031 
Q 3325 1063 3350 1119 
Q 3381 1175 3456 1131 
Q 4019 888 4419 656 
Q 4800 1431 5138 2125 
L 3438 2125 
Q 3394 2081 3388 2056 
Q 3363 2006 3325 2044 
Q 3238 2156 3063 2250 
Q 3013 2275 3056 2313 
Q 3150 2369 3188 2406 
Q 3231 2456 3425 3175 
L 3119 3175 
Q 2856 3169 2663 3131 
Q 2613 3113 2594 3169 
Q 2569 3281 2475 3356 
Q 2431 3400 2450 3425 
Q 2475 3444 2519 3419 
Q 2756 3369 3044 3369 
L 3475 3369 
Q 3594 3844 3694 4275 
L 3469 4275 
Q 3206 4269 3013 4231 
Q 2963 4213 2944 4269 
Q 2919 4381 2825 4456 
Q 2781 4500 2800 4525 
Q 2825 4544 2869 4519 
Q 3106 4469 3394 4469 
L 3731 4469 
Q 3838 5150 3838 5325 
Q 3838 5388 3881 5381 
Q 4081 5300 4313 5169 
Q 4375 5144 4375 5100 
Q 4375 5069 4300 5044 
Q 4144 4994 4031 4469 
L 5150 4469 
Q 5188 4469 5225 4513 
L 5450 4769 
Q 5494 4813 5538 4769 
Q 5700 4606 5813 4469 
Q 5881 4381 5838 4319 
Q 5806 4281 5725 4275 
L 5150 4275 
L 3988 4275 
Q 3856 3750 3775 3369 
L 5475 3369 
Q 5513 3369 5550 3413 
L 5775 3669 
Q 5819 3713 5863 3669 
Q 6025 3506 6138 3369 
Q 6206 3281 6163 3219 
Q 6131 3181 6050 3175 
L 5475 3175 
L 3725 3175 
Q 3694 3044 3669 2925 
Q 3556 2581 3513 2319 
L 5163 2319 
Q 5225 2319 5250 2356 
L 5425 2544 
Q 5444 2569 5469 2569 
Q 5538 2569 5819 2194 
Q 5869 2119 5775 2113 
Q 5706 2106 5650 2088 
Q 5288 2044 4538 581 
z
" transform="scale(0.015625)"/>
       <path id="UMingCN-5411" d="M 1200 4000 
L 1200 831 
Q 1194 113 1200 -394 
Q 1194 -456 1150 -475 
Q 919 -581 875 -581 
Q 850 -575 856 -456 
Q 881 169 900 831 
L 900 3856 
Q 894 4056 856 4344 
Q 844 4406 863 4413 
Q 888 4425 950 4363 
Q 1031 4288 1150 4194 
L 2325 4194 
Q 2331 4219 2350 4244 
Q 2500 4538 2563 4788 
Q 2638 5069 2675 5375 
Q 2694 5413 2700 5419 
Q 2719 5438 2763 5419 
Q 2931 5344 3163 5225 
Q 3181 5219 3181 5200 
Q 3181 5175 3156 5169 
Q 2925 4981 2881 4900 
Q 2875 4875 2819 4756 
Q 2719 4531 2513 4194 
L 5094 4194 
Q 5150 4194 5156 4200 
L 5313 4406 
Q 5325 4431 5350 4431 
Q 5375 4431 5400 4406 
Q 5594 4250 5744 4094 
Q 5788 4038 5744 4019 
Q 5538 3919 5519 3894 
Q 5500 3863 5500 3838 
L 5500 19 
Q 5500 -200 5381 -338 
Q 5256 -488 5100 -544 
Q 5025 -575 5006 -550 
Q 4906 -406 4681 -294 
Q 4506 -206 4106 -144 
Q 4044 -131 4044 -69 
Q 4050 -6 4131 -13 
Q 4388 -25 4731 -50 
Q 5081 -69 5144 -25 
Q 5200 -6 5200 106 
L 5200 4000 
L 1200 4000 
z
M 2225 2850 
Q 2219 3013 2213 3131 
Q 2213 3188 2238 3194 
Q 2263 3213 2319 3156 
Q 2400 3075 2513 2994 
L 3700 2994 
Q 3738 2994 3756 3019 
L 3869 3194 
Q 3913 3244 3956 3200 
Q 4138 3081 4313 2944 
Q 4369 2894 4363 2869 
Q 4350 2838 4306 2813 
Q 4144 2738 4138 2694 
Q 4125 2656 4125 2613 
L 4125 1613 
Q 4125 1388 4163 1006 
Q 4169 938 4131 931 
Q 3863 838 3838 844 
Q 3825 850 3825 913 
L 3825 1250 
L 2525 1250 
L 2525 931 
Q 2519 881 2494 875 
Q 2431 850 2294 794 
Q 2200 756 2206 819 
Q 2219 981 2225 1138 
L 2225 2850 
z
M 2525 2800 
L 2525 1444 
L 3825 1444 
L 3825 2800 
L 2525 2800 
z
" transform="scale(0.015625)"/>
       <path id="UMingCN-89d2" d="M 5350 -13 
Q 5331 -213 5213 -350 
Q 5094 -488 4938 -531 
Q 4863 -575 4844 -538 
Q 4731 -388 4500 -275 
Q 4313 -194 3913 -138 
Q 3838 -119 3844 -56 
Q 3844 -6 3925 -13 
Q 4206 -19 4569 -38 
Q 4931 -56 5006 -13 
Q 5050 19 5050 119 
L 5050 1325 
L 3525 1325 
L 3525 1044 
Q 3525 263 3550 -269 
Q 3550 -325 3506 -331 
L 3231 -444 
Q 3175 -456 3181 -356 
Q 3219 475 3225 1044 
L 3225 1325 
L 1738 1325 
Q 1681 906 1513 550 
Q 1256 25 463 -506 
Q 381 -575 325 -500 
Q 281 -444 363 -369 
Q 944 6 1175 444 
Q 1475 1006 1475 1800 
L 1475 3056 
Q 1475 3300 1450 3644 
Q 1044 3231 419 2838 
Q 331 2781 294 2838 
Q 263 2906 325 2950 
Q 1050 3488 1525 4094 
Q 1956 4625 2275 5363 
Q 2306 5419 2350 5394 
Q 2569 5275 2725 5175 
Q 2794 5131 2775 5094 
Q 2756 5069 2731 5063 
Q 2600 5056 2538 5013 
Q 2488 4981 2350 4775 
Q 2319 4738 2294 4694 
L 3913 4694 
Q 3975 4694 4000 4731 
L 4175 4919 
Q 4194 4944 4219 4944 
Q 4244 4944 4263 4919 
Q 4456 4719 4569 4569 
Q 4619 4494 4525 4488 
Q 4356 4463 4256 4419 
Q 4138 4356 3981 4200 
Q 3769 4006 3538 3719 
L 4888 3719 
Q 4950 3719 4975 3756 
L 5131 3931 
Q 5175 3988 5231 3931 
Q 5388 3819 5544 3681 
Q 5594 3625 5569 3600 
Q 5406 3463 5381 3438 
Q 5350 3413 5350 3356 
L 5350 -13 
z
M 3225 1519 
L 3225 2400 
L 1775 2400 
L 1775 1800 
Q 1769 1656 1763 1519 
L 3225 1519 
z
M 3525 2400 
L 3525 1519 
L 5050 1519 
L 5050 2400 
L 3525 2400 
z
M 3225 2594 
L 3225 3525 
L 1775 3525 
L 1775 2594 
L 3225 2594 
z
M 3525 3525 
L 3525 2594 
L 5050 2594 
L 5050 3525 
L 3525 3525 
z
M 3888 4500 
L 2150 4500 
Q 1850 4100 1600 3813 
Q 1663 3763 1725 3719 
L 3363 3719 
Q 3375 3738 3381 3744 
Q 3656 4144 3888 4500 
z
" transform="scale(0.015625)"/>
       <path id="UMingCN-5ea6" d="M 1300 4500 
L 1300 2800 
Q 1294 1781 1100 1006 
Q 913 250 313 -506 
Q 238 -594 175 -531 
Q 125 -488 188 -394 
Q 613 163 781 806 
Q 1000 1631 1000 2800 
L 1000 4056 
Q 1000 4356 963 4831 
Q 950 4894 975 4913 
Q 1006 4925 1050 4881 
Q 1144 4788 1294 4694 
L 3406 4694 
Q 3406 4706 3406 4713 
Q 3369 4919 3288 5069 
Q 3206 5213 3069 5369 
Q 3038 5413 3063 5450 
Q 3088 5488 3163 5444 
Q 3444 5325 3581 5206 
Q 3675 5131 3700 5050 
Q 3713 4931 3631 4744 
Q 3613 4719 3606 4694 
L 5125 4694 
L 5213 4706 
Q 5244 4738 5288 4781 
L 5475 5044 
Q 5519 5100 5575 5044 
Q 5781 4869 5956 4675 
Q 6019 4613 6013 4556 
Q 6000 4506 5919 4500 
L 1300 4500 
z
M 4275 3644 
L 4275 3831 
Q 4269 4019 4250 4175 
Q 4231 4269 4250 4288 
Q 4275 4313 4331 4288 
Q 4575 4181 4725 4100 
Q 4763 4081 4763 4063 
Q 4756 4031 4738 4025 
Q 4625 3969 4600 3931 
Q 4575 3894 4575 3831 
L 4575 3644 
L 5150 3644 
Q 5225 3644 5250 3663 
Q 5288 3688 5331 3744 
L 5481 3963 
Q 5531 4019 5575 3963 
Q 5756 3800 5931 3625 
Q 6000 3550 5994 3506 
Q 5981 3456 5900 3450 
L 4575 3450 
L 4575 2681 
Q 4581 2569 4588 2400 
Q 4594 2344 4550 2319 
Q 4275 2188 4250 2194 
Q 4231 2213 4250 2275 
Q 4263 2388 4269 2525 
L 2925 2525 
Q 2931 2456 2938 2375 
Q 2944 2319 2900 2294 
Q 2625 2163 2600 2169 
Q 2581 2188 2600 2250 
Q 2619 2406 2625 2656 
L 2625 3450 
L 2088 3450 
Q 1919 3450 1706 3406 
Q 1675 3400 1669 3419 
Q 1588 3544 1525 3644 
Q 1488 3706 1569 3688 
Q 1950 3650 1994 3644 
L 2625 3644 
L 2625 3831 
Q 2619 4019 2600 4175 
Q 2581 4269 2600 4288 
Q 2625 4313 2681 4288 
Q 2925 4181 3075 4100 
Q 3113 4081 3113 4063 
Q 3106 4031 3088 4025 
Q 2975 3969 2950 3931 
Q 2925 3894 2925 3831 
L 2925 3644 
L 4275 3644 
z
M 4275 3450 
L 2925 3450 
L 2925 2719 
L 4275 2719 
L 4275 3450 
z
M 2269 1944 
L 4388 1944 
Q 4456 1950 4481 1975 
L 4650 2144 
Q 4675 2169 4694 2169 
Q 4713 2169 4738 2144 
Q 4938 1963 5056 1806 
Q 5100 1750 5075 1725 
Q 5050 1706 4994 1713 
Q 4925 1738 4850 1719 
Q 4794 1700 4656 1494 
Q 4231 913 3850 538 
Q 4188 319 4619 181 
Q 5150 13 5869 -25 
Q 5956 -31 6031 -31 
Q 6075 -38 6075 -81 
Q 6081 -131 6044 -138 
Q 5919 -175 5800 -275 
Q 5675 -369 5619 -481 
Q 5581 -531 5519 -513 
Q 4613 -238 4138 44 
Q 3869 194 3656 363 
Q 3313 94 2806 -119 
Q 2081 -425 1213 -556 
Q 1113 -581 1094 -488 
Q 1069 -400 1169 -375 
Q 1913 -263 2438 -38 
Q 2969 194 3419 556 
Q 3375 600 3350 625 
Q 2981 988 2588 1719 
Q 2575 1744 2575 1750 
L 2363 1750 
Q 2194 1750 1981 1706 
Q 1950 1700 1944 1719 
Q 1863 1838 1800 1938 
Q 1763 2000 1844 1981 
Q 2225 1950 2269 1944 
z
M 4450 1750 
L 2731 1750 
Q 3138 1075 3594 713 
Q 4031 1113 4450 1750 
z
" transform="scale(0.015625)"/>
       <path id="UMingCN-72" d="M 1069 844 
Q 1069 581 1444 581 
L 1444 475 
L 369 475 
L 369 581 
Q 744 581 744 844 
L 744 2394 
Q 744 2519 650 2569 
Q 550 2625 306 2625 
L 306 2731 
L 1000 3094 
L 1069 3094 
L 1069 2406 
Q 1294 2700 1519 2850 
Q 1881 3094 2100 3094 
Q 2356 3094 2569 2950 
Q 2756 2825 2756 2681 
Q 2756 2550 2675 2469 
Q 2600 2394 2531 2394 
Q 2456 2394 2406 2500 
Q 2250 2831 1931 2831 
Q 1744 2831 1494 2650 
Q 1275 2488 1069 2219 
L 1069 844 
z
" transform="scale(0.015625)"/>
       <path id="UMingCN-61" d="M 2556 806 
Q 2556 694 2706 694 
Q 2769 694 2919 769 
L 2994 675 
Q 2731 413 2481 413 
Q 2363 413 2300 488 
Q 2231 569 2231 719 
L 2231 856 
Q 2069 706 1894 606 
Q 1519 413 1063 413 
Q 713 419 481 594 
Q 213 800 213 1144 
Q 213 1538 625 1769 
Q 1019 1981 1631 1981 
Q 1944 1981 2231 1850 
L 2231 2413 
Q 2231 2663 2019 2794 
Q 1806 2919 1488 2919 
Q 1344 2913 1169 2869 
Q 981 2806 981 2544 
Q 975 2431 900 2388 
Q 819 2344 744 2344 
Q 669 2356 606 2400 
Q 538 2463 538 2544 
Q 538 2763 800 2925 
Q 1075 3094 1488 3094 
Q 1956 3094 2256 2856 
Q 2556 2619 2556 2244 
L 2556 806 
z
M 1969 1788 
Q 1275 1788 913 1619 
Q 538 1438 538 1144 
Q 538 906 725 781 
Q 919 656 1294 656 
Q 1581 663 1863 800 
Q 2075 919 2231 1075 
L 2231 1756 
L 1969 1788 
z
" transform="scale(0.015625)"/>
       <path id="UMingCN-64" d="M 2650 781 
Q 2650 594 2869 594 
L 2869 506 
L 2325 413 
L 2325 769 
Q 2225 688 2094 606 
Q 1788 413 1519 413 
Q 1031 413 731 750 
Q 338 1175 338 1775 
Q 338 2269 750 2688 
Q 1088 3031 1650 3031 
Q 1913 3031 2163 2938 
Q 2250 2900 2325 2856 
L 2325 3631 
Q 2325 3944 1856 3944 
L 1856 4050 
L 2581 4400 
L 2650 4400 
L 2650 781 
z
M 2325 963 
L 2325 2650 
Q 2238 2756 2138 2800 
Q 1913 2894 1650 2894 
Q 1225 2894 975 2631 
Q 663 2306 663 1775 
Q 663 1219 938 913 
Q 1200 625 1481 625 
Q 1719 625 2019 763 
Q 2206 863 2325 963 
z
" transform="scale(0.015625)"/>
      </defs>
      <use xlink:href="#UMingCN-8f6c"/>
      <use xlink:href="#UMingCN-5411" x="100"/>
      <use xlink:href="#UMingCN-89d2" x="200"/>
      <use xlink:href="#UMingCN-5ea6" x="300"/>
      <use xlink:href="#UMingCN-2f" x="400"/>
      <use xlink:href="#UMingCN-72" x="450"/>
      <use xlink:href="#UMingCN-61" x="500"/>
      <use xlink:href="#UMingCN-64" x="550"/>
     </g>
    </g>
   </g>
   <g id="line2d_29">
    <path d="M 63.998352 88.774442 
L 69.272648 133.264653 
L 74.546943 179.598641 
L 77.18409 236.188256 
L 79.821238 272.98519 
L 82.458386 190.574818 
L 85.095533 209.684601 
L 87.732681 236.329083 
L 90.369829 276.793931 
L 93.006976 306.286705 
L 95.644124 288.299227 
L 98.281272 306.286705 
L 100.918419 255.788197 
L 103.555567 301.067612 
L 106.192714 276.800272 
L 108.829862 306.286705 
L 111.46701 286.908782 
L 114.104157 306.286705 
L 116.741305 306.286705 
L 119.378453 296.711562 
L 122.0156 306.286705 
L 124.652748 306.286705 
L 127.289896 273.454848 
L 129.927043 273.454848 
L 132.564191 285.56202 
L 135.201339 273.454848 
L 137.838486 273.454848 
L 140.475634 203.6024 
L 143.112781 204.752234 
L 145.749929 257.213676 
L 148.387077 270.964746 
L 151.024224 273.454848 
L 153.661372 273.454848 
L 156.29852 306.015798 
L 158.935667 273.454848 
L 161.572815 273.454848 
L 164.209963 306.286705 
L 174.758553 306.286705 
L 177.395701 273.454848 
L 180.032848 224.590281 
L 182.669996 267.916295 
L 185.307144 273.454848 
L 216.952915 273.454848 
L 219.590063 246.676655 
L 224.864358 273.454848 
L 227.501506 273.454848 
L 230.138654 306.286705 
L 232.775801 278.009344 
L 235.412949 306.286705 
L 259.147278 306.286705 
L 261.784425 304.304171 
L 264.421573 306.286705 
L 269.695868 306.286705 
L 272.333016 291.104972 
L 274.970163 306.286705 
L 282.881606 306.286705 
L 285.518754 299.729836 
L 288.155902 306.286705 
L 293.430197 306.286705 
L 296.067345 281.755588 
L 298.704492 271.504736 
L 301.34164 294.994765 
L 303.978787 306.286705 
L 306.615935 283.086801 
L 309.253083 306.286705 
L 314.527378 306.286705 
L 317.164526 293.811348 
L 319.801673 306.286705 
L 322.438821 306.286705 
L 325.075969 288.247707 
L 327.713116 306.286705 
L 332.987411 306.286705 
L 335.624559 305.422805 
L 338.261707 297.109623 
L 340.898854 306.286705 
L 343.536002 286.837876 
L 346.17315 306.286705 
L 348.810297 306.286705 
L 351.447445 293.760772 
L 354.084593 306.286705 
L 359.358888 306.286705 
L 361.996036 289.393066 
L 364.633183 306.286705 
L 367.270331 306.286705 
L 369.907478 290.379715 
L 372.544626 306.286705 
L 377.818921 306.286705 
L 380.456069 298.834246 
L 383.093217 306.286705 
L 385.730364 306.286705 
L 388.367512 286.16732 
L 391.00466 306.286705 
L 393.641807 306.286705 
L 396.278955 296.98211 
L 398.916102 306.286705 
L 401.55325 306.286705 
L 404.190398 286.968625 
L 404.190398 286.968625 
" clip-path="url(#p67b19cc6b0)" style="fill: none; stroke: #1f77b4; stroke-width: 1.5; stroke-linecap: square"/>
   </g>
   <g id="line2d_30">
    <path d="M 63.998352 183.176852 
L 66.6355 186.721899 
L 69.272648 192.12497 
L 71.909795 181.355687 
L 74.546943 296.614752 
L 77.18409 172.103767 
L 79.821238 256.95487 
L 82.458386 297.980711 
L 85.095533 273.901861 
L 87.732681 291.803217 
L 90.369829 300.456728 
L 93.006976 306.286705 
" clip-path="url(#p67b19cc6b0)" style="fill: none; stroke: #ff7f0e; stroke-width: 1.5; stroke-linecap: square"/>
   </g>
   <g id="line2d_31">
    <path d="M 63.998352 132.37938 
L 66.6355 149.798179 
L 69.272648 160.556912 
L 71.909795 169.506121 
L 74.546943 174.440702 
L 77.18409 171.701153 
L 79.821238 229.610835 
L 82.458386 230.589321 
L 85.095533 260.318526 
L 87.732681 290.12543 
L 90.369829 302.944339 
L 93.006976 306.286705 
L 95.644124 296.842248 
L 98.281272 306.286705 
L 100.918419 48.157332 
L 103.555567 70.735689 
L 106.192714 94.040523 
L 108.829862 117.765042 
L 111.46701 141.862807 
L 114.104157 166.400475 
L 116.741305 191.574407 
L 119.378453 217.861771 
L 122.0156 246.623944 
L 124.652748 165.637945 
L 127.289896 193.603025 
L 129.927043 223.432204 
L 132.564191 257.441264 
L 135.201339 262.420356 
L 137.838486 306.286705 
L 140.475634 48.455382 
L 143.112781 79.509705 
L 145.749929 108.798958 
L 148.387077 137.653899 
L 151.024224 166.871607 
L 153.661372 197.266129 
L 156.29852 230.1382 
L 158.935667 268.277339 
L 161.572815 187.551767 
L 164.209963 216.188924 
L 166.84711 221.397842 
L 169.484258 261.455525 
L 172.121405 306.286705 
L 174.758553 306.286705 
L 177.395701 297.45525 
L 180.032848 244.410735 
L 182.669996 287.247307 
L 185.307144 247.622251 
L 187.944291 292.415581 
L 190.581439 306.286705 
L 193.218587 306.286705 
L 195.855734 305.909909 
L 198.492882 306.286705 
L 201.13003 306.286705 
L 203.767177 288.351907 
L 206.404325 306.286705 
L 209.041472 306.286705 
L 211.67862 306.286705 
L 214.315768 296.241621 
L 216.952915 306.286705 
L 219.590063 234.908103 
L 222.227211 265.444492 
L 224.864358 306.286705 
L 227.501506 305.116633 
L 230.138654 306.286705 
L 232.775801 306.286705 
L 235.412949 305.809935 
L 238.050096 306.286705 
L 240.687244 306.286705 
L 243.324392 306.286705 
L 245.961539 271.101486 
L 248.598687 306.286705 
L 251.235835 306.286705 
L 253.872982 284.537792 
L 256.51013 306.286705 
L 259.147278 282.394657 
L 261.784425 306.286705 
L 264.421573 251.76933 
L 267.05872 286.272776 
" clip-path="url(#p67b19cc6b0)" style="fill: none; stroke: #2ca02c; stroke-width: 1.5; stroke-linecap: square"/>
   </g>
   <g id="line2d_32">
    <path d="M 63.998352 47.520507 
L 66.6355 65.942798 
L 69.272648 87.20474 
L 71.909795 109.475945 
L 74.546943 132.268829 
L 77.18409 155.416075 
L 79.821238 178.876631 
L 82.458386 202.707085 
L 85.095533 227.14661 
L 87.732681 253.133573 
L 90.369829 105.011598 
L 93.006976 110.711355 
L 95.644124 121.67733 
L 98.281272 135.183652 
L 100.918419 273.656633 
L 103.555567 292.237944 
L 106.192714 306.286705 
L 108.829862 291.306621 
L 111.46701 306.286705 
L 114.104157 296.400081 
L 116.741305 306.286705 
L 119.378453 282.503238 
L 122.0156 306.286705 
L 124.652748 306.286705 
L 127.289896 298.78254 
L 129.927043 285.228897 
L 132.564191 306.286705 
L 135.201339 303.542909 
L 137.838486 306.286705 
L 140.475634 306.286705 
L 143.112781 292.48226 
L 145.749929 306.286705 
L 148.387077 291.338697 
L 151.024224 306.286705 
L 153.661372 306.286705 
L 156.29852 289.617869 
L 158.935667 306.286705 
L 161.572815 295.002996 
L 164.209963 306.286705 
L 166.84711 306.286705 
L 169.484258 306.286705 
L 172.121405 297.314025 
L 174.758553 298.875022 
L 177.395701 306.286705 
L 180.032848 306.286705 
L 182.669996 286.031584 
L 185.307144 306.286705 
L 187.944291 306.286705 
L 190.581439 298.207824 
L 193.218587 306.286705 
L 195.855734 306.286705 
L 198.492882 273.454848 
L 201.13003 269.638586 
L 203.767177 273.454848 
L 206.404325 273.454848 
L 209.041472 273.454848 
L 211.67862 286.588135 
L 214.315768 306.286705 
L 216.952915 306.286705 
L 219.590063 293.237114 
L 222.227211 284.380429 
L 224.864358 306.286705 
L 227.501506 288.938437 
L 230.138654 306.286705 
L 232.775801 306.286705 
L 235.412949 306.286705 
L 238.050096 298.106455 
L 240.687244 306.286705 
L 243.324392 306.286705 
L 245.961539 288.115819 
L 248.598687 306.286705 
L 251.235835 306.286705 
L 253.872982 292.98985 
L 256.51013 306.286705 
L 259.147278 268.050635 
L 261.784425 269.695656 
L 264.421573 306.286705 
L 267.05872 299.049017 
L 269.695868 306.286705 
L 272.333016 306.286705 
L 274.970163 306.286705 
L 277.607311 77.383931 
" clip-path="url(#p67b19cc6b0)" style="fill: none; stroke: #d62728; stroke-width: 1.5; stroke-linecap: square"/>
   </g>
   <g id="line2d_33">
    <path d="M 63.998352 86.254379 
L 66.6355 91.726812 
L 69.272648 104.939174 
L 71.909795 121.307003 
L 74.546943 139.080133 
L 77.18409 157.353381 
L 79.821238 175.417305 
L 82.458386 192.330012 
L 85.095533 206.069337 
L 87.732681 246.2822 
L 90.369829 197.226215 
L 93.006976 194.981962 
L 95.644124 211.624452 
L 98.281272 297.694306 
L 100.918419 282.241465 
L 103.555567 306.286705 
L 106.192714 247.15853 
L 108.829862 295.570113 
L 111.46701 306.286705 
L 114.104157 293.990133 
L 116.741305 306.286705 
L 119.378453 294.286437 
L 122.0156 306.286705 
L 124.652748 306.286705 
L 127.289896 290.31138 
L 129.927043 278.653351 
L 132.564191 306.286705 
L 135.201339 287.519703 
L 137.838486 306.286705 
L 140.475634 235.706362 
L 143.112781 271.155898 
L 145.749929 239.849167 
L 148.387077 265.843243 
L 151.024224 306.286705 
L 153.661372 306.286705 
L 156.29852 300.161378 
L 158.935667 306.286705 
L 161.572815 304.275493 
L 164.209963 306.286705 
L 166.84711 306.286705 
L 169.484258 305.332634 
L 172.121405 306.286705 
L 174.758553 289.716129 
L 177.395701 306.286705 
L 180.032848 167.787499 
L 182.669996 188.044831 
L 185.307144 242.812187 
L 187.944291 197.780931 
L 190.581439 220.960183 
L 193.218587 278.700746 
L 195.855734 306.286705 
L 198.492882 153.890631 
L 201.13003 176.960346 
L 203.767177 60.233671 
L 206.404325 83.698904 
L 209.041472 295.461177 
L 211.67862 154.8827 
L 214.315768 141.083987 
L 216.952915 175.30142 
L 219.590063 133.936686 
L 222.227211 178.786522 
L 224.864358 150.203941 
L 227.501506 178.003724 
L 230.138654 205.88971 
L 232.775801 234.939521 
L 235.412949 268.386358 
L 238.050096 306.286705 
L 240.687244 162.955817 
L 243.324392 188.576879 
L 245.961539 102.225288 
L 248.598687 36.935277 
L 251.235835 74.554901 
L 253.872982 109.468272 
L 256.51013 142.678485 
L 259.147278 136.324855 
L 261.784425 161.046031 
L 264.421573 186.747701 
L 267.05872 58.392869 
L 269.695868 82.047174 
L 272.333016 118.684249 
L 274.970163 154.032808 
L 277.607311 189.348985 
L 280.244459 226.094471 
L 282.881606 266.601234 
L 285.518754 306.286705 
L 288.155902 306.286705 
L 290.793049 306.286705 
L 293.430197 306.286705 
L 296.067345 257.22972 
L 298.704492 301.239147 
L 301.34164 24.870795 
L 303.978787 39.41142 
" clip-path="url(#p67b19cc6b0)" style="fill: none; stroke: #9467bd; stroke-width: 1.5; stroke-linecap: square"/>
   </g>
   <g id="line2d_34">
    <path d="M 63.998352 188.230489 
L 66.6355 203.288672 
L 69.272648 270.073533 
L 71.909795 306.286705 
L 74.546943 306.286705 
L 77.18409 302.238895 
L 79.821238 306.286705 
L 82.458386 306.286705 
L 85.095533 305.037599 
L 87.732681 306.286705 
L 90.369829 306.286705 
L 93.006976 290.710096 
L 95.644124 306.286705 
L 98.281272 306.286705 
L 100.918419 300.882208 
L 103.555567 306.286705 
L 106.192714 306.286705 
L 108.829862 287.853133 
L 111.46701 306.286705 
L 114.104157 294.982346 
L 116.741305 306.286705 
L 119.378453 306.286705 
L 122.0156 296.185742 
L 124.652748 306.286705 
L 127.289896 306.286705 
L 129.927043 302.412006 
L 132.564191 306.286705 
L 135.201339 306.286705 
L 137.838486 282.0205 
L 140.475634 159.512396 
L 143.112781 265.655911 
L 145.749929 264.254452 
L 148.387077 306.286705 
L 151.024224 306.286705 
L 153.661372 266.120924 
L 156.29852 306.286705 
L 158.935667 306.286705 
L 161.572815 306.286705 
L 164.209963 301.77458 
L 166.84711 306.286705 
L 169.484258 306.286705 
L 172.121405 306.286705 
L 174.758553 300.582858 
L 177.395701 306.286705 
L 180.032848 169.295457 
L 182.669996 194.58698 
L 185.307144 288.91544 
L 187.944291 246.10318 
L 190.581439 291.012664 
L 193.218587 306.286705 
L 195.855734 306.286705 
L 198.492882 303.305018 
L 201.13003 306.286705 
L 203.767177 306.286705 
L 206.404325 306.286705 
L 209.041472 286.371954 
L 211.67862 306.286705 
L 214.315768 306.286705 
L 216.952915 306.286705 
L 219.590063 167.12638 
L 222.227211 190.678845 
L 224.864358 259.920045 
L 227.501506 289.292454 
L 230.138654 306.286705 
L 232.775801 306.286705 
L 235.412949 306.286705 
L 238.050096 278.918629 
L 240.687244 306.286705 
L 243.324392 306.286705 
L 245.961539 306.286705 
L 248.598687 297.559543 
L 251.235835 306.286705 
L 253.872982 306.286705 
L 256.51013 306.286705 
L 259.147278 170.641569 
L 261.784425 296.60344 
L 264.421573 306.286705 
L 267.05872 254.411583 
L 269.695868 300.30711 
L 272.333016 306.286705 
L 274.970163 295.226253 
L 277.607311 306.286705 
L 280.244459 306.286705 
L 282.881606 306.286705 
L 285.518754 276.186229 
L 288.155902 306.286705 
L 290.793049 306.286705 
L 293.430197 284.253689 
L 296.067345 306.286705 
L 298.704492 306.286705 
L 301.34164 283.752991 
L 303.978787 306.286705 
L 306.615935 306.286705 
L 309.253083 306.286705 
L 311.89023 294.703647 
L 314.527378 306.286705 
L 317.164526 306.286705 
L 319.801673 306.286705 
L 322.438821 282.541311 
" clip-path="url(#p67b19cc6b0)" style="fill: none; stroke: #8c564b; stroke-width: 1.5; stroke-linecap: square"/>
   </g>
   <g id="line2d_35">
    <path d="M 63.998352 237.684007 
L 66.6355 299.15934 
L 69.272648 291.636833 
L 71.909795 306.286705 
L 74.546943 293.283862 
L 77.18409 306.286705 
L 79.821238 291.792738 
L 82.458386 306.286705 
L 85.095533 300.255732 
L 87.732681 306.286705 
L 90.369829 304.172402 
L 93.006976 289.873155 
L 95.644124 306.286705 
L 98.281272 306.286705 
L 100.918419 151.722918 
L 103.555567 160.583424 
L 108.829862 108.034788 
L 111.46701 88.720112 
L 116.741305 198.585435 
L 119.378453 283.602765 
L 122.0156 235.191789 
L 124.652748 277.089631 
L 127.289896 229.9293 
L 129.927043 260.956657 
L 132.564191 247.709204 
L 135.201339 230.372672 
L 137.838486 210.767386 
L 140.475634 26.190667 
L 143.112781 62.369431 
L 145.749929 78.811564 
L 148.387077 82.992797 
L 151.024224 84.081698 
L 153.661372 84.012145 
L 156.29852 83.30572 
L 158.935667 84.934358 
L 161.572815 85.670704 
L 174.758553 144.184043 
L 177.395701 155.911053 
L 180.032848 220.57497 
L 185.307144 246.575343 
L 187.944291 136.164785 
L 198.492882 184.329529 
L 201.13003 196.687793 
L 203.767177 274.9085 
L 206.404325 273.454848 
L 216.952915 273.454848 
L 219.590063 254.043477 
L 222.227211 267.989785 
L 224.864358 273.454848 
L 256.51013 273.454848 
L 259.147278 181.366351 
L 261.784425 193.04081 
L 264.421573 287.139616 
L 267.05872 273.454848 
L 293.430197 273.454848 
L 296.067345 288.254546 
L 298.704492 257.051188 
L 301.34164 271.052213 
L 303.978787 273.454848 
L 311.89023 273.454848 
L 314.527378 301.168675 
L 317.164526 273.454848 
L 335.624559 273.454848 
L 338.261707 256.194775 
L 340.898854 270.157555 
L 343.536002 289.597318 
L 346.17315 273.454848 
L 375.181774 273.454848 
L 377.818921 242.987288 
L 383.093217 270.582839 
L 385.730364 273.454848 
L 396.278955 273.454848 
L 398.916102 288.598586 
L 401.55325 273.454848 
L 404.190398 273.454848 
L 404.190398 273.454848 
" clip-path="url(#p67b19cc6b0)" style="fill: none; stroke: #e377c2; stroke-width: 1.5; stroke-linecap: square"/>
   </g>
   <g id="line2d_36">
    <path d="M 63.998352 68.340636 
L 66.6355 87.305107 
L 69.272648 108.185877 
L 71.909795 129.952071 
L 74.546943 152.21761 
L 77.18409 174.806002 
L 79.821238 197.626031 
L 82.458386 220.626813 
L 85.095533 281.626645 
L 87.732681 261.933358 
L 90.369829 306.286705 
L 93.006976 287.271345 
L 95.644124 306.286705 
L 98.281272 272.390491 
L 100.918419 221.679507 
L 103.555567 286.099979 
L 106.192714 306.286705 
L 108.829862 250.352663 
L 111.46701 286.802774 
L 114.104157 204.203677 
L 116.741305 29.756795 
L 119.378453 52.380393 
L 122.0156 112.65263 
L 124.652748 99.734342 
L 127.289896 123.964633 
L 129.927043 148.607396 
L 132.564191 173.820958 
L 135.201339 199.944914 
L 137.838486 227.782429 
L 140.475634 91.465035 
L 143.112781 112.054646 
L 145.749929 133.792764 
L 148.387077 156.276211 
L 151.024224 179.376337 
L 153.661372 203.148264 
L 156.29852 100.145199 
L 158.935667 111.481623 
L 161.572815 137.306946 
L 164.209963 156.571671 
L 166.84711 70.231653 
L 169.484258 99.095691 
L 172.121405 127.484065 
L 174.758553 156.201774 
L 177.395701 185.084973 
L 180.032848 148.960256 
L 182.669996 171.21894 
L 185.307144 56.857349 
L 187.944291 53.096619 
L 190.581439 87.232656 
L 193.218587 118.680908 
L 195.855734 148.806725 
L 198.492882 178.516159 
L 201.13003 208.733702 
L 203.767177 241.04245 
L 206.404325 285.233379 
L 209.041472 306.286705 
L 211.67862 306.286705 
L 214.315768 306.286705 
L 216.952915 100.777333 
L 219.590063 123.945169 
L 222.227211 146.86497 
L 224.864358 170.500158 
L 227.501506 194.956126 
L 230.138654 130.174265 
L 232.775801 156.331648 
L 235.412949 182.393331 
L 238.050096 208.354326 
L 240.687244 211.991594 
L 243.324392 249.653325 
L 245.961539 293.973927 
L 248.598687 306.286705 
L 251.235835 210.814377 
L 253.872982 117.147455 
L 256.51013 85.715738 
L 259.147278 110.284696 
L 261.784425 134.004713 
L 264.421573 242.636282 
L 267.05872 164.11263 
L 269.695868 138.757357 
L 272.333016 168.829704 
L 274.970163 199.116372 
L 277.607311 230.929701 
L 280.244459 267.32808 
L 282.881606 195.169382 
L 285.518754 87.498391 
" clip-path="url(#p67b19cc6b0)" style="fill: none; stroke: #7f7f7f; stroke-width: 1.5; stroke-linecap: square"/>
   </g>
   <g id="line2d_37">
    <path d="M 63.998352 212.970066 
L 66.6355 230.131128 
L 69.272648 302.072501 
L 71.909795 306.286705 
L 74.546943 301.557661 
L 77.18409 306.286705 
L 79.821238 306.286705 
L 82.458386 294.240376 
L 85.095533 306.286705 
L 87.732681 306.286705 
L 90.369829 300.144572 
L 93.006976 306.286705 
L 95.644124 306.286705 
L 98.281272 305.072454 
L 100.918419 71.908713 
L 103.555567 86.075848 
L 106.192714 104.351432 
L 108.829862 124.34397 
L 114.104157 166.471255 
L 119.378453 209.130381 
L 122.0156 137.371927 
L 127.289896 182.513495 
L 132.564191 229.283137 
L 135.201339 286.092222 
L 137.838486 306.286705 
L 140.475634 306.286705 
L 143.112781 296.547978 
L 145.749929 306.286705 
L 148.387077 282.353672 
L 151.024224 306.286705 
L 156.29852 306.286705 
L 158.935667 297.581993 
L 161.572815 306.286705 
L 166.84711 306.286705 
L 169.484258 303.575413 
L 172.121405 306.286705 
L 177.395701 306.286705 
L 180.032848 71.489842 
L 190.581439 184.838691 
L 193.218587 216.009141 
L 195.855734 79.349247 
L 198.492882 107.853615 
L 203.767177 160.807802 
L 206.404325 186.231727 
L 209.041472 238.199998 
L 211.67862 281.028855 
L 214.315768 306.286705 
L 216.952915 292.085162 
L 219.590063 37.777592 
L 222.227211 70.828669 
L 224.864358 100.886967 
L 235.412949 214.721512 
L 238.050096 123.108392 
L 243.324392 176.729025 
L 245.961539 205.428428 
L 248.598687 241.572922 
L 251.235835 285.252859 
L 253.872982 306.286705 
L 256.51013 302.032612 
L 259.147278 95.994609 
L 264.421573 147.73605 
L 267.05872 173.8834 
L 269.695868 201.258155 
L 272.333016 82.711578 
L 274.970163 37.669491 
L 277.607311 75.138246 
L 280.244459 109.242875 
L 288.155902 206.144339 
L 290.793049 240.989321 
L 293.430197 281.974898 
L 296.067345 186.606639 
L 298.704492 122.100808 
L 303.978787 171.70921 
L 306.615935 198.033136 
L 309.253083 65.639688 
L 311.89023 92.273305 
L 317.164526 156.823508 
L 322.438821 221.419313 
L 325.075969 257.820896 
L 327.713116 235.939146 
L 330.350264 276.773237 
L 332.987411 281.540986 
L 335.624559 306.286705 
L 338.261707 69.044945 
L 348.810297 185.953561 
L 351.447445 217.966628 
L 354.084593 119.906678 
L 356.72174 70.042388 
L 359.358888 104.766354 
L 369.907478 236.374356 
L 372.544626 242.746545 
L 375.181774 287.513863 
L 377.818921 260.287716 
L 380.456069 252.444109 
L 383.093217 297.909108 
L 385.730364 306.286705 
L 388.367512 289.797728 
L 391.00466 306.286705 
L 393.641807 306.286705 
L 396.278955 298.163568 
L 398.916102 306.286705 
L 404.190398 306.286705 
L 404.190398 306.286705 
" clip-path="url(#p67b19cc6b0)" style="fill: none; stroke: #bcbd22; stroke-width: 1.5; stroke-linecap: square"/>
   </g>
   <g id="line2d_38">
    <path d="M 63.998352 206.406896 
L 66.6355 213.917662 
L 69.272648 305.062776 
L 71.909795 306.286705 
L 74.546943 281.049174 
L 77.18409 306.286705 
L 79.821238 304.197269 
L 82.458386 306.286705 
L 85.095533 305.988586 
L 87.732681 306.286705 
L 90.369829 290.340558 
L 93.006976 306.286705 
L 95.644124 295.2597 
L 98.281272 306.286705 
L 100.918419 262.024224 
L 103.555567 306.286705 
L 106.192714 280.449427 
L 108.829862 299.534302 
L 111.46701 306.286705 
L 114.104157 302.783504 
L 116.741305 306.286705 
L 119.378453 304.812179 
L 122.0156 288.222154 
L 124.652748 306.286705 
L 127.289896 297.021775 
L 129.927043 306.286705 
L 132.564191 301.635082 
L 135.201339 306.286705 
L 137.838486 304.172009 
L 140.475634 179.584374 
L 143.112781 291.735657 
L 145.749929 285.278984 
L 148.387077 306.286705 
L 151.024224 299.568191 
L 153.661372 306.286705 
L 156.29852 283.560032 
L 158.935667 306.286705 
L 161.572815 300.748721 
L 164.209963 306.286705 
L 166.84711 306.286705 
L 169.484258 292.392728 
L 172.121405 306.286705 
L 174.758553 306.286705 
L 177.395701 299.137672 
L 180.032848 177.962207 
L 182.669996 294.238305 
L 185.307144 268.227786 
L 187.944291 306.286705 
L 190.581439 306.286705 
L 193.218587 293.28894 
L 195.855734 306.286705 
L 198.492882 306.286705 
L 201.13003 306.286705 
L 203.767177 301.035111 
L 206.404325 306.286705 
L 209.041472 306.286705 
L 211.67862 306.286705 
L 214.315768 292.611136 
L 216.952915 306.286705 
L 219.590063 285.200432 
L 222.227211 306.286705 
L 224.864358 306.286705 
L 227.501506 270.276788 
L 230.138654 306.286705 
" clip-path="url(#p67b19cc6b0)" style="fill: none; stroke: #17becf; stroke-width: 1.5; stroke-linecap: square"/>
   </g>
   <g id="patch_3">
    <path d="M 46.98875 320.3575 
L 46.98875 10.8 
" style="fill: none; stroke: #000000; stroke-width: 0.8; stroke-linejoin: miter; stroke-linecap: square"/>
   </g>
   <g id="patch_4">
    <path d="M 421.2 320.3575 
L 421.2 10.8 
" style="fill: none; stroke: #000000; stroke-width: 0.8; stroke-linejoin: miter; stroke-linecap: square"/>
   </g>
   <g id="patch_5">
    <path d="M 46.98875 320.3575 
L 421.2 320.3575 
" style="fill: none; stroke: #000000; stroke-width: 0.8; stroke-linejoin: miter; stroke-linecap: square"/>
   </g>
   <g id="patch_6">
    <path d="M 46.98875 10.8 
L 421.2 10.8 
" style="fill: none; stroke: #000000; stroke-width: 0.8; stroke-linejoin: miter; stroke-linecap: square"/>
   </g>
   <g id="legend_1">
    <g id="patch_7">
     <path d="M 342.2 162.253125 
L 414.2 162.253125 
Q 416.2 162.253125 416.2 160.253125 
L 416.2 17.8 
Q 416.2 15.8 414.2 15.8 
L 342.2 15.8 
Q 340.2 15.8 340.2 17.8 
L 340.2 160.253125 
Q 340.2 162.253125 342.2 162.253125 
z
" style="fill: #ffffff; opacity: 0.8; stroke: #cccccc; stroke-linejoin: miter"/>
    </g>
    <g id="line2d_39">
     <path d="M 344.2 24.776563 
L 354.2 24.776563 
L 364.2 24.776563 
" style="fill: none; stroke: #1f77b4; stroke-width: 1.5; stroke-linecap: square"/>
    </g>
    <g id="text_17">
     <!-- 无人机 0 -->
     <g transform="translate(372.2 28.276563) scale(0.1 -0.1)">
      <defs>
       <path id="UMingCN-65e0" d="M 4650 4744 
Q 4738 4750 4838 4863 
L 5000 5094 
Q 5044 5150 5100 5094 
Q 5544 4700 5538 4606 
Q 5525 4556 5444 4550 
L 4663 4550 
L 3138 4550 
Q 3094 3725 3000 3044 
L 5150 3044 
Q 5238 3050 5338 3163 
L 5500 3394 
Q 5544 3450 5600 3394 
Q 6044 3000 6038 2906 
Q 6025 2856 5944 2850 
L 5163 2850 
L 3775 2850 
L 3775 31 
Q 3781 -44 3788 -69 
Q 3800 -94 3894 -94 
L 5394 -94 
Q 5500 -81 5544 -56 
Q 5738 63 5813 944 
Q 5819 1031 5900 1025 
Q 5981 1019 5975 925 
Q 5906 363 5944 175 
Q 5988 38 6088 -25 
Q 6125 -56 6100 -94 
Q 5956 -338 5525 -356 
L 3863 -356 
Q 3594 -356 3538 -281 
Q 3475 -206 3475 -50 
L 3475 2850 
L 2969 2850 
Q 2750 1544 2238 806 
Q 1688 81 413 -500 
Q 281 -556 256 -475 
Q 238 -394 356 -338 
Q 1294 63 1894 775 
Q 2463 1519 2675 2850 
L 994 2850 
Q 731 2844 538 2806 
Q 481 2788 475 2844 
Q 444 2956 350 3038 
Q 300 3081 325 3106 
Q 350 3125 394 3100 
Q 631 3044 919 3044 
L 2700 3044 
Q 2794 3725 2800 4550 
L 1619 4550 
Q 1356 4544 1163 4506 
Q 1106 4488 1100 4544 
Q 1069 4656 975 4738 
Q 925 4781 950 4806 
Q 975 4825 1019 4800 
Q 1256 4744 1544 4744 
L 4650 4744 
z
" transform="scale(0.015625)"/>
       <path id="UMingCN-4eba" d="M 3675 3088 
Q 3888 2269 4206 1700 
Q 4600 1025 5106 556 
Q 5525 181 6094 -106 
Q 6138 -125 6181 -150 
Q 6219 -169 6200 -225 
Q 6181 -275 6106 -256 
Q 6006 -231 5875 -275 
Q 5731 -331 5650 -413 
Q 5613 -438 5569 -394 
Q 4963 119 4563 613 
Q 4219 1031 3994 1500 
Q 3713 2081 3519 2925 
Q 3363 3556 3263 4250 
Q 3125 2919 2875 2163 
Q 2606 1331 2119 763 
Q 1544 94 319 -450 
Q 238 -488 213 -413 
Q 181 -344 263 -300 
Q 1431 294 2038 1088 
Q 2606 1844 2819 3144 
Q 3006 4281 2981 5225 
Q 2975 5269 3000 5288 
Q 3025 5300 3069 5294 
Q 3350 5219 3575 5119 
Q 3619 5094 3613 5069 
Q 3606 5050 3563 5031 
Q 3388 4988 3363 4963 
Q 3338 4944 3331 4919 
Q 3444 4044 3675 3088 
z
" transform="scale(0.015625)"/>
       <path id="UMingCN-673a" d="M 4600 4850 
L 3431 4850 
L 3431 3844 
Q 3431 2569 3338 1706 
Q 3269 969 3000 513 
Q 2694 -25 2131 -444 
Q 2050 -500 2006 -438 
Q 1969 -375 2025 -331 
Q 2475 75 2700 475 
Q 2944 925 3044 1663 
Q 3131 2375 3131 3563 
L 3131 4694 
Q 3125 4931 3069 5181 
Q 3063 5231 3088 5250 
Q 3119 5256 3163 5213 
Q 3250 5125 3388 5044 
L 4500 5044 
Q 4544 5050 4563 5075 
L 4744 5263 
Q 4763 5288 4788 5288 
Q 4806 5281 4831 5256 
Q 4988 5100 5106 4944 
Q 5138 4900 5100 4881 
Q 4938 4806 4919 4781 
Q 4900 4750 4900 4725 
L 4900 156 
Q 4900 25 4963 -19 
Q 5019 -75 5119 -75 
Q 5194 -75 5231 -75 
L 5525 -75 
Q 5613 -75 5675 -38 
Q 5744 0 5788 138 
Q 5888 413 6000 1013 
Q 6006 1088 6069 1081 
Q 6131 1069 6125 1006 
Q 6069 475 6113 231 
Q 6138 88 6213 44 
Q 6244 25 6219 -13 
Q 6156 -194 6044 -269 
Q 5906 -375 5700 -375 
L 5088 -375 
Q 5050 -375 4956 -375 
Q 4825 -375 4713 -275 
Q 4600 -181 4600 88 
L 4600 4850 
z
M 1675 969 
Q 1675 188 1700 -344 
Q 1700 -400 1656 -406 
L 1381 -519 
Q 1325 -531 1331 -431 
Q 1369 400 1375 969 
L 1375 2556 
Q 1431 2913 1469 3238 
Q 1475 3269 1450 3275 
Q 1419 3281 1413 3256 
Q 1363 2963 1300 2656 
Q 1213 2450 1081 2169 
Q 856 1694 350 1000 
Q 288 925 244 981 
Q 194 1025 231 1081 
Q 669 1681 975 2506 
Q 1225 3194 1325 3725 
L 788 3725 
Q 619 3725 406 3681 
Q 375 3675 369 3694 
Q 288 3813 225 3913 
Q 188 3975 269 3956 
Q 650 3925 694 3919 
L 1375 3919 
L 1375 4513 
Q 1369 5013 1344 5313 
Q 1338 5425 1400 5400 
Q 1750 5288 1881 5213 
Q 1950 5163 1888 5138 
Q 1694 5031 1688 5006 
Q 1675 4981 1675 4513 
L 1675 3919 
L 2125 3919 
Q 2163 3919 2200 3963 
L 2425 4219 
Q 2469 4263 2513 4219 
Q 2675 4056 2788 3919 
Q 2856 3831 2813 3769 
Q 2781 3731 2700 3725 
L 1675 3725 
L 1675 3038 
Q 1694 3031 1700 3025 
Q 2125 2800 2356 2588 
Q 2531 2438 2538 2338 
Q 2544 2188 2463 2094 
Q 2375 2000 2338 2000 
Q 2300 1994 2244 2125 
Q 2113 2369 1975 2563 
Q 1831 2756 1675 2875 
L 1675 969 
z
" transform="scale(0.015625)"/>
       <path id="UMingCN-20" transform="scale(0.015625)"/>
      </defs>
      <use xlink:href="#UMingCN-65e0"/>
      <use xlink:href="#UMingCN-4eba" x="100"/>
      <use xlink:href="#UMingCN-673a" x="200"/>
      <use xlink:href="#UMingCN-20" x="300"/>
      <use xlink:href="#UMingCN-30" x="350"/>
     </g>
    </g>
    <g id="line2d_40">
     <path d="M 344.2 39.121875 
L 354.2 39.121875 
L 364.2 39.121875 
" style="fill: none; stroke: #ff7f0e; stroke-width: 1.5; stroke-linecap: square"/>
    </g>
    <g id="text_18">
     <!-- 无人机 1 -->
     <g transform="translate(372.2 42.621875) scale(0.1 -0.1)">
      <use xlink:href="#UMingCN-65e0"/>
      <use xlink:href="#UMingCN-4eba" x="100"/>
      <use xlink:href="#UMingCN-673a" x="200"/>
      <use xlink:href="#UMingCN-20" x="300"/>
      <use xlink:href="#UMingCN-31" x="350"/>
     </g>
    </g>
    <g id="line2d_41">
     <path d="M 344.2 53.467188 
L 354.2 53.467188 
L 364.2 53.467188 
" style="fill: none; stroke: #2ca02c; stroke-width: 1.5; stroke-linecap: square"/>
    </g>
    <g id="text_19">
     <!-- 无人机 2 -->
     <g transform="translate(372.2 56.967188) scale(0.1 -0.1)">
      <use xlink:href="#UMingCN-65e0"/>
      <use xlink:href="#UMingCN-4eba" x="100"/>
      <use xlink:href="#UMingCN-673a" x="200"/>
      <use xlink:href="#UMingCN-20" x="300"/>
      <use xlink:href="#UMingCN-32" x="350"/>
     </g>
    </g>
    <g id="line2d_42">
     <path d="M 344.2 67.8125 
L 354.2 67.8125 
L 364.2 67.8125 
" style="fill: none; stroke: #d62728; stroke-width: 1.5; stroke-linecap: square"/>
    </g>
    <g id="text_20">
     <!-- 无人机 3 -->
     <g transform="translate(372.2 71.3125) scale(0.1 -0.1)">
      <use xlink:href="#UMingCN-65e0"/>
      <use xlink:href="#UMingCN-4eba" x="100"/>
      <use xlink:href="#UMingCN-673a" x="200"/>
      <use xlink:href="#UMingCN-20" x="300"/>
      <use xlink:href="#UMingCN-33" x="350"/>
     </g>
    </g>
    <g id="line2d_43">
     <path d="M 344.2 82.157812 
L 354.2 82.157812 
L 364.2 82.157812 
" style="fill: none; stroke: #9467bd; stroke-width: 1.5; stroke-linecap: square"/>
    </g>
    <g id="text_21">
     <!-- 无人机 4 -->
     <g transform="translate(372.2 85.657812) scale(0.1 -0.1)">
      <use xlink:href="#UMingCN-65e0"/>
      <use xlink:href="#UMingCN-4eba" x="100"/>
      <use xlink:href="#UMingCN-673a" x="200"/>
      <use xlink:href="#UMingCN-20" x="300"/>
      <use xlink:href="#UMingCN-34" x="350"/>
     </g>
    </g>
    <g id="line2d_44">
     <path d="M 344.2 96.503125 
L 354.2 96.503125 
L 364.2 96.503125 
" style="fill: none; stroke: #8c564b; stroke-width: 1.5; stroke-linecap: square"/>
    </g>
    <g id="text_22">
     <!-- 无人机 5 -->
     <g transform="translate(372.2 100.003125) scale(0.1 -0.1)">
      <use xlink:href="#UMingCN-65e0"/>
      <use xlink:href="#UMingCN-4eba" x="100"/>
      <use xlink:href="#UMingCN-673a" x="200"/>
      <use xlink:href="#UMingCN-20" x="300"/>
      <use xlink:href="#UMingCN-35" x="350"/>
     </g>
    </g>
    <g id="line2d_45">
     <path d="M 344.2 110.848438 
L 354.2 110.848438 
L 364.2 110.848438 
" style="fill: none; stroke: #e377c2; stroke-width: 1.5; stroke-linecap: square"/>
    </g>
    <g id="text_23">
     <!-- 无人机 6 -->
     <g transform="translate(372.2 114.348438) scale(0.1 -0.1)">
      <use xlink:href="#UMingCN-65e0"/>
      <use xlink:href="#UMingCN-4eba" x="100"/>
      <use xlink:href="#UMingCN-673a" x="200"/>
      <use xlink:href="#UMingCN-20" x="300"/>
      <use xlink:href="#UMingCN-36" x="350"/>
     </g>
    </g>
    <g id="line2d_46">
     <path d="M 344.2 125.19375 
L 354.2 125.19375 
L 364.2 125.19375 
" style="fill: none; stroke: #7f7f7f; stroke-width: 1.5; stroke-linecap: square"/>
    </g>
    <g id="text_24">
     <!-- 无人机 7 -->
     <g transform="translate(372.2 128.69375) scale(0.1 -0.1)">
      <defs>
       <path id="UMingCN-37" d="M 2875 4338 
L 2875 4119 
Q 2113 3056 1863 2438 
Q 1606 1813 1606 700 
Q 1606 544 1550 481 
Q 1494 413 1413 413 
Q 1319 413 1275 475 
Q 1231 544 1231 700 
Q 1231 1600 1550 2319 
Q 1994 3350 2606 4031 
L 1919 4025 
Q 1338 4019 1006 3863 
Q 713 3725 413 3094 
L 313 3125 
L 663 4338 
L 2875 4338 
z
" transform="scale(0.015625)"/>
      </defs>
      <use xlink:href="#UMingCN-65e0"/>
      <use xlink:href="#UMingCN-4eba" x="100"/>
      <use xlink:href="#UMingCN-673a" x="200"/>
      <use xlink:href="#UMingCN-20" x="300"/>
      <use xlink:href="#UMingCN-37" x="350"/>
     </g>
    </g>
    <g id="line2d_47">
     <path d="M 344.2 139.539063 
L 354.2 139.539063 
L 364.2 139.539063 
" style="fill: none; stroke: #bcbd22; stroke-width: 1.5; stroke-linecap: square"/>
    </g>
    <g id="text_25">
     <!-- 无人机 8 -->
     <g transform="translate(372.2 143.039063) scale(0.1 -0.1)">
      <use xlink:href="#UMingCN-65e0"/>
      <use xlink:href="#UMingCN-4eba" x="100"/>
      <use xlink:href="#UMingCN-673a" x="200"/>
      <use xlink:href="#UMingCN-20" x="300"/>
      <use xlink:href="#UMingCN-38" x="350"/>
     </g>
    </g>
    <g id="line2d_48">
     <path d="M 344.2 153.884375 
L 354.2 153.884375 
L 364.2 153.884375 
" style="fill: none; stroke: #17becf; stroke-width: 1.5; stroke-linecap: square"/>
    </g>
    <g id="text_26">
     <!-- 无人机 9 -->
     <g transform="translate(372.2 157.384375) scale(0.1 -0.1)">
      <defs>
       <path id="UMingCN-39" d="M 2431 1044 
Q 2013 413 1356 413 
Q 1031 413 744 619 
Q 450 825 450 1106 
Q 450 1194 525 1256 
Q 594 1306 656 1306 
Q 738 1306 794 1250 
Q 856 1188 856 1106 
Q 856 981 819 900 
Q 788 825 950 694 
Q 1131 550 1356 550 
Q 1806 550 2169 1038 
Q 2531 1531 2569 2469 
Q 1919 1906 1375 1900 
Q 975 1900 663 2188 
Q 313 2500 313 3181 
Q 313 3719 694 4075 
Q 1044 4400 1569 4400 
Q 2131 4400 2525 3931 
Q 2894 3494 2894 2725 
Q 2894 1744 2431 1044 
z
M 2569 2725 
Q 2569 3519 2281 3875 
Q 1981 4225 1569 4225 
Q 1181 4225 894 3981 
Q 638 3731 638 3181 
Q 638 2619 869 2388 
Q 1106 2150 1506 2150 
Q 1869 2150 2569 2669 
Q 2569 2700 2569 2725 
z
" transform="scale(0.015625)"/>
      </defs>
      <use xlink:href="#UMingCN-65e0"/>
      <use xlink:href="#UMingCN-4eba" x="100"/>
      <use xlink:href="#UMingCN-673a" x="200"/>
      <use xlink:href="#UMingCN-20" x="300"/>
      <use xlink:href="#UMingCN-39" x="350"/>
     </g>
    </g>
   </g>
  </g>
 </g>
 <defs>
  <clipPath id="p67b19cc6b0">
   <rect x="46.98875" y="10.8" width="374.21125" height="309.5575"/>
  </clipPath>
 </defs>
</svg>
