<?xml version="1.0" encoding="utf-8" standalone="no"?>
<!DOCTYPE svg PUBLIC "-//W3C//DTD SVG 1.1//EN"
  "http://www.w3.org/Graphics/SVG/1.1/DTD/svg11.dtd">
<svg xmlns:xlink="http://www.w3.org/1999/xlink" width="432pt" height="360pt" viewBox="0 0 432 360" xmlns="http://www.w3.org/2000/svg" version="1.1">
 <metadata>
  <rdf:RDF xmlns:dc="http://purl.org/dc/elements/1.1/" xmlns:cc="http://creativecommons.org/ns#" xmlns:rdf="http://www.w3.org/1999/02/22-rdf-syntax-ns#">
   <cc:Work>
    <dc:type rdf:resource="http://purl.org/dc/dcmitype/StillImage"/>
    <dc:date>2025-06-03T10:22:50.474444</dc:date>
    <dc:format>image/svg+xml</dc:format>
    <dc:creator>
     <cc:Agent>
      <dc:title>Matplotlib v3.9.4, https://matplotlib.org/</dc:title>
     </cc:Agent>
    </dc:creator>
   </cc:Work>
  </rdf:RDF>
 </metadata>
 <defs>
  <style type="text/css">*{stroke-linejoin: round; stroke-linecap: butt}</style>
 </defs>
 <g id="figure_1">
  <g id="patch_1">
   <path d="M 0 360 
L 432 360 
L 432 0 
L 0 0 
z
" style="fill: #ffffff"/>
  </g>
  <g id="axes_1">
   <g id="patch_2">
    <path d="M 46.98875 320.3575 
L 421.2 320.3575 
L 421.2 10.8 
L 46.98875 10.8 
z
" style="fill: #ffffff"/>
   </g>
   <g id="matplotlib.axis_1">
    <g id="xtick_1">
     <g id="line2d_1">
      <path d="M 63.998352 320.3575 
L 63.998352 10.8 
" clip-path="url(#p0ebe8afe2d)" style="fill: none; stroke: #b0b0b0; stroke-opacity: 0.3; stroke-width: 0.8; stroke-linecap: square"/>
     </g>
     <g id="line2d_2">
      <defs>
       <path id="m0358eb5f7c" d="M 0 0 
L 0 3.5 
" style="stroke: #000000; stroke-width: 0.8"/>
      </defs>
      <g>
       <use xlink:href="#m0358eb5f7c" x="63.998352" y="320.3575" style="stroke: #000000; stroke-width: 0.8"/>
      </g>
     </g>
     <g id="text_1">
      <!-- 0 -->
      <g transform="translate(61.498352 334.2325) scale(0.1 -0.1)">
       <defs>
        <path id="UMingCN-30" d="M 691 997 
Q 313 1581 313 2406 
Q 313 3231 691 3815 
Q 1069 4400 1600 4400 
Q 2131 4400 2509 3815 
Q 2888 3231 2888 2406 
Q 2888 1581 2509 997 
Q 2131 413 1600 413 
Q 1069 413 691 997 
z
M 919 3690 
Q 638 3156 638 2406 
Q 638 1656 919 1122 
Q 1200 588 1600 588 
Q 2000 588 2281 1122 
Q 2563 1656 2563 2406 
Q 2563 3156 2281 3690 
Q 2000 4225 1600 4225 
Q 1200 4225 919 3690 
z
" transform="scale(0.015625)"/>
       </defs>
       <use xlink:href="#UMingCN-30"/>
      </g>
     </g>
    </g>
    <g id="xtick_2">
     <g id="line2d_3">
      <path d="M 130.05506 320.3575 
L 130.05506 10.8 
" clip-path="url(#p0ebe8afe2d)" style="fill: none; stroke: #b0b0b0; stroke-opacity: 0.3; stroke-width: 0.8; stroke-linecap: square"/>
     </g>
     <g id="line2d_4">
      <g>
       <use xlink:href="#m0358eb5f7c" x="130.05506" y="320.3575" style="stroke: #000000; stroke-width: 0.8"/>
      </g>
     </g>
     <g id="text_2">
      <!-- 2 -->
      <g transform="translate(127.55506 334.2325) scale(0.1 -0.1)">
       <defs>
        <path id="UMingCN-32" d="M 531 475 
L 319 475 
Q 319 975 606 1300 
Q 900 1694 1744 2281 
Q 2594 2844 2594 3319 
Q 2594 3738 2250 4006 
Q 1969 4225 1594 4225 
Q 1225 4225 994 4094 
Q 725 3938 700 3819 
Q 675 3706 731 3606 
Q 794 3488 794 3313 
Q 794 3256 731 3194 
Q 669 3131 588 3131 
Q 481 3131 406 3206 
Q 331 3288 331 3406 
Q 331 3788 719 4106 
Q 1081 4400 1594 4400 
Q 2206 4400 2556 4088 
Q 2919 3750 2919 3319 
Q 2919 2775 1825 2113 
Q 1088 1638 819 1294 
Q 606 1075 550 756 
L 1831 756 
Q 2469 756 2806 1244 
L 2881 1213 
L 2613 475 
L 531 475 
z
" transform="scale(0.015625)"/>
       </defs>
       <use xlink:href="#UMingCN-32"/>
      </g>
     </g>
    </g>
    <g id="xtick_3">
     <g id="line2d_5">
      <path d="M 196.111768 320.3575 
L 196.111768 10.8 
" clip-path="url(#p0ebe8afe2d)" style="fill: none; stroke: #b0b0b0; stroke-opacity: 0.3; stroke-width: 0.8; stroke-linecap: square"/>
     </g>
     <g id="line2d_6">
      <g>
       <use xlink:href="#m0358eb5f7c" x="196.111768" y="320.3575" style="stroke: #000000; stroke-width: 0.8"/>
      </g>
     </g>
     <g id="text_3">
      <!-- 4 -->
      <g transform="translate(193.611768 334.2325) scale(0.1 -0.1)">
       <defs>
        <path id="UMingCN-34" d="M 2263 1538 
L 2994 1538 
L 2994 1294 
L 2263 1294 
L 2263 938 
Q 2263 581 2844 581 
L 2844 475 
L 1375 475 
L 1375 581 
Q 1956 581 1956 938 
L 1956 1294 
L 206 1294 
L 206 1581 
L 2119 4338 
L 2263 4338 
L 2263 1538 
z
M 1956 1538 
L 1956 3894 
L 350 1538 
L 1956 1538 
z
" transform="scale(0.015625)"/>
       </defs>
       <use xlink:href="#UMingCN-34"/>
      </g>
     </g>
    </g>
    <g id="xtick_4">
     <g id="line2d_7">
      <path d="M 262.168476 320.3575 
L 262.168476 10.8 
" clip-path="url(#p0ebe8afe2d)" style="fill: none; stroke: #b0b0b0; stroke-opacity: 0.3; stroke-width: 0.8; stroke-linecap: square"/>
     </g>
     <g id="line2d_8">
      <g>
       <use xlink:href="#m0358eb5f7c" x="262.168476" y="320.3575" style="stroke: #000000; stroke-width: 0.8"/>
      </g>
     </g>
     <g id="text_4">
      <!-- 6 -->
      <g transform="translate(259.668476 334.2325) scale(0.1 -0.1)">
       <defs>
        <path id="UMingCN-36" d="M 775 3769 
Q 1194 4400 1850 4400 
Q 2175 4400 2463 4194 
Q 2756 3988 2756 3706 
Q 2756 3619 2681 3556 
Q 2613 3506 2550 3506 
Q 2469 3506 2413 3563 
Q 2350 3625 2350 3706 
Q 2350 3831 2388 3913 
Q 2419 3988 2256 4119 
Q 2075 4263 1850 4263 
Q 1400 4263 1038 3775 
Q 675 3281 638 2344 
Q 1288 2906 1831 2913 
Q 2231 2913 2544 2625 
Q 2894 2313 2894 1631 
Q 2894 1094 2513 738 
Q 2163 413 1638 413 
Q 1075 413 681 881 
Q 313 1319 313 2088 
Q 313 3069 775 3769 
z
M 638 2088 
Q 638 1294 925 938 
Q 1225 588 1638 588 
Q 2025 588 2313 831 
Q 2569 1081 2569 1631 
Q 2569 2194 2338 2425 
Q 2100 2663 1700 2663 
Q 1338 2663 638 2144 
Q 638 2113 638 2088 
z
" transform="scale(0.015625)"/>
       </defs>
       <use xlink:href="#UMingCN-36"/>
      </g>
     </g>
    </g>
    <g id="xtick_5">
     <g id="line2d_9">
      <path d="M 328.225184 320.3575 
L 328.225184 10.8 
" clip-path="url(#p0ebe8afe2d)" style="fill: none; stroke: #b0b0b0; stroke-opacity: 0.3; stroke-width: 0.8; stroke-linecap: square"/>
     </g>
     <g id="line2d_10">
      <g>
       <use xlink:href="#m0358eb5f7c" x="328.225184" y="320.3575" style="stroke: #000000; stroke-width: 0.8"/>
      </g>
     </g>
     <g id="text_5">
      <!-- 8 -->
      <g transform="translate(325.725184 334.2325) scale(0.1 -0.1)">
       <defs>
        <path id="UMingCN-38" d="M 1600 413 
Q 1025 413 625 725 
Q 256 1013 256 1425 
Q 256 1669 469 1956 
Q 631 2194 1219 2463 
Q 831 2669 675 2863 
Q 431 3138 431 3425 
Q 431 3850 788 4138 
Q 1113 4400 1600 4400 
Q 1963 4400 2325 4169 
Q 2725 3913 2725 3500 
Q 2725 3281 2563 3075 
Q 2394 2856 1813 2563 
Q 2513 2263 2738 1981 
Q 2944 1738 2944 1488 
Q 2944 1063 2606 769 
Q 2200 413 1600 413 
z
M 2456 1788 
Q 2256 2000 1669 2256 
Q 1525 2319 1413 2369 
Q 869 2100 744 1900 
Q 581 1644 581 1425 
Q 581 1088 850 856 
Q 1163 588 1600 588 
Q 1950 588 2325 813 
Q 2619 1006 2619 1406 
Q 2619 1606 2456 1788 
z
M 875 3094 
Q 1050 2888 1631 2638 
Q 2113 2863 2281 3081 
Q 2456 3313 2456 3563 
Q 2456 3838 2200 4044 
Q 1975 4225 1600 4225 
Q 1219 4225 950 4019 
Q 700 3813 700 3531 
Q 700 3300 875 3094 
z
" transform="scale(0.015625)"/>
       </defs>
       <use xlink:href="#UMingCN-38"/>
      </g>
     </g>
    </g>
    <g id="xtick_6">
     <g id="line2d_11">
      <path d="M 394.281892 320.3575 
L 394.281892 10.8 
" clip-path="url(#p0ebe8afe2d)" style="fill: none; stroke: #b0b0b0; stroke-opacity: 0.3; stroke-width: 0.8; stroke-linecap: square"/>
     </g>
     <g id="line2d_12">
      <g>
       <use xlink:href="#m0358eb5f7c" x="394.281892" y="320.3575" style="stroke: #000000; stroke-width: 0.8"/>
      </g>
     </g>
     <g id="text_6">
      <!-- 10 -->
      <g transform="translate(389.281892 334.2325) scale(0.1 -0.1)">
       <defs>
        <path id="UMingCN-31" d="M 1806 994 
Q 1806 581 2519 581 
L 2519 475 
L 756 475 
L 756 581 
Q 1481 581 1481 994 
L 1481 3631 
Q 1481 3963 681 3963 
L 681 4069 
L 1738 4338 
L 1806 4338 
L 1806 994 
z
" transform="scale(0.015625)"/>
       </defs>
       <use xlink:href="#UMingCN-31"/>
       <use xlink:href="#UMingCN-30" x="50"/>
      </g>
     </g>
    </g>
    <g id="text_7">
     <!-- 时间/s -->
     <g transform="translate(219.094375 347.227813) scale(0.1 -0.1)">
      <defs>
       <path id="UMingCN-65f6" d="M 1806 1075 
L 769 1075 
Q 769 738 775 469 
Q 769 375 538 219 
Q 488 194 463 194 
Q 425 200 431 319 
Q 456 944 475 1606 
L 475 4306 
Q 469 4506 431 4794 
Q 419 4856 438 4863 
Q 444 4863 688 4669 
L 1656 4669 
Q 1731 4669 1775 4713 
L 1931 4875 
Q 1963 4919 2019 4881 
Q 2213 4738 2350 4619 
Q 2394 4569 2338 4563 
Q 2231 4544 2175 4488 
Q 2125 4431 2125 4369 
L 2125 1894 
Q 2131 1469 2175 850 
Q 2175 769 2113 731 
Q 1831 569 1806 575 
Q 1781 588 1788 688 
Q 1800 863 1806 1075 
z
M 775 1606 
Q 769 1438 769 1269 
L 1813 1269 
Q 1819 1481 1825 1713 
L 1825 2775 
L 775 2775 
L 775 1606 
z
M 775 4475 
L 775 2969 
L 1825 2969 
L 1825 4475 
L 775 4475 
z
M 4925 175 
Q 4913 -56 4813 -213 
Q 4656 -444 4500 -525 
Q 4450 -569 4425 -569 
Q 4394 -569 4369 -438 
Q 4313 -250 4250 -188 
Q 4181 -100 3819 -56 
Q 3719 -44 3725 38 
Q 3731 119 3831 113 
Q 4419 25 4531 63 
Q 4619 100 4625 238 
L 4625 3650 
L 3119 3650 
Q 2856 3644 2663 3606 
Q 2613 3588 2594 3644 
Q 2569 3756 2475 3831 
Q 2431 3875 2450 3900 
Q 2475 3919 2519 3894 
Q 2756 3844 3044 3844 
L 4625 3844 
L 4625 4488 
Q 4619 4988 4600 5294 
Q 4581 5394 4644 5375 
Q 5000 5250 5119 5188 
Q 5194 5138 5100 5094 
Q 4988 5044 4963 4988 
Q 4925 4869 4925 4488 
L 4925 3844 
L 5400 3844 
Q 5438 3844 5475 3888 
L 5700 4144 
Q 5744 4188 5788 4144 
Q 5950 3981 6063 3844 
Q 6131 3756 6088 3694 
Q 6056 3656 5975 3650 
L 5400 3650 
L 4925 3650 
L 4925 175 
z
M 2931 2769 
Q 2900 2813 2938 2850 
Q 2975 2881 3038 2819 
Q 3869 2100 3850 1706 
Q 3850 1588 3731 1419 
Q 3638 1288 3563 1294 
Q 3500 1313 3506 1431 
Q 3438 2069 2931 2769 
z
" transform="scale(0.015625)"/>
       <path id="UMingCN-95f4" d="M 3906 1175 
L 2425 1175 
Q 2419 850 2394 813 
Q 2175 644 2138 638 
Q 2088 644 2094 763 
Q 2119 1144 2125 2031 
L 2125 3306 
Q 2119 3531 2100 3712 
Q 2081 3894 2103 3900 
Q 2125 3906 2184 3843 
Q 2244 3781 2394 3669 
L 3756 3669 
Q 3831 3669 3875 3713 
L 4031 3875 
Q 4063 3919 4119 3881 
Q 4313 3738 4450 3619 
Q 4494 3569 4438 3563 
Q 4331 3544 4278 3487 
Q 4225 3431 4225 3369 
L 4225 2019 
Q 4231 1594 4275 975 
Q 4275 894 4213 856 
Q 3931 694 3906 703 
Q 3881 713 3890 841 
Q 3900 969 3906 1175 
z
M 2425 2375 
L 2425 1369 
L 3913 1369 
Q 3919 1588 3925 1838 
L 3925 2375 
L 2425 2375 
z
M 2425 3475 
L 2425 2569 
L 3925 2569 
L 3925 3475 
L 2425 3475 
z
M 769 4363 
Q 756 4469 831 4444 
Q 1169 4338 1269 4284 
Q 1369 4231 1269 4178 
Q 1169 4125 1134 4034 
Q 1100 3944 1100 3563 
L 1100 1019 
Q 1100 288 1125 -206 
Q 1131 -256 1069 -300 
L 831 -450 
Q 750 -513 756 -381 
Q 794 450 800 1019 
L 800 3563 
Q 794 4063 769 4363 
z
M 1350 5225 
Q 1306 5275 1331 5319 
Q 1375 5369 1450 5306 
Q 2119 4831 2119 4600 
Q 2106 4450 2009 4369 
Q 1913 4288 1875 4291 
Q 1838 4294 1800 4425 
Q 1631 4944 1350 5225 
z
M 3244 4969 
L 5119 4969 
Q 5175 4969 5181 4975 
L 5338 5181 
Q 5350 5206 5375 5206 
Q 5444 5206 5769 4869 
Q 5813 4819 5688 4769 
Q 5563 4719 5544 4687 
Q 5525 4656 5525 4613 
L 5525 88 
Q 5525 -125 5413 -281 
Q 5300 -438 5131 -500 
Q 5075 -525 5050 -469 
Q 4938 -150 4413 -88 
Q 4338 -75 4344 -15 
Q 4350 44 4431 38 
Q 5125 -25 5181 0 
Q 5225 25 5225 156 
L 5225 4775 
L 3319 4775 
Q 3056 4769 2863 4731 
Q 2806 4713 2800 4769 
Q 2769 4881 2697 4943 
Q 2625 5006 2650 5028 
Q 2675 5050 2719 5025 
Q 2956 4969 3244 4969 
z
" transform="scale(0.015625)"/>
       <path id="UMingCN-2f" d="M 2819 5225 
L 3144 5225 
L 375 -475 
L 50 -475 
L 2819 5225 
z
" transform="scale(0.015625)"/>
       <path id="UMingCN-73" d="M 2725 2725 
L 2675 2294 
L 2588 2294 
Q 2406 2681 2194 2800 
Q 1975 2919 1750 2919 
Q 1313 2919 1119 2775 
Q 931 2638 931 2444 
Q 931 2275 1050 2156 
Q 1156 2044 1756 1944 
Q 2400 1844 2619 1638 
Q 2831 1438 2831 1194 
Q 2831 913 2563 669 
Q 2281 413 1756 413 
Q 1194 419 606 750 
L 375 1275 
L 463 1344 
Q 788 931 1094 756 
Q 1388 588 1675 588 
Q 2075 588 2294 763 
Q 2506 931 2506 1119 
Q 2506 1313 2356 1431 
Q 2213 1538 1581 1656 
Q 981 1769 793 1944 
Q 606 2119 606 2363 
Q 606 2681 894 2888 
Q 1188 3094 1663 3094 
Q 2119 3094 2725 2725 
z
" transform="scale(0.015625)"/>
      </defs>
      <use xlink:href="#UMingCN-65f6"/>
      <use xlink:href="#UMingCN-95f4" x="100"/>
      <use xlink:href="#UMingCN-2f" x="200"/>
      <use xlink:href="#UMingCN-73" x="250"/>
     </g>
    </g>
   </g>
   <g id="matplotlib.axis_2">
    <g id="ytick_1">
     <g id="line2d_13">
      <path d="M 46.98875 306.286705 
L 421.2 306.286705 
" clip-path="url(#p0ebe8afe2d)" style="fill: none; stroke: #b0b0b0; stroke-opacity: 0.3; stroke-width: 0.8; stroke-linecap: square"/>
     </g>
     <g id="line2d_14">
      <defs>
       <path id="mb28a15f496" d="M 0 0 
L -3.5 0 
" style="stroke: #000000; stroke-width: 0.8"/>
      </defs>
      <g>
       <use xlink:href="#mb28a15f496" x="46.98875" y="306.286705" style="stroke: #000000; stroke-width: 0.8"/>
      </g>
     </g>
     <g id="text_8">
      <!-- 0.0 -->
      <g transform="translate(24.98875 309.724205) scale(0.1 -0.1)">
       <defs>
        <path id="UMingCN-2e" d="M 1325 537 
Q 1213 650 1213 812 
Q 1213 975 1325 1087 
Q 1438 1200 1600 1200 
Q 1763 1200 1875 1087 
Q 1988 975 1988 812 
Q 1988 650 1875 537 
Q 1763 425 1600 425 
Q 1438 425 1325 537 
z
" transform="scale(0.015625)"/>
       </defs>
       <use xlink:href="#UMingCN-30"/>
       <use xlink:href="#UMingCN-2e" x="50"/>
       <use xlink:href="#UMingCN-30" x="100"/>
      </g>
     </g>
    </g>
    <g id="ytick_2">
     <g id="line2d_15">
      <path d="M 46.98875 245.53204 
L 421.2 245.53204 
" clip-path="url(#p0ebe8afe2d)" style="fill: none; stroke: #b0b0b0; stroke-opacity: 0.3; stroke-width: 0.8; stroke-linecap: square"/>
     </g>
     <g id="line2d_16">
      <g>
       <use xlink:href="#mb28a15f496" x="46.98875" y="245.53204" style="stroke: #000000; stroke-width: 0.8"/>
      </g>
     </g>
     <g id="text_9">
      <!-- 0.5 -->
      <g transform="translate(24.98875 248.96954) scale(0.1 -0.1)">
       <defs>
        <path id="UMingCN-35" d="M 2688 4338 
L 2550 4025 
L 750 4025 
L 750 2519 
Q 1138 2819 1688 2819 
Q 2156 2819 2481 2544 
Q 2900 2188 2900 1544 
Q 2900 1019 2488 694 
Q 2131 413 1588 413 
Q 1088 413 625 713 
Q 306 919 306 1169 
Q 306 1288 369 1338 
Q 438 1394 519 1394 
Q 594 1394 669 1319 
Q 738 1250 738 1169 
Q 738 1106 700 1069 
Q 669 1038 669 956 
Q 669 894 919 744 
Q 1188 588 1588 588 
Q 1963 588 2238 813 
Q 2575 1088 2575 1544 
Q 2575 2069 2206 2356 
Q 1925 2575 1525 2575 
Q 1150 2575 694 2375 
L 644 2425 
L 644 4338 
L 2688 4338 
z
" transform="scale(0.015625)"/>
       </defs>
       <use xlink:href="#UMingCN-30"/>
       <use xlink:href="#UMingCN-2e" x="50"/>
       <use xlink:href="#UMingCN-35" x="100"/>
      </g>
     </g>
    </g>
    <g id="ytick_3">
     <g id="line2d_17">
      <path d="M 46.98875 184.777376 
L 421.2 184.777376 
" clip-path="url(#p0ebe8afe2d)" style="fill: none; stroke: #b0b0b0; stroke-opacity: 0.3; stroke-width: 0.8; stroke-linecap: square"/>
     </g>
     <g id="line2d_18">
      <g>
       <use xlink:href="#mb28a15f496" x="46.98875" y="184.777376" style="stroke: #000000; stroke-width: 0.8"/>
      </g>
     </g>
     <g id="text_10">
      <!-- 1.0 -->
      <g transform="translate(24.98875 188.214876) scale(0.1 -0.1)">
       <use xlink:href="#UMingCN-31"/>
       <use xlink:href="#UMingCN-2e" x="50"/>
       <use xlink:href="#UMingCN-30" x="100"/>
      </g>
     </g>
    </g>
    <g id="ytick_4">
     <g id="line2d_19">
      <path d="M 46.98875 124.022711 
L 421.2 124.022711 
" clip-path="url(#p0ebe8afe2d)" style="fill: none; stroke: #b0b0b0; stroke-opacity: 0.3; stroke-width: 0.8; stroke-linecap: square"/>
     </g>
     <g id="line2d_20">
      <g>
       <use xlink:href="#mb28a15f496" x="46.98875" y="124.022711" style="stroke: #000000; stroke-width: 0.8"/>
      </g>
     </g>
     <g id="text_11">
      <!-- 1.5 -->
      <g transform="translate(24.98875 127.460211) scale(0.1 -0.1)">
       <use xlink:href="#UMingCN-31"/>
       <use xlink:href="#UMingCN-2e" x="50"/>
       <use xlink:href="#UMingCN-35" x="100"/>
      </g>
     </g>
    </g>
    <g id="ytick_5">
     <g id="line2d_21">
      <path d="M 46.98875 63.268047 
L 421.2 63.268047 
" clip-path="url(#p0ebe8afe2d)" style="fill: none; stroke: #b0b0b0; stroke-opacity: 0.3; stroke-width: 0.8; stroke-linecap: square"/>
     </g>
     <g id="line2d_22">
      <g>
       <use xlink:href="#mb28a15f496" x="46.98875" y="63.268047" style="stroke: #000000; stroke-width: 0.8"/>
      </g>
     </g>
     <g id="text_12">
      <!-- 2.0 -->
      <g transform="translate(24.98875 66.705547) scale(0.1 -0.1)">
       <use xlink:href="#UMingCN-32"/>
       <use xlink:href="#UMingCN-2e" x="50"/>
       <use xlink:href="#UMingCN-30" x="100"/>
      </g>
     </g>
    </g>
    <g id="text_13">
     <!-- 转向角度/rad -->
     <g transform="translate(20.030938 195.57875) rotate(-90) scale(0.1 -0.1)">
      <defs>
       <path id="UMingCN-8f6c" d="M 1038 4319 
Q 1269 5181 1275 5369 
Q 1275 5438 1319 5419 
Q 1519 5319 1731 5181 
Q 1788 5144 1788 5106 
Q 1788 5075 1706 5056 
Q 1675 5056 1656 5038 
Q 1550 4994 1344 4319 
L 1975 4319 
Q 2013 4319 2050 4363 
L 2275 4619 
Q 2319 4663 2363 4619 
Q 2525 4456 2638 4319 
Q 2706 4231 2663 4169 
Q 2631 4131 2550 4125 
L 1975 4125 
L 1288 4125 
Q 1075 3463 956 3088 
Q 850 2819 788 2594 
L 1475 2594 
L 1475 2788 
Q 1469 3288 1444 3588 
Q 1431 3694 1506 3669 
Q 1844 3563 1956 3500 
Q 2044 3456 1944 3400 
Q 1844 3350 1819 3288 
Q 1775 3169 1775 2788 
L 1775 2594 
L 1906 2594 
Q 1975 2594 2038 2656 
L 2244 2894 
Q 2288 2944 2331 2900 
Q 2494 2750 2594 2594 
Q 2663 2494 2644 2450 
Q 2619 2406 2538 2400 
L 1888 2400 
L 1775 2400 
L 1775 1294 
Q 2344 1444 2819 1563 
Q 2913 1588 2919 1531 
Q 2931 1456 2831 1431 
Q 2250 1213 1775 1056 
L 1775 919 
Q 1775 188 1800 -306 
Q 1806 -356 1769 -381 
Q 1681 -438 1506 -550 
Q 1425 -613 1431 -481 
Q 1469 350 1475 919 
L 1475 950 
Q 1194 863 981 800 
Q 713 744 631 625 
Q 588 575 563 569 
Q 538 563 519 619 
Q 456 781 325 900 
Q 250 969 256 988 
Q 269 1006 331 1013 
Q 813 1063 1363 1200 
Q 1413 1219 1475 1225 
L 1475 2400 
L 725 2400 
Q 644 2294 625 2275 
Q 588 2225 563 2269 
Q 488 2388 313 2488 
Q 275 2525 319 2550 
Q 356 2588 413 2613 
Q 550 2700 981 4125 
L 869 4125 
Q 606 4119 413 4081 
Q 363 4063 344 4119 
Q 319 4231 225 4306 
Q 181 4350 200 4375 
Q 225 4394 269 4369 
Q 506 4319 794 4319 
L 1038 4319 
z
M 4538 581 
Q 5044 238 5156 88 
Q 5281 -81 5263 -238 
Q 5250 -388 5213 -463 
Q 5175 -525 5131 -531 
Q 5088 -531 5050 -450 
Q 4656 263 3375 1031 
Q 3325 1063 3350 1119 
Q 3381 1175 3456 1131 
Q 4019 888 4419 656 
Q 4800 1431 5138 2125 
L 3438 2125 
Q 3394 2081 3388 2056 
Q 3363 2006 3325 2044 
Q 3238 2156 3063 2250 
Q 3013 2275 3056 2313 
Q 3150 2369 3188 2406 
Q 3231 2456 3425 3175 
L 3119 3175 
Q 2856 3169 2663 3131 
Q 2613 3113 2594 3169 
Q 2569 3281 2475 3356 
Q 2431 3400 2450 3425 
Q 2475 3444 2519 3419 
Q 2756 3369 3044 3369 
L 3475 3369 
Q 3594 3844 3694 4275 
L 3469 4275 
Q 3206 4269 3013 4231 
Q 2963 4213 2944 4269 
Q 2919 4381 2825 4456 
Q 2781 4500 2800 4525 
Q 2825 4544 2869 4519 
Q 3106 4469 3394 4469 
L 3731 4469 
Q 3838 5150 3838 5325 
Q 3838 5388 3881 5381 
Q 4081 5300 4313 5169 
Q 4375 5144 4375 5100 
Q 4375 5069 4300 5044 
Q 4144 4994 4031 4469 
L 5150 4469 
Q 5188 4469 5225 4513 
L 5450 4769 
Q 5494 4813 5538 4769 
Q 5700 4606 5813 4469 
Q 5881 4381 5838 4319 
Q 5806 4281 5725 4275 
L 5150 4275 
L 3988 4275 
Q 3856 3750 3775 3369 
L 5475 3369 
Q 5513 3369 5550 3413 
L 5775 3669 
Q 5819 3713 5863 3669 
Q 6025 3506 6138 3369 
Q 6206 3281 6163 3219 
Q 6131 3181 6050 3175 
L 5475 3175 
L 3725 3175 
Q 3694 3044 3669 2925 
Q 3556 2581 3513 2319 
L 5163 2319 
Q 5225 2319 5250 2356 
L 5425 2544 
Q 5444 2569 5469 2569 
Q 5538 2569 5819 2194 
Q 5869 2119 5775 2113 
Q 5706 2106 5650 2088 
Q 5288 2044 4538 581 
z
" transform="scale(0.015625)"/>
       <path id="UMingCN-5411" d="M 1200 4000 
L 1200 831 
Q 1194 113 1200 -394 
Q 1194 -456 1150 -475 
Q 919 -581 875 -581 
Q 850 -575 856 -456 
Q 881 169 900 831 
L 900 3856 
Q 894 4056 856 4344 
Q 844 4406 863 4413 
Q 888 4425 950 4363 
Q 1031 4288 1150 4194 
L 2325 4194 
Q 2331 4219 2350 4244 
Q 2500 4538 2563 4788 
Q 2638 5069 2675 5375 
Q 2694 5413 2700 5419 
Q 2719 5438 2763 5419 
Q 2931 5344 3163 5225 
Q 3181 5219 3181 5200 
Q 3181 5175 3156 5169 
Q 2925 4981 2881 4900 
Q 2875 4875 2819 4756 
Q 2719 4531 2513 4194 
L 5094 4194 
Q 5150 4194 5156 4200 
L 5313 4406 
Q 5325 4431 5350 4431 
Q 5375 4431 5400 4406 
Q 5594 4250 5744 4094 
Q 5788 4038 5744 4019 
Q 5538 3919 5519 3894 
Q 5500 3863 5500 3838 
L 5500 19 
Q 5500 -200 5381 -338 
Q 5256 -488 5100 -544 
Q 5025 -575 5006 -550 
Q 4906 -406 4681 -294 
Q 4506 -206 4106 -144 
Q 4044 -131 4044 -69 
Q 4050 -6 4131 -13 
Q 4388 -25 4731 -50 
Q 5081 -69 5144 -25 
Q 5200 -6 5200 106 
L 5200 4000 
L 1200 4000 
z
M 2225 2850 
Q 2219 3013 2213 3131 
Q 2213 3188 2238 3194 
Q 2263 3213 2319 3156 
Q 2400 3075 2513 2994 
L 3700 2994 
Q 3738 2994 3756 3019 
L 3869 3194 
Q 3913 3244 3956 3200 
Q 4138 3081 4313 2944 
Q 4369 2894 4363 2869 
Q 4350 2838 4306 2813 
Q 4144 2738 4138 2694 
Q 4125 2656 4125 2613 
L 4125 1613 
Q 4125 1388 4163 1006 
Q 4169 938 4131 931 
Q 3863 838 3838 844 
Q 3825 850 3825 913 
L 3825 1250 
L 2525 1250 
L 2525 931 
Q 2519 881 2494 875 
Q 2431 850 2294 794 
Q 2200 756 2206 819 
Q 2219 981 2225 1138 
L 2225 2850 
z
M 2525 2800 
L 2525 1444 
L 3825 1444 
L 3825 2800 
L 2525 2800 
z
" transform="scale(0.015625)"/>
       <path id="UMingCN-89d2" d="M 5350 -13 
Q 5331 -213 5213 -350 
Q 5094 -488 4938 -531 
Q 4863 -575 4844 -538 
Q 4731 -388 4500 -275 
Q 4313 -194 3913 -138 
Q 3838 -119 3844 -56 
Q 3844 -6 3925 -13 
Q 4206 -19 4569 -38 
Q 4931 -56 5006 -13 
Q 5050 19 5050 119 
L 5050 1325 
L 3525 1325 
L 3525 1044 
Q 3525 263 3550 -269 
Q 3550 -325 3506 -331 
L 3231 -444 
Q 3175 -456 3181 -356 
Q 3219 475 3225 1044 
L 3225 1325 
L 1738 1325 
Q 1681 906 1513 550 
Q 1256 25 463 -506 
Q 381 -575 325 -500 
Q 281 -444 363 -369 
Q 944 6 1175 444 
Q 1475 1006 1475 1800 
L 1475 3056 
Q 1475 3300 1450 3644 
Q 1044 3231 419 2838 
Q 331 2781 294 2838 
Q 263 2906 325 2950 
Q 1050 3488 1525 4094 
Q 1956 4625 2275 5363 
Q 2306 5419 2350 5394 
Q 2569 5275 2725 5175 
Q 2794 5131 2775 5094 
Q 2756 5069 2731 5063 
Q 2600 5056 2538 5013 
Q 2488 4981 2350 4775 
Q 2319 4738 2294 4694 
L 3913 4694 
Q 3975 4694 4000 4731 
L 4175 4919 
Q 4194 4944 4219 4944 
Q 4244 4944 4263 4919 
Q 4456 4719 4569 4569 
Q 4619 4494 4525 4488 
Q 4356 4463 4256 4419 
Q 4138 4356 3981 4200 
Q 3769 4006 3538 3719 
L 4888 3719 
Q 4950 3719 4975 3756 
L 5131 3931 
Q 5175 3988 5231 3931 
Q 5388 3819 5544 3681 
Q 5594 3625 5569 3600 
Q 5406 3463 5381 3438 
Q 5350 3413 5350 3356 
L 5350 -13 
z
M 3225 1519 
L 3225 2400 
L 1775 2400 
L 1775 1800 
Q 1769 1656 1763 1519 
L 3225 1519 
z
M 3525 2400 
L 3525 1519 
L 5050 1519 
L 5050 2400 
L 3525 2400 
z
M 3225 2594 
L 3225 3525 
L 1775 3525 
L 1775 2594 
L 3225 2594 
z
M 3525 3525 
L 3525 2594 
L 5050 2594 
L 5050 3525 
L 3525 3525 
z
M 3888 4500 
L 2150 4500 
Q 1850 4100 1600 3813 
Q 1663 3763 1725 3719 
L 3363 3719 
Q 3375 3738 3381 3744 
Q 3656 4144 3888 4500 
z
" transform="scale(0.015625)"/>
       <path id="UMingCN-5ea6" d="M 1300 4500 
L 1300 2800 
Q 1294 1781 1100 1006 
Q 913 250 313 -506 
Q 238 -594 175 -531 
Q 125 -488 188 -394 
Q 613 163 781 806 
Q 1000 1631 1000 2800 
L 1000 4056 
Q 1000 4356 963 4831 
Q 950 4894 975 4913 
Q 1006 4925 1050 4881 
Q 1144 4788 1294 4694 
L 3406 4694 
Q 3406 4706 3406 4713 
Q 3369 4919 3288 5069 
Q 3206 5213 3069 5369 
Q 3038 5413 3063 5450 
Q 3088 5488 3163 5444 
Q 3444 5325 3581 5206 
Q 3675 5131 3700 5050 
Q 3713 4931 3631 4744 
Q 3613 4719 3606 4694 
L 5125 4694 
L 5213 4706 
Q 5244 4738 5288 4781 
L 5475 5044 
Q 5519 5100 5575 5044 
Q 5781 4869 5956 4675 
Q 6019 4613 6013 4556 
Q 6000 4506 5919 4500 
L 1300 4500 
z
M 4275 3644 
L 4275 3831 
Q 4269 4019 4250 4175 
Q 4231 4269 4250 4288 
Q 4275 4313 4331 4288 
Q 4575 4181 4725 4100 
Q 4763 4081 4763 4063 
Q 4756 4031 4738 4025 
Q 4625 3969 4600 3931 
Q 4575 3894 4575 3831 
L 4575 3644 
L 5150 3644 
Q 5225 3644 5250 3663 
Q 5288 3688 5331 3744 
L 5481 3963 
Q 5531 4019 5575 3963 
Q 5756 3800 5931 3625 
Q 6000 3550 5994 3506 
Q 5981 3456 5900 3450 
L 4575 3450 
L 4575 2681 
Q 4581 2569 4588 2400 
Q 4594 2344 4550 2319 
Q 4275 2188 4250 2194 
Q 4231 2213 4250 2275 
Q 4263 2388 4269 2525 
L 2925 2525 
Q 2931 2456 2938 2375 
Q 2944 2319 2900 2294 
Q 2625 2163 2600 2169 
Q 2581 2188 2600 2250 
Q 2619 2406 2625 2656 
L 2625 3450 
L 2088 3450 
Q 1919 3450 1706 3406 
Q 1675 3400 1669 3419 
Q 1588 3544 1525 3644 
Q 1488 3706 1569 3688 
Q 1950 3650 1994 3644 
L 2625 3644 
L 2625 3831 
Q 2619 4019 2600 4175 
Q 2581 4269 2600 4288 
Q 2625 4313 2681 4288 
Q 2925 4181 3075 4100 
Q 3113 4081 3113 4063 
Q 3106 4031 3088 4025 
Q 2975 3969 2950 3931 
Q 2925 3894 2925 3831 
L 2925 3644 
L 4275 3644 
z
M 4275 3450 
L 2925 3450 
L 2925 2719 
L 4275 2719 
L 4275 3450 
z
M 2269 1944 
L 4388 1944 
Q 4456 1950 4481 1975 
L 4650 2144 
Q 4675 2169 4694 2169 
Q 4713 2169 4738 2144 
Q 4938 1963 5056 1806 
Q 5100 1750 5075 1725 
Q 5050 1706 4994 1713 
Q 4925 1738 4850 1719 
Q 4794 1700 4656 1494 
Q 4231 913 3850 538 
Q 4188 319 4619 181 
Q 5150 13 5869 -25 
Q 5956 -31 6031 -31 
Q 6075 -38 6075 -81 
Q 6081 -131 6044 -138 
Q 5919 -175 5800 -275 
Q 5675 -369 5619 -481 
Q 5581 -531 5519 -513 
Q 4613 -238 4138 44 
Q 3869 194 3656 363 
Q 3313 94 2806 -119 
Q 2081 -425 1213 -556 
Q 1113 -581 1094 -488 
Q 1069 -400 1169 -375 
Q 1913 -263 2438 -38 
Q 2969 194 3419 556 
Q 3375 600 3350 625 
Q 2981 988 2588 1719 
Q 2575 1744 2575 1750 
L 2363 1750 
Q 2194 1750 1981 1706 
Q 1950 1700 1944 1719 
Q 1863 1838 1800 1938 
Q 1763 2000 1844 1981 
Q 2225 1950 2269 1944 
z
M 4450 1750 
L 2731 1750 
Q 3138 1075 3594 713 
Q 4031 1113 4450 1750 
z
" transform="scale(0.015625)"/>
       <path id="UMingCN-72" d="M 1069 844 
Q 1069 581 1444 581 
L 1444 475 
L 369 475 
L 369 581 
Q 744 581 744 844 
L 744 2394 
Q 744 2519 650 2569 
Q 550 2625 306 2625 
L 306 2731 
L 1000 3094 
L 1069 3094 
L 1069 2406 
Q 1294 2700 1519 2850 
Q 1881 3094 2100 3094 
Q 2356 3094 2569 2950 
Q 2756 2825 2756 2681 
Q 2756 2550 2675 2469 
Q 2600 2394 2531 2394 
Q 2456 2394 2406 2500 
Q 2250 2831 1931 2831 
Q 1744 2831 1494 2650 
Q 1275 2488 1069 2219 
L 1069 844 
z
" transform="scale(0.015625)"/>
       <path id="UMingCN-61" d="M 2556 806 
Q 2556 694 2706 694 
Q 2769 694 2919 769 
L 2994 675 
Q 2731 413 2481 413 
Q 2363 413 2300 488 
Q 2231 569 2231 719 
L 2231 856 
Q 2069 706 1894 606 
Q 1519 413 1063 413 
Q 713 419 481 594 
Q 213 800 213 1144 
Q 213 1538 625 1769 
Q 1019 1981 1631 1981 
Q 1944 1981 2231 1850 
L 2231 2413 
Q 2231 2663 2019 2794 
Q 1806 2919 1488 2919 
Q 1344 2913 1169 2869 
Q 981 2806 981 2544 
Q 975 2431 900 2388 
Q 819 2344 744 2344 
Q 669 2356 606 2400 
Q 538 2463 538 2544 
Q 538 2763 800 2925 
Q 1075 3094 1488 3094 
Q 1956 3094 2256 2856 
Q 2556 2619 2556 2244 
L 2556 806 
z
M 1969 1788 
Q 1275 1788 913 1619 
Q 538 1438 538 1144 
Q 538 906 725 781 
Q 919 656 1294 656 
Q 1581 663 1863 800 
Q 2075 919 2231 1075 
L 2231 1756 
L 1969 1788 
z
" transform="scale(0.015625)"/>
       <path id="UMingCN-64" d="M 2650 781 
Q 2650 594 2869 594 
L 2869 506 
L 2325 413 
L 2325 769 
Q 2225 688 2094 606 
Q 1788 413 1519 413 
Q 1031 413 731 750 
Q 338 1175 338 1775 
Q 338 2269 750 2688 
Q 1088 3031 1650 3031 
Q 1913 3031 2163 2938 
Q 2250 2900 2325 2856 
L 2325 3631 
Q 2325 3944 1856 3944 
L 1856 4050 
L 2581 4400 
L 2650 4400 
L 2650 781 
z
M 2325 963 
L 2325 2650 
Q 2238 2756 2138 2800 
Q 1913 2894 1650 2894 
Q 1225 2894 975 2631 
Q 663 2306 663 1775 
Q 663 1219 938 913 
Q 1200 625 1481 625 
Q 1719 625 2019 763 
Q 2206 863 2325 963 
z
" transform="scale(0.015625)"/>
      </defs>
      <use xlink:href="#UMingCN-8f6c"/>
      <use xlink:href="#UMingCN-5411" x="100"/>
      <use xlink:href="#UMingCN-89d2" x="200"/>
      <use xlink:href="#UMingCN-5ea6" x="300"/>
      <use xlink:href="#UMingCN-2f" x="400"/>
      <use xlink:href="#UMingCN-72" x="450"/>
      <use xlink:href="#UMingCN-61" x="500"/>
      <use xlink:href="#UMingCN-64" x="550"/>
     </g>
    </g>
   </g>
   <g id="line2d_23">
    <path d="M 63.998352 150.642138 
L 67.301188 194.698656 
L 70.604023 235.653874 
L 73.906858 262.600647 
L 77.209694 298.77687 
L 80.512529 306.286705 
L 83.815365 272.629898 
L 87.1182 306.286705 
L 90.421035 284.293031 
L 93.723871 306.286705 
L 97.026706 284.565054 
L 100.329542 306.286705 
L 103.632377 289.58598 
L 106.935212 306.286705 
L 110.238048 280.082843 
L 113.540883 306.286705 
L 116.843719 261.341082 
L 120.146554 306.286705 
L 123.449389 290.493881 
L 126.752225 306.286705 
L 130.05506 306.286705 
L 133.357896 287.274539 
L 136.660731 306.286705 
L 139.963566 306.286705 
L 143.266402 281.700574 
L 146.569237 306.286705 
L 149.872072 306.286705 
L 153.174908 281.135399 
L 156.477743 306.286705 
L 159.780579 234.998621 
L 163.083414 263.070309 
L 166.386249 306.286705 
L 169.689085 287.631515 
L 172.99192 306.286705 
L 176.294756 282.036111 
L 179.597591 306.286705 
L 182.900426 306.286705 
L 186.203262 286.938761 
L 189.506097 306.286705 
L 192.808933 306.286705 
L 196.111768 296.77458 
L 199.414603 306.286705 
L 202.717439 306.286705 
L 206.020274 278.082525 
L 209.32311 289.671859 
L 212.625945 275.969627 
L 215.92878 306.286705 
L 219.231616 306.286705 
L 222.534451 293.15199 
L 225.837287 306.286705 
L 229.140122 306.286705 
" clip-path="url(#p0ebe8afe2d)" style="fill: none; stroke: #1f77b4; stroke-width: 1.5; stroke-linecap: square"/>
   </g>
   <g id="line2d_24">
    <path d="M 63.998352 85.378546 
L 67.301188 110.503655 
L 70.604023 135.155371 
L 73.906858 157.934428 
L 77.209694 175.505226 
L 80.512529 290.587723 
L 83.815365 306.286705 
L 87.1182 273.044658 
L 90.421035 306.286705 
L 93.723871 306.286705 
L 97.026706 306.286705 
L 100.329542 294.833404 
L 103.632377 306.286705 
L 106.935212 293.895416 
L 110.238048 294.046934 
L 113.540883 306.286705 
L 116.843719 290.699545 
L 120.146554 306.286705 
L 123.449389 306.286705 
L 126.752225 301.257756 
L 130.05506 306.286705 
L 133.357896 298.558682 
L 136.660731 306.286705 
L 139.963566 306.286705 
L 143.266402 306.286705 
L 146.569237 303.537388 
L 149.872072 306.286705 
L 153.174908 306.286705 
L 156.477743 305.69002 
L 159.780579 258.492032 
L 163.083414 306.286705 
L 166.386249 254.431983 
L 169.689085 306.286705 
L 172.99192 306.286705 
L 176.294756 294.392607 
L 179.597591 306.286705 
L 182.900426 302.580462 
L 186.203262 306.286705 
L 189.506097 306.286705 
L 192.808933 285.192651 
L 196.111768 306.286705 
L 199.414603 306.286705 
L 202.717439 306.286705 
L 206.020274 293.134954 
L 209.32311 291.375399 
L 212.625945 306.286705 
L 215.92878 306.286705 
L 219.231616 306.286705 
L 222.534451 304.13266 
L 225.837287 306.286705 
L 229.140122 306.286705 
L 232.442957 295.434453 
L 235.745793 306.286705 
L 239.048628 306.286705 
L 242.351463 306.286705 
L 245.654299 306.286705 
L 248.957134 306.286705 
L 252.25997 302.230999 
L 255.562805 306.286705 
L 258.86564 276.466997 
L 262.168476 306.286705 
L 265.471311 306.286705 
L 268.774147 270.333061 
L 272.076982 306.286705 
L 275.379817 306.286705 
L 278.682653 306.286705 
L 281.985488 294.067908 
L 285.288324 306.286705 
L 288.591159 306.286705 
L 291.893994 306.286705 
L 295.19683 261.705787 
L 298.499665 306.286705 
L 301.802501 306.286705 
L 305.105336 274.355078 
L 308.408171 245.599334 
L 311.711007 254.087609 
L 315.013842 306.286705 
L 318.316678 306.286705 
L 321.619513 306.286705 
L 324.922348 288.34575 
L 328.225184 306.286705 
L 331.528019 306.286705 
L 334.830854 306.286705 
L 338.13369 291.009332 
L 341.436525 306.286705 
L 344.739361 306.286705 
L 348.042196 306.286705 
L 351.345031 289.490476 
L 354.647867 306.286705 
L 357.950702 269.116422 
L 361.253538 278.472094 
L 364.556373 306.286705 
L 367.859208 306.286705 
L 371.162044 306.286705 
L 374.464879 306.286705 
L 377.767715 293.595067 
L 381.07055 306.286705 
L 384.373385 306.286705 
L 387.676221 286.698042 
L 390.979056 306.286705 
L 394.281892 306.286705 
L 397.584727 306.286705 
L 400.887562 306.286705 
L 404.190398 190.608858 
" clip-path="url(#p0ebe8afe2d)" style="fill: none; stroke: #ff7f0e; stroke-width: 1.5; stroke-linecap: square"/>
   </g>
   <g id="line2d_25">
    <path d="M 63.998352 88.154828 
L 67.301188 109.623662 
L 70.604023 89.819143 
L 73.906858 50.865921 
L 77.209694 24.870795 
L 80.512529 25.882705 
L 83.815365 38.965892 
L 87.1182 57.418086 
L 90.421035 78.296402 
L 93.723871 99.973793 
L 97.026706 121.137957 
L 100.329542 140.086006 
L 103.632377 153.479133 
L 106.935212 152.544659 
L 110.238048 199.473083 
L 113.540883 231.116909 
L 116.843719 271.947623 
L 120.146554 253.850992 
L 123.449389 306.286705 
" clip-path="url(#p0ebe8afe2d)" style="fill: none; stroke: #2ca02c; stroke-width: 1.5; stroke-linecap: square"/>
   </g>
   <g id="patch_3">
    <path d="M 46.98875 320.3575 
L 46.98875 10.8 
" style="fill: none; stroke: #000000; stroke-width: 0.8; stroke-linejoin: miter; stroke-linecap: square"/>
   </g>
   <g id="patch_4">
    <path d="M 421.2 320.3575 
L 421.2 10.8 
" style="fill: none; stroke: #000000; stroke-width: 0.8; stroke-linejoin: miter; stroke-linecap: square"/>
   </g>
   <g id="patch_5">
    <path d="M 46.98875 320.3575 
L 421.2 320.3575 
" style="fill: none; stroke: #000000; stroke-width: 0.8; stroke-linejoin: miter; stroke-linecap: square"/>
   </g>
   <g id="patch_6">
    <path d="M 46.98875 10.8 
L 421.2 10.8 
" style="fill: none; stroke: #000000; stroke-width: 0.8; stroke-linejoin: miter; stroke-linecap: square"/>
   </g>
   <g id="legend_1">
    <g id="patch_7">
     <path d="M 342.2 61.835938 
L 414.2 61.835938 
Q 416.2 61.835938 416.2 59.835938 
L 416.2 17.8 
Q 416.2 15.8 414.2 15.8 
L 342.2 15.8 
Q 340.2 15.8 340.2 17.8 
L 340.2 59.835938 
Q 340.2 61.835938 342.2 61.835938 
z
" style="fill: #ffffff; opacity: 0.8; stroke: #cccccc; stroke-linejoin: miter"/>
    </g>
    <g id="line2d_26">
     <path d="M 344.2 24.776563 
L 354.2 24.776563 
L 364.2 24.776563 
" style="fill: none; stroke: #1f77b4; stroke-width: 1.5; stroke-linecap: square"/>
    </g>
    <g id="text_14">
     <!-- 无人机 0 -->
     <g transform="translate(372.2 28.276563) scale(0.1 -0.1)">
      <defs>
       <path id="UMingCN-65e0" d="M 4650 4744 
Q 4738 4750 4838 4863 
L 5000 5094 
Q 5044 5150 5100 5094 
Q 5544 4700 5538 4606 
Q 5525 4556 5444 4550 
L 4663 4550 
L 3138 4550 
Q 3094 3725 3000 3044 
L 5150 3044 
Q 5238 3050 5338 3163 
L 5500 3394 
Q 5544 3450 5600 3394 
Q 6044 3000 6038 2906 
Q 6025 2856 5944 2850 
L 5163 2850 
L 3775 2850 
L 3775 31 
Q 3781 -44 3788 -69 
Q 3800 -94 3894 -94 
L 5394 -94 
Q 5500 -81 5544 -56 
Q 5738 63 5813 944 
Q 5819 1031 5900 1025 
Q 5981 1019 5975 925 
Q 5906 363 5944 175 
Q 5988 38 6088 -25 
Q 6125 -56 6100 -94 
Q 5956 -338 5525 -356 
L 3863 -356 
Q 3594 -356 3538 -281 
Q 3475 -206 3475 -50 
L 3475 2850 
L 2969 2850 
Q 2750 1544 2238 806 
Q 1688 81 413 -500 
Q 281 -556 256 -475 
Q 238 -394 356 -338 
Q 1294 63 1894 775 
Q 2463 1519 2675 2850 
L 994 2850 
Q 731 2844 538 2806 
Q 481 2788 475 2844 
Q 444 2956 350 3038 
Q 300 3081 325 3106 
Q 350 3125 394 3100 
Q 631 3044 919 3044 
L 2700 3044 
Q 2794 3725 2800 4550 
L 1619 4550 
Q 1356 4544 1163 4506 
Q 1106 4488 1100 4544 
Q 1069 4656 975 4738 
Q 925 4781 950 4806 
Q 975 4825 1019 4800 
Q 1256 4744 1544 4744 
L 4650 4744 
z
" transform="scale(0.015625)"/>
       <path id="UMingCN-4eba" d="M 3675 3088 
Q 3888 2269 4206 1700 
Q 4600 1025 5106 556 
Q 5525 181 6094 -106 
Q 6138 -125 6181 -150 
Q 6219 -169 6200 -225 
Q 6181 -275 6106 -256 
Q 6006 -231 5875 -275 
Q 5731 -331 5650 -413 
Q 5613 -438 5569 -394 
Q 4963 119 4563 613 
Q 4219 1031 3994 1500 
Q 3713 2081 3519 2925 
Q 3363 3556 3263 4250 
Q 3125 2919 2875 2163 
Q 2606 1331 2119 763 
Q 1544 94 319 -450 
Q 238 -488 213 -413 
Q 181 -344 263 -300 
Q 1431 294 2038 1088 
Q 2606 1844 2819 3144 
Q 3006 4281 2981 5225 
Q 2975 5269 3000 5288 
Q 3025 5300 3069 5294 
Q 3350 5219 3575 5119 
Q 3619 5094 3613 5069 
Q 3606 5050 3563 5031 
Q 3388 4988 3363 4963 
Q 3338 4944 3331 4919 
Q 3444 4044 3675 3088 
z
" transform="scale(0.015625)"/>
       <path id="UMingCN-673a" d="M 4600 4850 
L 3431 4850 
L 3431 3844 
Q 3431 2569 3338 1706 
Q 3269 969 3000 513 
Q 2694 -25 2131 -444 
Q 2050 -500 2006 -438 
Q 1969 -375 2025 -331 
Q 2475 75 2700 475 
Q 2944 925 3044 1663 
Q 3131 2375 3131 3563 
L 3131 4694 
Q 3125 4931 3069 5181 
Q 3063 5231 3088 5250 
Q 3119 5256 3163 5213 
Q 3250 5125 3388 5044 
L 4500 5044 
Q 4544 5050 4563 5075 
L 4744 5263 
Q 4763 5288 4788 5288 
Q 4806 5281 4831 5256 
Q 4988 5100 5106 4944 
Q 5138 4900 5100 4881 
Q 4938 4806 4919 4781 
Q 4900 4750 4900 4725 
L 4900 156 
Q 4900 25 4963 -19 
Q 5019 -75 5119 -75 
Q 5194 -75 5231 -75 
L 5525 -75 
Q 5613 -75 5675 -38 
Q 5744 0 5788 138 
Q 5888 413 6000 1013 
Q 6006 1088 6069 1081 
Q 6131 1069 6125 1006 
Q 6069 475 6113 231 
Q 6138 88 6213 44 
Q 6244 25 6219 -13 
Q 6156 -194 6044 -269 
Q 5906 -375 5700 -375 
L 5088 -375 
Q 5050 -375 4956 -375 
Q 4825 -375 4713 -275 
Q 4600 -181 4600 88 
L 4600 4850 
z
M 1675 969 
Q 1675 188 1700 -344 
Q 1700 -400 1656 -406 
L 1381 -519 
Q 1325 -531 1331 -431 
Q 1369 400 1375 969 
L 1375 2556 
Q 1431 2913 1469 3238 
Q 1475 3269 1450 3275 
Q 1419 3281 1413 3256 
Q 1363 2963 1300 2656 
Q 1213 2450 1081 2169 
Q 856 1694 350 1000 
Q 288 925 244 981 
Q 194 1025 231 1081 
Q 669 1681 975 2506 
Q 1225 3194 1325 3725 
L 788 3725 
Q 619 3725 406 3681 
Q 375 3675 369 3694 
Q 288 3813 225 3913 
Q 188 3975 269 3956 
Q 650 3925 694 3919 
L 1375 3919 
L 1375 4513 
Q 1369 5013 1344 5313 
Q 1338 5425 1400 5400 
Q 1750 5288 1881 5213 
Q 1950 5163 1888 5138 
Q 1694 5031 1688 5006 
Q 1675 4981 1675 4513 
L 1675 3919 
L 2125 3919 
Q 2163 3919 2200 3963 
L 2425 4219 
Q 2469 4263 2513 4219 
Q 2675 4056 2788 3919 
Q 2856 3831 2813 3769 
Q 2781 3731 2700 3725 
L 1675 3725 
L 1675 3038 
Q 1694 3031 1700 3025 
Q 2125 2800 2356 2588 
Q 2531 2438 2538 2338 
Q 2544 2188 2463 2094 
Q 2375 2000 2338 2000 
Q 2300 1994 2244 2125 
Q 2113 2369 1975 2563 
Q 1831 2756 1675 2875 
L 1675 969 
z
" transform="scale(0.015625)"/>
       <path id="UMingCN-20" transform="scale(0.015625)"/>
      </defs>
      <use xlink:href="#UMingCN-65e0"/>
      <use xlink:href="#UMingCN-4eba" x="100"/>
      <use xlink:href="#UMingCN-673a" x="200"/>
      <use xlink:href="#UMingCN-20" x="300"/>
      <use xlink:href="#UMingCN-30" x="350"/>
     </g>
    </g>
    <g id="line2d_27">
     <path d="M 344.2 39.121875 
L 354.2 39.121875 
L 364.2 39.121875 
" style="fill: none; stroke: #ff7f0e; stroke-width: 1.5; stroke-linecap: square"/>
    </g>
    <g id="text_15">
     <!-- 无人机 1 -->
     <g transform="translate(372.2 42.621875) scale(0.1 -0.1)">
      <use xlink:href="#UMingCN-65e0"/>
      <use xlink:href="#UMingCN-4eba" x="100"/>
      <use xlink:href="#UMingCN-673a" x="200"/>
      <use xlink:href="#UMingCN-20" x="300"/>
      <use xlink:href="#UMingCN-31" x="350"/>
     </g>
    </g>
    <g id="line2d_28">
     <path d="M 344.2 53.467188 
L 354.2 53.467188 
L 364.2 53.467188 
" style="fill: none; stroke: #2ca02c; stroke-width: 1.5; stroke-linecap: square"/>
    </g>
    <g id="text_16">
     <!-- 无人机 2 -->
     <g transform="translate(372.2 56.967188) scale(0.1 -0.1)">
      <use xlink:href="#UMingCN-65e0"/>
      <use xlink:href="#UMingCN-4eba" x="100"/>
      <use xlink:href="#UMingCN-673a" x="200"/>
      <use xlink:href="#UMingCN-20" x="300"/>
      <use xlink:href="#UMingCN-32" x="350"/>
     </g>
    </g>
   </g>
  </g>
 </g>
 <defs>
  <clipPath id="p0ebe8afe2d">
   <rect x="46.98875" y="10.8" width="374.21125" height="309.5575"/>
  </clipPath>
 </defs>
</svg>
